<svg xmlns="http://www.w3.org/2000/svg" xmlns:xlink="http://www.w3.org/1999/xlink" width="200" zoomAndPan="magnify" viewBox="0 0 150 74.999997" height="100" preserveAspectRatio="xMidYMid meet" version="1.0"><defs><clipPath id="530418ed2a"><path d="M 47.738281 7.5 L 102.488281 7.5 L 102.488281 67.5 L 47.738281 67.5 Z M 47.738281 7.5 " clip-rule="nonzero"/></clipPath></defs><g clip-path="url(#530418ed2a)"><path fill="#000000" d="M 101.402344 50.0625 C 100.984375 49.292969 100.355469 48.492188 99.566406 48.070312 C 98.625 47.566406 97.472656 47.738281 96.449219 47.566406 C 95.289062 47.375 94.066406 47.144531 93.070312 46.484375 C 92.703125 46.242188 92.351562 45.980469 91.980469 45.75 C 90.898438 45.074219 89.789062 44.445312 88.675781 43.820312 C 85.957031 42.285156 83.210938 40.804688 80.460938 39.324219 C 79.589844 38.859375 78.71875 38.394531 77.847656 37.921875 C 77.4375 37.703125 77.035156 37.460938 76.601562 37.285156 C 75.5625 36.855469 74.359375 36.941406 73.261719 37.054688 C 72.351562 37.144531 71.445312 37.296875 70.546875 37.480469 C 71.613281 36.105469 72.683594 34.730469 73.757812 33.355469 C 75.226562 31.476562 76.703125 29.605469 78.191406 27.738281 C 79.625 25.941406 81.066406 24.15625 82.527344 22.378906 C 83.816406 20.8125 85.121094 19.253906 86.453125 17.71875 C 87.699219 16.28125 88.980469 14.882812 90.296875 13.511719 C 91.703125 12.054688 93.121094 10.609375 94.550781 9.171875 C 94.636719 9.085938 94.722656 9 94.808594 8.914062 C 94.875 8.847656 94.878906 8.753906 94.839844 8.667969 C 94.640625 8.253906 94.378906 7.851562 93.941406 7.652344 C 93.738281 7.558594 93.546875 7.503906 93.351562 7.632812 C 93.242188 7.707031 93.140625 7.804688 93.042969 7.890625 C 92.597656 8.273438 92.164062 8.675781 91.742188 9.082031 C 90.652344 10.128906 89.605469 11.21875 88.578125 12.324219 C 85.984375 15.097656 83.488281 17.960938 81.019531 20.84375 C 78.625 23.640625 76.261719 26.460938 73.921875 29.304688 C 72.539062 30.976562 71.164062 32.652344 69.808594 34.351562 C 68.78125 35.636719 67.773438 36.941406 66.785156 38.257812 C 65.703125 38.285156 64.792969 38.726562 63.980469 39.421875 C 63.570312 39.773438 63.191406 40.160156 62.796875 40.53125 C 62.332031 40.964844 61.828125 41.347656 61.335938 41.75 C 60.210938 42.679688 59.136719 43.664062 58.066406 44.652344 C 57.527344 45.148438 56.988281 45.644531 56.445312 46.132812 C 55.976562 46.554688 55.511719 46.957031 55.128906 47.460938 C 54.417969 48.402344 53.964844 49.507812 53.539062 50.597656 C 53.320312 51.15625 53.109375 51.714844 52.867188 52.261719 C 52.621094 52.824219 52.269531 53.324219 51.9375 53.839844 C 51.589844 54.378906 50.640625 55.785156 51.566406 56.257812 C 51.894531 56.425781 52.304688 56.375 52.648438 56.308594 C 53.0625 56.222656 53.457031 56.0625 53.832031 55.867188 C 53.988281 55.78125 54.144531 55.691406 54.296875 55.597656 C 54.273438 55.632812 54.246094 55.671875 54.222656 55.707031 C 53.742188 56.382812 53.285156 57.082031 52.835938 57.78125 C 52.003906 59.070312 51.1875 60.371094 50.339844 61.652344 C 49.488281 62.933594 48.664062 64.234375 47.863281 65.546875 C 47.734375 65.757812 48.046875 65.953125 48.195312 65.777344 C 48.226562 65.789062 48.265625 65.789062 48.308594 65.773438 C 48.800781 65.589844 49.28125 65.375 49.746094 65.132812 C 50.023438 64.988281 50.378906 64.863281 50.5625 64.597656 C 50.890625 64.128906 51.207031 63.65625 51.515625 63.175781 C 51.601562 63.042969 51.691406 62.914062 51.777344 62.78125 C 53.371094 62.761719 54.886719 62.121094 55.855469 60.828125 C 56.402344 60.09375 56.652344 59.214844 56.972656 58.371094 C 57.265625 57.601562 57.800781 56.96875 58.300781 56.324219 C 58.445312 56.4375 58.59375 56.542969 58.75 56.632812 C 59.242188 56.921875 59.789062 57.097656 60.347656 57.195312 C 60.335938 58.078125 60.238281 58.953125 60.21875 59.835938 C 60.203125 60.734375 60.300781 61.609375 60.554688 62.476562 C 60.804688 63.324219 61.15625 64.140625 61.476562 64.964844 C 61.640625 65.382812 61.765625 65.820312 61.9375 66.234375 C 62.046875 66.503906 62.289062 66.699219 62.578125 66.746094 C 62.9375 66.800781 63.367188 66.617188 63.6875 66.46875 C 64.050781 66.296875 64.386719 66.050781 64.648438 65.742188 C 64.691406 65.691406 64.734375 65.636719 64.773438 65.582031 C 64.8125 65.71875 64.855469 65.851562 64.910156 66.015625 C 65.007812 66.320312 65.089844 66.65625 65.234375 66.945312 C 65.464844 67.40625 65.929688 67.5 66.40625 67.472656 C 66.867188 67.445312 67.308594 67.328125 67.671875 67.035156 C 68.097656 66.695312 68.390625 66.183594 68.550781 65.671875 C 68.878906 64.632812 68.839844 63.425781 68.542969 62.386719 C 68.382812 61.824219 68.179688 61.261719 68.207031 60.671875 C 68.226562 60.121094 68.378906 59.578125 68.542969 59.054688 C 68.875 58 69.328125 56.742188 70.4375 56.277344 C 70.625 56.273438 70.8125 56.277344 71 56.292969 C 71.652344 56.339844 72.277344 56.535156 72.882812 56.769531 C 73.855469 57.148438 74.816406 57.5625 75.785156 57.945312 C 76.597656 58.269531 77.410156 58.609375 78.21875 58.949219 C 79.9375 59.667969 81.65625 60.417969 83.417969 61.03125 C 85.390625 61.71875 87.527344 61.667969 89.566406 61.34375 C 90.855469 61.140625 92.121094 60.8125 93.40625 60.574219 C 94.175781 60.433594 94.914062 60.394531 95.695312 60.410156 C 96.523438 60.429688 97.351562 60.476562 98.175781 60.535156 C 98.675781 60.570312 99.179688 60.644531 99.679688 60.65625 C 99.734375 60.65625 99.773438 60.664062 99.828125 60.632812 C 99.933594 60.578125 100.019531 60.433594 100.097656 60.34375 C 100.207031 60.210938 100.3125 60.074219 100.414062 59.933594 C 100.765625 59.441406 101.050781 58.902344 101.300781 58.351562 C 101.707031 57.445312 102.046875 56.527344 102.199219 55.542969 C 102.488281 53.710938 102.300781 51.714844 101.402344 50.0625 Z M 54.269531 55.132812 C 53.636719 55.554688 52.792969 56.035156 51.996094 55.960938 C 50.976562 55.863281 52.183594 54.203125 52.425781 53.832031 C 52.730469 53.367188 53.027344 52.90625 53.25 52.398438 C 53.460938 51.910156 53.652344 51.417969 53.84375 50.925781 C 54.25 49.886719 54.664062 48.835938 55.304688 47.914062 C 55.628906 47.441406 56.019531 47.054688 56.445312 46.675781 C 56.957031 46.21875 57.464844 45.757812 57.96875 45.292969 C 58.957031 44.382812 59.941406 43.46875 60.960938 42.59375 C 61.515625 42.121094 62.097656 41.679688 62.652344 41.207031 C 63.082031 40.835938 63.476562 40.433594 63.890625 40.046875 C 64.644531 39.34375 65.453125 38.804688 66.464844 38.6875 C 65.988281 39.324219 65.515625 39.96875 65.046875 40.617188 C 64.109375 41.90625 63.210938 43.21875 62.265625 44.5 C 61.316406 45.785156 60.335938 47.046875 59.355469 48.308594 C 58.980469 48.789062 58.601562 49.273438 58.226562 49.757812 C 58.144531 49.613281 57.859375 49.648438 57.847656 49.863281 C 57.777344 50.9375 57.285156 51.941406 56.667969 52.808594 C 56.023438 53.714844 55.199219 54.515625 54.269531 55.132812 Z M 51.554688 62.390625 C 51.160156 62.953125 50.796875 63.539062 50.410156 64.105469 C 50.34375 64.207031 50.277344 64.324219 50.199219 64.417969 C 50.113281 64.507812 49.96875 64.550781 49.824219 64.632812 C 49.402344 64.863281 48.96875 65.074219 48.519531 65.257812 C 49.566406 63.574219 50.679688 61.929688 51.746094 60.253906 C 52.605469 58.898438 53.449219 57.527344 54.367188 56.203125 C 54.726562 55.683594 55.089844 55.109375 55.566406 54.683594 C 55.601562 54.652344 55.617188 54.621094 55.625 54.585938 C 56.046875 54.199219 56.4375 53.773438 56.78125 53.328125 C 57.449219 52.464844 58 51.464844 58.1875 50.386719 C 58.234375 50.375 58.277344 50.351562 58.308594 50.308594 C 60.1875 47.878906 62.105469 45.476562 63.871094 42.964844 C 65.632812 40.460938 67.457031 38 69.347656 35.589844 C 70.59375 33.996094 71.875 32.433594 73.15625 30.871094 C 75.289062 28.265625 77.445312 25.675781 79.621094 23.109375 C 82.050781 20.238281 84.507812 17.390625 87.03125 14.605469 C 88.976562 12.453125 90.941406 10.277344 93.121094 8.355469 C 93.277344 8.222656 93.429688 8.070312 93.601562 7.960938 C 93.996094 8.074219 94.234375 8.382812 94.421875 8.734375 C 93.363281 9.792969 92.3125 10.863281 91.265625 11.933594 C 89.824219 13.410156 88.398438 14.898438 87.035156 16.441406 C 85.746094 17.902344 84.488281 19.386719 83.242188 20.882812 C 81.804688 22.613281 80.386719 24.359375 78.976562 26.113281 C 77.492188 27.96875 76.015625 29.832031 74.546875 31.699219 C 73.09375 33.550781 71.644531 35.40625 70.203125 37.265625 C 70.109375 37.386719 70.015625 37.511719 69.921875 37.632812 C 69.894531 37.648438 69.878906 37.675781 69.867188 37.703125 C 68.636719 39.292969 67.40625 40.882812 66.179688 42.476562 C 65.050781 43.945312 63.921875 45.417969 62.792969 46.886719 C 61.964844 47.964844 61.136719 49.042969 60.300781 50.113281 C 59.859375 50.679688 59.425781 51.261719 58.949219 51.800781 C 58.910156 51.84375 58.871094 51.890625 58.828125 51.929688 C 58.816406 51.9375 58.808594 51.949219 58.800781 51.957031 C 58.375 52.113281 57.972656 52.316406 57.621094 52.609375 C 57.078125 53.0625 56.875 53.710938 57.015625 54.367188 C 56.996094 54.382812 56.976562 54.398438 56.960938 54.421875 C 55.675781 56.140625 54.476562 57.921875 53.355469 59.75 C 52.796875 60.660156 52.171875 61.515625 51.554688 62.390625 Z M 66.519531 50.4375 C 65.699219 50.445312 64.886719 50.472656 64.074219 50.617188 C 63.617188 50.695312 63.167969 50.800781 62.71875 50.914062 C 63.804688 50.113281 65.125 49.667969 66.296875 49.011719 C 66.261719 49.492188 66.292969 50.003906 66.519531 50.4375 Z M 66.347656 48.519531 C 66.332031 48.523438 66.320312 48.527344 66.304688 48.539062 C 64.832031 49.417969 63.105469 49.898438 61.855469 51.113281 C 61.84375 51.125 61.832031 51.136719 61.824219 51.148438 C 61.285156 51.292969 60.746094 51.441406 60.203125 51.570312 C 59.992188 51.621094 59.777344 51.671875 59.566406 51.726562 C 59.761719 51.476562 59.945312 51.214844 60.132812 50.976562 C 60.640625 50.332031 61.140625 49.6875 61.640625 49.039062 C 61.664062 49.035156 61.691406 49.03125 61.714844 49.015625 C 63.375 48.117188 65.105469 47.347656 66.699219 46.335938 C 66.691406 46.503906 66.675781 46.667969 66.648438 46.835938 C 66.554688 47.398438 66.425781 47.953125 66.347656 48.519531 Z M 56.699219 57.976562 C 56.347656 58.761719 56.164062 59.601562 55.703125 60.335938 C 54.90625 61.605469 53.523438 62.269531 52.066406 62.367188 C 52.507812 61.742188 52.96875 61.128906 53.378906 60.484375 C 53.96875 59.550781 54.539062 58.609375 55.148438 57.691406 C 55.796875 56.71875 56.46875 55.761719 57.164062 54.824219 C 57.359375 55.28125 57.648438 55.703125 58.003906 56.054688 C 57.527344 56.667969 57.015625 57.265625 56.699219 57.976562 Z M 64.667969 64.976562 C 64.335938 65.652344 63.71875 66.09375 63 66.292969 C 62.785156 66.351562 62.550781 66.402344 62.382812 66.203125 C 62.265625 66.066406 62.230469 65.839844 62.171875 65.671875 C 62.101562 65.472656 62.027344 65.273438 61.953125 65.070312 C 61.660156 64.316406 61.339844 63.570312 61.085938 62.804688 C 60.777344 61.878906 60.613281 60.953125 60.625 59.976562 C 60.632812 59.070312 60.734375 58.164062 60.753906 57.253906 C 60.863281 57.269531 60.972656 57.277344 61.085938 57.289062 C 62.335938 57.378906 63.589844 57.214844 64.828125 57 C 64.578125 57.671875 64.40625 58.375 64.296875 59.082031 C 64.242188 59.457031 64.183594 59.832031 64.214844 60.210938 C 64.246094 60.554688 64.332031 60.890625 64.4375 61.214844 C 64.675781 61.933594 64.914062 62.613281 64.945312 63.378906 C 64.96875 63.917969 64.90625 64.484375 64.667969 64.976562 Z M 68.539062 57.863281 C 68.15625 58.746094 67.8125 59.777344 67.796875 60.75 C 67.789062 61.277344 67.945312 61.792969 68.09375 62.292969 C 68.257812 62.84375 68.371094 63.367188 68.359375 63.941406 C 68.335938 64.949219 68.226562 66.261719 67.25 66.839844 C 67.023438 66.972656 66.769531 67.039062 66.507812 67.0625 C 66.242188 67.085938 65.925781 67.121094 65.71875 66.925781 C 65.496094 66.722656 65.433594 66.320312 65.34375 66.042969 C 65.230469 65.699219 65.15625 65.457031 65.046875 65.109375 C 65.441406 64.25 65.421875 63.210938 65.210938 62.304688 C 65.007812 61.449219 64.550781 60.652344 64.617188 59.75 C 64.691406 58.792969 64.933594 57.808594 65.292969 56.914062 C 65.707031 56.839844 66.117188 56.761719 66.527344 56.683594 C 67.34375 56.535156 68.152344 56.414062 68.984375 56.355469 C 69.1875 56.34375 69.394531 56.328125 69.597656 56.3125 C 69.121094 56.707031 68.800781 57.257812 68.539062 57.863281 Z M 100.53125 58.980469 C 100.28125 59.433594 99.984375 59.859375 99.640625 60.246094 C 98.367188 60.128906 97.085938 60.039062 95.808594 60.007812 C 95.023438 59.988281 94.261719 60.011719 93.488281 60.148438 C 92.117188 60.398438 90.761719 60.753906 89.382812 60.964844 C 88.164062 61.152344 86.910156 61.222656 85.679688 61.117188 C 84.761719 61.039062 83.914062 60.789062 83.058594 60.472656 C 81.148438 59.769531 79.28125 58.953125 77.40625 58.175781 C 76.664062 57.867188 75.917969 57.554688 75.164062 57.277344 C 73.886719 56.800781 72.648438 56.074219 71.269531 55.914062 C 70.570312 55.828125 69.863281 55.886719 69.164062 55.9375 C 68.703125 55.96875 68.25 56 67.792969 56.0625 C 66.894531 56.1875 66.003906 56.375 65.109375 56.535156 C 64.125 56.710938 63.132812 56.863281 62.132812 56.898438 C 61.230469 56.929688 60.296875 56.867188 59.449219 56.527344 C 59.089844 56.382812 58.761719 56.183594 58.472656 55.933594 C 58.453125 55.902344 58.421875 55.878906 58.386719 55.859375 C 58.03125 55.53125 57.738281 55.128906 57.539062 54.675781 C 57.371094 54.285156 57.289062 53.835938 57.46875 53.4375 C 57.636719 53.0625 57.984375 52.804688 58.332031 52.609375 C 58.78125 52.363281 59.273438 52.207031 59.769531 52.085938 C 60.421875 51.921875 61.078125 51.765625 61.734375 51.589844 C 63.09375 51.222656 64.445312 50.882812 65.863281 50.84375 C 67.273438 50.804688 68.699219 50.90625 70.089844 50.617188 C 70.800781 50.46875 71.480469 50.203125 72.15625 49.949219 C 72.828125 49.691406 73.492188 49.417969 74.152344 49.128906 C 74.789062 48.851562 75.421875 48.558594 76.046875 48.257812 C 76.28125 48.144531 76.078125 47.796875 75.84375 47.90625 C 74.585938 48.515625 73.308594 49.082031 72.003906 49.574219 C 71.882812 49.621094 71.757812 49.667969 71.636719 49.714844 C 71.902344 48.292969 72.191406 46.878906 72.605469 45.492188 C 72.679688 45.242188 72.285156 45.136719 72.210938 45.386719 C 71.777344 46.855469 71.476562 48.359375 71.195312 49.863281 C 71.195312 49.867188 71.195312 49.871094 71.195312 49.875 C 70.828125 50.003906 70.457031 50.125 70.074219 50.207031 C 69.414062 50.351562 68.738281 50.402344 68.0625 50.417969 C 67.703125 50.429688 67.34375 50.429688 66.984375 50.433594 C 66.980469 50.417969 66.972656 50.40625 66.964844 50.390625 C 66.621094 49.886719 66.664062 49.230469 66.738281 48.652344 C 66.816406 48.015625 66.976562 47.390625 67.070312 46.753906 C 67.113281 46.453125 67.113281 46.152344 67.136719 45.851562 C 67.171875 45.421875 67.257812 44.996094 67.375 44.582031 C 67.597656 43.765625 67.933594 42.992188 68.261719 42.214844 C 68.363281 41.976562 67.972656 41.871094 67.871094 42.105469 C 67.53125 42.910156 67.183594 43.714844 66.960938 44.558594 C 66.847656 44.980469 66.769531 45.410156 66.734375 45.84375 C 66.71875 45.847656 66.703125 45.855469 66.6875 45.867188 C 65.261719 46.792969 63.722656 47.511719 62.214844 48.292969 C 62.273438 48.21875 62.332031 48.140625 62.390625 48.066406 C 63.453125 46.6875 64.511719 45.304688 65.574219 43.921875 C 66.867188 42.242188 68.164062 40.558594 69.460938 38.878906 C 69.695312 38.578125 69.929688 38.273438 70.164062 37.972656 C 71.144531 37.753906 72.136719 37.574219 73.136719 37.46875 C 74.125 37.363281 75.234375 37.25 76.195312 37.5625 C 76.949219 37.804688 77.679688 38.292969 78.378906 38.667969 C 80.554688 39.835938 82.734375 41.003906 84.902344 42.1875 C 87.148438 43.414062 89.40625 44.636719 91.582031 45.976562 C 91.902344 46.175781 92.222656 46.375 92.53125 46.59375 C 93.253906 47.105469 94.023438 47.445312 94.886719 47.664062 C 95.867188 47.910156 96.847656 48.019531 97.851562 48.09375 C 98.328125 48.125 98.828125 48.167969 99.265625 48.371094 C 99.648438 48.546875 99.980469 48.859375 100.265625 49.164062 C 101.425781 50.402344 101.882812 52.160156 101.914062 53.816406 C 101.945312 55.640625 101.414062 57.390625 100.53125 58.980469 Z M 100.53125 58.980469 " fill-opacity="1" fill-rule="nonzero"/></g></svg>