<svg xmlns="http://www.w3.org/2000/svg" xmlns:xlink="http://www.w3.org/1999/xlink" width="200" zoomAndPan="magnify" viewBox="0 0 150 30.000001" height="40" preserveAspectRatio="xMidYMid meet" version="1.0"><defs><clipPath id="74b3b1195f"><path d="M 2.417969 3.808594 L 147.578125 3.808594 L 147.578125 25.585938 L 2.417969 25.585938 Z M 2.417969 3.808594 " clip-rule="nonzero"/></clipPath></defs><g clip-path="url(#74b3b1195f)"><path fill="#000000" d="M 146.761719 13.65625 C 145.953125 13.039062 145.027344 12.566406 144.015625 12.332031 C 142.398438 11.863281 140.75 11.449219 139.105469 10.980469 C 138.929688 10.921875 138.671875 10.890625 138.757812 10.597656 C 138.785156 10.480469 138.871094 10.363281 138.988281 10.273438 C 140.144531 9.6875 141.183594 8.894531 142.078125 7.953125 C 142.890625 7.101562 143.4375 6.015625 143.613281 4.867188 C 143.726562 4.164062 143.351562 3.808594 142.65625 3.957031 C 142.050781 4.074219 141.503906 4.308594 140.894531 4.425781 C 138.121094 5.042969 136.328125 6.808594 135.464844 9.480469 C 135.203125 10.246094 134.796875 10.597656 134.019531 10.65625 C 132.601562 10.773438 131.15625 11.039062 129.914062 11.773438 C 128.613281 12.507812 127.371094 12.539062 126.070312 11.804688 C 125.898438 11.714844 125.695312 11.625 125.523438 11.539062 C 123.414062 10.714844 121.246094 10.128906 119.050781 9.746094 C 115.410156 9.101562 112.203125 10.214844 109.285156 12.363281 C 108.15625 13.183594 107 13.949219 105.585938 13.773438 C 103.101562 13.476562 100.617188 13.066406 98.128906 12.683594 C 97.929688 12.65625 97.695312 12.625 97.695312 12.390625 C 97.726562 12.183594 97.8125 12.007812 97.957031 11.890625 C 99.515625 10.746094 100.210938 9.011719 100.933594 7.277344 C 101.078125 6.953125 101.136719 6.632812 101.164062 6.277344 C 101.164062 5.984375 100.960938 5.691406 100.671875 5.777344 C 97.898438 6.574219 95.125 7.394531 93.96875 10.539062 C 93.765625 11.070312 93.59375 11.566406 93.421875 12.097656 C 93.304688 12.507812 92.957031 12.800781 92.523438 12.832031 C 91.917969 12.890625 91.3125 13.066406 90.703125 13.039062 C 89.492188 13.039062 88.277344 13.273438 87.152344 13.773438 C 86.515625 14.035156 85.878906 14.273438 85.273438 14.535156 C 84.722656 14.800781 84.085938 14.800781 83.507812 14.566406 C 79.347656 13.007812 74.898438 12.449219 70.507812 12.949219 C 68.3125 13.183594 66.230469 13.59375 64.207031 14.476562 C 62.128906 15.386719 60.019531 16.09375 57.765625 14.976562 C 57.386719 14.828125 56.984375 14.769531 56.578125 14.742188 C 55.710938 14.625 54.816406 14.566406 53.949219 14.476562 C 53.660156 14.449219 53.371094 14.390625 53.285156 14.125 C 53.257812 14.007812 53.457031 13.773438 53.601562 13.65625 C 54.757812 12.480469 55.277344 10.980469 55.566406 9.421875 C 55.742188 8.542969 55.394531 8.1875 54.613281 8.484375 C 53.402344 8.894531 52.214844 9.480469 51.148438 10.1875 C 49.90625 11.070312 48.75 12.007812 48.460938 13.65625 C 48.316406 14.390625 47.824219 14.652344 47.160156 14.742188 C 45.078125 15.035156 43 15.269531 41.003906 16.003906 C 40.6875 16.152344 40.3125 16.121094 40.023438 15.917969 C 38.492188 14.800781 36.613281 14.59375 34.878906 14.007812 C 32.480469 13.214844 29.96875 12.949219 27.453125 13.242188 C 25.371094 13.449219 23.464844 14.125 21.617188 14.949219 C 19.710938 15.769531 17.917969 15.535156 16.070312 15.035156 C 15.894531 15.007812 15.808594 14.949219 15.835938 14.769531 C 15.867188 14.652344 15.925781 14.507812 16.011719 14.417969 C 16.300781 14.210938 16.589844 14.066406 16.878906 13.917969 C 18.554688 13.242188 19.765625 11.863281 20.808594 10.304688 C 21.328125 9.511719 21.125 9.101562 20.144531 8.980469 C 18.84375 8.894531 17.542969 9.128906 16.386719 9.71875 C 14.796875 10.480469 13.179688 11.449219 12.515625 13.214844 C 12.109375 14.300781 11.589844 14.507812 10.636719 14.59375 C 8.238281 14.710938 5.925781 15.445312 3.902344 16.738281 C 3.5 17.003906 3.152344 17.296875 2.777344 17.621094 C 2.71875 17.738281 2.691406 17.886719 2.746094 18.003906 C 2.746094 18.003906 2.746094 18.03125 2.746094 18.03125 C 2.835938 18.210938 3.035156 18.296875 3.238281 18.210938 C 3.671875 17.972656 4.046875 17.710938 4.453125 17.472656 C 6.621094 16.242188 8.875 15.359375 11.53125 15.476562 C 13.207031 15.417969 14.914062 15.800781 16.644531 16.152344 C 16.878906 16.210938 17.222656 16.269531 17.167969 16.59375 C 17.136719 16.738281 16.90625 16.917969 16.761719 17.003906 C 14.855469 17.914062 12.890625 18.707031 10.894531 19.382812 C 10.230469 19.621094 9.363281 19.355469 8.929688 20.179688 C 9.683594 21 10.375 20.058594 11.128906 20.058594 C 11.648438 20.058594 12.167969 19.796875 12.6875 19.589844 C 14.304688 18.914062 15.953125 18.210938 17.542969 17.472656 C 18.582031 17.003906 19.507812 16.828125 20.664062 17.269531 C 22.109375 17.855469 23.640625 18.269531 25.171875 18.503906 C 26.730469 18.738281 27.65625 19.472656 28.058594 20.972656 C 28.089844 21.117188 28.148438 21.234375 28.203125 21.351562 C 29.332031 23.617188 31.730469 24.996094 34.042969 24.792969 C 34.734375 24.734375 34.90625 24.554688 34.734375 23.878906 C 34.386719 22.382812 33.898438 20.972656 32.394531 20.179688 C 32.046875 19.972656 31.699219 19.738281 31.382812 19.503906 C 31.265625 19.414062 31.210938 19.296875 31.179688 19.179688 C 31.179688 18.886719 31.441406 18.914062 31.613281 18.914062 C 33.722656 18.824219 35.804688 18.445312 37.796875 17.738281 C 39.15625 17.238281 40.628906 17.296875 41.957031 17.855469 C 43.460938 18.503906 45.019531 19.003906 46.609375 19.355469 C 49.644531 20 52.679688 20.179688 55.625 18.972656 C 56.953125 18.445312 58.285156 17.914062 59.554688 17.269531 C 60.453125 16.769531 61.519531 16.679688 62.472656 17.003906 C 64.816406 17.710938 67.039062 18.855469 69.523438 18.855469 C 70.015625 18.855469 70.21875 19.238281 70.363281 19.621094 C 71.316406 22.292969 73.484375 23.675781 75.792969 24.9375 C 76.460938 25.289062 77.152344 25.585938 77.933594 25.320312 C 78.453125 25.144531 78.625 24.851562 78.335938 24.46875 C 77.730469 23.703125 77.414062 22.792969 76.980469 21.941406 C 76.605469 21.207031 76.257812 20.441406 75.535156 19.972656 L 74.175781 19.089844 C 74.667969 18.648438 75.273438 18.707031 75.882812 18.648438 C 76.488281 18.589844 77.09375 18.445312 77.671875 18.238281 C 79.550781 17.59375 81.398438 16.945312 83.25 16.242188 C 83.855469 15.945312 84.550781 15.917969 85.214844 16.09375 C 87.007812 16.652344 88.855469 17.121094 90.703125 17.621094 C 93.507812 18.355469 96.339844 18.296875 99.171875 17.769531 C 101.453125 17.328125 103.589844 16.386719 105.613281 15.269531 C 106.164062 14.976562 106.683594 14.710938 107.347656 14.828125 C 109.285156 15.183594 111.277344 15.09375 113.214844 15.476562 C 114.484375 15.742188 115.46875 16.121094 116.074219 17.414062 C 116.710938 18.824219 117.921875 19.882812 119.367188 20.296875 C 120.609375 20.648438 121.851562 21 123.183594 20.914062 C 123.671875 20.882812 124.367188 21.234375 124.65625 20.589844 C 124.886719 20.058594 124.394531 19.5625 124.078125 19.148438 C 123.847656 18.824219 123.558594 18.503906 123.242188 18.238281 C 122.605469 17.621094 121.910156 17.035156 121.246094 16.445312 C 120.957031 16.210938 121.015625 15.976562 121.363281 15.859375 C 122.316406 15.535156 123.386719 15.417969 124.25 14.886719 C 126.679688 13.476562 128.902344 14.035156 131.1875 15.210938 C 133.066406 16.179688 135.117188 16.796875 137.226562 17.003906 C 137.542969 17.035156 137.890625 17.035156 138.207031 16.976562 C 138.292969 16.976562 138.351562 16.828125 138.4375 16.679688 C 138.527344 16.535156 138.46875 16.445312 138.265625 16.417969 C 138.003906 16.386719 137.746094 16.328125 137.457031 16.300781 C 134.886719 15.886719 132.488281 14.886719 130.117188 13.890625 C 129.800781 13.742188 129.394531 13.566406 129.425781 13.242188 C 129.425781 12.917969 129.855469 12.773438 130.175781 12.625 C 132.398438 11.507812 134.886719 11.128906 137.339844 11.507812 C 140.144531 11.949219 142.945312 12.566406 145.488281 13.976562 C 145.722656 14.125 145.953125 14.242188 146.210938 14.359375 C 146.5 14.449219 146.90625 14.710938 147.109375 14.300781 C 147.308594 14.007812 146.964844 13.800781 146.761719 13.65625 Z M 13.410156 13.773438 C 13.496094 13.449219 13.640625 13.125 13.871094 12.859375 C 15.316406 11.363281 16.933594 10.128906 19.074219 9.894531 C 19.277344 9.863281 19.476562 9.921875 19.621094 10.039062 C 19.710938 10.214844 19.679688 10.453125 19.566406 10.597656 C 19.101562 11.1875 18.582031 11.746094 18.035156 12.242188 C 16.847656 13.273438 15.375 13.800781 14.277344 14.359375 C 13.554688 14.476562 13.292969 14.152344 13.410156 13.773438 Z M 33.464844 23.234375 C 33.578125 23.851562 33.289062 24.203125 32.710938 24.058594 C 30.746094 23.527344 29.503906 22.148438 28.753906 20.265625 C 28.636719 19.972656 28.753906 19.738281 29.128906 19.738281 C 30.863281 19.824219 33.117188 21.648438 33.464844 23.234375 Z M 37.363281 17.121094 C 35.71875 17.5625 34.070312 17.972656 32.367188 18.03125 C 31.613281 18.0625 30.863281 18.121094 30.140625 18.148438 L 30.140625 18.179688 C 27.136719 18.472656 24.417969 17.328125 21.617188 16.535156 C 21.441406 16.445312 21.269531 16.328125 21.125 16.179688 C 21.296875 16.003906 21.472656 15.769531 21.703125 15.710938 C 24.128906 14.859375 26.585938 14.09375 29.1875 13.976562 C 29.792969 13.949219 30.398438 13.976562 31.007812 14.066406 C 33.230469 14.359375 35.339844 15.183594 37.480469 15.828125 C 37.855469 15.945312 38.375 16.121094 38.347656 16.535156 C 38.316406 16.796875 37.710938 17.035156 37.363281 17.121094 Z M 49.671875 13.390625 C 49.789062 13.066406 49.960938 12.773438 50.164062 12.507812 C 51.148438 11.214844 52.535156 10.511719 53.949219 9.863281 C 54.210938 9.746094 54.46875 9.921875 54.46875 10.273438 C 54.382812 12.214844 52.214844 14.242188 50.25 14.210938 C 50.136719 14.210938 50.019531 14.210938 49.933594 14.152344 C 49.617188 14.007812 49.527344 13.65625 49.671875 13.390625 Z M 58.773438 16.855469 C 55.164062 18.621094 51.492188 19.824219 47.417969 18.765625 C 45.832031 18.355469 44.269531 17.945312 42.824219 17.179688 C 42.59375 17.035156 42.304688 16.917969 42.363281 16.59375 C 42.390625 16.476562 42.652344 16.328125 42.824219 16.300781 C 43.691406 16.0625 44.558594 15.886719 45.425781 15.769531 C 47.449219 15.535156 49.441406 15.035156 51.78125 15.066406 L 51.78125 15.09375 C 53.3125 15.269531 55.132812 15.445312 56.925781 15.683594 C 57.53125 15.800781 58.109375 16.003906 58.660156 16.242188 C 58.804688 16.300781 58.917969 16.476562 59.0625 16.59375 C 58.976562 16.710938 58.890625 16.796875 58.773438 16.855469 Z M 75.9375 22.117188 C 76.199219 22.765625 77.09375 23.5 76.460938 24.117188 C 76.054688 24.527344 75.246094 23.734375 74.726562 23.378906 C 73.511719 22.527344 72.242188 21.675781 71.632812 20.179688 C 71.519531 19.855469 71.519531 19.679688 71.835938 19.5625 C 73.65625 19.707031 75.214844 20.265625 75.9375 22.117188 Z M 82.613281 15.417969 C 82.554688 15.625 82.382812 15.769531 82.210938 15.828125 C 77.703125 17.886719 73.019531 18.796875 68.109375 17.914062 C 66.460938 17.621094 64.902344 16.917969 63.28125 16.359375 C 62.9375 16.242188 62.9375 15.945312 63.226562 15.769531 C 64.035156 15.269531 64.929688 14.917969 65.824219 14.625 C 68.050781 14.007812 70.332031 13.625 72.644531 13.535156 C 75.824219 13.714844 79.003906 13.859375 82.09375 14.886719 C 82.355469 15.007812 82.671875 15.09375 82.613281 15.417969 Z M 94.722656 11.714844 C 95.296875 9.21875 97.089844 8.042969 99.285156 7.277344 C 99.429688 7.21875 99.632812 7.367188 99.804688 7.425781 C 99.804688 7.511719 99.804688 7.601562 99.777344 7.6875 C 98.996094 9.894531 97.8125 11.746094 95.441406 12.421875 C 95.183594 12.507812 94.894531 12.566406 94.75 12.273438 C 94.664062 12.125 94.664062 11.921875 94.722656 11.714844 Z M 104.082031 15.242188 C 101.683594 16.386719 99.230469 17.355469 96.511719 17.355469 L 95.703125 17.355469 L 95.703125 17.386719 C 94.144531 17.472656 92.582031 17.296875 91.082031 16.886719 C 89.605469 16.445312 88.015625 16.359375 86.574219 15.683594 C 86.398438 15.59375 86.226562 15.476562 86.082031 15.328125 C 86.226562 15.183594 86.3125 14.976562 86.484375 14.917969 C 87.960938 14.507812 89.402344 13.890625 90.992188 13.832031 C 94.230469 13.714844 97.464844 13.476562 100.730469 13.832031 C 101.800781 13.949219 102.871094 14.152344 103.9375 14.300781 C 104.226562 14.359375 104.488281 14.507812 104.488281 14.800781 C 104.515625 14.976562 104.257812 15.152344 104.082031 15.242188 Z M 121.851562 18.238281 C 122.402344 18.679688 123.441406 19.238281 123.125 19.855469 C 122.75 20.617188 121.679688 20.117188 120.929688 20 C 119.222656 19.765625 117.722656 18.707031 116.941406 17.152344 C 116.652344 16.621094 116.738281 16.386719 117.316406 16.328125 C 117.375 16.328125 117.460938 16.328125 117.492188 16.328125 L 117.492188 16.359375 C 119.398438 16.300781 120.640625 17.238281 121.851562 18.238281 Z M 125.667969 13.535156 C 123.242188 14.449219 120.84375 15.328125 118.210938 15.328125 C 116.855469 15.328125 115.496094 15.183594 114.167969 14.859375 C 112.78125 14.507812 111.363281 14.300781 109.949219 14.242188 C 109.660156 14.210938 109.199219 14.417969 109.109375 13.949219 C 109.054688 13.566406 109.429688 13.359375 109.6875 13.183594 C 112.433594 11.070312 115.410156 9.804688 118.933594 10.539062 C 121.246094 11.039062 123.53125 11.746094 125.695312 12.714844 C 125.871094 12.800781 125.984375 12.980469 126.042969 13.15625 C 126.042969 13.273438 125.8125 13.476562 125.667969 13.535156 Z M 136.792969 9.804688 C 136.5625 9.453125 136.792969 9.011719 137.023438 8.660156 C 138.035156 6.777344 139.855469 5.484375 141.9375 5.164062 L 141.9375 5.191406 C 142.457031 5.191406 142.542969 5.425781 142.457031 5.839844 C 142.28125 6.425781 141.992188 6.984375 141.558594 7.425781 C 140.636719 8.511719 139.421875 9.304688 138.09375 9.777344 C 137.660156 9.921875 137.140625 10.332031 136.792969 9.804688 Z M 136.792969 9.804688 " fill-opacity="1" fill-rule="nonzero"/></g></svg>