<svg xmlns="http://www.w3.org/2000/svg" xmlns:xlink="http://www.w3.org/1999/xlink" width="200" zoomAndPan="magnify" viewBox="0 0 150 74.999997" height="100" preserveAspectRatio="xMidYMid meet" version="1.0"><defs><clipPath id="fd3fd8aff3"><path d="M 66 7.5 L 98.585938 7.5 L 98.585938 67.5 L 66 67.5 Z M 66 7.5 " clip-rule="nonzero"/></clipPath><clipPath id="8ce753c7e9"><path d="M 51.335938 27 L 73 27 L 73 65 L 51.335938 65 Z M 51.335938 27 " clip-rule="nonzero"/></clipPath></defs><g clip-path="url(#fd3fd8aff3)"><path fill="#000000" d="M 73.308594 7.550781 C 73.210938 7.582031 73.132812 7.640625 73.089844 7.726562 C 73.070312 7.769531 73 7.996094 72.9375 8.234375 C 72.804688 8.746094 72.6875 9.144531 72.433594 10.011719 C 72.328125 10.359375 72.066406 11.269531 71.851562 12.03125 C 71.160156 14.460938 70.972656 14.980469 70.003906 17.113281 C 69.359375 18.539062 69.117188 19.105469 68.644531 20.300781 C 67.871094 22.261719 67.53125 23.261719 66.855469 25.632812 C 66.457031 27.019531 66.375 27.390625 66.371094 27.828125 C 66.371094 28.136719 66.398438 28.277344 66.507812 28.503906 C 66.683594 28.859375 67.035156 29.101562 67.769531 29.375 C 67.917969 29.429688 68.484375 29.632812 69.027344 29.824219 C 70.765625 30.4375 70.875 30.480469 71.859375 30.972656 C 72.570312 31.328125 73.046875 31.535156 73.574219 31.710938 C 74.253906 31.933594 74.621094 31.957031 75.695312 31.851562 C 76.304688 31.792969 76.417969 31.761719 76.371094 31.679688 C 76.351562 31.636719 76.222656 31.582031 76.074219 31.558594 C 75.992188 31.542969 75.882812 31.550781 75.550781 31.59375 C 75.023438 31.660156 74.488281 31.667969 74.207031 31.613281 C 73.648438 31.503906 73.078125 31.28125 72 30.753906 C 71.09375 30.3125 70.847656 30.210938 68.613281 29.410156 C 68.265625 29.285156 67.921875 29.160156 67.847656 29.132812 C 66.953125 28.789062 66.699219 28.519531 66.699219 27.90625 C 66.699219 27.523438 66.785156 27.128906 67.066406 26.195312 C 67.714844 24.042969 68.414062 22.019531 69.238281 19.90625 C 69.542969 19.128906 69.796875 18.519531 70.214844 17.566406 C 71.230469 15.253906 71.480469 14.558594 72.011719 12.5625 C 72.3125 11.414062 72.527344 10.628906 72.742188 9.855469 C 72.863281 9.425781 73.03125 8.816406 73.117188 8.507812 C 73.199219 8.195312 73.277344 7.914062 73.292969 7.886719 C 73.304688 7.855469 73.335938 7.824219 73.367188 7.816406 C 73.453125 7.792969 73.960938 7.828125 74.179688 7.871094 C 75.722656 8.160156 77.304688 8.710938 78.800781 9.464844 C 79.71875 9.929688 80.285156 10.265625 81.832031 11.269531 C 82.46875 11.683594 83.167969 12.128906 83.984375 12.640625 C 84.300781 12.839844 84.628906 13.054688 84.722656 13.117188 C 85.015625 13.324219 85.0625 13.351562 85.308594 13.496094 C 85.59375 13.667969 85.78125 13.816406 85.9375 14.007812 C 86.074219 14.175781 86.203125 14.378906 86.203125 14.433594 C 86.203125 14.457031 86.132812 14.59375 86.046875 14.738281 C 85.507812 15.644531 85.027344 16.671875 84.292969 18.476562 C 83.128906 21.34375 82.707031 22.648438 82.644531 23.59375 C 82.613281 24.132812 82.757812 24.507812 83.027344 24.578125 C 83.570312 24.710938 84.28125 23.589844 85.191406 21.15625 C 85.648438 19.933594 86.140625 18.414062 86.421875 17.34375 C 86.789062 15.960938 86.855469 15.160156 86.660156 14.523438 L 86.609375 14.367188 L 86.707031 14.222656 C 87.054688 13.691406 87.570312 13.132812 88.039062 12.777344 C 88.582031 12.367188 89.21875 12.09375 89.910156 11.976562 C 90.175781 11.929688 90.792969 11.914062 91.113281 11.945312 C 92.238281 12.050781 93.96875 12.578125 95.21875 13.199219 C 95.851562 13.511719 96.226562 13.769531 96.457031 14.058594 C 96.648438 14.292969 96.71875 14.542969 96.625 14.667969 C 96.523438 14.808594 96.230469 14.871094 95.824219 14.835938 C 95.558594 14.808594 95.066406 14.734375 95.03125 14.710938 C 95.015625 14.703125 95.015625 14.664062 95.03125 14.585938 C 95.164062 13.929688 94.214844 13.265625 92.703125 12.949219 C 91.714844 12.742188 90.960938 12.757812 90.757812 12.988281 C 90.6875 13.070312 90.667969 13.132812 90.683594 13.238281 L 90.695312 13.3125 L 90.449219 13.335938 C 89.859375 13.398438 89.363281 13.605469 89.050781 13.914062 C 88.847656 14.117188 88.773438 14.277344 88.773438 14.5 C 88.773438 14.695312 88.816406 14.804688 88.957031 14.953125 C 89.257812 15.277344 89.867188 15.476562 90.898438 15.59375 C 91.292969 15.636719 92.511719 15.644531 92.882812 15.601562 C 93.636719 15.519531 94.097656 15.402344 94.507812 15.191406 C 94.730469 15.078125 94.695312 15.078125 95.097656 15.164062 C 95.457031 15.238281 95.960938 15.308594 96.75 15.386719 C 97.800781 15.496094 98.132812 15.546875 98.132812 15.605469 C 98.132812 15.632812 97.710938 16.679688 96.960938 18.535156 C 96.183594 20.460938 95.96875 20.964844 94.863281 23.457031 C 94.097656 25.179688 93.820312 25.8125 93.179688 27.292969 C 92.257812 29.421875 91.871094 30.28125 91.0625 31.988281 C 90.667969 32.820312 90.332031 33.488281 90.203125 33.695312 C 89.90625 34.175781 89.613281 34.300781 88.832031 34.277344 C 88.230469 34.257812 87.988281 34.242188 87.957031 34.214844 C 87.933594 34.195312 87.933594 34.199219 87.941406 34.230469 C 87.949219 34.246094 87.945312 34.285156 87.933594 34.3125 C 87.914062 34.355469 87.917969 34.371094 87.941406 34.398438 C 87.957031 34.417969 88.003906 34.5 88.046875 34.585938 C 88.152344 34.792969 88.34375 35.101562 88.640625 35.535156 C 89.363281 36.585938 89.734375 37.40625 90.101562 38.753906 C 90.375 39.753906 90.570312 40.796875 90.929688 43.132812 C 91.300781 45.5625 91.511719 46.726562 91.828125 48.054688 C 92.050781 49.007812 92.285156 49.824219 92.78125 51.390625 C 93.46875 53.566406 93.695312 54.429688 93.910156 55.675781 C 94.367188 58.328125 94.222656 61.050781 93.515625 63.164062 C 93.148438 64.257812 92.65625 65.109375 92.015625 65.753906 C 91.460938 66.3125 90.902344 66.636719 90.234375 66.792969 C 89.980469 66.851562 89.457031 66.867188 89.183594 66.820312 C 88.816406 66.757812 88.488281 66.636719 88.148438 66.4375 C 87.097656 65.816406 86.011719 64.382812 85.269531 62.652344 C 84.734375 61.398438 84.320312 59.890625 83.796875 57.253906 C 83.195312 54.25 82.882812 52.007812 82.757812 49.800781 C 82.699219 48.714844 82.691406 48.230469 82.6875 45.632812 C 82.6875 43.132812 82.683594 42.910156 82.648438 42.675781 C 82.5625 42.058594 82.429688 41.738281 82.027344 41.144531 C 81.554688 40.445312 81.460938 40.210938 81.21875 39.1875 C 81.082031 38.617188 81.027344 38.4375 80.910156 38.199219 C 80.835938 38.042969 80.785156 37.976562 80.652344 37.84375 C 80.296875 37.480469 79.960938 37.425781 78.839844 37.542969 C 78.164062 37.609375 77.519531 37.617188 77.519531 37.550781 C 77.519531 37.53125 78.148438 37.117188 78.363281 36.996094 C 78.730469 36.792969 79.40625 36.46875 79.523438 36.445312 C 79.691406 36.414062 80.1875 36.417969 80.4375 36.453125 C 80.703125 36.492188 80.933594 36.5625 81.230469 36.6875 C 81.507812 36.804688 81.570312 36.808594 81.652344 36.726562 C 81.773438 36.605469 81.71875 36.453125 81.484375 36.269531 C 81.195312 36.042969 80.824219 35.902344 80.449219 35.882812 C 80.132812 35.867188 79.867188 35.917969 79.398438 36.085938 C 79.320312 36.117188 79.140625 36.164062 79.007812 36.191406 C 78.65625 36.265625 78.359375 36.359375 77.851562 36.558594 C 77.34375 36.753906 77.273438 36.773438 77.238281 36.703125 C 77.203125 36.636719 77.226562 36.355469 77.289062 36.125 C 77.445312 35.542969 77.757812 35.199219 78.230469 35.097656 C 78.421875 35.054688 78.921875 35.054688 79.503906 35.101562 C 80.066406 35.144531 81.347656 35.164062 81.535156 35.136719 C 81.738281 35.101562 81.839844 35.046875 81.890625 34.941406 C 81.929688 34.863281 81.933594 34.839844 81.914062 34.773438 C 81.851562 34.539062 81.472656 34.265625 80.886719 34.035156 C 80.316406 33.808594 79.804688 33.734375 79.363281 33.808594 C 78.84375 33.898438 78.351562 34.148438 77.105469 34.949219 C 76.425781 35.390625 76.269531 35.480469 76.257812 35.46875 C 76.246094 35.453125 76.386719 35.191406 76.546875 34.921875 C 77.203125 33.839844 77.730469 33.398438 78.570312 33.242188 C 78.863281 33.1875 79.617188 33.191406 80.199219 33.253906 C 80.71875 33.308594 81.269531 33.320312 81.40625 33.277344 C 81.511719 33.246094 81.625 33.148438 81.640625 33.074219 C 81.660156 32.996094 81.609375 32.894531 81.515625 32.8125 C 81.3125 32.632812 80.558594 32.382812 79.867188 32.261719 C 79.660156 32.226562 79.523438 32.21875 79.222656 32.21875 C 78.617188 32.21875 78.367188 32.285156 77.617188 32.660156 C 77.066406 32.9375 77.054688 32.941406 76.609375 32.921875 C 76.410156 32.914062 76.230469 32.902344 76.203125 32.894531 C 76.164062 32.878906 76.191406 32.84375 76.523438 32.507812 C 77.210938 31.808594 77.667969 31.457031 78.054688 31.324219 C 78.195312 31.277344 78.234375 31.273438 78.398438 31.285156 C 78.621094 31.296875 78.796875 31.351562 79.421875 31.582031 C 80.441406 31.964844 81.191406 32.28125 82.46875 32.863281 C 82.898438 33.058594 83.398438 33.277344 83.574219 33.347656 C 83.878906 33.472656 84.257812 33.597656 84.324219 33.597656 C 84.472656 33.597656 83.636719 33.066406 82.765625 32.601562 C 81.5 31.929688 79.316406 31.015625 78.648438 30.882812 C 78.449219 30.839844 78.15625 30.851562 77.984375 30.902344 C 77.578125 31.027344 77.085938 31.378906 76.457031 31.992188 C 76.101562 32.339844 75.789062 32.691406 75.730469 32.820312 C 75.648438 32.988281 75.691406 33.144531 75.839844 33.207031 C 75.941406 33.25 76.9375 33.246094 77.117188 33.203125 C 77.195312 33.183594 77.453125 33.074219 77.761719 32.921875 C 78.042969 32.785156 78.351562 32.648438 78.445312 32.617188 C 78.945312 32.464844 79.546875 32.476562 80.289062 32.65625 C 80.683594 32.753906 81.1875 32.933594 81.1875 32.976562 C 81.1875 33.007812 80.882812 32.984375 80.21875 32.910156 C 78.746094 32.746094 78.03125 32.851562 77.371094 33.339844 C 76.886719 33.703125 76.339844 34.441406 75.9375 35.277344 C 75.804688 35.554688 75.777344 35.703125 75.835938 35.816406 C 75.878906 35.898438 75.988281 35.945312 76.085938 35.929688 C 76.214844 35.902344 76.523438 35.726562 77.078125 35.351562 C 77.351562 35.167969 77.355469 35.167969 77.253906 35.316406 C 77 35.671875 76.839844 36.191406 76.859375 36.605469 C 76.867188 36.753906 76.878906 36.816406 76.914062 36.894531 C 77 37.070312 77.1875 37.144531 77.417969 37.089844 C 77.476562 37.074219 77.527344 37.066406 77.53125 37.070312 C 77.535156 37.078125 77.484375 37.121094 77.414062 37.167969 C 77.25 37.285156 77.121094 37.40625 77.085938 37.472656 C 77.042969 37.550781 77.050781 37.671875 77.09375 37.746094 C 77.226562 37.960938 77.828125 38.007812 78.910156 37.886719 C 79.394531 37.832031 79.808594 37.820312 79.980469 37.855469 C 80.3125 37.929688 80.511719 38.140625 80.652344 38.574219 C 80.679688 38.660156 80.753906 38.976562 80.816406 39.277344 C 81.035156 40.347656 81.167969 40.683594 81.652344 41.378906 C 82.011719 41.898438 82.113281 42.132812 82.1875 42.597656 C 82.21875 42.796875 82.226562 42.957031 82.222656 43.777344 C 82.222656 44.296875 82.210938 45.050781 82.199219 45.453125 C 82.152344 46.832031 82.171875 48.882812 82.234375 50.003906 C 82.363281 52.132812 82.703125 54.546875 83.261719 57.207031 C 83.808594 59.832031 84.289062 61.523438 84.851562 62.824219 C 85.59375 64.554688 86.679688 65.992188 87.769531 66.695312 C 87.957031 66.820312 88.363281 67.015625 88.570312 67.082031 C 89.824219 67.5 91.171875 67.117188 92.25 66.042969 C 93.558594 64.734375 94.34375 62.570312 94.570312 59.648438 C 94.601562 59.21875 94.601562 57.859375 94.570312 57.425781 C 94.425781 55.523438 94.164062 54.28125 93.3125 51.484375 C 92.425781 48.5625 92.160156 47.359375 91.523438 43.34375 C 90.992188 39.992188 90.6875 38.652344 90.148438 37.324219 C 89.769531 36.375 89.339844 35.679688 88.675781 34.933594 C 88.535156 34.777344 88.421875 34.640625 88.421875 34.628906 C 88.421875 34.617188 88.453125 34.617188 88.507812 34.628906 C 88.691406 34.667969 89.167969 34.671875 89.382812 34.640625 C 89.902344 34.558594 90.183594 34.375 90.480469 33.925781 C 90.84375 33.363281 92.144531 30.59375 93.285156 27.9375 C 94.210938 25.777344 94.421875 25.304688 95.164062 23.628906 C 96.382812 20.886719 96.488281 20.636719 97.71875 17.566406 C 98.582031 15.421875 98.578125 15.421875 98.484375 15.320312 C 98.414062 15.238281 98.320312 15.273438 98.238281 15.398438 L 98.1875 15.480469 L 98.144531 15.441406 C 98.003906 15.3125 97.621094 15.207031 96.941406 15.113281 C 96.550781 15.058594 96.550781 15.058594 96.644531 15.011719 C 96.949219 14.855469 97.03125 14.527344 96.855469 14.160156 C 96.527344 13.464844 95.328125 12.757812 93.40625 12.117188 C 92.316406 11.753906 91.503906 11.597656 90.707031 11.597656 C 90.035156 11.597656 89.535156 11.691406 88.929688 11.9375 C 88.085938 12.273438 87.269531 12.960938 86.617188 13.867188 C 86.539062 13.976562 86.46875 14.0625 86.464844 14.066406 C 86.457031 14.066406 86.425781 14.027344 86.394531 13.980469 C 86.3125 13.855469 86.070312 13.609375 85.929688 13.507812 C 85.859375 13.457031 85.675781 13.355469 85.515625 13.28125 C 85.355469 13.203125 85.15625 13.089844 85.066406 13.023438 C 84.824219 12.84375 84.503906 12.632812 83.675781 12.105469 C 83.265625 11.84375 82.554688 11.386719 82.09375 11.085938 C 80.648438 10.144531 80.105469 9.816406 79.222656 9.351562 C 77.660156 8.523438 76.082031 7.953125 74.480469 7.628906 C 74.007812 7.535156 73.492188 7.5 73.308594 7.550781 Z M 92.230469 13.195312 C 93.335938 13.375 94.144531 13.683594 94.539062 14.078125 C 94.714844 14.253906 94.792969 14.492188 94.714844 14.605469 L 94.6875 14.648438 L 94.480469 14.597656 C 94.117188 14.515625 93.867188 14.414062 93.226562 14.097656 C 92.882812 13.925781 92.511719 13.75 92.398438 13.703125 C 92.011719 13.539062 91.621094 13.425781 91.195312 13.351562 C 91.117188 13.335938 91 13.253906 91 13.207031 C 91 13.152344 91.128906 13.136719 91.554688 13.144531 C 91.847656 13.152344 92.050781 13.167969 92.230469 13.195312 Z M 90.941406 13.699219 C 91.125 13.714844 91.148438 13.726562 91.445312 13.871094 C 91.855469 14.070312 92.210938 14.210938 92.953125 14.460938 C 93.292969 14.570312 93.710938 14.722656 93.882812 14.796875 C 94.058594 14.867188 94.21875 14.933594 94.246094 14.941406 C 94.292969 14.953125 94.292969 14.957031 94.253906 14.984375 C 94.140625 15.070312 93.566406 15.207031 93.054688 15.269531 C 92.636719 15.320312 91.449219 15.320312 90.980469 15.269531 C 90.0625 15.167969 89.445312 14.980469 89.222656 14.734375 C 89.121094 14.621094 89.09375 14.539062 89.125 14.429688 C 89.214844 14.089844 89.824219 13.761719 90.480469 13.703125 C 90.738281 13.683594 90.726562 13.683594 90.941406 13.699219 Z M 86.382812 15.019531 C 86.492188 15.808594 86.21875 17.066406 85.410156 19.503906 C 84.667969 21.730469 84.039062 23.203125 83.542969 23.871094 C 83.425781 24.03125 83.230469 24.222656 83.164062 24.246094 C 83.042969 24.28125 82.988281 24.105469 82.996094 23.710938 C 83.003906 22.902344 83.359375 21.734375 84.449219 18.949219 C 85.207031 17.007812 85.765625 15.769531 86.253906 14.933594 C 86.34375 14.785156 86.351562 14.792969 86.382812 15.019531 Z M 80.160156 34.152344 C 80.421875 34.210938 80.722656 34.320312 81.015625 34.464844 C 81.285156 34.601562 81.488281 34.730469 81.488281 34.765625 C 81.488281 34.820312 80.605469 34.804688 79.527344 34.726562 C 78.871094 34.679688 78.441406 34.675781 78.214844 34.71875 C 78.125 34.734375 78.050781 34.746094 78.046875 34.746094 C 77.992188 34.75 78.359375 34.53125 78.660156 34.378906 C 78.863281 34.277344 79.136719 34.175781 79.332031 34.132812 C 79.5 34.09375 79.945312 34.105469 80.160156 34.152344 Z M 80.160156 34.152344 " fill-opacity="1" fill-rule="nonzero"/></g><g clip-path="url(#8ce753c7e9)"><path fill="#000000" d="M 57.90625 27.339844 C 57.527344 27.574219 57.007812 28.796875 56.820312 29.910156 C 56.75 30.328125 56.726562 30.710938 56.738281 31.214844 C 56.75 31.570312 56.75 31.683594 56.71875 31.84375 C 56.664062 32.152344 56.550781 32.652344 56.488281 32.832031 L 56.4375 33.003906 L 56.273438 33.121094 C 56.085938 33.261719 55.917969 33.433594 55.851562 33.546875 C 55.738281 33.742188 55.804688 33.921875 55.988281 33.921875 C 56.195312 33.921875 56.394531 33.734375 56.605469 33.335938 C 56.695312 33.167969 56.703125 33.164062 56.839844 33.097656 C 57.242188 32.898438 57.90625 32.75 58.773438 32.660156 C 59.910156 32.542969 61.015625 32.519531 61.105469 32.605469 C 61.160156 32.660156 60.925781 32.894531 60.664062 33.042969 C 60.351562 33.21875 60.007812 33.316406 59.355469 33.40625 C 58.449219 33.527344 58.117188 33.640625 57.535156 34.019531 C 57.328125 34.15625 57.265625 34.1875 57.144531 34.214844 C 56.800781 34.285156 56.664062 34.390625 56.089844 35.015625 C 55.855469 35.269531 55.761719 35.386719 55.761719 35.421875 C 55.761719 35.496094 55.824219 35.5625 55.898438 35.5625 C 55.984375 35.5625 56.113281 35.46875 56.796875 34.945312 C 57.097656 34.710938 57.363281 34.515625 57.390625 34.503906 C 57.480469 34.46875 57.882812 34.558594 58.296875 34.710938 C 58.390625 34.746094 58.742188 34.890625 59.074219 35.03125 C 59.726562 35.308594 60.085938 35.445312 60.460938 35.566406 C 60.59375 35.605469 60.730469 35.660156 60.761719 35.683594 C 60.796875 35.707031 60.851562 35.777344 60.882812 35.835938 C 60.976562 36.027344 61.171875 36.683594 61.183594 36.855469 C 61.191406 36.929688 61.1875 36.9375 61.140625 36.929688 C 61.117188 36.929688 60.914062 36.855469 60.6875 36.765625 C 60.46875 36.679688 60.082031 36.53125 59.832031 36.4375 C 59.582031 36.34375 59.140625 36.171875 58.851562 36.058594 C 57.945312 35.703125 57.488281 35.574219 57.058594 35.542969 C 56.585938 35.511719 56.148438 35.679688 55.898438 35.988281 C 55.644531 36.304688 55.5 36.808594 55.5 37.390625 L 55.5 37.597656 L 55.316406 37.789062 C 54.882812 38.246094 54.835938 38.664062 55.15625 39.152344 C 55.382812 39.5 55.761719 39.890625 56.628906 40.667969 C 57.246094 41.226562 57.785156 41.761719 58.027344 42.0625 C 58.257812 42.355469 58.527344 42.761719 58.804688 43.242188 C 59.113281 43.78125 59.265625 44.007812 59.457031 44.210938 C 59.832031 44.597656 60.191406 44.757812 60.695312 44.761719 C 61.269531 44.761719 61.710938 44.589844 62.609375 44.011719 C 62.761719 43.917969 62.84375 43.875 62.847656 43.890625 C 62.851562 43.90625 62.765625 44.152344 62.660156 44.433594 C 61.976562 46.246094 61.527344 48.070312 61.222656 50.242188 C 61.074219 51.316406 60.992188 52.179688 60.847656 54.28125 C 60.710938 56.277344 60.597656 57.285156 60.402344 58.273438 C 60.054688 60.03125 59.449219 61.414062 58.570312 62.453125 C 58.21875 62.867188 57.671875 63.34375 57.246094 63.597656 C 56.472656 64.066406 55.566406 64.300781 54.820312 64.230469 C 53.164062 64.066406 52.144531 62.746094 51.859375 60.382812 C 51.808594 59.957031 51.804688 58.628906 51.859375 58.113281 C 51.933594 57.359375 52.046875 56.644531 52.230469 55.804688 C 52.289062 55.515625 52.34375 55.214844 52.351562 55.136719 L 52.359375 54.996094 L 52.316406 55.046875 C 52.25 55.128906 52.199219 55.25 52.09375 55.59375 C 51.546875 57.367188 51.34375 59.300781 51.550781 60.78125 C 51.683594 61.734375 51.957031 62.523438 52.375 63.148438 C 52.882812 63.914062 53.535156 64.367188 54.390625 64.554688 C 54.574219 64.59375 54.660156 64.597656 55.074219 64.601562 C 55.585938 64.601562 55.683594 64.589844 56.144531 64.46875 C 57.316406 64.15625 58.476562 63.277344 59.269531 62.09375 C 60.191406 60.722656 60.726562 59.070312 61.015625 56.695312 C 61.113281 55.90625 61.171875 55.273438 61.292969 53.625 C 61.464844 51.199219 61.632812 49.824219 61.9375 48.277344 C 62.222656 46.820312 62.519531 45.773438 63.019531 44.421875 C 63.183594 43.976562 63.222656 43.851562 63.230469 43.738281 C 63.238281 43.613281 63.234375 43.585938 63.199219 43.542969 C 63.171875 43.511719 63.121094 43.476562 63.085938 43.464844 C 62.953125 43.429688 62.847656 43.472656 62.3125 43.808594 C 61.574219 44.273438 61.152344 44.433594 60.691406 44.433594 C 60.292969 44.433594 60.015625 44.316406 59.726562 44.03125 C 59.519531 43.820312 59.410156 43.667969 59.074219 43.101562 C 58.386719 41.941406 58.152344 41.671875 56.609375 40.238281 C 55.550781 39.253906 55.21875 38.800781 55.296875 38.449219 C 55.324219 38.324219 55.425781 38.140625 55.5 38.066406 C 55.554688 38.015625 55.558594 38.011719 55.570312 38.046875 C 55.578125 38.070312 55.609375 38.144531 55.644531 38.214844 C 55.746094 38.433594 55.925781 38.523438 56.152344 38.480469 C 56.753906 38.367188 58.203125 37.097656 58.542969 36.386719 C 58.578125 36.3125 58.609375 36.25 58.613281 36.246094 C 58.613281 36.242188 58.730469 36.285156 58.867188 36.332031 C 59.003906 36.382812 59.375 36.515625 59.691406 36.628906 C 60.007812 36.738281 60.460938 36.90625 60.699219 37 C 60.949219 37.097656 61.167969 37.167969 61.207031 37.167969 C 61.445312 37.167969 61.492188 36.988281 61.390625 36.503906 C 61.28125 35.988281 61.15625 35.652344 61.019531 35.515625 C 60.925781 35.421875 60.828125 35.378906 60.515625 35.28125 C 60.15625 35.171875 59.859375 35.058594 59.214844 34.78125 C 58.582031 34.507812 58.257812 34.382812 57.976562 34.304688 C 57.871094 34.273438 57.785156 34.242188 57.78125 34.230469 C 57.773438 34.203125 58.117188 34.003906 58.328125 33.914062 C 58.566406 33.8125 58.863281 33.738281 59.386719 33.648438 C 60.097656 33.527344 60.390625 33.449219 60.726562 33.28125 C 61.042969 33.121094 61.304688 32.902344 61.375 32.738281 C 61.441406 32.574219 61.382812 32.414062 61.222656 32.332031 C 61.027344 32.234375 60.667969 32.226562 59.765625 32.296875 C 58.433594 32.398438 57.671875 32.515625 57.113281 32.703125 C 56.96875 32.75 56.839844 32.789062 56.832031 32.789062 C 56.820312 32.789062 56.832031 32.71875 56.851562 32.632812 C 56.875 32.546875 56.925781 32.335938 56.964844 32.164062 L 57.035156 31.851562 L 57.050781 31.117188 C 57.070312 30.394531 57.082031 30.222656 57.164062 29.785156 C 57.273438 29.175781 57.539062 28.390625 57.789062 27.933594 C 57.878906 27.761719 58.027344 27.566406 58.058594 27.566406 C 58.089844 27.566406 58.132812 27.667969 58.167969 27.828125 C 58.207031 28.039062 58.234375 28.398438 58.257812 29.128906 C 58.300781 30.40625 58.402344 30.785156 58.800781 31.160156 C 59.3125 31.636719 60.183594 31.828125 61.988281 31.855469 C 63.03125 31.871094 63.628906 31.851562 66.1875 31.699219 C 66.753906 31.667969 67.414062 31.628906 67.65625 31.617188 C 67.902344 31.601562 68.535156 31.589844 69.066406 31.589844 C 70.574219 31.589844 70.617188 31.609375 70.363281 32.160156 C 70.222656 32.460938 70.179688 32.601562 70.179688 32.761719 C 70.179688 32.964844 70.269531 33.074219 70.472656 33.117188 C 70.566406 33.136719 70.632812 33.132812 70.976562 33.074219 C 71.449219 32.996094 71.617188 32.996094 71.761719 33.074219 C 71.921875 33.164062 71.988281 33.363281 71.929688 33.605469 C 71.867188 33.871094 71.753906 34.042969 71.339844 34.472656 C 71.167969 34.652344 70.960938 34.878906 70.875 34.980469 C 70.792969 35.078125 70.71875 35.167969 70.710938 35.175781 C 70.703125 35.1875 70.71875 35.105469 70.75 34.992188 C 70.894531 34.488281 70.863281 34.164062 70.65625 34.019531 C 70.273438 33.757812 69.496094 34.488281 69.105469 35.472656 C 68.820312 36.199219 68.78125 36.894531 69.011719 37.167969 C 69.035156 37.199219 69.058594 37.234375 69.058594 37.246094 C 69.058594 37.269531 68.519531 37.796875 68.347656 37.941406 C 68.203125 38.058594 68.109375 38.105469 67.992188 38.128906 C 67.882812 38.144531 67.773438 38.199219 67.714844 38.261719 C 67.691406 38.285156 67.605469 38.414062 67.523438 38.542969 C 67.292969 38.914062 67.160156 39.066406 67.070312 39.066406 C 67.050781 39.066406 66.957031 38.984375 66.863281 38.886719 C 66.679688 38.695312 66.558594 38.621094 66.355469 38.578125 C 66.175781 38.539062 65.773438 38.570312 65.371094 38.648438 C 65.179688 38.691406 64.960938 38.722656 64.886719 38.722656 C 64.574219 38.722656 64.214844 38.789062 63.695312 38.933594 C 63.515625 38.988281 63.304688 39.042969 63.230469 39.058594 C 63.050781 39.09375 62.789062 39.09375 62.703125 39.058594 C 62.601562 39.015625 62.476562 38.894531 62.355469 38.722656 C 62.21875 38.519531 62.195312 38.503906 62.152344 38.546875 C 62.066406 38.636719 62.160156 38.917969 62.335938 39.097656 C 62.503906 39.261719 62.738281 39.347656 62.972656 39.320312 C 63.070312 39.308594 63.078125 39.308594 63.0625 39.34375 C 62.984375 39.527344 63.085938 39.648438 63.378906 39.722656 C 63.554688 39.765625 64.171875 39.785156 64.445312 39.753906 C 65.339844 39.652344 65.820312 39.414062 65.742188 39.113281 C 65.734375 39.078125 65.691406 39.015625 65.644531 38.972656 C 65.582031 38.914062 65.5625 38.882812 65.582031 38.875 C 65.65625 38.847656 65.980469 38.820312 66.144531 38.828125 C 66.402344 38.839844 66.5 38.886719 66.734375 39.121094 C 66.878906 39.265625 66.933594 39.308594 66.992188 39.320312 C 67.191406 39.355469 67.363281 39.214844 67.65625 38.761719 C 67.769531 38.589844 67.878906 38.4375 67.894531 38.425781 C 67.914062 38.40625 67.988281 38.382812 68.0625 38.371094 C 68.320312 38.316406 68.46875 38.203125 69.046875 37.621094 C 69.246094 37.421875 69.445312 37.230469 69.488281 37.199219 C 69.691406 37.050781 69.859375 36.839844 70.402344 36.027344 C 70.9375 35.234375 71.039062 35.097656 71.425781 34.675781 C 71.597656 34.488281 71.785156 34.277344 71.839844 34.203125 C 72.28125 33.617188 72.226562 32.984375 71.722656 32.832031 C 71.546875 32.777344 71.355469 32.777344 70.941406 32.839844 C 70.570312 32.894531 70.476562 32.890625 70.449219 32.824219 C 70.414062 32.730469 70.453125 32.59375 70.640625 32.203125 C 70.789062 31.886719 70.816406 31.773438 70.761719 31.628906 C 70.675781 31.398438 70.425781 31.3125 69.738281 31.277344 C 69.160156 31.246094 68.289062 31.273438 65.652344 31.417969 C 65.050781 31.449219 64.273438 31.492188 63.929688 31.507812 C 60.878906 31.65625 59.703125 31.566406 59.054688 31.132812 C 58.75 30.929688 58.59375 30.652344 58.511719 30.179688 C 58.476562 29.960938 58.441406 29.347656 58.441406 28.847656 C 58.441406 28.632812 58.429688 28.332031 58.421875 28.167969 C 58.386719 27.679688 58.339844 27.484375 58.226562 27.371094 C 58.167969 27.3125 58.144531 27.300781 58.0625 27.300781 C 58.003906 27.300781 57.941406 27.316406 57.90625 27.339844 Z M 70.527344 34.242188 C 70.613281 34.289062 70.632812 34.488281 70.582031 34.753906 C 70.496094 35.207031 70.199219 35.824219 69.808594 36.371094 C 69.605469 36.65625 69.316406 36.988281 69.277344 36.988281 C 69.21875 36.988281 69.191406 36.847656 69.207031 36.582031 C 69.246094 35.652344 69.949219 34.359375 70.484375 34.226562 C 70.488281 34.222656 70.507812 34.230469 70.527344 34.242188 Z M 57.367188 35.878906 C 57.515625 35.902344 58.007812 36.023438 58.03125 36.046875 C 58.046875 36.0625 58.070312 36.050781 57.804688 36.179688 C 57.351562 36.398438 56.53125 36.875 56.082031 37.175781 L 55.851562 37.332031 L 55.84375 37.234375 C 55.835938 37.109375 55.890625 36.78125 55.949219 36.609375 C 56.019531 36.402344 56.097656 36.265625 56.207031 36.148438 C 56.464844 35.875 56.789062 35.800781 57.367188 35.878906 Z M 58.378906 36.226562 C 58.378906 36.265625 58.257812 36.46875 58.132812 36.632812 C 57.972656 36.847656 57.4375 37.378906 57.171875 37.589844 C 56.757812 37.921875 56.324219 38.179688 56.132812 38.210938 C 56.019531 38.226562 55.96875 38.195312 55.921875 38.089844 C 55.875 37.980469 55.835938 37.761719 55.855469 37.722656 C 55.882812 37.675781 56.160156 37.46875 56.484375 37.25 C 57.039062 36.878906 57.605469 36.546875 58.027344 36.339844 C 58.304688 36.203125 58.378906 36.179688 58.378906 36.226562 Z M 65.390625 39.015625 C 65.527344 39.078125 65.574219 39.121094 65.574219 39.175781 C 65.574219 39.347656 64.949219 39.519531 64.242188 39.542969 C 63.804688 39.558594 63.335938 39.507812 63.335938 39.449219 C 63.335938 39.398438 63.847656 39.238281 64.402344 39.117188 C 64.585938 39.078125 64.8125 39.027344 64.90625 39.007812 C 65.148438 38.953125 65.257812 38.953125 65.390625 39.015625 Z M 65.390625 39.015625 " fill-opacity="1" fill-rule="nonzero"/></g></svg>