<svg xmlns="http://www.w3.org/2000/svg" xmlns:xlink="http://www.w3.org/1999/xlink" width="200" zoomAndPan="magnify" viewBox="0 0 150 74.999997" height="100" preserveAspectRatio="xMidYMid meet" version="1.0"><defs><g/><clipPath id="7be700f162"><path d="M 56.164062 38.574219 L 93.554688 38.574219 L 93.554688 52.824219 L 56.164062 52.824219 Z M 56.164062 38.574219 " clip-rule="nonzero"/></clipPath></defs><g clip-path="url(#7be700f162)"><path fill="#000000" d="M 62.445312 50.828125 C 62.5 50.863281 62.578125 50.859375 62.710938 50.882812 C 62.65625 50.722656 62.625 50.613281 62.582031 50.511719 C 62.421875 50.113281 62.269531 49.734375 62.277344 49.277344 C 62.285156 48.9375 62.121094 48.59375 62.023438 48.230469 C 62.242188 48.46875 62.449219 48.6875 62.652344 48.910156 C 63.066406 49.355469 63.527344 49.71875 64.117188 49.878906 C 64.355469 49.941406 64.46875 50.144531 64.617188 50.304688 C 64.71875 50.414062 64.816406 50.484375 64.957031 50.5 C 65.066406 50.414062 65.027344 50.328125 64.972656 50.242188 C 64.707031 49.804688 64.46875 49.347656 64.167969 48.941406 C 63.992188 48.710938 63.722656 48.546875 63.476562 48.382812 C 63.011719 48.078125 62.535156 47.796875 62.0625 47.5 C 61.9375 47.425781 61.832031 47.289062 61.664062 47.410156 C 61.640625 47.421875 61.574219 47.375 61.535156 47.347656 C 61.359375 47.210938 61.191406 47.066406 61.015625 46.933594 C 60.699219 46.6875 60.378906 46.449219 60.019531 46.175781 C 60.425781 46.105469 60.773438 46.171875 61.121094 46.195312 C 61.609375 46.230469 62.097656 46.304688 62.585938 46.308594 C 62.992188 46.3125 63.398438 46.371094 63.804688 46.296875 C 63.933594 46.273438 64.09375 46.339844 64.214844 46.40625 C 64.457031 46.539062 64.6875 46.683594 64.964844 46.734375 C 65.113281 46.761719 65.234375 46.90625 65.378906 46.957031 C 65.730469 47.078125 65.898438 47.417969 66.179688 47.617188 C 66.335938 47.726562 66.460938 47.882812 66.613281 48 C 66.839844 48.171875 66.949219 48.414062 66.988281 48.679688 C 67.042969 49.082031 67.0625 49.492188 67.101562 49.898438 C 67.117188 50.027344 67.144531 50.15625 67.183594 50.277344 C 67.292969 50.625 67.390625 50.980469 67.542969 51.308594 C 67.652344 51.546875 67.828125 51.757812 67.996094 51.960938 C 68.035156 52.011719 68.148438 51.996094 68.226562 52.011719 C 68.335938 51.855469 68.320312 51.730469 68.238281 51.582031 C 68.023438 51.183594 67.964844 50.753906 68 50.304688 C 68.015625 50.089844 67.972656 49.882812 67.933594 49.667969 C 67.859375 49.234375 67.578125 48.90625 67.40625 48.453125 C 67.71875 48.683594 67.933594 48.933594 68.140625 49.191406 C 68.511719 49.664062 68.933594 50.082031 69.480469 50.339844 C 69.621094 50.40625 69.777344 50.4375 69.921875 50.5 C 70.132812 50.589844 70.34375 50.691406 70.550781 50.792969 C 70.746094 50.894531 70.941406 50.996094 71.128906 51.109375 C 71.273438 51.199219 71.417969 51.292969 71.542969 51.40625 C 71.675781 51.53125 71.765625 51.476562 71.875 51.359375 C 71.761719 50.933594 71.523438 50.589844 71.222656 50.265625 C 70.859375 49.871094 70.417969 49.621094 69.949219 49.402344 C 69.789062 49.324219 69.644531 49.210938 69.492188 49.117188 C 69.390625 49.058594 69.285156 49.007812 69.179688 48.960938 C 68.8125 48.808594 68.441406 48.667969 68.078125 48.503906 C 67.636719 48.304688 67.242188 48.03125 66.902344 47.671875 C 66.800781 47.566406 66.660156 47.5 66.542969 47.410156 C 66.421875 47.324219 66.3125 47.21875 66.183594 47.152344 C 65.777344 46.9375 65.367188 46.734375 64.953125 46.535156 C 64.785156 46.457031 64.601562 46.410156 64.425781 46.34375 C 64.429688 46.320312 64.433594 46.296875 64.4375 46.273438 C 64.597656 46.273438 64.757812 46.269531 64.917969 46.273438 C 65.097656 46.273438 65.277344 46.300781 65.453125 46.28125 C 66.042969 46.222656 66.636719 46.289062 67.207031 46.410156 C 67.929688 46.566406 68.675781 46.714844 69.3125 47.152344 C 69.679688 47.402344 70.0625 47.617188 70.457031 47.820312 C 70.71875 47.953125 70.964844 48.136719 71.230469 48.273438 C 71.53125 48.425781 71.855469 48.535156 72.191406 48.589844 C 72.242188 48.597656 72.296875 48.5625 72.390625 48.539062 C 72.214844 48.335938 72.003906 48.261719 71.816406 48.242188 C 71.660156 48.222656 71.542969 48.164062 71.417969 48.097656 C 70.910156 47.816406 70.398438 47.539062 69.886719 47.257812 C 69.84375 47.234375 69.808594 47.195312 69.777344 47.113281 C 70.0625 47.128906 70.347656 47.144531 70.632812 47.164062 C 70.746094 47.171875 70.859375 47.207031 70.972656 47.199219 C 71.460938 47.164062 71.910156 47.308594 72.359375 47.464844 C 72.625 47.558594 72.886719 47.679688 73.164062 47.746094 C 73.585938 47.855469 74.019531 47.933594 74.449219 48.019531 C 74.660156 48.058594 74.847656 48.117188 75.027344 48.246094 C 75.394531 48.519531 75.777344 48.769531 76.214844 48.917969 C 76.351562 48.964844 76.4375 49.039062 76.488281 49.195312 C 76.554688 49.410156 76.691406 49.597656 76.757812 49.8125 C 76.84375 50.074219 76.886719 50.351562 76.957031 50.617188 C 77.0625 51.042969 77.21875 51.429688 77.527344 51.753906 C 77.730469 51.96875 77.851562 52.253906 77.914062 52.558594 C 77.964844 52.804688 77.972656 52.804688 78.25 52.824219 C 78.433594 52.457031 78.402344 52.078125 78.316406 51.683594 C 78.226562 51.28125 78.066406 50.910156 77.914062 50.535156 C 77.894531 50.488281 77.839844 50.457031 77.816406 50.414062 C 77.746094 50.28125 77.574219 50.214844 77.613281 50 C 77.625 49.921875 77.46875 49.804688 77.375 49.71875 C 77.203125 49.5625 77.023438 49.417969 76.871094 49.226562 C 77.117188 49.324219 77.355469 49.433594 77.605469 49.515625 C 77.734375 49.558594 77.878906 49.5625 78.015625 49.582031 C 78.015625 49.585938 78.015625 49.585938 78.011719 49.589844 C 78.070312 49.617188 78.121094 49.660156 78.179688 49.671875 C 78.640625 49.761719 78.957031 50.03125 79.222656 50.429688 C 79.398438 50.6875 79.65625 50.890625 79.894531 51.097656 C 80.339844 51.484375 80.890625 51.625 81.433594 51.804688 C 81.695312 51.890625 81.917969 52.09375 82.160156 52.246094 C 82.222656 52.285156 82.28125 52.339844 82.347656 52.359375 C 82.398438 52.375 82.484375 52.371094 82.515625 52.335938 C 82.542969 52.300781 82.539062 52.214844 82.523438 52.160156 C 82.5 52.089844 82.457031 52.023438 82.414062 51.964844 C 82.109375 51.554688 81.808594 51.140625 81.375 50.871094 C 81.085938 50.691406 80.785156 50.542969 80.484375 50.386719 C 80.328125 50.304688 80.160156 50.234375 79.992188 50.171875 C 79.894531 50.132812 79.78125 50.078125 79.691406 50.101562 C 79.539062 50.140625 79.464844 50.042969 79.367188 49.96875 C 79.65625 49.96875 79.9375 49.972656 80.207031 50.105469 C 80.546875 50.269531 80.90625 50.382812 81.285156 50.414062 C 81.410156 50.421875 81.535156 50.464844 81.652344 50.511719 C 82.023438 50.648438 82.402344 50.527344 82.777344 50.527344 C 83.160156 50.527344 83.554688 50.507812 83.929688 50.425781 C 84.511719 50.296875 85.101562 50.175781 85.640625 49.90625 C 85.824219 49.8125 85.976562 49.652344 86.148438 49.527344 C 86.292969 49.421875 86.429688 49.300781 86.589844 49.226562 C 86.890625 49.078125 87.171875 48.882812 87.527344 48.855469 L 87.527344 48.765625 C 87.441406 48.710938 87.363281 48.617188 87.277344 48.609375 C 86.726562 48.578125 86.179688 48.539062 85.621094 48.660156 C 85.050781 48.785156 84.625 49.128906 84.175781 49.449219 C 83.671875 49.804688 83.164062 50.140625 82.554688 50.28125 C 82.292969 50.34375 82.039062 50.351562 81.777344 50.300781 C 81.566406 50.261719 81.351562 50.222656 81.140625 50.167969 C 80.925781 50.113281 80.699219 50.074219 80.507812 49.96875 C 79.984375 49.675781 79.394531 49.707031 78.839844 49.570312 C 78.742188 49.542969 78.636719 49.53125 78.550781 49.484375 C 78.03125 49.183594 77.472656 49 76.910156 48.8125 C 76.570312 48.699219 76.238281 48.570312 75.941406 48.359375 C 75.878906 48.3125 75.804688 48.277344 75.675781 48.207031 C 75.917969 48.21875 76.105469 48.238281 76.292969 48.234375 C 76.480469 48.230469 76.667969 48.203125 76.859375 48.1875 C 77.046875 48.175781 77.246094 48.191406 77.394531 48.035156 C 76.675781 48.09375 75.957031 48.226562 75.253906 47.945312 C 75.996094 48.085938 76.730469 48.003906 77.472656 47.875 C 77.558594 48.035156 77.695312 48.058594 77.859375 48.007812 C 78.4375 47.839844 78.96875 47.972656 79.492188 48.242188 C 79.875 48.4375 80.207031 48.742188 80.644531 48.824219 C 80.75 48.84375 80.851562 48.878906 80.953125 48.886719 C 81.457031 48.929688 81.960938 48.957031 82.421875 49.234375 C 82.542969 49.125 82.574219 49.023438 82.453125 48.902344 C 82.113281 48.566406 81.777344 48.222656 81.3125 48.070312 C 81.078125 47.78125 80.746094 47.8125 80.429688 47.796875 C 80.328125 47.789062 80.222656 47.773438 80.101562 47.761719 C 80.160156 47.6875 80.214844 47.625 80.265625 47.5625 C 80.042969 47.582031 79.820312 47.601562 79.597656 47.621094 C 79.816406 47.503906 80.058594 47.464844 80.265625 47.351562 C 80.648438 47.152344 81.074219 47.152344 81.46875 47.019531 C 81.535156 47 81.617188 47.015625 81.691406 47.015625 C 81.691406 47.03125 81.695312 47.050781 81.695312 47.066406 C 81.574219 47.132812 81.449219 47.199219 81.324219 47.265625 C 81.453125 47.371094 81.59375 47.324219 81.691406 47.242188 C 81.945312 47.019531 82.285156 46.984375 82.554688 46.796875 C 82.699219 46.695312 82.898438 46.667969 83.023438 46.554688 C 83.210938 46.378906 83.4375 46.355469 83.65625 46.316406 C 83.894531 46.273438 84.136719 46.226562 84.375 46.234375 C 84.601562 46.246094 84.832031 46.304688 85.050781 46.371094 C 85.472656 46.5 85.902344 46.601562 86.292969 46.824219 C 86.375 46.871094 86.503906 46.875 86.597656 46.851562 C 86.847656 46.785156 87.0625 46.863281 87.246094 47.015625 C 87.367188 47.117188 87.460938 47.113281 87.609375 47.035156 C 87.5625 46.800781 87.378906 46.660156 87.230469 46.519531 C 86.835938 46.148438 86.332031 45.960938 85.84375 45.777344 C 85.570312 45.671875 85.242188 45.730469 84.941406 45.71875 C 84.84375 45.714844 84.746094 45.71875 84.648438 45.71875 C 84.644531 45.695312 84.636719 45.671875 84.632812 45.648438 C 84.851562 45.5 85.058594 45.300781 85.300781 45.214844 C 85.699219 45.070312 86.125 45.023438 86.53125 44.902344 C 87.058594 44.75 87.617188 44.667969 88.054688 44.277344 C 88.183594 44.160156 88.300781 44.039062 88.371094 43.863281 C 88.539062 43.453125 88.785156 43.089844 89.128906 42.792969 C 89.089844 42.726562 89.054688 42.675781 89.011719 42.609375 C 88.4375 42.84375 87.867188 43.074219 87.296875 43.308594 C 87.328125 43.273438 87.359375 43.21875 87.40625 43.183594 C 87.710938 42.960938 88.011719 42.730469 88.371094 42.59375 C 88.664062 42.484375 88.9375 42.3125 89.226562 42.199219 C 89.527344 42.082031 89.835938 42.074219 90.132812 42.242188 C 90.175781 42.269531 90.230469 42.292969 90.277344 42.289062 C 90.539062 42.269531 90.765625 42.398438 91.007812 42.453125 C 91.453125 42.558594 91.910156 42.589844 92.355469 42.394531 C 92.640625 42.269531 92.90625 42.398438 93.152344 42.546875 C 93.292969 42.628906 93.417969 42.667969 93.554688 42.523438 C 93.523438 42.339844 93.398438 42.230469 93.238281 42.164062 C 93.101562 42.105469 92.957031 42.070312 92.816406 42.03125 C 92.484375 41.933594 92.152344 41.828125 91.816406 41.742188 C 91.3125 41.617188 90.816406 41.699219 90.316406 41.800781 C 90.269531 41.8125 90.222656 41.824219 90.152344 41.78125 C 90.433594 41.613281 90.714844 41.445312 90.996094 41.277344 C 91.382812 41.039062 91.675781 40.707031 91.902344 40.3125 C 92.132812 39.917969 92.351562 39.515625 92.574219 39.113281 C 92.636719 39 92.699219 38.894531 92.839844 38.855469 C 92.890625 38.839844 92.925781 38.765625 92.980469 38.707031 C 92.886719 38.601562 92.824219 38.523438 92.667969 38.621094 C 92.296875 38.847656 91.898438 39.019531 91.539062 39.261719 C 91.269531 39.445312 91.023438 39.679688 90.8125 39.933594 C 90.476562 40.335938 90.183594 40.777344 89.914062 41.230469 C 89.691406 41.601562 89.359375 41.855469 88.957031 42.011719 C 88.703125 42.113281 88.480469 42.285156 88.234375 42.398438 C 87.890625 42.558594 87.582031 42.769531 87.296875 43.015625 C 87.101562 43.175781 86.894531 43.335938 86.753906 43.542969 C 86.429688 44.015625 86.003906 44.382812 85.621094 44.796875 C 85.53125 44.898438 85.359375 44.917969 85.234375 44.992188 C 84.949219 45.160156 84.667969 45.335938 84.359375 45.527344 C 84.492188 45.273438 84.609375 45.050781 84.714844 44.824219 C 84.773438 44.695312 84.804688 44.558594 84.847656 44.425781 C 84.855469 44.394531 84.855469 44.355469 84.871094 44.332031 C 85.109375 44.019531 85.121094 43.585938 85.398438 43.289062 C 85.480469 43.199219 85.53125 43.074219 85.597656 42.964844 C 85.441406 42.757812 85.4375 42.75 85.265625 42.890625 C 84.976562 43.121094 84.691406 43.363281 84.410156 43.605469 C 84.085938 43.886719 84.011719 44.300781 83.882812 44.6875 C 83.789062 44.960938 83.8125 45.273438 83.628906 45.515625 C 83.558594 45.605469 83.488281 45.695312 83.414062 45.785156 C 83.402344 45.800781 83.367188 45.8125 83.367188 45.824219 C 83.382812 46.136719 83.117188 46.125 82.945312 46.238281 C 82.472656 46.542969 81.949219 46.65625 81.414062 46.777344 C 81.011719 46.867188 80.585938 46.929688 80.214844 47.15625 C 80.171875 47.179688 80.121094 47.1875 80.042969 47.160156 C 80.226562 47.035156 80.40625 46.910156 80.585938 46.78125 C 80.726562 46.683594 80.855469 46.582031 80.996094 46.484375 C 81.054688 46.441406 81.121094 46.417969 81.183594 46.378906 C 81.527344 46.164062 81.9375 46.050781 82.195312 45.695312 C 82.21875 45.664062 82.234375 45.625 82.285156 45.527344 C 82.152344 45.601562 82.074219 45.644531 81.996094 45.691406 C 81.71875 45.863281 81.441406 46.03125 81.164062 46.199219 C 80.960938 46.324219 80.75 46.433594 80.554688 46.570312 C 80.269531 46.765625 80.011719 47 79.71875 47.183594 C 79.511719 47.3125 79.269531 47.386719 79.039062 47.472656 C 78.886719 47.53125 78.707031 47.519531 78.582031 47.65625 C 78.554688 47.683594 78.492188 47.707031 78.464844 47.691406 C 78.253906 47.585938 78.039062 47.664062 77.828125 47.671875 C 77.640625 47.679688 77.453125 47.671875 77.269531 47.6875 C 76.9375 47.71875 76.605469 47.765625 76.273438 47.792969 C 76.175781 47.804688 76.070312 47.773438 75.929688 47.757812 C 76.328125 47.453125 76.6875 47.195312 77.101562 47.003906 C 77.449219 46.847656 77.734375 46.554688 78.042969 46.316406 C 78.203125 46.195312 78.355469 46.066406 78.515625 45.941406 C 78.539062 45.925781 78.574219 45.902344 78.601562 45.90625 C 78.976562 46.007812 79.214844 45.617188 79.5625 45.617188 C 79.578125 45.617188 79.597656 45.589844 79.617188 45.585938 C 80.359375 45.441406 80.699219 44.832031 81.046875 44.25 C 81.265625 43.882812 81.480469 43.515625 81.757812 43.191406 C 81.792969 43.152344 81.835938 43.109375 81.882812 43.097656 C 82.019531 43.058594 82.011719 42.941406 81.972656 42.867188 C 81.949219 42.820312 81.824219 42.785156 81.765625 42.804688 C 81.480469 42.910156 81.203125 43.027344 80.964844 43.230469 C 80.476562 43.648438 80.0625 44.125 79.78125 44.726562 C 79.644531 45.019531 79.480469 45.324219 79.148438 45.460938 C 79.101562 45.480469 79.058594 45.523438 79.007812 45.535156 C 78.582031 45.617188 78.234375 45.847656 77.925781 46.152344 C 77.816406 46.261719 77.671875 46.335938 77.527344 46.433594 C 77.535156 46.386719 77.527344 46.359375 77.539062 46.347656 C 77.960938 45.90625 78.21875 45.359375 78.445312 44.804688 C 78.5625 44.515625 78.585938 44.179688 78.617188 43.863281 C 78.640625 43.578125 78.6875 43.3125 78.820312 43.058594 C 78.886719 42.929688 78.886719 42.769531 78.917969 42.625 C 78.78125 42.519531 78.671875 42.503906 78.523438 42.566406 C 78.242188 42.691406 78.074219 42.886719 77.980469 43.1875 C 77.84375 43.628906 77.675781 44.058594 77.535156 44.5 C 77.464844 44.722656 77.402344 44.953125 77.367188 45.183594 C 77.300781 45.609375 77.039062 45.925781 76.847656 46.285156 C 76.726562 46.511719 76.582031 46.730469 76.417969 46.921875 C 76.285156 47.082031 76.121094 47.242188 75.9375 47.324219 C 75.703125 47.433594 75.4375 47.5 75.179688 47.519531 C 74.683594 47.5625 74.191406 47.558594 73.699219 47.390625 C 73.097656 47.1875 72.460938 47.121094 71.828125 47.054688 C 71.054688 46.972656 70.285156 46.894531 69.507812 46.871094 C 69.355469 46.867188 69.207031 46.792969 69.058594 46.734375 C 68.679688 46.582031 68.304688 46.410156 67.917969 46.273438 C 67.671875 46.1875 67.414062 46.152344 67.160156 46.089844 C 67.082031 46.070312 67.003906 46.03125 66.921875 45.941406 C 67.109375 45.90625 67.296875 45.84375 67.488281 45.839844 C 67.957031 45.832031 68.433594 45.816406 68.898438 45.875 C 69.371094 45.933594 69.835938 46.078125 70.304688 46.183594 C 70.367188 46.195312 70.429688 46.207031 70.488281 46.21875 C 71.011719 46.339844 71.539062 46.453125 72.058594 46.578125 C 72.46875 46.675781 72.882812 46.644531 73.273438 46.523438 C 73.574219 46.433594 73.863281 46.382812 74.171875 46.425781 C 74.289062 46.445312 74.414062 46.417969 74.554688 46.414062 C 74.535156 46.136719 74.34375 46.089844 74.1875 46.046875 C 73.84375 45.957031 73.492188 45.90625 73.148438 45.8125 C 72.890625 45.738281 72.640625 45.738281 72.378906 45.757812 C 71.867188 45.796875 71.363281 45.894531 70.847656 45.820312 C 70.648438 45.789062 70.425781 45.757812 70.222656 45.855469 C 70.195312 45.871094 70.160156 45.875 70.128906 45.867188 C 69.816406 45.808594 69.5 45.746094 69.1875 45.683594 C 69.136719 45.671875 69.085938 45.644531 69.035156 45.644531 C 68.417969 45.65625 67.796875 45.519531 67.179688 45.65625 C 66.898438 45.71875 66.621094 45.820312 66.335938 45.886719 C 66.210938 45.917969 66.074219 45.910156 65.945312 45.921875 C 65.941406 45.898438 65.9375 45.875 65.9375 45.855469 C 66.03125 45.828125 66.125 45.804688 66.21875 45.777344 C 66.460938 45.707031 66.699219 45.632812 66.941406 45.574219 C 67.117188 45.53125 67.292969 45.523438 67.46875 45.492188 C 67.714844 45.445312 67.960938 45.390625 68.207031 45.339844 C 68.347656 45.308594 68.488281 45.265625 68.628906 45.238281 C 69.128906 45.144531 69.5 44.835938 69.855469 44.496094 C 70.125 44.238281 70.339844 43.921875 70.679688 43.75 C 70.730469 43.722656 70.753906 43.632812 70.792969 43.574219 C 70.722656 43.53125 70.660156 43.460938 70.589844 43.457031 C 70.480469 43.449219 70.347656 43.457031 70.257812 43.511719 C 70.136719 43.589844 70.007812 43.613281 69.871094 43.636719 C 69.503906 43.703125 69.226562 43.941406 68.957031 44.175781 C 68.664062 44.433594 68.410156 44.734375 68.125 45.003906 C 68.0625 45.066406 67.960938 45.097656 67.871094 45.117188 C 67.441406 45.222656 67.011719 45.320312 66.585938 45.441406 C 66.058594 45.585938 65.5 45.613281 64.953125 45.699219 C 64.6875 45.742188 64.425781 45.800781 64.160156 45.855469 C 64.027344 45.882812 63.894531 45.933594 63.761719 45.933594 C 63.105469 45.925781 62.445312 45.90625 61.78125 45.863281 C 62.082031 45.621094 62.449219 45.515625 62.800781 45.421875 C 63.15625 45.328125 63.539062 45.347656 63.945312 45.167969 C 63.847656 45.125 63.8125 45.089844 63.777344 45.09375 C 63.355469 45.15625 62.925781 45.203125 62.511719 45.304688 C 62.238281 45.367188 61.972656 45.484375 61.726562 45.617188 C 61.25 45.878906 60.75 45.902344 60.238281 45.832031 C 59.570312 45.738281 58.890625 45.664062 58.238281 45.488281 C 57.558594 45.304688 56.871094 45.125 56.242188 44.792969 C 56.242188 44.835938 56.234375 44.886719 56.214844 44.941406 C 56.199219 44.972656 56.183594 45 56.164062 45.027344 C 56.3125 45.097656 56.46875 45.160156 56.625 45.210938 C 56.871094 45.292969 57.105469 45.421875 57.347656 45.519531 C 57.542969 45.597656 57.738281 45.679688 57.941406 45.730469 C 58.523438 45.867188 59.117188 45.96875 59.660156 46.230469 C 59.933594 46.363281 60.171875 46.570312 60.425781 46.746094 C 60.503906 46.796875 60.59375 46.84375 60.65625 46.914062 C 60.972656 47.261719 61.359375 47.558594 61.316406 48.140625 C 61.292969 48.414062 61.328125 48.691406 61.25 48.964844 C 61.175781 49.230469 61.289062 49.488281 61.382812 49.71875 C 61.515625 50.023438 61.71875 50.292969 61.988281 50.492188 C 62.140625 50.605469 62.289062 50.726562 62.445312 50.828125 Z M 68.722656 44.890625 C 68.730469 44.847656 68.726562 44.816406 68.738281 44.804688 C 69.058594 44.503906 69.378906 44.203125 69.707031 43.910156 C 69.804688 43.824219 69.910156 43.855469 70.042969 43.933594 C 69.742188 44.203125 69.457031 44.441406 69.1875 44.699219 C 69.058594 44.820312 68.917969 44.890625 68.722656 44.890625 Z M 71.417969 46.136719 C 72.140625 45.925781 72.839844 45.925781 73.558594 46.183594 C 72.828125 46.476562 72.132812 46.378906 71.417969 46.136719 Z M 77.230469 46.242188 C 77.273438 46.125 77.292969 46.058594 77.320312 45.996094 C 77.382812 45.871094 77.464844 45.753906 77.503906 45.621094 C 77.617188 45.273438 77.714844 44.921875 77.808594 44.570312 C 77.855469 44.398438 77.851562 44.210938 77.910156 44.042969 C 78.015625 43.734375 78.136719 43.433594 78.265625 43.132812 C 78.328125 42.996094 78.382812 42.828125 78.585938 42.824219 C 78.5 43.113281 78.394531 43.382812 78.34375 43.664062 C 78.296875 43.949219 78.304688 44.242188 78.285156 44.550781 C 78.15625 44.820312 78.019531 45.121094 77.863281 45.410156 C 77.703125 45.699219 77.574219 46.015625 77.230469 46.242188 Z M 79.824219 45.324219 C 79.796875 45.308594 79.773438 45.289062 79.746094 45.269531 C 79.949219 44.945312 80.160156 44.628906 80.355469 44.300781 C 80.566406 43.9375 80.867188 43.679688 81.195312 43.4375 C 80.824219 44.140625 80.464844 44.847656 79.824219 45.324219 Z M 76.800781 46.890625 C 76.984375 46.789062 77.058594 46.527344 77.320312 46.527344 C 77.105469 46.804688 77.078125 46.824219 76.800781 46.890625 Z M 91.949219 39.984375 C 91.964844 39.925781 91.984375 39.867188 92 39.808594 C 92.011719 39.816406 92.027344 39.824219 92.039062 39.832031 Z M 89.867188 41.691406 C 90.113281 41.332031 90.332031 40.988281 90.574219 40.65625 C 90.855469 40.273438 91.128906 39.886719 91.476562 39.558594 C 91.589844 39.449219 92.003906 39.230469 92.21875 39.1875 C 92.132812 39.320312 92.066406 39.421875 92 39.527344 C 92.066406 39.507812 92.132812 39.492188 92.191406 39.476562 C 92.171875 39.628906 92.070312 39.519531 92.003906 39.527344 C 91.90625 39.726562 91.808594 39.921875 91.722656 40.125 C 91.613281 40.375 91.53125 40.5 91.367188 40.644531 L 91.496094 40.691406 C 91.488281 40.699219 91.484375 40.710938 91.476562 40.722656 C 91.441406 40.699219 91.402344 40.671875 91.367188 40.648438 C 90.941406 41.109375 90.425781 41.417969 89.867188 41.691406 Z M 90.285156 42.007812 C 90.53125 41.945312 90.761719 41.917969 90.996094 41.90625 C 91.34375 41.890625 91.691406 41.886719 92.007812 42.074219 C 92.117188 42.136719 92.21875 42.152344 92.3125 42.027344 C 92.246094 42.230469 92.09375 42.261719 91.9375 42.292969 C 91.621094 42.347656 91.316406 42.308594 91.011719 42.1875 C 90.851562 42.125 90.671875 42.105469 90.5 42.066406 C 90.429688 42.050781 90.359375 42.027344 90.285156 42.007812 Z M 86.21875 44.65625 C 86.828125 44.011719 87.445312 43.371094 88.371094 43.214844 C 88.296875 43.375 88.234375 43.558594 88.140625 43.71875 C 87.925781 44.074219 87.644531 44.359375 87.21875 44.4375 C 87.136719 44.453125 87.066406 44.507812 86.988281 44.53125 C 86.882812 44.566406 86.777344 44.605469 86.667969 44.621094 C 86.523438 44.640625 86.378906 44.644531 86.21875 44.65625 Z M 83.964844 45.449219 C 84.089844 44.757812 84.222656 44.058594 84.871094 43.628906 C 84.734375 44.011719 84.605469 44.398438 84.457031 44.777344 C 84.355469 45.046875 84.109375 45.355469 83.964844 45.449219 Z M 84.703125 45.984375 C 85.441406 45.953125 86.15625 46.003906 86.796875 46.515625 C 86.554688 46.613281 86.363281 46.621094 86.171875 46.496094 C 86.046875 46.414062 85.921875 46.328125 85.785156 46.289062 C 85.476562 46.195312 85.160156 46.132812 84.847656 46.054688 C 84.796875 46.039062 84.75 46.007812 84.703125 45.984375 Z M 80.683594 48.542969 C 80.382812 48.425781 80.101562 48.265625 79.808594 48.117188 C 79.765625 48.097656 79.730469 48.058594 79.652344 47.996094 C 80.019531 48.011719 80.335938 48.03125 80.648438 48.03125 C 80.847656 48.027344 81.015625 48.101562 81.175781 48.210938 C 81.324219 48.3125 81.480469 48.402344 81.628906 48.503906 C 81.714844 48.5625 81.796875 48.625 81.878906 48.683594 C 81.871094 48.699219 81.859375 48.714844 81.851562 48.730469 C 81.65625 48.703125 81.460938 48.675781 81.265625 48.644531 C 81.070312 48.613281 80.867188 48.613281 80.683594 48.542969 Z M 83.433594 50.273438 C 83.636719 50.125 83.839844 49.980469 84.042969 49.835938 C 84.085938 49.804688 84.125 49.769531 84.171875 49.742188 C 84.363281 49.613281 84.566406 49.503906 84.746094 49.363281 C 85.035156 49.140625 85.324219 48.9375 85.6875 48.867188 C 86.035156 48.800781 86.382812 48.753906 86.800781 48.824219 C 86.671875 48.898438 86.597656 48.933594 86.53125 48.976562 C 86.3125 49.117188 86.078125 49.238281 85.878906 49.40625 C 85.585938 49.648438 85.273438 49.824219 84.910156 49.917969 C 84.617188 49.996094 84.332031 50.105469 84.035156 50.171875 C 83.835938 50.214844 83.632812 50.320312 83.433594 50.273438 Z M 81.222656 51.054688 C 81.488281 51.21875 81.753906 51.429688 81.921875 51.796875 C 81.640625 51.6875 81.417969 51.601562 81.195312 51.519531 C 80.773438 51.363281 80.335938 51.230469 80.007812 50.890625 C 79.8125 50.6875 79.601562 50.503906 79.425781 50.222656 C 79.5 50.238281 79.527344 50.238281 79.554688 50.246094 C 80.140625 50.449219 80.699219 50.726562 81.222656 51.054688 Z M 77.015625 49.714844 C 77.40625 49.996094 77.566406 50.425781 77.753906 50.824219 C 77.941406 51.21875 78.078125 51.636719 78.097656 52.105469 C 78 52.027344 77.933594 51.980469 77.867188 51.929688 C 77.851562 51.914062 77.835938 51.894531 77.816406 51.878906 C 77.957031 51.734375 77.792969 51.667969 77.734375 51.601562 C 77.488281 51.335938 77.347656 51.007812 77.257812 50.664062 C 77.183594 50.378906 77.1875 50.070312 77.011719 49.816406 C 76.996094 49.796875 77.011719 49.757812 77.015625 49.714844 Z M 76.796875 49.042969 C 77.1875 49.152344 77.574219 49.277344 77.957031 49.402344 C 78.003906 49.417969 78.039062 49.460938 78.082031 49.492188 C 78.058594 49.523438 78.039062 49.550781 78.019531 49.582031 C 77.617188 49.390625 77.171875 49.300781 76.796875 49.042969 Z M 75.507812 48.347656 C 75.59375 48.402344 75.679688 48.457031 75.765625 48.511719 C 75.75 48.535156 75.738281 48.558594 75.722656 48.582031 L 75.464844 48.414062 Z M 72.632812 47.371094 C 72.71875 47.382812 72.808594 47.398438 72.898438 47.410156 C 73.292969 47.464844 73.640625 47.722656 74.058594 47.671875 C 74.070312 47.671875 74.082031 47.703125 74.113281 47.742188 C 74.015625 47.765625 73.917969 47.820312 73.839844 47.796875 C 73.433594 47.675781 73.003906 47.625 72.632812 47.371094 Z M 68.238281 48.851562 C 68.625 49.035156 68.972656 49.191406 69.308594 49.367188 C 69.808594 49.621094 70.296875 49.894531 70.773438 50.199219 C 71.050781 50.371094 71.15625 50.617188 71.300781 50.867188 C 71.167969 50.824219 71.050781 50.757812 70.933594 50.695312 C 70.667969 50.558594 70.417969 50.378906 70.140625 50.304688 C 69.382812 50.105469 68.839844 49.589844 68.304688 49.054688 C 68.273438 49.019531 68.269531 48.953125 68.238281 48.851562 Z M 67.34375 48.988281 C 67.785156 49.589844 67.71875 50.203125 67.703125 50.882812 C 67.421875 50.257812 67.339844 49.664062 67.34375 48.988281 Z M 62.714844 46.171875 C 62.71875 46.144531 62.71875 46.121094 62.722656 46.097656 C 62.859375 46.105469 62.996094 46.117188 63.136719 46.128906 C 63.132812 46.152344 63.132812 46.175781 63.128906 46.199219 C 62.992188 46.1875 62.855469 46.179688 62.714844 46.171875 Z M 62.015625 47.730469 C 62.175781 47.820312 62.34375 47.894531 62.5 47.996094 C 62.871094 48.234375 63.242188 48.484375 63.609375 48.738281 C 63.929688 48.957031 64.121094 49.273438 64.242188 49.664062 C 63.171875 49.394531 62.625 48.527344 62.015625 47.730469 Z M 62.101562 50.246094 C 62.03125 50.167969 61.964844 50.085938 61.894531 50.011719 C 61.582031 49.671875 61.457031 49.285156 61.605469 48.824219 C 61.625 48.757812 61.621094 48.675781 61.613281 48.605469 C 61.597656 48.414062 61.570312 48.226562 61.546875 48.042969 C 61.574219 48.03125 61.601562 48.019531 61.628906 48.011719 C 61.710938 48.273438 61.796875 48.535156 61.871094 48.800781 C 62.003906 49.261719 61.914062 49.765625 62.144531 50.207031 C 62.144531 50.210938 62.121094 50.230469 62.101562 50.246094 " fill-opacity="1" fill-rule="nonzero"/></g><g fill="#000000" fill-opacity="1"><g transform="translate(45.761085, 35.987557)"><g><path d="M 0.140625 -8.421875 L 1.640625 -8.421875 L 1.640625 -2.875 C 1.640625 -2.5 1.707031 -2.117188 1.84375 -1.734375 C 1.976562 -1.359375 2.160156 -1 2.390625 -0.65625 C 2.671875 -0.300781 2.976562 -0.0234375 3.3125 0.171875 C 3.65625 0.378906 4.007812 0.488281 4.375 0.5 C 4.175781 0.582031 3.953125 0.628906 3.703125 0.640625 C 3.453125 0.660156 3.191406 0.640625 2.921875 0.578125 C 2.648438 0.523438 2.378906 0.425781 2.109375 0.28125 C 1.835938 0.144531 1.59375 -0.0351562 1.375 -0.265625 C 0.976562 -0.722656 0.671875 -1.234375 0.453125 -1.796875 C 0.242188 -2.359375 0.140625 -2.957031 0.140625 -3.59375 Z M 0.140625 -8.421875 "/></g></g></g><g fill="#000000" fill-opacity="1"><g transform="translate(49.088005, 35.987557)"><g><path d="M 6.15625 -7.03125 L 1.84375 -7.03125 L 1.84375 -5.53125 L 5.03125 -5.53125 L 5.03125 -4.953125 L 6.15625 -4.953125 Z M 0.46875 -1.765625 C 0.46875 -2.117188 0.582031 -2.425781 0.8125 -2.6875 C 1.050781 -2.945312 1.34375 -3.078125 1.6875 -3.078125 C 1.800781 -3.078125 1.914062 -3.039062 2.03125 -2.96875 C 2.15625 -2.894531 2.265625 -2.800781 2.359375 -2.6875 C 2.460938 -2.582031 2.539062 -2.460938 2.59375 -2.328125 C 2.65625 -2.191406 2.6875 -2.054688 2.6875 -1.921875 C 2.6875 -1.367188 2.289062 -1.007812 1.5 -0.84375 C 1.84375 -0.539062 2.160156 -0.390625 2.453125 -0.390625 C 2.816406 -0.390625 3.113281 -0.5625 3.34375 -0.90625 C 3.445312 -1.050781 3.519531 -1.21875 3.5625 -1.40625 C 3.613281 -1.601562 3.640625 -1.820312 3.640625 -2.0625 L 3.640625 -4.046875 L 0.375 -4.046875 L 0.375 -8.40625 L 7.75 -8.40625 L 7.75 0.203125 L 6.1875 -1.109375 L 6.1875 -4.171875 L 5.03125 -4.171875 L 5.03125 -2.46875 C 5.03125 -1.582031 4.890625 -0.90625 4.609375 -0.4375 C 4.265625 0.101562 3.625 0.375 2.6875 0.375 C 1.789062 0.375 1.128906 -0.03125 0.703125 -0.84375 C 0.628906 -0.957031 0.570312 -1.09375 0.53125 -1.25 C 0.488281 -1.414062 0.46875 -1.585938 0.46875 -1.765625 Z M 0.46875 -1.765625 "/></g></g></g><g fill="#000000" fill-opacity="1"><g transform="translate(57.300853, 35.987557)"><g><path d="M 0.9375 -1.171875 L 0.9375 -8.40625 L 2.515625 -8.40625 L 2.515625 0.21875 Z M 0.9375 -1.171875 "/></g></g></g><g fill="#000000" fill-opacity="1"><g transform="translate(65.596866, 35.987557)"><g><path d="M 6.015625 -7.03125 L 1.828125 -7.03125 L 1.828125 -6 L 1.96875 -6 C 2.582031 -6.019531 3.039062 -5.945312 3.34375 -5.78125 C 3.769531 -5.550781 3.984375 -5.128906 3.984375 -4.515625 L 3.984375 -3.40625 C 4.179688 -3.289062 4.359375 -3.1875 4.515625 -3.09375 C 4.679688 -3 4.835938 -2.90625 4.984375 -2.8125 C 5.140625 -2.726562 5.296875 -2.640625 5.453125 -2.546875 C 5.617188 -2.453125 5.804688 -2.347656 6.015625 -2.234375 Z M 2.765625 -2.734375 C 2.578125 -2.734375 2.398438 -2.695312 2.234375 -2.625 C 2.066406 -2.5625 1.910156 -2.472656 1.765625 -2.359375 C 1.648438 -2.242188 1.550781 -2.101562 1.46875 -1.9375 C 1.382812 -1.78125 1.34375 -1.617188 1.34375 -1.453125 C 1.34375 -1.054688 1.65625 -0.675781 2.28125 -0.3125 C 2.269531 -0.363281 2.265625 -0.414062 2.265625 -0.46875 C 2.265625 -0.53125 2.265625 -0.578125 2.265625 -0.609375 C 2.265625 -0.734375 2.285156 -0.875 2.328125 -1.03125 C 2.367188 -1.1875 2.414062 -1.328125 2.46875 -1.453125 C 2.644531 -1.804688 2.90625 -1.984375 3.25 -1.984375 C 3.519531 -1.984375 3.757812 -1.875 3.96875 -1.65625 C 4.175781 -1.4375 4.28125 -1.191406 4.28125 -0.921875 C 4.28125 -0.617188 4.144531 -0.285156 3.875 0.078125 C 3.625 0.234375 3.378906 0.34375 3.140625 0.40625 C 2.910156 0.46875 2.679688 0.5 2.453125 0.5 C 1.835938 0.5 1.316406 0.253906 0.890625 -0.234375 C 0.703125 -0.460938 0.554688 -0.707031 0.453125 -0.96875 C 0.359375 -1.238281 0.3125 -1.535156 0.3125 -1.859375 C 0.3125 -3.046875 1.03125 -3.710938 2.46875 -3.859375 L 2.53125 -4.171875 C 2.476562 -4.410156 2.195312 -4.554688 1.6875 -4.609375 C 1.632812 -4.609375 1.578125 -4.609375 1.515625 -4.609375 C 1.453125 -4.617188 1.375 -4.625 1.28125 -4.625 C 1.1875 -4.625 1.046875 -4.617188 0.859375 -4.609375 C 0.671875 -4.609375 0.515625 -4.609375 0.390625 -4.609375 L 0.390625 -8.40625 L 7.65625 -8.40625 L 7.65625 0.203125 C 5.382812 -1.753906 3.753906 -2.734375 2.765625 -2.734375 Z M 2.765625 -2.734375 "/></g></g></g><g fill="#000000" fill-opacity="1"><g transform="translate(78.602009, 35.987557)"><g><path d="M 5.71875 -1.140625 L 6.171875 -1.140625 L 6.171875 -4.609375 L 3.234375 -4.609375 C 2.753906 -4.609375 2.347656 -4.46875 2.015625 -4.1875 C 1.691406 -3.914062 1.53125 -3.539062 1.53125 -3.0625 C 1.53125 -2.59375 1.664062 -2.226562 1.9375 -1.96875 C 2.207031 -1.707031 2.566406 -1.578125 3.015625 -1.578125 C 3.117188 -1.578125 3.226562 -1.582031 3.34375 -1.59375 C 3.457031 -1.601562 3.585938 -1.617188 3.734375 -1.640625 C 3.171875 -1.992188 2.890625 -2.332031 2.890625 -2.65625 C 2.890625 -2.78125 2.921875 -2.90625 2.984375 -3.03125 C 3.054688 -3.15625 3.144531 -3.257812 3.25 -3.34375 C 3.351562 -3.4375 3.46875 -3.507812 3.59375 -3.5625 C 3.726562 -3.625 3.859375 -3.65625 3.984375 -3.65625 C 4.148438 -3.65625 4.300781 -3.617188 4.4375 -3.546875 C 4.582031 -3.484375 4.707031 -3.394531 4.8125 -3.28125 C 4.925781 -3.175781 5.015625 -3.050781 5.078125 -2.90625 C 5.140625 -2.769531 5.171875 -2.617188 5.171875 -2.453125 C 5.171875 -2.203125 5.117188 -1.972656 5.015625 -1.765625 C 4.921875 -1.566406 4.785156 -1.394531 4.609375 -1.25 C 4.441406 -1.113281 4.238281 -1.003906 4 -0.921875 C 3.769531 -0.847656 3.523438 -0.8125 3.265625 -0.8125 C 2.535156 -0.8125 1.867188 -1.082031 1.265625 -1.625 C 0.992188 -1.882812 0.773438 -2.175781 0.609375 -2.5 C 0.453125 -2.832031 0.375 -3.179688 0.375 -3.546875 C 0.375 -4.222656 0.609375 -4.800781 1.078125 -5.28125 C 1.554688 -5.757812 2.128906 -6 2.796875 -6 L 6.171875 -6 L 6.171875 -8.40625 L 7.59375 -8.40625 L 7.59375 0.703125 Z M 5.71875 -1.140625 "/></g></g></g><g fill="#000000" fill-opacity="1"><g transform="translate(86.670199, 35.987557)"><g><path d="M 0.9375 -1.171875 L 0.9375 -8.40625 L 2.515625 -8.40625 L 2.515625 0.21875 Z M 0.9375 -1.171875 "/></g></g></g><g fill="#000000" fill-opacity="1"><g transform="translate(94.966212, 35.987557)"><g><path d="M 2.765625 -4.015625 C 2.578125 -4.015625 2.359375 -4.070312 2.109375 -4.1875 C 1.859375 -4.3125 1.609375 -4.460938 1.359375 -4.640625 C 0.753906 -5.140625 0.453125 -5.691406 0.453125 -6.296875 C 0.453125 -6.765625 0.613281 -7.234375 0.9375 -7.703125 C 1.28125 -8.171875 1.703125 -8.40625 2.203125 -8.40625 L 6.359375 -8.40625 L 6.359375 -4.90625 C 6.359375 -4.613281 6.234375 -4.304688 5.984375 -3.984375 C 5.742188 -3.660156 5.351562 -3.375 4.8125 -3.125 L 7.265625 -1.640625 L 7.265625 -8.40625 L 8.828125 -8.40625 L 8.828125 0.125 C 8.140625 -0.28125 7.457031 -0.617188 6.78125 -0.890625 C 6.101562 -1.171875 5.441406 -1.375 4.796875 -1.5 C 4.273438 -1.582031 3.660156 -1.644531 2.953125 -1.6875 C 2.242188 -1.738281 1.453125 -1.765625 0.578125 -1.765625 L 0.578125 -3.3125 C 0.640625 -3.3125 0.757812 -3.304688 0.9375 -3.296875 C 1.125 -3.296875 1.316406 -3.289062 1.515625 -3.28125 C 1.710938 -3.28125 1.894531 -3.273438 2.0625 -3.265625 C 2.238281 -3.253906 2.34375 -3.25 2.375 -3.25 C 2.65625 -3.25 2.9375 -3.28125 3.21875 -3.34375 C 3.507812 -3.40625 3.765625 -3.5 3.984375 -3.625 C 4.597656 -3.894531 4.90625 -4.300781 4.90625 -4.84375 L 4.90625 -7.03125 L 2.203125 -7.03125 C 1.671875 -7.03125 1.40625 -6.585938 1.40625 -5.703125 C 1.40625 -5.566406 1.515625 -5.382812 1.734375 -5.15625 C 1.796875 -5.101562 1.851562 -5.054688 1.90625 -5.015625 C 1.96875 -4.972656 2.023438 -4.929688 2.078125 -4.890625 C 2.140625 -5.804688 2.484375 -6.265625 3.109375 -6.265625 C 3.429688 -6.265625 3.695312 -6.160156 3.90625 -5.953125 C 4.125 -5.753906 4.234375 -5.484375 4.234375 -5.140625 C 4.234375 -4.765625 4.0625 -4.472656 3.71875 -4.265625 C 3.570312 -4.179688 3.421875 -4.117188 3.265625 -4.078125 C 3.109375 -4.035156 2.941406 -4.015625 2.765625 -4.015625 Z M 2.765625 -4.015625 "/></g></g></g><g fill="#000000" fill-opacity="1"><g transform="translate(119.620498, 66.799993)"><g><path d="M 1.421875 0.078125 C 1.367188 -0.0859375 1.316406 -0.191406 1.265625 -0.234375 C 1.203125 -0.304688 1.085938 -0.34375 0.921875 -0.34375 C 0.898438 -0.34375 0.863281 -0.335938 0.8125 -0.328125 C 0.769531 -0.316406 0.734375 -0.3125 0.703125 -0.3125 L 0.28125 -0.3125 C 0.03125 -0.3125 -0.109375 -0.363281 -0.140625 -0.46875 L -0.078125 -0.515625 C -0.0234375 -0.515625 0.0546875 -0.503906 0.171875 -0.484375 C 0.273438 -0.472656 0.359375 -0.46875 0.421875 -0.46875 C 0.472656 -0.46875 0.550781 -0.472656 0.65625 -0.484375 C 0.769531 -0.503906 0.851562 -0.515625 0.90625 -0.515625 C 0.945312 -0.515625 1.003906 -0.5 1.078125 -0.46875 C 1.160156 -0.4375 1.21875 -0.421875 1.25 -0.421875 C 1.28125 -0.421875 1.296875 -0.484375 1.296875 -0.609375 L 1.296875 -1.109375 C 1.296875 -1.304688 1.273438 -1.4375 1.234375 -1.5 C 1.148438 -1.5 1.070312 -1.4375 1 -1.3125 C 0.945312 -1.195312 0.894531 -1.078125 0.84375 -0.953125 C 0.78125 -0.828125 0.71875 -0.765625 0.65625 -0.765625 C 0.53125 -0.765625 0.46875 -0.8125 0.46875 -0.90625 C 0.46875 -1.050781 0.582031 -1.234375 0.8125 -1.453125 C 1.039062 -1.679688 1.234375 -1.796875 1.390625 -1.796875 C 1.429688 -1.796875 1.46875 -1.78125 1.5 -1.75 C 1.53125 -1.71875 1.546875 -1.675781 1.546875 -1.625 C 1.546875 -1.5 1.535156 -1.300781 1.515625 -1.03125 C 1.492188 -0.769531 1.484375 -0.578125 1.484375 -0.453125 C 1.484375 -0.390625 1.515625 -0.304688 1.578125 -0.203125 C 1.648438 -0.0976562 1.6875 -0.03125 1.6875 0 C 1.6875 0.0703125 1.644531 0.109375 1.5625 0.109375 C 1.507812 0.109375 1.460938 0.0976562 1.421875 0.078125 Z M 1.421875 0.078125 "/></g></g></g><g fill="#000000" fill-opacity="1"><g transform="translate(121.348505, 66.799993)"><g><path d="M 1.734375 -1.59375 C 1.734375 -1.5625 1.703125 -1.539062 1.640625 -1.53125 C 1.617188 -1.539062 1.582031 -1.546875 1.53125 -1.546875 C 1.289062 -1.546875 1.144531 -1.53125 1.09375 -1.5 C 1.1875 -1.445312 1.273438 -1.351562 1.359375 -1.21875 C 1.441406 -1.082031 1.484375 -0.960938 1.484375 -0.859375 C 1.484375 -0.734375 1.421875 -0.671875 1.296875 -0.671875 C 1.171875 -0.671875 1.109375 -0.734375 1.109375 -0.859375 C 1.109375 -0.984375 1.15625 -1.078125 1.25 -1.140625 C 1.238281 -1.179688 1.195312 -1.242188 1.125 -1.328125 C 1.0625 -1.421875 1.007812 -1.46875 0.96875 -1.46875 C 0.945312 -1.46875 0.9375 -1.457031 0.9375 -1.4375 L 0.9375 -1.375 C 0.9375 -1.3125 0.929688 -1.21875 0.921875 -1.09375 C 0.910156 -0.96875 0.90625 -0.867188 0.90625 -0.796875 C 0.90625 -0.742188 0.910156 -0.660156 0.921875 -0.546875 C 0.941406 -0.441406 0.953125 -0.363281 0.953125 -0.3125 C 0.953125 -0.25 0.90625 -0.21875 0.8125 -0.21875 C 0.769531 -0.21875 0.738281 -0.238281 0.71875 -0.28125 C 0.6875 -0.351562 0.671875 -0.390625 0.671875 -0.390625 C 0.628906 -0.441406 0.515625 -0.46875 0.328125 -0.46875 C 0.285156 -0.46875 0.253906 -0.46875 0.234375 -0.46875 C 0.117188 -0.488281 0.0625 -0.539062 0.0625 -0.625 C 0.0625 -0.6875 0.144531 -0.828125 0.3125 -1.046875 C 0.488281 -1.273438 0.578125 -1.414062 0.578125 -1.46875 C 0.566406 -1.488281 0.53125 -1.503906 0.46875 -1.515625 C 0.414062 -1.535156 0.367188 -1.546875 0.328125 -1.546875 C 0.285156 -1.546875 0.21875 -1.535156 0.125 -1.515625 C 0.03125 -1.492188 -0.0351562 -1.484375 -0.078125 -1.484375 C -0.117188 -1.484375 -0.140625 -1.53125 -0.140625 -1.625 C 0.0351562 -1.675781 0.191406 -1.703125 0.328125 -1.703125 C 0.378906 -1.703125 0.457031 -1.695312 0.5625 -1.6875 C 0.664062 -1.675781 0.742188 -1.671875 0.796875 -1.671875 C 0.859375 -1.671875 0.953125 -1.675781 1.078125 -1.6875 C 1.203125 -1.695312 1.296875 -1.703125 1.359375 -1.703125 C 1.609375 -1.703125 1.734375 -1.664062 1.734375 -1.59375 Z M 0.765625 -1.234375 C 0.765625 -1.328125 0.757812 -1.394531 0.75 -1.4375 L 0.734375 -1.4375 C 0.460938 -1 0.328125 -0.742188 0.328125 -0.671875 C 0.328125 -0.640625 0.378906 -0.613281 0.484375 -0.59375 C 0.566406 -0.570312 0.640625 -0.5625 0.703125 -0.5625 C 0.734375 -0.5625 0.75 -0.691406 0.75 -0.953125 C 0.75 -0.984375 0.75 -1.03125 0.75 -1.09375 C 0.757812 -1.15625 0.765625 -1.203125 0.765625 -1.234375 Z M 0.765625 -1.234375 "/></g></g></g><g fill="#000000" fill-opacity="1"><g transform="translate(122.939369, 66.799993)"><g/></g></g><g fill="#000000" fill-opacity="1"><g transform="translate(123.791372, 66.799993)"><g><path d="M 2.046875 -1.671875 C 2.097656 -1.671875 2.171875 -1.675781 2.265625 -1.6875 C 2.367188 -1.695312 2.441406 -1.703125 2.484375 -1.703125 C 2.535156 -1.703125 2.5625 -1.664062 2.5625 -1.59375 C 2.5625 -1.5625 2.515625 -1.539062 2.421875 -1.53125 C 2.304688 -1.507812 2.25 -1.492188 2.25 -1.484375 C 2.21875 -1.472656 2.1875 -1.367188 2.15625 -1.171875 C 2.132812 -1.003906 2.125 -0.878906 2.125 -0.796875 C 2.125 -0.753906 2.128906 -0.691406 2.140625 -0.609375 C 2.148438 -0.523438 2.15625 -0.460938 2.15625 -0.421875 C 2.15625 -0.253906 2.117188 -0.171875 2.046875 -0.171875 C 2.003906 -0.171875 1.976562 -0.191406 1.96875 -0.234375 L 1.96875 -0.921875 C 1.96875 -0.984375 1.972656 -1.070312 1.984375 -1.1875 C 1.992188 -1.300781 2 -1.390625 2 -1.453125 C 2 -1.503906 1.957031 -1.539062 1.875 -1.5625 L 1.734375 -1.546875 C 1.703125 -1.523438 1.6875 -1.472656 1.6875 -1.390625 C 1.6875 -1.296875 1.691406 -1.148438 1.703125 -0.953125 C 1.710938 -0.753906 1.71875 -0.609375 1.71875 -0.515625 C 1.71875 -0.390625 1.707031 -0.304688 1.6875 -0.265625 C 1.601562 -0.265625 1.550781 -0.285156 1.53125 -0.328125 L 1.515625 -0.59375 C 1.460938 -0.664062 1.359375 -0.71875 1.203125 -0.75 C 1.078125 -0.625 0.960938 -0.5625 0.859375 -0.5625 C 0.679688 -0.5625 0.507812 -0.601562 0.34375 -0.6875 C 0.132812 -0.789062 0.03125 -0.921875 0.03125 -1.078125 C 0.03125 -1.097656 0.0390625 -1.117188 0.0625 -1.140625 C 0.0820312 -1.160156 0.101562 -1.171875 0.125 -1.171875 C 0.164062 -1.171875 0.195312 -1.144531 0.21875 -1.09375 C 0.226562 -1.050781 0.238281 -1.003906 0.25 -0.953125 C 0.269531 -0.878906 0.320312 -0.820312 0.40625 -0.78125 C 0.476562 -0.75 0.5625 -0.734375 0.65625 -0.734375 C 0.789062 -0.734375 0.898438 -0.769531 0.984375 -0.84375 C 1.078125 -0.914062 1.125 -1.019531 1.125 -1.15625 C 1.125 -1.28125 1.09375 -1.363281 1.03125 -1.40625 C 1 -1.300781 0.984375 -1.238281 0.984375 -1.21875 C 0.941406 -1.15625 0.890625 -1.125 0.828125 -1.125 C 0.785156 -1.125 0.75 -1.132812 0.71875 -1.15625 C 0.675781 -1.1875 0.65625 -1.222656 0.65625 -1.265625 C 0.65625 -1.335938 0.675781 -1.394531 0.71875 -1.4375 C 0.726562 -1.445312 0.78125 -1.484375 0.875 -1.546875 C 0.832031 -1.546875 0.769531 -1.546875 0.6875 -1.546875 L 0.5 -1.546875 C 0.320312 -1.546875 0.191406 -1.539062 0.109375 -1.53125 C 0.0976562 -1.519531 0.078125 -1.507812 0.046875 -1.5 C 0.015625 -1.488281 -0.0078125 -1.484375 -0.03125 -1.484375 C -0.0507812 -1.484375 -0.0625 -1.503906 -0.0625 -1.546875 C -0.0625 -1.566406 -0.0625 -1.597656 -0.0625 -1.640625 C 0.0390625 -1.679688 0.625 -1.703125 1.6875 -1.703125 C 1.726562 -1.703125 1.785156 -1.695312 1.859375 -1.6875 C 1.941406 -1.675781 2.003906 -1.671875 2.046875 -1.671875 Z M 1.203125 -1.53125 C 1.210938 -1.488281 1.238281 -1.421875 1.28125 -1.328125 C 1.3125 -1.242188 1.328125 -1.175781 1.328125 -1.125 C 1.328125 -1.039062 1.316406 -0.960938 1.296875 -0.890625 C 1.359375 -0.816406 1.414062 -0.78125 1.46875 -0.78125 C 1.519531 -0.78125 1.546875 -0.9375 1.546875 -1.25 C 1.546875 -1.363281 1.515625 -1.441406 1.453125 -1.484375 C 1.410156 -1.515625 1.328125 -1.53125 1.203125 -1.53125 Z M 1.203125 -1.53125 "/></g></g></g><g fill="#000000" fill-opacity="1"><g transform="translate(126.206807, 66.799993)"><g><path d="M 2.515625 -1.625 L 2.5 -1.5 L 2.46875 -1.484375 C 2.4375 -1.484375 2.414062 -1.484375 2.40625 -1.484375 C 2.34375 -1.484375 2.257812 -1.46875 2.15625 -1.4375 C 2.0625 -1.414062 1.988281 -1.40625 1.9375 -1.40625 C 1.882812 -1.40625 1.8125 -1.414062 1.71875 -1.4375 C 1.625 -1.457031 1.554688 -1.46875 1.515625 -1.46875 C 1.441406 -1.46875 1.394531 -1.453125 1.375 -1.421875 L 1.375 -1.328125 C 1.414062 -1.285156 1.570312 -1.226562 1.84375 -1.15625 C 2.082031 -1.09375 2.203125 -1.046875 2.203125 -1.015625 C 2.203125 -0.953125 2.175781 -0.894531 2.125 -0.84375 C 1.726562 -0.46875 1.503906 -0.28125 1.453125 -0.28125 C 1.304688 -0.28125 1.21875 -0.382812 1.1875 -0.59375 C 1.175781 -0.78125 1.171875 -0.96875 1.171875 -1.15625 C 1.148438 -1.363281 1.070312 -1.460938 0.9375 -1.453125 L 0.71875 -1.328125 L 0.71875 -1.3125 C 0.820312 -1.1875 0.875 -1.078125 0.875 -0.984375 C 0.875 -0.898438 0.84375 -0.859375 0.78125 -0.859375 C 0.6875 -0.859375 0.609375 -0.957031 0.546875 -1.15625 C 0.484375 -0.945312 0.394531 -0.84375 0.28125 -0.84375 C 0.207031 -0.84375 0.171875 -0.882812 0.171875 -0.96875 C 0.171875 -1.09375 0.265625 -1.242188 0.453125 -1.421875 C 0.453125 -1.472656 0.421875 -1.5 0.359375 -1.5 C 0.328125 -1.5 0.285156 -1.492188 0.234375 -1.484375 C 0.179688 -1.484375 0.144531 -1.484375 0.125 -1.484375 C 0 -1.484375 -0.101562 -1.523438 -0.1875 -1.609375 C -0.125 -1.660156 -0.03125 -1.6875 0.09375 -1.6875 C 0.1875 -1.6875 0.28125 -1.671875 0.375 -1.640625 C 0.488281 -1.597656 0.566406 -1.546875 0.609375 -1.484375 C 0.765625 -1.585938 0.863281 -1.640625 0.90625 -1.640625 C 0.976562 -1.640625 1.0625 -1.585938 1.15625 -1.484375 L 1.15625 -1.671875 C 1.195312 -1.691406 1.234375 -1.703125 1.265625 -1.703125 C 1.296875 -1.703125 1.328125 -1.695312 1.359375 -1.6875 L 1.359375 -1.59375 C 1.398438 -1.625 1.453125 -1.640625 1.515625 -1.640625 C 1.554688 -1.640625 1.617188 -1.625 1.703125 -1.59375 C 1.785156 -1.570312 1.847656 -1.5625 1.890625 -1.5625 C 1.941406 -1.5625 2.007812 -1.578125 2.09375 -1.609375 C 2.1875 -1.640625 2.257812 -1.65625 2.3125 -1.65625 C 2.363281 -1.65625 2.429688 -1.644531 2.515625 -1.625 Z M 1.90625 -0.96875 C 1.90625 -1.039062 1.726562 -1.078125 1.375 -1.078125 L 1.375 -0.765625 C 1.375 -0.703125 1.378906 -0.648438 1.390625 -0.609375 C 1.609375 -0.679688 1.71875 -0.71875 1.71875 -0.71875 C 1.84375 -0.78125 1.90625 -0.863281 1.90625 -0.96875 Z M 1.90625 -0.96875 "/></g></g></g><g fill="#000000" fill-opacity="1"><g transform="translate(128.632531, 66.799993)"><g><path d="M 0.875 -1.46875 C 0.832031 -1.476562 0.789062 -1.492188 0.75 -1.515625 C 0.71875 -1.535156 0.664062 -1.546875 0.59375 -1.546875 L 0.359375 -1.546875 C 0.492188 -1.429688 0.5625 -1.328125 0.5625 -1.234375 C 0.5625 -1.148438 0.53125 -1.0625 0.46875 -0.96875 C 0.414062 -0.875 0.390625 -0.820312 0.390625 -0.8125 C 0.390625 -0.757812 0.445312 -0.710938 0.5625 -0.671875 C 0.65625 -0.648438 0.734375 -0.640625 0.796875 -0.640625 C 0.816406 -0.640625 0.828125 -0.664062 0.828125 -0.71875 C 0.828125 -0.726562 0.828125 -0.75 0.828125 -0.78125 C 0.828125 -0.8125 0.828125 -0.828125 0.828125 -0.828125 C 0.828125 -0.898438 0.84375 -1.113281 0.875 -1.46875 Z M 1.171875 -0.25 C 1.273438 -0.21875 1.335938 -0.203125 1.359375 -0.203125 C 1.429688 -0.203125 1.492188 -0.242188 1.546875 -0.328125 C 1.597656 -0.398438 1.625 -0.476562 1.625 -0.5625 C 1.625 -0.613281 1.585938 -0.703125 1.515625 -0.828125 C 1.453125 -0.960938 1.421875 -1.066406 1.421875 -1.140625 C 1.421875 -1.242188 1.46875 -1.351562 1.5625 -1.46875 C 1.550781 -1.53125 1.488281 -1.5625 1.375 -1.5625 C 1.34375 -1.5625 1.3125 -1.554688 1.28125 -1.546875 C 1.269531 -1.546875 1.25 -1.546875 1.21875 -1.546875 C 1.195312 -1.554688 1.175781 -1.5625 1.15625 -1.5625 C 1.125 -1.5625 1.078125 -1.53125 1.015625 -1.46875 C 1.015625 -1.382812 1.007812 -1.25 1 -1.0625 C 0.988281 -0.882812 0.984375 -0.753906 0.984375 -0.671875 C 1.066406 -0.523438 1.109375 -0.421875 1.109375 -0.359375 C 1.109375 -0.285156 1.066406 -0.25 0.984375 -0.25 C 0.941406 -0.25 0.910156 -0.269531 0.890625 -0.3125 C 0.867188 -0.375 0.847656 -0.414062 0.828125 -0.4375 C 0.785156 -0.488281 0.707031 -0.519531 0.59375 -0.53125 C 0.582031 -0.53125 0.5625 -0.53125 0.53125 -0.53125 C 0.382812 -0.53125 0.296875 -0.535156 0.265625 -0.546875 C 0.148438 -0.566406 0.09375 -0.617188 0.09375 -0.703125 C 0.09375 -0.765625 0.128906 -0.859375 0.203125 -0.984375 C 0.273438 -1.109375 0.3125 -1.210938 0.3125 -1.296875 C 0.3125 -1.328125 0.265625 -1.40625 0.171875 -1.53125 L 0 -1.484375 C -0.0390625 -1.515625 -0.0625 -1.546875 -0.0625 -1.578125 C -0.0625 -1.628906 0.0351562 -1.664062 0.234375 -1.6875 C 0.273438 -1.675781 0.316406 -1.671875 0.359375 -1.671875 C 0.398438 -1.671875 0.445312 -1.671875 0.5 -1.671875 C 0.5625 -1.671875 0.601562 -1.671875 0.625 -1.671875 C 0.738281 -1.671875 0.828125 -1.648438 0.890625 -1.609375 C 0.953125 -1.671875 1.023438 -1.703125 1.109375 -1.703125 C 1.160156 -1.703125 1.207031 -1.691406 1.25 -1.671875 C 1.257812 -1.671875 1.273438 -1.675781 1.296875 -1.6875 C 1.359375 -1.6875 1.441406 -1.6875 1.546875 -1.6875 C 1.671875 -1.6875 1.753906 -1.6875 1.796875 -1.6875 C 1.847656 -1.6875 1.910156 -1.671875 1.984375 -1.640625 C 1.992188 -1.609375 2 -1.585938 2 -1.578125 C 2 -1.546875 1.976562 -1.53125 1.9375 -1.53125 C 1.925781 -1.53125 1.90625 -1.53125 1.875 -1.53125 C 1.84375 -1.539062 1.820312 -1.546875 1.8125 -1.546875 C 1.675781 -1.546875 1.609375 -1.421875 1.609375 -1.171875 C 1.609375 -1.097656 1.644531 -1 1.71875 -0.875 C 1.800781 -0.75 1.84375 -0.65625 1.84375 -0.59375 C 1.84375 -0.445312 1.789062 -0.328125 1.6875 -0.234375 C 1.59375 -0.148438 1.472656 -0.109375 1.328125 -0.109375 C 1.191406 -0.109375 1.125 -0.132812 1.125 -0.1875 C 1.125 -0.207031 1.140625 -0.226562 1.171875 -0.25 Z M 1.171875 -0.25 "/></g></g></g><g fill="#000000" fill-opacity="1"><g transform="translate(130.58168, 66.799993)"><g><path d="M 0 -2.359375 C -0.0078125 -2.253906 -0.140625 -2.109375 -0.390625 -1.921875 C -0.640625 -1.734375 -0.816406 -1.640625 -0.921875 -1.640625 C -1.023438 -1.640625 -1.097656 -1.707031 -1.140625 -1.84375 C -1.066406 -1.851562 -0.976562 -1.859375 -0.875 -1.859375 C -0.78125 -1.859375 -0.640625 -1.914062 -0.453125 -2.03125 C -0.328125 -2.125 -0.207031 -2.222656 -0.09375 -2.328125 L -0.09375 -2.34375 L -0.078125 -2.375 L -0.03125 -2.390625 Z M 0 -2.359375 "/></g></g></g><g fill="#000000" fill-opacity="1"><g transform="translate(130.58168, 66.799993)"><g/></g></g><g fill="#000000" fill-opacity="1"><g transform="translate(131.433683, 66.799993)"><g><path d="M 1.890625 -1.671875 C 1.890625 -1.609375 1.8125 -1.570312 1.65625 -1.5625 C 1.5 -1.5625 1.34375 -1.554688 1.1875 -1.546875 C 1.03125 -1.535156 0.953125 -1.503906 0.953125 -1.453125 C 1.148438 -1.316406 1.367188 -1.226562 1.609375 -1.1875 C 1.628906 -1.15625 1.640625 -1.117188 1.640625 -1.078125 C 1.640625 -0.992188 1.601562 -0.867188 1.53125 -0.703125 C 1.457031 -0.535156 1.421875 -0.40625 1.421875 -0.3125 C 1.421875 -0.300781 1.4375 -0.28125 1.46875 -0.25 C 1.5 -0.21875 1.515625 -0.1875 1.515625 -0.15625 C 1.515625 -0.113281 1.492188 -0.09375 1.453125 -0.09375 C 1.390625 -0.09375 1.34375 -0.125 1.3125 -0.1875 C 1.28125 -0.238281 1.265625 -0.289062 1.265625 -0.34375 C 1.265625 -0.550781 1.328125 -0.789062 1.453125 -1.0625 L 1.4375 -1.09375 C 1.238281 -1.144531 1.046875 -1.238281 0.859375 -1.375 C 0.785156 -1.375 0.75 -1.316406 0.75 -1.203125 C 0.75 -1.128906 0.757812 -1.070312 0.78125 -1.03125 C 0.8125 -1.03125 0.859375 -1.046875 0.921875 -1.078125 C 0.992188 -1.117188 1.046875 -1.140625 1.078125 -1.140625 C 1.160156 -1.140625 1.203125 -1.023438 1.203125 -0.796875 C 1.203125 -0.535156 1.132812 -0.40625 1 -0.40625 C 0.820312 -0.40625 0.628906 -0.460938 0.421875 -0.578125 C 0.171875 -0.710938 0.046875 -0.859375 0.046875 -1.015625 L 0.109375 -1.0625 C 0.128906 -1.0625 0.160156 -1.019531 0.203125 -0.9375 C 0.253906 -0.84375 0.285156 -0.789062 0.296875 -0.78125 C 0.335938 -0.738281 0.429688 -0.691406 0.578125 -0.640625 C 0.710938 -0.597656 0.8125 -0.578125 0.875 -0.578125 C 0.945312 -0.578125 0.988281 -0.597656 1 -0.640625 C 1 -0.660156 1 -0.703125 1 -0.765625 C 1 -0.816406 0.988281 -0.859375 0.96875 -0.890625 L 0.6875 -0.75 C 0.570312 -0.75 0.515625 -0.835938 0.515625 -1.015625 C 0.515625 -1.203125 0.546875 -1.367188 0.609375 -1.515625 C 0.546875 -1.523438 0.472656 -1.53125 0.390625 -1.53125 C 0.140625 -1.53125 0.00390625 -1.515625 -0.015625 -1.484375 L -0.109375 -1.640625 C -0.078125 -1.660156 0.00390625 -1.675781 0.140625 -1.6875 L 0.125 -1.6875 C 0.226562 -1.707031 0.582031 -1.71875 1.1875 -1.71875 C 1.59375 -1.71875 1.8125 -1.71875 1.84375 -1.71875 C 1.875 -1.71875 1.890625 -1.703125 1.890625 -1.671875 Z M 1.890625 -1.671875 "/></g></g></g><g fill="#000000" fill-opacity="1"><g transform="translate(133.254261, 66.799993)"><g><path d="M 0.453125 -0.203125 C 0.265625 -0.203125 0.171875 -0.492188 0.171875 -1.078125 C 0.171875 -1.171875 0.175781 -1.3125 0.1875 -1.5 C 0.125 -1.550781 0.046875 -1.578125 -0.046875 -1.578125 L -0.078125 -1.703125 C -0.0546875 -1.710938 -0.0234375 -1.71875 0.015625 -1.71875 C 0.0664062 -1.71875 0.113281 -1.707031 0.15625 -1.6875 L 0.15625 -1.796875 C 0.164062 -1.941406 0.117188 -2.039062 0.015625 -2.09375 C -0.0546875 -2.113281 -0.175781 -2.125 -0.34375 -2.125 C -0.40625 -2.125 -0.484375 -2.113281 -0.578125 -2.09375 C -0.703125 -2.0625 -0.765625 -2.03125 -0.765625 -2 C -0.765625 -1.96875 -0.65625 -1.910156 -0.4375 -1.828125 C -0.226562 -1.753906 -0.125 -1.707031 -0.125 -1.6875 C -0.125 -1.632812 -0.160156 -1.609375 -0.234375 -1.609375 C -0.316406 -1.609375 -0.46875 -1.660156 -0.6875 -1.765625 C -0.914062 -1.878906 -1.03125 -1.972656 -1.03125 -2.046875 C -1.03125 -2.085938 -0.890625 -2.140625 -0.609375 -2.203125 C -0.367188 -2.253906 -0.203125 -2.28125 -0.109375 -2.28125 C 0.191406 -2.28125 0.363281 -2.082031 0.40625 -1.6875 C 0.457031 -1.707031 0.519531 -1.71875 0.59375 -1.71875 C 0.625 -1.71875 0.695312 -1.695312 0.8125 -1.65625 L 0.828125 -1.609375 C 0.816406 -1.554688 0.789062 -1.53125 0.75 -1.53125 C 0.738281 -1.53125 0.710938 -1.535156 0.671875 -1.546875 C 0.628906 -1.554688 0.601562 -1.5625 0.59375 -1.5625 C 0.5 -1.5625 0.429688 -1.460938 0.390625 -1.265625 C 0.367188 -1.128906 0.359375 -0.992188 0.359375 -0.859375 C 0.359375 -0.578125 0.390625 -0.359375 0.453125 -0.203125 Z M 0.453125 -0.203125 "/></g></g></g><g fill="#000000" fill-opacity="1"><g transform="translate(133.96055, 66.799993)"><g><path d="M 0.96875 -1.515625 C 1.019531 -1.347656 1.046875 -1.132812 1.046875 -0.875 C 1.046875 -0.820312 1.039062 -0.742188 1.03125 -0.640625 C 1.03125 -0.535156 1.03125 -0.457031 1.03125 -0.40625 C 1.070312 -0.375 1.09375 -0.320312 1.09375 -0.25 C 1.09375 -0.1875 1.050781 -0.15625 0.96875 -0.15625 C 0.894531 -0.15625 0.851562 -0.179688 0.84375 -0.234375 C 0.8125 -0.304688 0.789062 -0.347656 0.78125 -0.359375 C 0.75 -0.410156 0.675781 -0.457031 0.5625 -0.5 C 0.457031 -0.519531 0.351562 -0.546875 0.25 -0.578125 C 0.144531 -0.609375 0.09375 -0.65625 0.09375 -0.71875 C 0.09375 -0.789062 0.148438 -0.878906 0.265625 -0.984375 C 0.367188 -1.054688 0.46875 -1.132812 0.5625 -1.21875 C 0.675781 -1.3125 0.734375 -1.382812 0.734375 -1.4375 C 0.734375 -1.46875 0.710938 -1.492188 0.671875 -1.515625 C 0.640625 -1.535156 0.609375 -1.546875 0.578125 -1.546875 C 0.546875 -1.546875 0.507812 -1.535156 0.46875 -1.515625 C 0.4375 -1.503906 0.40625 -1.5 0.375 -1.5 C 0.0390625 -1.5 -0.125 -1.53125 -0.125 -1.59375 C -0.125 -1.625 -0.0625 -1.648438 0.0625 -1.671875 C 0.0820312 -1.660156 0.109375 -1.65625 0.140625 -1.65625 C 0.191406 -1.65625 0.269531 -1.660156 0.375 -1.671875 C 0.476562 -1.691406 0.554688 -1.703125 0.609375 -1.703125 C 0.640625 -1.703125 0.6875 -1.695312 0.75 -1.6875 C 0.8125 -1.675781 0.859375 -1.671875 0.890625 -1.671875 C 0.921875 -1.671875 0.957031 -1.671875 1 -1.671875 C 1.050781 -1.671875 1.085938 -1.671875 1.109375 -1.671875 C 1.140625 -1.671875 1.175781 -1.675781 1.21875 -1.6875 C 1.257812 -1.707031 1.289062 -1.71875 1.3125 -1.71875 C 1.40625 -1.71875 1.453125 -1.679688 1.453125 -1.609375 C 1.453125 -1.554688 1.289062 -1.523438 0.96875 -1.515625 Z M 0.8125 -0.59375 C 0.894531 -0.695312 0.9375 -0.878906 0.9375 -1.140625 C 0.9375 -1.179688 0.921875 -1.203125 0.890625 -1.203125 C 0.828125 -1.203125 0.738281 -1.140625 0.625 -1.015625 C 0.507812 -0.898438 0.453125 -0.8125 0.453125 -0.75 C 0.492188 -0.726562 0.554688 -0.707031 0.640625 -0.6875 C 0.671875 -0.65625 0.726562 -0.625 0.8125 -0.59375 Z M 0.8125 -0.59375 "/></g></g></g><g fill="#000000" fill-opacity="1"><g transform="translate(135.263412, 66.799993)"><g><path d="M 0.90625 -1.65625 L 0.890625 -1.5625 C 0.867188 -1.550781 0.847656 -1.546875 0.828125 -1.546875 C 0.816406 -1.546875 0.773438 -1.554688 0.703125 -1.578125 C 0.691406 -1.554688 0.664062 -1.53125 0.625 -1.5 C 0.53125 -1.425781 0.445312 -1.328125 0.375 -1.203125 C 0.28125 -1.066406 0.234375 -0.945312 0.234375 -0.84375 C 0.234375 -0.75 0.28125 -0.679688 0.375 -0.640625 C 0.457031 -0.609375 0.535156 -0.582031 0.609375 -0.5625 C 0.703125 -0.519531 0.75 -0.460938 0.75 -0.390625 C 0.75 -0.316406 0.691406 -0.28125 0.578125 -0.28125 C 0.429688 -0.28125 0.300781 -0.328125 0.1875 -0.421875 C 0.0703125 -0.523438 0.015625 -0.644531 0.015625 -0.78125 C 0.015625 -0.925781 0.0625 -1.070312 0.15625 -1.21875 C 0.1875 -1.257812 0.285156 -1.375 0.453125 -1.5625 C 0.410156 -1.570312 0.375 -1.578125 0.34375 -1.578125 C 0.144531 -1.578125 0.03125 -1.5625 0 -1.53125 L -0.0625 -1.671875 C 0 -1.703125 0.109375 -1.71875 0.265625 -1.71875 C 0.347656 -1.71875 0.414062 -1.710938 0.46875 -1.703125 L 0.515625 -1.71875 L 0.65625 -1.703125 C 0.695312 -1.691406 0.75 -1.691406 0.8125 -1.703125 C 0.84375 -1.691406 0.875 -1.675781 0.90625 -1.65625 Z M 0.90625 -1.65625 "/></g></g></g><g fill="#000000" fill-opacity="1"><g transform="translate(136.087987, 66.799993)"><g><path d="M 1.3125 -1.609375 C 1.3125 -1.578125 1.257812 -1.550781 1.15625 -1.53125 C 1.039062 -1.507812 0.976562 -1.492188 0.96875 -1.484375 C 0.988281 -1.265625 1 -0.984375 1 -0.640625 C 1 -0.359375 0.953125 -0.21875 0.859375 -0.21875 C 0.765625 -0.21875 0.71875 -0.273438 0.71875 -0.390625 C 0.71875 -0.410156 0.71875 -0.4375 0.71875 -0.46875 L 0.71875 -0.53125 C 0.71875 -0.5625 0.691406 -0.617188 0.640625 -0.703125 C 0.585938 -0.785156 0.546875 -0.828125 0.515625 -0.828125 C 0.484375 -0.828125 0.460938 -0.8125 0.453125 -0.78125 C 0.453125 -0.75 0.453125 -0.734375 0.453125 -0.734375 C 0.453125 -0.671875 0.429688 -0.617188 0.390625 -0.578125 C 0.347656 -0.546875 0.300781 -0.53125 0.25 -0.53125 C 0.164062 -0.53125 0.125 -0.570312 0.125 -0.65625 C 0.125 -0.75 0.160156 -0.832031 0.234375 -0.90625 C 0.316406 -0.976562 0.40625 -1.015625 0.5 -1.015625 C 0.625 -1.015625 0.71875 -0.941406 0.78125 -0.796875 C 0.8125 -0.984375 0.828125 -1.128906 0.828125 -1.234375 C 0.828125 -1.453125 0.753906 -1.5625 0.609375 -1.5625 C 0.585938 -1.5625 0.5625 -1.554688 0.53125 -1.546875 C 0.5 -1.535156 0.476562 -1.523438 0.46875 -1.515625 C 0.382812 -1.503906 0.25 -1.5 0.0625 -1.5 L -0.078125 -1.5 C -0.078125 -1.507812 -0.09375 -1.546875 -0.125 -1.609375 C -0.0820312 -1.660156 0.015625 -1.6875 0.171875 -1.6875 C 0.210938 -1.6875 0.257812 -1.679688 0.3125 -1.671875 C 0.375 -1.671875 0.421875 -1.671875 0.453125 -1.671875 C 0.460938 -1.671875 0.476562 -1.675781 0.5 -1.6875 C 0.53125 -1.695312 0.554688 -1.703125 0.578125 -1.703125 C 0.597656 -1.703125 0.632812 -1.691406 0.6875 -1.671875 C 0.738281 -1.660156 0.78125 -1.65625 0.8125 -1.65625 C 0.851562 -1.65625 0.921875 -1.664062 1.015625 -1.6875 C 1.109375 -1.707031 1.179688 -1.71875 1.234375 -1.71875 C 1.285156 -1.71875 1.3125 -1.679688 1.3125 -1.609375 Z M 1.3125 -1.609375 "/></g></g></g><g fill="#000000" fill-opacity="1"><g transform="translate(137.258849, 66.799993)"><g><path d="M 1.375 -1.5 C 1.332031 -1.519531 1.285156 -1.53125 1.234375 -1.53125 C 1.128906 -1.53125 1.054688 -1.515625 1.015625 -1.484375 C 1.035156 -1.453125 1.046875 -1.410156 1.046875 -1.359375 C 1.046875 -1.253906 1.039062 -1.101562 1.03125 -0.90625 C 1.03125 -0.71875 1.03125 -0.570312 1.03125 -0.46875 C 1.03125 -0.445312 1.035156 -0.414062 1.046875 -0.375 C 1.066406 -0.332031 1.078125 -0.300781 1.078125 -0.28125 C 1.078125 -0.21875 1.039062 -0.1875 0.96875 -0.1875 C 0.894531 -0.1875 0.847656 -0.207031 0.828125 -0.25 C 0.816406 -0.300781 0.800781 -0.351562 0.78125 -0.40625 C 0.738281 -0.46875 0.660156 -0.519531 0.546875 -0.5625 C 0.453125 -0.582031 0.363281 -0.601562 0.28125 -0.625 C 0.15625 -0.664062 0.09375 -0.71875 0.09375 -0.78125 C 0.09375 -0.851562 0.179688 -0.976562 0.359375 -1.15625 C 0.492188 -1.269531 0.625 -1.382812 0.75 -1.5 C 0.75 -1.539062 0.707031 -1.5625 0.625 -1.5625 C 0.53125 -1.5625 0.460938 -1.550781 0.421875 -1.53125 C 0.390625 -1.53125 0.347656 -1.53125 0.296875 -1.53125 L 0.046875 -1.53125 L -0.015625 -1.5 L -0.125 -1.609375 C -0.101562 -1.640625 0.015625 -1.664062 0.234375 -1.6875 C 0.421875 -1.695312 0.554688 -1.703125 0.640625 -1.703125 C 0.679688 -1.703125 0.738281 -1.695312 0.8125 -1.6875 C 0.882812 -1.675781 0.941406 -1.671875 0.984375 -1.671875 C 1.015625 -1.671875 1.066406 -1.671875 1.140625 -1.671875 C 1.222656 -1.671875 1.273438 -1.671875 1.296875 -1.671875 C 1.335938 -1.671875 1.378906 -1.660156 1.421875 -1.640625 L 1.453125 -1.546875 C 1.429688 -1.523438 1.40625 -1.507812 1.375 -1.5 Z M 0.4375 -0.828125 L 0.8125 -0.65625 C 0.84375 -0.664062 0.867188 -0.753906 0.890625 -0.921875 C 0.910156 -1.066406 0.921875 -1.175781 0.921875 -1.25 C 0.921875 -1.332031 0.90625 -1.394531 0.875 -1.4375 C 0.820312 -1.382812 0.742188 -1.285156 0.640625 -1.140625 C 0.523438 -0.972656 0.457031 -0.867188 0.4375 -0.828125 Z M 0.484375 -0.125 C 0.410156 -0.144531 0.375 -0.15625 0.375 -0.15625 C 0.3125 -0.175781 0.28125 -0.203125 0.28125 -0.234375 C 0.28125 -0.390625 0.320312 -0.46875 0.40625 -0.46875 C 0.445312 -0.46875 0.488281 -0.445312 0.53125 -0.40625 C 0.570312 -0.363281 0.59375 -0.320312 0.59375 -0.28125 C 0.59375 -0.21875 0.554688 -0.164062 0.484375 -0.125 Z M 0.484375 -0.125 "/></g></g></g><g fill="#000000" fill-opacity="1"><g transform="translate(138.592568, 66.799993)"><g/></g></g><g fill="#000000" fill-opacity="1"><g transform="translate(139.444571, 66.799993)"><g><path d="M 1.625 -1.609375 C 1.625 -1.578125 1.582031 -1.523438 1.5 -1.453125 C 1.5 -1.453125 1.441406 -1.410156 1.328125 -1.328125 C 1.304688 -1.210938 1.296875 -1.039062 1.296875 -0.8125 C 1.296875 -0.757812 1.300781 -0.6875 1.3125 -0.59375 C 1.320312 -0.507812 1.328125 -0.441406 1.328125 -0.390625 C 1.328125 -0.222656 1.289062 -0.140625 1.21875 -0.140625 C 1.144531 -0.140625 1.109375 -0.269531 1.109375 -0.53125 C 1.109375 -0.570312 1.109375 -0.628906 1.109375 -0.703125 C 1.109375 -0.773438 1.109375 -0.832031 1.109375 -0.875 C 1.109375 -0.976562 1.066406 -1.101562 0.984375 -1.25 C 0.890625 -1.40625 0.789062 -1.484375 0.6875 -1.484375 C 0.675781 -1.484375 0.613281 -1.46875 0.5 -1.4375 C 0.5 -1.414062 0.550781 -1.34375 0.65625 -1.21875 C 0.769531 -1.09375 0.828125 -1 0.828125 -0.9375 C 0.828125 -0.851562 0.796875 -0.785156 0.734375 -0.734375 C 0.679688 -0.679688 0.613281 -0.65625 0.53125 -0.65625 C 0.425781 -0.65625 0.335938 -0.675781 0.265625 -0.71875 C 0.160156 -0.769531 0.109375 -0.84375 0.109375 -0.9375 C 0.109375 -1.019531 0.15625 -1.066406 0.25 -1.078125 C 0.320312 -1.015625 0.363281 -0.976562 0.375 -0.96875 C 0.425781 -0.925781 0.472656 -0.898438 0.515625 -0.890625 L 0.578125 -0.953125 C 0.578125 -0.992188 0.523438 -1.078125 0.421875 -1.203125 C 0.316406 -1.335938 0.265625 -1.4375 0.265625 -1.5 C 0.265625 -1.5625 0.296875 -1.613281 0.359375 -1.65625 C 0.410156 -1.6875 0.472656 -1.703125 0.546875 -1.703125 C 0.671875 -1.703125 0.785156 -1.660156 0.890625 -1.578125 C 0.992188 -1.503906 1.070312 -1.410156 1.125 -1.296875 C 1.15625 -1.503906 1.300781 -1.640625 1.5625 -1.703125 C 1.601562 -1.679688 1.625 -1.648438 1.625 -1.609375 Z M 1.625 -1.609375 "/></g></g></g><g fill="#000000" fill-opacity="1"><g transform="translate(140.936005, 66.799993)"><g><path d="M 1.65625 -1.59375 C 1.65625 -1.53125 1.632812 -1.5 1.59375 -1.5 C 1.5625 -1.5 1.519531 -1.507812 1.46875 -1.53125 C 1.414062 -1.550781 1.375 -1.5625 1.34375 -1.5625 C 1.28125 -1.5625 1.222656 -1.546875 1.171875 -1.515625 C 1.203125 -1.421875 1.226562 -1.1875 1.25 -0.8125 C 1.269531 -0.476562 1.296875 -0.273438 1.328125 -0.203125 C 1.285156 -0.140625 1.234375 -0.109375 1.171875 -0.109375 C 1.085938 -0.109375 1.046875 -0.140625 1.046875 -0.203125 C 1.046875 -0.222656 1.050781 -0.257812 1.0625 -0.3125 C 1.070312 -0.363281 1.078125 -0.40625 1.078125 -0.4375 L 1.078125 -0.484375 C 0.898438 -0.378906 0.785156 -0.316406 0.734375 -0.296875 C 0.597656 -0.234375 0.476562 -0.203125 0.375 -0.203125 C 0.257812 -0.203125 0.203125 -0.285156 0.203125 -0.453125 C 0.203125 -0.566406 0.210938 -0.65625 0.234375 -0.71875 C 0.273438 -0.800781 0.347656 -0.84375 0.453125 -0.84375 C 0.566406 -0.84375 0.757812 -0.773438 1.03125 -0.640625 C 1.039062 -0.742188 1.046875 -0.835938 1.046875 -0.921875 C 1.046875 -1.046875 1.007812 -1.109375 0.9375 -1.109375 C 0.914062 -1.109375 0.867188 -1.078125 0.796875 -1.015625 C 0.722656 -0.960938 0.671875 -0.9375 0.640625 -0.9375 C 0.578125 -0.9375 0.546875 -0.984375 0.546875 -1.078125 C 0.546875 -1.097656 0.546875 -1.125 0.546875 -1.15625 C 0.546875 -1.175781 0.546875 -1.191406 0.546875 -1.203125 L 0.546875 -1.25 C 0.398438 -1.144531 0.328125 -1.046875 0.328125 -0.953125 C 0.273438 -0.921875 0.226562 -0.90625 0.1875 -0.90625 C 0.125 -0.90625 0.09375 -0.9375 0.09375 -1 L 0.09375 -1.046875 C 0.300781 -1.285156 0.460938 -1.40625 0.578125 -1.40625 C 0.679688 -1.40625 0.734375 -1.359375 0.734375 -1.265625 C 0.734375 -1.222656 0.726562 -1.175781 0.71875 -1.125 C 0.738281 -1.132812 0.757812 -1.15625 0.78125 -1.1875 C 0.789062 -1.226562 0.804688 -1.257812 0.828125 -1.28125 C 0.847656 -1.300781 0.894531 -1.3125 0.96875 -1.3125 C 1 -1.269531 1.03125 -1.238281 1.0625 -1.21875 C 1.03125 -1.363281 1.015625 -1.453125 1.015625 -1.484375 C 0.960938 -1.503906 0.859375 -1.519531 0.703125 -1.53125 C 0.640625 -1.5 0.578125 -1.484375 0.515625 -1.484375 C 0.492188 -1.484375 0.457031 -1.488281 0.40625 -1.5 C 0.351562 -1.507812 0.316406 -1.515625 0.296875 -1.515625 C 0.191406 -1.515625 0.09375 -1.492188 0 -1.453125 C -0.0507812 -1.460938 -0.078125 -1.484375 -0.078125 -1.515625 C -0.078125 -1.554688 -0.046875 -1.597656 0.015625 -1.640625 C 0.046875 -1.648438 0.09375 -1.660156 0.15625 -1.671875 C 0.226562 -1.691406 0.28125 -1.703125 0.3125 -1.703125 C 0.394531 -1.703125 0.507812 -1.691406 0.65625 -1.671875 C 0.800781 -1.648438 0.914062 -1.640625 1 -1.640625 C 1.050781 -1.640625 1.128906 -1.648438 1.234375 -1.671875 C 1.335938 -1.691406 1.414062 -1.703125 1.46875 -1.703125 C 1.488281 -1.703125 1.523438 -1.691406 1.578125 -1.671875 C 1.628906 -1.640625 1.65625 -1.613281 1.65625 -1.59375 Z M 1.015625 -0.515625 C 0.804688 -0.640625 0.664062 -0.703125 0.59375 -0.703125 C 0.5 -0.703125 0.453125 -0.628906 0.453125 -0.484375 C 0.453125 -0.453125 0.457031 -0.425781 0.46875 -0.40625 C 0.539062 -0.445312 0.628906 -0.472656 0.734375 -0.484375 C 0.828125 -0.492188 0.921875 -0.503906 1.015625 -0.515625 Z M 1.015625 -0.515625 "/></g></g></g></svg>