<svg xmlns="http://www.w3.org/2000/svg" xmlns:xlink="http://www.w3.org/1999/xlink" width="200" zoomAndPan="magnify" viewBox="0 0 150 74.999997" height="100" preserveAspectRatio="xMidYMid meet" version="1.0"><defs><clipPath id="85546406ac"><path d="M 50 10.386719 L 100 10.386719 L 100 64.386719 L 50 64.386719 Z M 50 10.386719 " clip-rule="nonzero"/></clipPath></defs><g clip-path="url(#85546406ac)"><path fill="#141414" d="M 97.65625 55.171875 C 96.453125 56.140625 95.058594 56.875 93.652344 57.5 C 92.984375 57.796875 92.289062 58.125 91.582031 58.316406 C 91.152344 58.429688 90.679688 58.433594 90.242188 58.460938 C 89.5 58.503906 88.753906 58.523438 88.011719 58.535156 C 86.410156 58.566406 84.8125 58.570312 83.210938 58.5625 C 83.136719 58.550781 83.066406 58.539062 82.992188 58.53125 C 82.277344 58.441406 81.429688 58.273438 80.714844 58.425781 C 80.613281 58.449219 80.535156 58.488281 80.46875 58.539062 C 80.421875 58.550781 80.394531 58.585938 80.382812 58.625 C 80.347656 58.664062 80.320312 58.703125 80.292969 58.746094 C 79.769531 58.523438 79.238281 58.316406 78.710938 58.113281 C 76.875 57.40625 75.011719 56.789062 73.128906 56.226562 C 71.796875 55.828125 70.460938 55.457031 69.113281 55.113281 C 67.832031 54.78125 66.511719 54.546875 65.242188 54.175781 C 62.628906 53.414062 59.875 52.863281 57.160156 53.433594 C 55.378906 53.808594 53.804688 54.742188 52.804688 56.269531 C 52.714844 56.40625 52.9375 56.53125 53.023438 56.398438 C 55.105469 53.214844 59.355469 53.132812 62.730469 53.785156 C 63.570312 53.945312 64.375 54.195312 65.195312 54.425781 C 66.53125 54.804688 67.914062 55.058594 69.261719 55.410156 C 70.53125 55.742188 71.800781 56.09375 73.0625 56.46875 C 75.457031 57.1875 77.871094 57.960938 80.167969 58.96875 C 80.144531 59.007812 80.125 59.050781 80.101562 59.089844 C 79.714844 59.75 79.347656 60.421875 79.007812 61.105469 C 78.738281 61.652344 78.429688 62.246094 78.292969 62.855469 C 77.949219 62.835938 77.605469 62.824219 77.261719 62.820312 C 73.011719 62.792969 68.699219 62.347656 64.515625 61.589844 C 62.222656 61.171875 59.933594 60.550781 57.730469 59.792969 C 56.1875 59.265625 54.664062 58.652344 53.257812 57.832031 C 52.652344 57.476562 52.042969 57.089844 51.546875 56.59375 C 51.394531 56.441406 51.371094 56.398438 51.273438 56.238281 C 50.769531 55.429688 50.375 54.464844 50.546875 53.496094 C 50.769531 52.21875 51.898438 51.363281 53.023438 50.855469 C 53.804688 50.5 54.589844 50.386719 55.453125 50.386719 C 57.121094 50.382812 58.796875 50.648438 60.433594 50.949219 C 62.273438 51.28125 64.09375 51.695312 65.90625 52.144531 C 67.320312 52.5 68.730469 52.875 70.136719 53.273438 C 70.746094 53.445312 71.355469 53.675781 71.988281 53.746094 C 73.410156 53.902344 74.898438 53.628906 76.292969 53.363281 C 78.117188 53.011719 79.914062 52.535156 81.699219 52.019531 C 83.605469 51.46875 85.511719 50.882812 87.386719 50.222656 C 87.394531 50.222656 87.40625 50.226562 87.417969 50.226562 C 87.726562 50.269531 88.0625 50.152344 88.347656 50.054688 C 88.773438 49.910156 89.1875 49.707031 89.605469 49.507812 C 89.632812 49.519531 89.671875 49.519531 89.707031 49.5 C 89.921875 49.371094 90.160156 49.273438 90.390625 49.1875 C 90.425781 49.171875 90.460938 49.160156 90.496094 49.148438 C 93.246094 48.355469 96.351562 48.101562 98.65625 50.007812 C 99.222656 50.476562 99.585938 50.914062 99.667969 51.671875 C 99.820312 53.121094 98.707031 54.328125 97.65625 55.171875 Z M 85.023438 58.820312 C 86.242188 58.820312 87.457031 58.804688 88.675781 58.773438 C 88.804688 58.769531 88.933594 58.765625 89.0625 58.761719 C 87.726562 58.929688 86.363281 58.972656 85.023438 58.820312 Z M 90.824219 60.574219 C 90.71875 61.027344 90.578125 61.503906 90.367188 61.925781 C 90.011719 62.632812 89.273438 63.101562 88.539062 63.355469 C 86.96875 63.898438 85.175781 63.761719 83.5625 63.5 C 82.824219 63.378906 82.121094 63.1875 81.371094 63.121094 C 81.265625 63.113281 81.160156 63.101562 81.054688 63.089844 C 81.179688 62.773438 81.28125 62.445312 81.378906 62.132812 C 81.632812 61.335938 82.164062 59.628906 81.144531 59.132812 C 80.9375 59.035156 80.734375 58.941406 80.523438 58.847656 C 80.535156 58.828125 80.546875 58.808594 80.558594 58.792969 C 81.457031 58.804688 82.355469 58.8125 83.253906 58.820312 C 83.617188 58.867188 83.980469 58.921875 84.339844 58.980469 C 85.671875 59.191406 87.023438 59.207031 88.359375 59.089844 C 88.796875 59.050781 89.230469 59 89.664062 58.929688 C 89.902344 58.894531 90.140625 58.835938 90.386719 58.882812 C 91.125 59.039062 90.945312 60.046875 90.824219 60.574219 Z M 80.9375 59.316406 C 81.9375 59.78125 81.339844 61.453125 81.082031 62.226562 C 80.988281 62.507812 80.886719 62.789062 80.773438 63.066406 C 80.035156 62.996094 79.292969 62.917969 78.554688 62.871094 C 78.5625 62.847656 78.566406 62.828125 78.570312 62.808594 C 78.671875 62.457031 78.816406 62.117188 78.96875 61.785156 C 79.289062 61.070312 79.660156 60.382812 80.042969 59.703125 C 80.160156 59.492188 80.28125 59.28125 80.40625 59.074219 C 80.582031 59.152344 80.761719 59.234375 80.9375 59.316406 Z M 80.4375 63.707031 C 80.074219 64.023438 79.449219 63.835938 79.050781 63.695312 C 78.917969 63.648438 78.605469 63.574219 78.515625 63.445312 C 78.464844 63.367188 78.464844 63.246094 78.488281 63.125 C 78.742188 63.144531 80.199219 63.269531 80.671875 63.3125 C 80.617188 63.457031 80.550781 63.609375 80.4375 63.707031 Z M 79.378906 50.269531 L 80.417969 43.726562 C 80.421875 43.753906 80.429688 43.777344 80.4375 43.800781 C 80.484375 43.949219 80.558594 44.097656 80.648438 44.242188 C 80.550781 44.292969 80.484375 44.394531 80.453125 44.507812 C 80.347656 44.894531 80.601562 45.296875 80.882812 45.652344 C 80.84375 45.675781 80.8125 45.714844 80.78125 45.773438 C 80.605469 46.101562 80.894531 46.738281 81.027344 47.027344 C 81.167969 47.328125 81.347656 47.605469 81.480469 47.910156 C 81.601562 48.179688 81.746094 48.398438 82 48.558594 C 82.222656 48.699219 82.480469 48.773438 82.726562 48.867188 C 83.117188 49.019531 83.441406 49.214844 83.777344 49.460938 Z M 70.078125 47.40625 L 69.085938 47.054688 L 70.617188 35.921875 L 79.1875 39.671875 L 77.613281 50.066406 Z M 66.539062 42.675781 C 66.597656 42.375 66.660156 42.003906 66.636719 41.660156 C 67.414062 40.917969 68.597656 40.3125 69.710938 40.566406 L 69.164062 44.539062 C 68.171875 44.359375 67.144531 44.308594 66.132812 44.300781 C 66.320312 43.777344 66.433594 43.226562 66.539062 42.675781 Z M 65.101562 45.457031 C 64.789062 45.726562 64.453125 45.976562 64.105469 46.203125 C 64.234375 45.476562 64.828125 41.964844 64.992188 40.933594 C 65.296875 40.902344 65.601562 40.902344 65.875 40.964844 C 66.421875 41.089844 66.386719 41.625 66.363281 42.097656 C 66.332031 42.625 66.207031 43.21875 66.074219 43.730469 C 66.023438 43.921875 65.957031 44.117188 65.878906 44.3125 C 65.820312 44.335938 65.796875 44.402344 65.8125 44.460938 C 65.636719 44.839844 65.402344 45.195312 65.101562 45.457031 Z M 63.8125 40.933594 C 63.582031 41.003906 63.359375 41.078125 63.132812 41.152344 C 63.628906 40.429688 63.96875 39.582031 64.246094 38.742188 C 64.585938 37.71875 65.003906 36.714844 65.382812 35.699219 C 65.253906 37.132812 65.0625 38.558594 64.859375 39.980469 C 64.824219 40.226562 64.785156 40.46875 64.75 40.714844 C 64.421875 40.765625 64.101562 40.84375 63.8125 40.933594 Z M 61.84375 42.15625 C 61.066406 42.660156 60.101562 42.886719 59.191406 43.035156 C 58.300781 43.179688 57.371094 43.242188 56.46875 43.15625 C 56.199219 43.128906 55.511719 43.089844 55.421875 42.816406 C 55.273438 42.363281 56.226562 42.234375 56.484375 42.195312 C 57.71875 41.996094 58.992188 42.148438 60.234375 42.03125 C 61.015625 41.957031 61.757812 41.800781 62.492188 41.597656 C 62.300781 41.808594 62.085938 42 61.84375 42.15625 Z M 66.210938 30.773438 C 66.828125 30.769531 66.113281 32.914062 65.757812 33.902344 C 65.761719 33.738281 65.769531 33.578125 65.769531 33.414062 C 65.78125 32.886719 65.773438 32.367188 65.679688 31.847656 C 65.617188 31.472656 65.691406 30.773438 66.210938 30.773438 Z M 71.644531 35.476562 C 71.699219 35.414062 71.851562 35.300781 71.898438 35.210938 C 71.992188 35.253906 72.15625 35.269531 72.238281 35.292969 C 72.476562 35.359375 72.710938 35.433594 72.949219 35.507812 C 74.558594 36.023438 76.152344 36.648438 77.632812 37.472656 C 78.511719 37.964844 79.359375 38.535156 80.046875 39.273438 L 80.054688 39.625 L 79.667969 39.539062 C 79.464844 39.492188 79.273438 39.4375 79.054688 39.339844 L 71.246094 35.921875 Z M 85.714844 37.226562 C 86.484375 37.109375 87.265625 37.039062 88.046875 37.019531 C 88.300781 37.011719 88.554688 37.007812 88.804688 37.011719 C 88.9375 37.015625 89.117188 37.050781 89.246094 37.027344 L 89.253906 37.023438 C 89.277344 37.089844 89.367188 37.21875 89.386719 37.253906 L 89.742188 37.878906 C 89.742188 37.878906 80.894531 39.800781 80.886719 39.800781 L 80.308594 39.679688 L 80.300781 39.285156 C 81.875 38.125 83.789062 37.519531 85.714844 37.226562 Z M 79.121094 50.285156 L 77.859375 50.125 L 79.433594 39.746094 L 80.152344 39.902344 C 80.339844 39.941406 80.546875 40.015625 80.746094 40.042969 Z M 88.925781 46.523438 L 88.902344 46.640625 C 88.589844 46.378906 88.28125 46.117188 88.015625 45.8125 C 87.71875 45.472656 87.578125 44.945312 87.21875 44.671875 C 87.019531 44.519531 86.746094 44.433594 86.527344 44.3125 C 86.261719 44.167969 86.007812 44.007812 85.765625 43.832031 C 85.292969 43.488281 84.929688 42.996094 84.453125 42.671875 C 83.527344 42.039062 83.460938 43.386719 83.8125 43.945312 C 83.902344 44.085938 84.003906 44.21875 84.117188 44.34375 C 83.945312 44.238281 83.777344 44.128906 83.609375 44.015625 C 83.148438 43.699219 82.699219 43.363281 82.265625 43.015625 C 82.03125 42.832031 81.769531 42.625 81.453125 42.761719 C 81.253906 42.847656 81.171875 42.976562 81.164062 43.121094 C 81.007812 42.96875 80.820312 42.839844 80.609375 43 C 80.574219 43.027344 80.542969 43.058594 80.515625 43.097656 L 81 40.042969 C 81.101562 40.027344 81.203125 39.992188 81.296875 39.972656 L 90.832031 37.902344 Z M 88.527344 48.335938 C 88.511719 48.414062 88.476562 48.503906 88.460938 48.589844 C 88.414062 48.59375 88.335938 48.621094 88.308594 48.625 L 84.136719 49.394531 C 84.125 49.386719 84.109375 49.382812 84.097656 49.375 C 83.785156 49.214844 83.535156 48.957031 83.214844 48.800781 C 82.933594 48.664062 82.632812 48.585938 82.347656 48.457031 C 81.902344 48.253906 81.796875 47.933594 81.59375 47.527344 C 81.410156 47.152344 81.175781 46.832031 81.074219 46.417969 C 81.011719 46.167969 80.949219 45.800781 81.160156 45.996094 C 81.21875 46.066406 81.269531 46.132812 81.316406 46.191406 C 81.550781 46.523438 81.734375 46.902344 81.996094 47.214844 C 82.261719 47.53125 82.617188 47.730469 82.980469 47.917969 C 83.101562 47.980469 83.246094 47.820312 83.136719 47.71875 C 82.5625 47.214844 82.035156 46.667969 81.558594 46.074219 C 81.519531 46.023438 81.460938 45.945312 81.390625 45.867188 C 81.261719 45.691406 81.128906 45.519531 81.007812 45.339844 C 80.984375 45.304688 80.4375 44.480469 80.847656 44.542969 C 80.960938 44.703125 81.082031 44.855469 81.191406 44.996094 C 81.445312 45.324219 81.722656 45.621094 82.011719 45.910156 C 82.101562 46.015625 82.191406 46.125 82.285156 46.230469 C 82.585938 46.574219 82.980469 47.246094 83.488281 47.269531 C 83.601562 47.273438 83.65625 47.128906 83.578125 47.054688 C 83.148438 46.625 82.6875 46.234375 82.257812 45.808594 C 81.984375 45.488281 81.71875 45.15625 81.460938 44.820312 C 81.339844 44.660156 81.1875 44.378906 80.984375 44.257812 C 80.960938 44.222656 80.933594 44.1875 80.914062 44.148438 C 80.816406 43.988281 80.523438 43.484375 80.699219 43.316406 C 80.804688 43.214844 81.015625 43.355469 81.09375 43.417969 C 81.191406 43.492188 81.269531 43.621094 81.339844 43.714844 C 81.792969 44.296875 82.21875 44.804688 82.816406 45.25 C 83.152344 45.496094 83.5 45.734375 83.800781 46.023438 C 84.015625 46.234375 84.171875 46.496094 84.496094 46.488281 C 84.589844 46.488281 84.664062 46.382812 84.609375 46.300781 C 84.199219 45.714844 83.625 45.316406 83.050781 44.898438 C 82.703125 44.640625 82.367188 44.367188 82.0625 44.0625 C 81.929688 43.929688 81.792969 43.792969 81.679688 43.644531 C 81.621094 43.585938 81.574219 43.515625 81.539062 43.4375 C 81.390625 43.316406 81.414062 43.214844 81.605469 43.136719 C 81.691406 42.964844 81.789062 42.941406 81.898438 43.066406 C 81.984375 43.117188 82.070312 43.175781 82.144531 43.246094 C 83.484375 44.253906 84.816406 45.121094 86.359375 45.796875 C 86.46875 45.847656 86.601562 45.742188 86.535156 45.625 C 86.386719 45.371094 86.148438 45.273438 85.878906 45.179688 C 85.390625 45.011719 84.957031 44.792969 84.574219 44.445312 C 84.382812 44.273438 84.210938 44.082031 84.066406 43.871094 C 83.953125 43.699219 83.863281 43.539062 83.847656 43.320312 C 83.839844 43.222656 83.835938 42.949219 83.894531 42.878906 C 84.199219 42.539062 85.007812 43.550781 85.230469 43.734375 C 85.558594 44.003906 85.90625 44.25 86.277344 44.460938 C 86.476562 44.578125 86.6875 44.667969 86.890625 44.777344 C 87.15625 44.917969 87.242188 45.101562 87.378906 45.351562 C 87.730469 45.984375 88.289062 46.457031 88.839844 46.914062 Z M 88.457031 48.664062 C 88.453125 48.632812 88.457031 48.609375 88.460938 48.59375 C 88.457031 48.617188 88.457031 48.640625 88.457031 48.664062 Z M 88.496094 48.589844 C 88.488281 48.589844 88.476562 48.589844 88.460938 48.589844 C 88.488281 48.5 88.578125 48.628906 88.496094 48.589844 Z M 73.679688 18.078125 C 73.726562 18.042969 73.773438 17.996094 73.8125 17.941406 C 73.707031 18.210938 73.613281 18.484375 73.527344 18.757812 C 73.523438 18.761719 73.523438 18.769531 73.519531 18.773438 C 73.578125 18.542969 73.632812 18.3125 73.679688 18.078125 Z M 73.328125 17.609375 C 73.214844 17.097656 73.339844 16.4375 73.453125 15.9375 C 73.519531 15.652344 73.699219 15.234375 74.042969 15.175781 C 74.222656 15.144531 74.367188 15.242188 74.464844 15.382812 C 74.46875 15.386719 74.46875 15.390625 74.472656 15.394531 C 74.515625 15.46875 74.550781 15.542969 74.578125 15.621094 C 74.589844 15.671875 74.601562 15.726562 74.605469 15.777344 C 74.601562 15.792969 74.605469 15.808594 74.601562 15.824219 C 74.574219 16.078125 74.46875 16.3125 74.375 16.542969 C 74.253906 16.835938 74.132812 17.125 74.015625 17.417969 C 74.03125 17.242188 73.925781 17.003906 73.707031 17.125 C 73.523438 17.226562 73.488281 17.570312 73.464844 17.824219 C 73.40625 17.824219 73.363281 17.765625 73.328125 17.609375 Z M 75.402344 12.253906 C 75.882812 11.734375 76.484375 11.265625 77.222656 11.363281 C 77.792969 11.4375 78.035156 10.914062 78.566406 10.769531 C 79.324219 10.566406 80.085938 10.855469 80.742188 11.226562 C 82.085938 11.996094 83.589844 12.921875 84.398438 14.277344 C 84.59375 14.605469 84.839844 15.042969 84.84375 15.433594 C 84.847656 15.808594 84.582031 16.25 84.328125 16.511719 C 84.164062 16.683594 83.945312 16.839844 83.710938 16.90625 C 82.445312 17.175781 81.148438 17.101562 79.96875 16.554688 C 79.128906 16.164062 78.4375 15.535156 77.617188 15.109375 C 77.289062 14.941406 77.050781 14.867188 76.691406 15.003906 C 76.148438 15.210938 76.039062 15.75 75.757812 16.199219 C 75.566406 16.507812 75.332031 16.789062 75.066406 17.035156 C 74.585938 17.480469 74.726562 16.613281 74.824219 16.359375 C 74.914062 16.121094 74.917969 15.878906 74.851562 15.644531 C 74.800781 15.167969 74.484375 14.753906 74.460938 14.25 C 74.421875 13.480469 74.898438 12.792969 75.402344 12.253906 Z M 81.488281 21.632812 C 81.195312 22.121094 80.761719 22.511719 80.332031 22.871094 C 79.605469 23.472656 78.808594 23.96875 78.046875 24.519531 C 77.703125 24.769531 77.402344 25.101562 76.972656 25.199219 C 76.386719 25.332031 75.621094 25.191406 75.195312 24.773438 C 74.855469 24.4375 74.660156 23.964844 74.472656 23.539062 C 74.214844 22.945312 73.996094 22.339844 73.792969 21.726562 C 73.648438 21.285156 73.507812 20.839844 73.402344 20.382812 C 73.414062 20.328125 73.421875 20.273438 73.433594 20.21875 C 73.570312 19.496094 73.761719 18.796875 74.019531 18.105469 C 74.152344 17.753906 74.316406 17.402344 74.46875 17.050781 C 74.46875 17.074219 74.472656 17.097656 74.472656 17.121094 C 74.519531 17.554688 74.742188 17.644531 75.089844 17.351562 C 75.613281 16.914062 75.964844 16.378906 76.269531 15.777344 C 76.433594 15.453125 76.722656 15.125 77.136719 15.175781 C 77.347656 15.207031 77.574219 15.371094 77.753906 15.472656 C 78.566406 15.949219 79.277344 16.558594 80.164062 16.910156 C 81.230469 17.335938 82.367188 17.398438 83.488281 17.207031 C 83.363281 18.40625 82.75 19.3125 81.992188 20.25 C 81.972656 20.265625 81.957031 20.285156 81.949219 20.320312 C 81.84375 20.773438 81.730469 21.230469 81.488281 21.632812 Z M 78.085938 27.863281 C 77.488281 28.015625 76.820312 28.015625 76.207031 28.0625 C 75.492188 28.113281 74.777344 28.148438 74.0625 28.132812 C 72.804688 28.109375 71.542969 27.925781 70.371094 27.457031 C 69.832031 27.242188 69.3125 26.964844 68.84375 26.621094 C 68.707031 26.519531 68.582031 26.398438 68.445312 26.300781 C 68.21875 26.136719 68.34375 26.226562 68.363281 26.21875 C 68.457031 26.167969 68.707031 26.257812 68.804688 26.277344 C 69.539062 26.441406 70.25 26.703125 70.964844 26.929688 C 72.027344 27.261719 73.105469 27.375 74.214844 27.441406 C 75.59375 27.523438 76.976562 27.640625 78.355469 27.679688 C 78.402344 27.683594 78.453125 27.683594 78.5 27.683594 C 78.394531 27.765625 78.253906 27.824219 78.085938 27.863281 Z M 99.808594 51.105469 C 99.617188 50.488281 99.132812 50.050781 98.625 49.664062 C 97.496094 48.808594 96.085938 48.394531 94.675781 48.3125 C 93.828125 48.261719 92.996094 48.332031 92.175781 48.476562 C 92.472656 48.042969 92.507812 47.332031 92.546875 46.894531 C 92.804688 44.167969 92.449219 41.492188 91.832031 38.835938 C 91.503906 37.433594 91.136719 36.039062 90.855469 34.625 C 90.605469 33.363281 90.441406 32.050781 89.789062 30.914062 C 89.261719 29.996094 88.464844 29.230469 87.515625 28.75 C 86.941406 28.457031 86.320312 28.234375 85.714844 28.015625 C 84.109375 27.441406 82.476562 26.945312 80.835938 26.488281 C 80.367188 26.359375 79.886719 26.207031 79.40625 26.128906 C 79.199219 26.09375 78.757812 26.222656 79.027344 26.472656 C 79.230469 26.667969 79.695312 26.601562 79.421875 26.996094 C 79.296875 27.179688 79.140625 27.289062 78.964844 27.351562 C 78.984375 27.21875 78.976562 27.066406 78.929688 26.886719 C 78.742188 26.117188 78.695312 25.363281 78.832031 24.578125 C 78.859375 24.417969 78.617188 24.351562 78.585938 24.511719 C 78.484375 25.085938 78.460938 25.664062 78.539062 26.246094 C 78.578125 26.511719 78.648438 26.761719 78.703125 27.019531 C 78.738281 27.175781 78.730469 27.308594 78.695312 27.417969 C 78.414062 27.453125 78.105469 27.414062 77.8125 27.398438 C 76.304688 27.3125 74.789062 27.257812 73.28125 27.125 C 72.175781 27.027344 71.167969 26.726562 70.117188 26.394531 C 69.71875 26.265625 69.320312 26.136719 68.910156 26.046875 C 68.71875 26 68.402344 25.898438 68.210938 25.992188 C 67.621094 26.285156 69.171875 27.144531 69.347656 27.246094 C 70.386719 27.835938 71.5625 28.160156 72.746094 28.296875 C 74.226562 28.472656 75.71875 28.367188 77.195312 28.230469 C 77.8125 28.171875 78.566406 28.097656 78.855469 27.65625 C 79.019531 27.625 79.179688 27.570312 79.324219 27.464844 C 79.519531 27.320312 79.820312 27.019531 79.78125 26.75 C 79.761719 26.605469 79.652344 26.511719 79.535156 26.441406 C 79.824219 26.515625 80.132812 26.558594 80.414062 26.636719 C 81.878906 27.03125 83.332031 27.472656 84.769531 27.957031 C 86.179688 28.429688 87.6875 28.882812 88.753906 29.96875 C 89.65625 30.882812 90.085938 32.046875 90.34375 33.277344 C 90.605469 34.542969 90.84375 35.808594 91.144531 37.070312 C 91.476562 38.441406 91.820312 39.8125 92.0625 41.207031 C 92.320312 42.679688 92.398438 44.144531 92.359375 45.636719 C 92.347656 46.246094 92.324219 46.867188 92.21875 47.472656 C 92.164062 47.804688 92.089844 48.328125 91.769531 48.523438 C 91.734375 48.546875 91.699219 48.5625 91.660156 48.578125 C 91.5 48.613281 91.34375 48.648438 91.1875 48.6875 C 91.121094 48.699219 91.054688 48.710938 90.992188 48.726562 C 90.984375 48.726562 90.972656 48.726562 90.960938 48.730469 C 90.761719 48.773438 90.566406 48.835938 90.371094 48.910156 C 89.34375 49.210938 88.328125 49.585938 87.316406 49.949219 C 86.984375 49.875 86.671875 49.71875 86.324219 49.667969 C 85.992188 49.617188 85.660156 49.605469 85.324219 49.585938 C 85.128906 49.578125 84.914062 49.570312 84.707031 49.542969 L 88.609375 48.824219 C 88.652344 48.820312 88.691406 48.777344 88.699219 48.738281 L 89.0625 47.097656 C 89.078125 47.113281 89.09375 47.125 89.109375 47.140625 C 89.234375 47.242188 89.414062 47.066406 89.289062 46.960938 C 89.234375 46.914062 89.179688 46.867188 89.121094 46.820312 L 91.121094 37.769531 C 91.140625 37.675781 91.058594 37.59375 90.960938 37.613281 L 90.003906 37.824219 L 89.644531 37.195312 C 89.558594 37.046875 89.496094 36.835938 89.332031 36.777344 C 89.070312 36.6875 88.652344 36.757812 88.386719 36.757812 C 86.679688 36.777344 84.949219 37.003906 83.320312 37.515625 C 82.203125 37.867188 81.132812 38.363281 80.1875 39.054688 C 78.871094 37.660156 77.015625 36.785156 75.257812 36.074219 C 74.160156 35.628906 73.035156 35.230469 71.886719 34.929688 C 71.84375 34.921875 71.792969 34.929688 71.765625 34.964844 L 71 35.816406 L 70.578125 35.632812 C 70.515625 35.601562 70.40625 35.617188 70.394531 35.707031 L 69.757812 40.320312 C 68.625 40.066406 67.425781 40.617188 66.589844 41.359375 C 66.511719 41.050781 66.324219 40.804688 65.941406 40.722656 C 65.65625 40.660156 65.347656 40.652344 65.03125 40.679688 C 65.34375 38.714844 65.609375 36.734375 65.71875 34.757812 C 65.972656 34.046875 66.222656 33.332031 66.453125 32.613281 C 66.613281 32.117188 67.074219 29.984375 65.859375 30.644531 C 65.292969 30.949219 65.386719 31.546875 65.472656 32.089844 C 65.578125 32.742188 65.523438 33.445312 65.492188 34.101562 C 65.484375 34.316406 65.46875 34.527344 65.457031 34.742188 C 65.070312 35.84375 64.667969 36.9375 64.246094 38.027344 C 64.015625 38.625 63.828125 39.246094 63.566406 39.835938 C 63.347656 40.324219 63.089844 40.832031 62.757812 41.273438 C 62.472656 41.367188 62.179688 41.449219 61.882812 41.515625 C 61.171875 41.679688 60.445312 41.773438 59.714844 41.816406 C 58.488281 41.890625 57.199219 41.722656 56 42.035156 C 55.652344 42.128906 55.101562 42.328125 55.152344 42.78125 C 55.1875 43.078125 55.433594 43.191406 55.699219 43.273438 C 56.480469 43.511719 57.382812 43.46875 58.1875 43.40625 C 59.214844 43.328125 60.269531 43.144531 61.226562 42.75 C 61.917969 42.46875 62.453125 42.023438 62.886719 41.484375 C 63.203125 41.394531 63.515625 41.296875 63.832031 41.191406 C 64.097656 41.105469 64.402344 41.023438 64.710938 40.972656 C 64.457031 42.65625 63.839844 46.265625 63.816406 46.390625 C 63.425781 46.632812 63.019531 46.855469 62.613281 47.0625 C 61.628906 47.5625 60.582031 47.988281 59.492188 48.203125 C 58.378906 48.421875 57.261719 48.246094 56.171875 47.972656 C 55.371094 47.765625 54.542969 47.472656 53.894531 46.945312 C 53.25 46.417969 53.089844 45.898438 53.125 45.121094 C 53.230469 42.757812 53.816406 40.394531 54.535156 38.144531 C 55.347656 35.585938 56.347656 33.03125 58.203125 31.023438 C 59.320312 29.816406 59.972656 28.261719 61.199219 27.144531 C 61.976562 26.4375 62.910156 25.992188 63.941406 25.789062 C 63.960938 25.789062 63.976562 25.78125 63.988281 25.773438 C 64.566406 25.53125 65.359375 25.589844 65.96875 25.566406 C 66.882812 25.527344 67.796875 25.519531 68.710938 25.476562 C 69.320312 25.445312 69.976562 25.457031 70.523438 25.152344 C 71.589844 24.558594 72.386719 23.242188 72.871094 22.171875 C 73.054688 21.765625 73.183594 21.355469 73.285156 20.929688 C 73.289062 20.945312 73.289062 20.957031 73.292969 20.96875 C 73.535156 21.820312 73.828125 22.65625 74.171875 23.46875 C 74.425781 24.074219 74.699219 24.753906 75.25 25.15625 C 75.675781 25.472656 76.382812 25.53125 76.898438 25.464844 C 77.503906 25.382812 77.902344 24.921875 78.382812 24.597656 C 79.402344 23.914062 80.503906 23.214844 81.320312 22.285156 C 81.800781 21.734375 82.027344 21.105469 82.1875 20.40625 C 82.992188 19.410156 83.628906 18.445312 83.746094 17.160156 C 83.765625 17.15625 83.785156 17.148438 83.804688 17.144531 C 83.816406 17.140625 83.828125 17.140625 83.839844 17.136719 C 83.855469 17.132812 83.867188 17.128906 83.878906 17.121094 C 84.449219 16.925781 84.863281 16.328125 85.03125 15.785156 C 85.203125 15.226562 84.902344 14.625 84.617188 14.152344 C 84.261719 13.554688 83.773438 13.046875 83.238281 12.605469 C 82.675781 12.148438 82.0625 11.753906 81.453125 11.367188 C 80.847656 10.984375 80.210938 10.589844 79.488281 10.480469 C 78.933594 10.398438 78.324219 10.484375 77.871094 10.828125 C 77.679688 10.972656 77.601562 11.128906 77.292969 11.121094 C 77.1875 11.117188 77.082031 11.074219 76.976562 11.074219 C 76.714844 11.070312 76.460938 11.160156 76.234375 11.277344 C 75.214844 11.800781 74.148438 13.058594 74.207031 14.25 C 74.21875 14.503906 74.285156 14.742188 74.378906 14.980469 C 74.363281 14.972656 74.347656 14.964844 74.335938 14.957031 C 73.992188 14.816406 73.628906 15.058594 73.433594 15.332031 C 73.109375 15.785156 73.078125 16.484375 73.058594 17.019531 C 73.046875 17.3125 72.992188 17.960938 73.34375 18.121094 C 73.367188 18.132812 73.386719 18.140625 73.410156 18.144531 C 73.320312 18.550781 73.203125 18.949219 73.117188 19.359375 C 73.042969 19.726562 73.074219 20.066406 73.148438 20.40625 C 73.105469 20.613281 73.0625 20.820312 73.007812 21.027344 C 72.800781 21.835938 72.421875 22.578125 71.957031 23.269531 C 71.542969 23.890625 71.066406 24.5625 70.394531 24.933594 C 70.082031 25.109375 69.765625 25.148438 69.410156 25.179688 C 68.34375 25.273438 67.273438 25.265625 66.203125 25.304688 C 65.480469 25.328125 64.5625 25.261719 63.875 25.546875 C 61.746094 25.964844 60.414062 27.417969 59.28125 29.148438 C 59.058594 29.492188 58.835938 29.839844 58.59375 30.171875 C 58.261719 30.628906 57.847656 31.015625 57.492188 31.457031 C 56.613281 32.542969 55.953125 33.742188 55.410156 35.023438 C 54.335938 37.574219 53.527344 40.273438 53.097656 43.007812 C 52.960938 43.875 52.792969 44.816406 52.859375 45.699219 C 52.875 45.953125 52.964844 46.191406 53.089844 46.40625 C 53.890625 47.792969 55.871094 48.234375 57.320312 48.457031 C 58.417969 48.621094 59.410156 48.539062 60.472656 48.214844 C 61.585938 47.871094 62.65625 47.371094 63.652344 46.777344 C 63.6875 46.757812 63.722656 46.738281 63.757812 46.714844 C 63.574219 47.710938 63.378906 48.703125 63.238281 49.703125 C 63.183594 50.082031 62.941406 50.984375 63.40625 51.179688 C 63.882812 51.378906 64.429688 51.480469 64.929688 51.613281 C 66.785156 52.109375 68.664062 52.566406 70.570312 52.828125 C 71.304688 52.929688 72.066406 53.023438 72.808594 52.945312 C 72.96875 52.925781 72.96875 52.675781 72.808594 52.691406 C 71.222656 52.863281 69.519531 52.433594 67.980469 52.097656 C 66.554688 51.789062 65.132812 51.433594 63.734375 51.015625 C 63.664062 50.996094 63.441406 50.9375 63.433594 50.925781 C 63.359375 50.828125 63.410156 50.535156 63.417969 50.421875 C 63.429688 50.191406 63.453125 49.960938 63.488281 49.734375 C 63.546875 49.316406 63.628906 48.902344 63.703125 48.488281 L 64.046875 46.535156 C 64.351562 46.34375 64.648438 46.136719 64.933594 45.917969 C 65.203125 45.710938 65.519531 45.488281 65.703125 45.199219 C 65.832031 44.992188 65.941406 44.773438 66.035156 44.554688 C 67.070312 44.558594 68.125 44.601562 69.144531 44.792969 L 68.824219 47.105469 C 68.816406 47.179688 68.84375 47.238281 68.914062 47.261719 L 77.683594 50.355469 C 77.691406 50.359375 77.703125 50.359375 77.714844 50.359375 L 79.226562 50.550781 C 79.242188 50.554688 79.253906 50.550781 79.269531 50.546875 L 84.125 49.652344 C 84.523438 49.808594 84.976562 49.820312 85.398438 49.84375 C 85.785156 49.867188 86.171875 49.878906 86.546875 49.964844 C 86.679688 49.992188 86.808594 50.039062 86.933594 50.089844 C 86.574219 50.214844 86.21875 50.339844 85.859375 50.460938 C 82.34375 51.625 78.746094 52.753906 75.078125 53.320312 C 73.925781 53.496094 72.597656 53.707031 71.449219 53.394531 C 70.546875 53.144531 69.648438 52.871094 68.746094 52.625 C 65.175781 51.652344 61.542969 50.742188 57.863281 50.300781 C 56.554688 50.140625 55.074219 49.953125 53.777344 50.304688 C 52.933594 50.535156 52.09375 50.980469 51.4375 51.550781 C 50.222656 52.609375 49.988281 54.113281 50.625 55.5625 C 50.914062 56.21875 51.21875 56.683594 51.757812 57.121094 C 52.589844 57.792969 53.542969 58.3125 54.503906 58.769531 C 56.433594 59.6875 58.476562 60.355469 60.535156 60.910156 C 64.585938 62.007812 68.75 62.558594 72.933594 62.878906 C 74.703125 63.015625 76.476562 63.007812 78.246094 63.113281 C 78.191406 63.550781 78.378906 63.691406 78.765625 63.855469 C 79.378906 64.105469 80.382812 64.382812 80.789062 63.664062 C 80.847656 63.558594 80.902344 63.449219 80.953125 63.335938 L 81.605469 63.394531 C 81.929688 63.421875 82 63.4375 82.3125 63.511719 C 83.761719 63.847656 85.28125 64.042969 86.765625 63.941406 C 88.191406 63.84375 89.941406 63.402344 90.609375 62 C 90.847656 61.5 91.019531 60.941406 91.121094 60.398438 C 91.214844 59.882812 91.285156 59.148438 90.796875 58.789062 C 90.738281 58.746094 90.671875 58.714844 90.609375 58.6875 C 90.671875 58.683594 90.734375 58.679688 90.796875 58.675781 C 91.113281 58.648438 91.4375 58.625 91.738281 58.53125 C 92.65625 58.242188 93.554688 57.835938 94.421875 57.421875 C 95.882812 56.726562 97.347656 55.898438 98.503906 54.757812 C 99.480469 53.800781 100.238281 52.496094 99.808594 51.105469 " fill-opacity="1" fill-rule="nonzero"/></g></svg>