<svg xmlns="http://www.w3.org/2000/svg" xmlns:xlink="http://www.w3.org/1999/xlink" width="200" zoomAndPan="magnify" viewBox="0 0 150 74.999997" height="100" preserveAspectRatio="xMidYMid meet" version="1.0"><defs><clipPath id="46a75b4d69"><path d="M 38.585938 13.238281 L 111.335938 13.238281 L 111.335938 61.988281 L 38.585938 61.988281 Z M 38.585938 13.238281 " clip-rule="nonzero"/></clipPath><clipPath id="7bcae2e96c"><path d="M 49 54 L 53 54 L 53 61.988281 L 49 61.988281 Z M 49 54 " clip-rule="nonzero"/></clipPath></defs><g clip-path="url(#46a75b4d69)"><path fill="#000000" d="M 102.816406 43.308594 C 102.691406 43.445312 102.570312 43.582031 102.445312 43.722656 C 102.425781 43.699219 102.402344 43.679688 102.382812 43.65625 C 102.476562 43.484375 102.597656 43.339844 102.816406 43.308594 Z M 109.515625 54.023438 C 108.910156 54.054688 108.304688 54.078125 107.699219 54.09375 C 107.390625 54.105469 107.078125 54.128906 106.773438 54.09375 C 106.089844 54.011719 105.414062 53.902344 104.734375 53.800781 C 103.898438 53.671875 103.058594 53.542969 102.222656 53.410156 C 102.101562 53.394531 101.980469 53.371094 101.867188 53.335938 C 100.414062 52.871094 98.917969 52.71875 97.402344 52.722656 C 96.675781 52.726562 95.945312 52.742188 95.21875 52.722656 C 94.0625 52.691406 92.945312 52.941406 91.820312 53.136719 C 91.222656 53.242188 90.621094 53.3125 90.027344 53.441406 C 89.597656 53.535156 89.183594 53.699219 88.765625 53.847656 C 88.382812 53.976562 88.007812 54.128906 87.628906 54.273438 C 87.519531 54.316406 87.402344 54.351562 87.296875 54.414062 C 86.574219 54.832031 85.867188 55.28125 85.132812 55.671875 C 84.589844 55.964844 84.128906 56.351562 83.679688 56.757812 C 83.453125 56.964844 83.238281 57.1875 83.015625 57.40625 C 82.851562 57.34375 82.863281 57.207031 82.867188 57.070312 C 82.882812 56.558594 83.011719 56.082031 83.25 55.632812 C 83.632812 54.902344 84.003906 54.160156 84.53125 53.523438 C 85.289062 52.609375 86.078125 51.722656 86.859375 50.824219 C 86.898438 50.777344 86.960938 50.75 87.007812 50.71875 C 87.042969 50.757812 87.078125 50.78125 87.074219 50.792969 C 86.878906 51.324219 86.6875 51.855469 86.480469 52.382812 C 86.457031 52.445312 86.382812 52.492188 86.332031 52.542969 C 86.292969 52.726562 86.257812 52.90625 86.21875 53.089844 C 86.242188 53.101562 86.265625 53.109375 86.289062 53.121094 C 86.472656 52.800781 86.675781 52.492188 86.835938 52.164062 C 87.175781 51.464844 87.492188 50.753906 87.828125 50.050781 C 87.878906 49.941406 87.941406 49.832031 88.027344 49.75 C 88.25 49.554688 88.484375 49.375 88.71875 49.195312 C 88.777344 49.148438 88.855469 49.140625 88.996094 49.085938 C 88.835938 49.566406 88.699219 49.984375 88.527344 50.496094 C 88.691406 50.34375 88.761719 50.230469 88.820312 50.105469 C 89.003906 49.699219 89.1875 49.292969 89.371094 48.886719 C 89.53125 48.535156 89.660156 48.433594 90.050781 48.394531 C 90.027344 48.734375 89.804688 48.988281 89.703125 49.285156 C 89.605469 49.570312 89.46875 49.839844 89.382812 50.136719 C 89.617188 50.035156 89.703125 49.824219 89.804688 49.625 C 90.066406 49.109375 90.304688 48.578125 90.605469 48.085938 C 90.796875 47.769531 91.078125 47.503906 91.519531 47.371094 C 91.503906 47.78125 91.238281 48.046875 91.085938 48.359375 C 90.929688 48.675781 90.761719 48.988281 90.597656 49.304688 C 90.628906 49.324219 90.65625 49.34375 90.6875 49.359375 C 90.851562 49.132812 91.035156 48.914062 91.179688 48.671875 C 91.410156 48.28125 91.589844 47.855469 91.839844 47.476562 C 92 47.234375 92.242188 47.050781 92.496094 46.792969 C 92.539062 47.128906 92.351562 47.296875 92.25 47.496094 C 92.140625 47.710938 92.03125 47.929688 91.90625 48.175781 C 92.121094 48.203125 92.195312 48.074219 92.265625 47.957031 C 92.464844 47.636719 92.675781 47.320312 92.851562 46.984375 C 93.101562 46.511719 93.550781 46.289062 93.96875 46.019531 C 93.992188 46.003906 94.042969 46.027344 94.140625 46.039062 C 94.105469 46.160156 94.089844 46.273438 94.035156 46.371094 C 93.878906 46.65625 93.710938 46.929688 93.546875 47.214844 C 93.5 47.296875 93.464844 47.390625 93.386719 47.566406 C 93.6875 47.460938 93.761719 47.265625 93.863281 47.105469 C 94.085938 46.75 94.304688 46.394531 94.519531 46.035156 C 94.765625 45.628906 95.132812 45.398438 95.605469 45.273438 C 95.671875 45.335938 95.746094 45.402344 95.84375 45.496094 C 96.210938 45.109375 96.59375 44.757812 97.199219 44.632812 C 96.605469 45.699219 95.640625 46.433594 95.175781 47.582031 C 95.28125 47.515625 95.351562 47.488281 95.398438 47.4375 C 95.667969 47.15625 95.9375 46.871094 96.195312 46.574219 C 96.4375 46.300781 96.664062 46.015625 96.894531 45.734375 C 97.070312 45.523438 97.222656 45.320312 97.328125 45.042969 C 97.457031 44.71875 97.761719 44.40625 98.070312 44.21875 C 98.722656 43.816406 99.425781 43.5 100.113281 43.152344 C 100.171875 43.121094 100.253906 43.125 100.375 43.105469 C 99.335938 43.992188 98.4375 44.929688 97.59375 45.925781 C 97.585938 45.933594 97.605469 45.972656 97.625 46.023438 C 97.851562 45.96875 98.03125 45.832031 98.164062 45.648438 C 98.621094 45.027344 99.207031 44.523438 99.734375 43.964844 C 99.871094 43.820312 100.054688 43.714844 100.203125 43.582031 C 100.339844 43.453125 100.554688 43.324219 100.574219 43.171875 C 100.621094 42.875 100.816406 42.835938 101.019531 42.78125 C 101.539062 42.648438 102.066406 42.535156 102.589844 42.40625 C 102.855469 42.34375 103.121094 42.269531 103.386719 42.199219 C 103.402344 42.226562 103.417969 42.25 103.433594 42.277344 C 103.371094 42.351562 103.320312 42.445312 103.246094 42.503906 C 102.558594 43.070312 101.863281 43.628906 101.171875 44.191406 C 101.121094 44.234375 101.074219 44.292969 101.011719 44.3125 C 100.230469 44.59375 99.84375 45.316406 99.296875 45.855469 C 99.191406 45.960938 99.074219 46.050781 98.96875 46.15625 C 98.9375 46.1875 98.929688 46.242188 98.898438 46.3125 C 99.09375 46.335938 99.15625 46.199219 99.246094 46.109375 C 99.664062 45.691406 100.082031 45.269531 100.5 44.847656 C 100.546875 44.800781 100.59375 44.722656 100.648438 44.714844 C 101.082031 44.65625 101.339844 44.320312 101.660156 44.085938 C 101.679688 44.074219 101.710938 44.078125 101.773438 44.074219 C 101.652344 44.550781 101.402344 44.921875 101.070312 45.257812 C 100.535156 45.808594 100.015625 46.375 99.460938 46.960938 C 99.632812 47.023438 99.691406 46.929688 99.757812 46.859375 C 100.59375 45.980469 101.449219 45.113281 102.261719 44.214844 C 102.765625 43.652344 103.414062 43.285156 103.992188 42.824219 C 104.121094 42.71875 104.226562 42.5625 104.4375 42.578125 C 104.496094 42.835938 104.175781 42.851562 104.179688 43.085938 C 104.324219 43.035156 104.457031 42.988281 104.625 42.933594 C 104.710938 43.109375 104.804688 43.273438 104.871094 43.445312 C 105.097656 44.03125 105.421875 44.554688 105.730469 45.097656 C 106.148438 45.832031 106.464844 46.628906 106.828125 47.402344 C 107.144531 48.066406 107.3125 48.773438 107.464844 49.492188 C 107.554688 49.910156 107.734375 50.316406 107.902344 50.714844 C 108.019531 50.992188 108.113281 51.003906 108.445312 50.875 C 108.90625 51.542969 109.761719 53.511719 109.769531 53.957031 C 109.6875 53.980469 109.601562 54.019531 109.515625 54.023438 Z M 107.519531 56.996094 C 107.65625 56.941406 107.710938 56.921875 107.8125 56.882812 C 106.875 56.273438 105.8125 56.074219 104.808594 55.734375 C 104.808594 55.707031 104.8125 55.675781 104.816406 55.648438 C 104.976562 55.65625 105.136719 55.65625 105.300781 55.671875 C 105.605469 55.703125 105.914062 55.730469 106.21875 55.777344 C 106.5625 55.835938 106.902344 55.917969 107.242188 55.980469 C 107.492188 56.027344 107.746094 56.070312 108 56.09375 C 108.199219 56.113281 108.324219 56.191406 108.367188 56.398438 C 108.429688 56.710938 108.503906 57.023438 108.578125 57.363281 C 108.210938 57.347656 107.9375 57.078125 107.519531 56.996094 Z M 104.203125 56.753906 C 104.480469 56.625 104.480469 56.621094 105.066406 56.808594 C 105.335938 56.894531 105.640625 56.898438 105.851562 57.152344 C 105.320312 57.023438 104.789062 56.894531 104.203125 56.753906 Z M 103.578125 56.632812 C 103.449219 56.609375 103.320312 56.585938 103.191406 56.5625 C 103.191406 56.535156 103.191406 56.507812 103.195312 56.476562 C 103.324219 56.503906 103.457031 56.527344 103.589844 56.554688 C 103.585938 56.582031 103.582031 56.605469 103.578125 56.632812 Z M 100.925781 55.265625 C 101.507812 55.332031 102.105469 55.285156 102.664062 55.527344 C 99.96875 55.308594 97.273438 55.175781 94.554688 55.4375 C 94.742188 55.375 94.929688 55.285156 95.121094 55.257812 C 95.773438 55.164062 96.425781 55.085938 97.082031 55.015625 C 97.640625 54.957031 98.203125 54.914062 98.765625 54.867188 C 98.953125 54.855469 99.15625 54.992188 99.398438 54.757812 C 99.042969 54.734375 98.757812 54.6875 98.472656 54.707031 C 97.34375 54.78125 96.214844 54.855469 95.09375 54.972656 C 94.753906 55.011719 94.433594 55.191406 94.105469 55.3125 C 94.058594 55.328125 93.992188 55.371094 93.984375 55.410156 C 93.925781 55.6875 93.691406 55.703125 93.484375 55.746094 C 92.8125 55.882812 92.140625 56.011719 91.464844 56.140625 C 91.390625 56.152344 91.308594 56.140625 91.21875 56.109375 C 91.765625 55.890625 92.277344 55.609375 92.851562 55.457031 C 93.410156 55.308594 93.992188 55.207031 94.542969 54.941406 C 94.414062 54.742188 94.277344 54.796875 94.152344 54.832031 C 93.480469 55.019531 92.808594 55.21875 92.136719 55.410156 C 92.0625 55.429688 91.988281 55.4375 91.828125 55.464844 C 91.921875 55.347656 91.949219 55.265625 92.003906 55.242188 C 92.261719 55.132812 92.523438 55.007812 92.792969 54.945312 C 93.449219 54.789062 94.105469 54.644531 94.769531 54.539062 C 95.351562 54.449219 95.941406 54.414062 96.527344 54.363281 C 96.617188 54.351562 96.726562 54.34375 96.800781 54.382812 C 97.011719 54.496094 97.230469 54.476562 97.429688 54.40625 C 98.003906 54.199219 98.597656 54.234375 99.1875 54.222656 C 99.980469 54.207031 100.773438 54.21875 101.59375 54.21875 C 101.640625 54.652344 101.949219 54.613281 102.25 54.59375 C 103.550781 54.492188 104.835938 54.660156 106.097656 54.929688 C 106.574219 55.027344 107.039062 55.074219 107.515625 55.105469 C 107.585938 55.109375 107.648438 55.121094 107.710938 55.128906 C 107.851562 54.882812 107.898438 54.882812 108.285156 55.09375 C 108.289062 55.117188 108.300781 55.148438 108.292969 55.167969 C 108.121094 55.648438 108.085938 55.683594 107.566406 55.644531 C 106.65625 55.570312 105.742188 55.503906 104.832031 55.398438 C 104.257812 55.332031 103.695312 55.191406 103.121094 55.101562 C 102.363281 54.984375 101.601562 54.875 100.839844 54.796875 C 100.542969 54.761719 100.226562 54.75 99.953125 54.960938 C 99.871094 55.027344 99.71875 55.011719 99.601562 55.019531 C 99.472656 55.027344 99.34375 55.019531 99.214844 55.070312 C 99.765625 55.292969 100.355469 55.199219 100.925781 55.265625 Z M 102.433594 56.445312 C 102.355469 56.429688 102.277344 56.414062 102.199219 56.398438 C 102.203125 56.378906 102.207031 56.359375 102.207031 56.339844 C 102.285156 56.347656 102.363281 56.355469 102.441406 56.363281 C 102.4375 56.390625 102.433594 56.417969 102.433594 56.445312 Z M 89.351562 54.535156 C 89.679688 54.296875 90.007812 54.1875 90.351562 54.207031 C 89.859375 54.519531 89.679688 54.578125 89.351562 54.535156 Z M 87.589844 55.492188 C 87.675781 55.261719 87.863281 55.203125 88.082031 55.207031 C 87.917969 55.300781 87.753906 55.398438 87.589844 55.492188 Z M 85.714844 56.855469 C 85.839844 56.371094 86.527344 55.859375 87.0625 55.84375 C 86.667969 56.234375 86.238281 56.5625 85.714844 56.855469 Z M 84.679688 57.710938 C 84.824219 57.152344 84.992188 56.992188 85.40625 57.09375 C 85.183594 57.285156 84.960938 57.472656 84.679688 57.710938 Z M 90.847656 55.625 C 90.828125 55.71875 90.703125 55.824219 90.605469 55.863281 C 89.417969 56.304688 88.320312 56.957031 87.09375 57.304688 C 86.671875 57.421875 86.289062 57.675781 85.890625 57.867188 C 85.535156 58.035156 85.1875 58.207031 84.832031 58.371094 C 84.777344 58.398438 84.710938 58.398438 84.652344 58.40625 C 84.640625 58.390625 84.632812 58.371094 84.621094 58.351562 C 84.71875 58.265625 84.808594 58.175781 84.910156 58.097656 C 85.636719 57.5625 86.363281 57.023438 87.09375 56.5 C 87.46875 56.234375 87.847656 55.96875 88.25 55.753906 C 88.839844 55.433594 89.457031 55.160156 90.0625 54.871094 C 90.183594 54.8125 90.316406 54.769531 90.445312 54.738281 C 91.410156 54.492188 92.375 54.230469 93.34375 54.011719 C 94.210938 53.8125 95.085938 53.648438 95.957031 53.496094 C 96.683594 53.371094 97.410156 53.464844 98.136719 53.527344 C 98.480469 53.554688 98.824219 53.609375 99.167969 53.6875 C 98.726562 53.730469 98.28125 53.753906 97.84375 53.8125 C 96.992188 53.921875 96.140625 54.042969 95.292969 54.164062 C 94.601562 54.265625 93.902344 54.339844 93.21875 54.484375 C 92.628906 54.605469 92.046875 54.789062 91.472656 54.984375 C 91.183594 55.085938 90.925781 55.265625 90.847656 55.625 Z M 89.304688 57.335938 C 88.8125 57.523438 88.3125 57.703125 87.75 57.90625 C 87.941406 57.609375 88.210938 57.53125 88.445312 57.417969 C 88.699219 57.296875 88.972656 57.21875 89.238281 57.128906 C 89.488281 57.042969 89.742188 56.953125 90 56.875 C 90.261719 56.796875 90.527344 56.730469 90.792969 56.660156 C 90.800781 56.6875 90.808594 56.714844 90.820312 56.742188 C 90.316406 56.9375 89.8125 57.140625 89.304688 57.335938 Z M 84.351562 59.59375 C 84.226562 59.492188 84.246094 59.375 84.351562 59.285156 C 84.609375 59.070312 84.875 58.867188 85.148438 58.667969 C 85.203125 58.628906 85.316406 58.605469 85.371094 58.636719 C 85.652344 58.792969 85.859375 58.648438 86.070312 58.496094 C 86.195312 58.40625 86.304688 58.28125 86.539062 58.304688 C 86.328125 58.636719 84.890625 59.460938 84.351562 59.59375 Z M 84.113281 58.128906 C 83.976562 58.261719 83.828125 58.378906 83.683594 58.503906 C 83.648438 58.46875 83.613281 58.433594 83.578125 58.398438 C 83.695312 58.25 83.8125 58.101562 83.941406 57.960938 C 83.96875 57.933594 84.054688 57.957031 84.113281 57.957031 C 84.113281 58.015625 84.140625 58.101562 84.113281 58.128906 Z M 83.261719 60.238281 C 82.804688 60.050781 82.320312 60.0625 81.84375 60.007812 C 81.714844 59.992188 81.699219 59.871094 81.707031 59.753906 C 81.742188 59.367188 81.96875 59.109375 82.464844 58.949219 C 82.609375 59.183594 82.730469 59.421875 82.890625 59.632812 C 83.035156 59.828125 83.21875 59.996094 83.402344 60.195312 C 83.328125 60.21875 83.285156 60.246094 83.261719 60.238281 Z M 82.460938 61.046875 C 82.398438 61.019531 82.335938 60.992188 82.273438 60.964844 C 82.273438 60.949219 82.277344 60.933594 82.28125 60.914062 C 82.332031 60.914062 82.382812 60.90625 82.429688 60.917969 C 82.457031 60.929688 82.476562 60.972656 82.5 61.003906 C 82.484375 61.015625 82.472656 61.03125 82.460938 61.046875 Z M 81.089844 52.550781 C 81.0625 52.558594 81.035156 52.5625 81.003906 52.558594 C 80.796875 52.539062 80.589844 51.902344 80.5 51.738281 C 79.820312 50.519531 79.386719 49.183594 78.839844 47.90625 C 76.875 43.308594 75.421875 38.511719 73.570312 33.859375 C 72.847656 32.046875 72.117188 30.238281 71.402344 28.417969 C 71.046875 27.511719 70.695312 26.605469 70.351562 25.695312 C 70.0625 24.9375 69.648438 24.136719 69.472656 23.347656 C 69.453125 23.253906 69.433594 23.160156 69.425781 23.066406 C 69.367188 22.40625 69.726562 21.632812 69.972656 21.03125 C 70.269531 20.3125 70.660156 19.632812 71.117188 19.003906 C 71.699219 18.210938 72.402344 17.546875 72.9375 16.71875 C 73.375 16.046875 73.886719 15.441406 74.386719 14.8125 C 74.601562 14.542969 75.097656 15.847656 75.113281 15.882812 C 75.34375 16.488281 75.582031 17.085938 75.832031 17.683594 C 76.328125 18.878906 76.851562 20.058594 77.417969 21.21875 C 78.398438 23.234375 79.414062 25.25 80.652344 27.121094 C 81.105469 27.804688 81.585938 28.46875 82.039062 29.148438 C 82.957031 30.515625 83.855469 31.980469 84.765625 33.386719 C 85.242188 34.125 85.726562 34.859375 86.230469 35.574219 C 86.703125 36.242188 87.554688 36.785156 87.425781 37.691406 C 87.019531 40.527344 85.570312 43.042969 84.167969 45.484375 C 83.4375 46.753906 82.699219 48.023438 82.089844 49.359375 C 81.8125 49.960938 81.503906 50.589844 81.402344 51.238281 C 81.355469 51.542969 81.449219 52.417969 81.089844 52.550781 Z M 80.589844 58.96875 C 80.433594 59.203125 80.296875 59.449219 80.148438 59.699219 C 79.742188 59.398438 79.363281 59.101562 78.964844 58.828125 C 78.441406 58.46875 77.933594 58.082031 77.375 57.792969 C 76.960938 57.582031 76.488281 57.480469 76.027344 57.382812 C 75.320312 57.226562 74.597656 57.128906 73.882812 56.984375 C 73.597656 56.925781 73.324219 56.804688 73.042969 56.71875 C 72.878906 56.671875 72.710938 56.644531 72.550781 56.566406 C 72.667969 56.566406 72.785156 56.554688 72.902344 56.566406 C 73.675781 56.667969 74.457031 56.738281 75.222656 56.886719 C 75.746094 56.988281 76.253906 57.179688 76.757812 57.367188 C 77.335938 57.585938 77.890625 57.851562 78.5 57.996094 C 78.914062 58.09375 79.296875 58.320312 79.691406 58.484375 C 79.769531 58.511719 79.855469 58.519531 80.015625 58.558594 C 79.847656 58.226562 79.617188 58.09375 79.371094 57.996094 C 78.902344 57.800781 78.421875 57.632812 77.945312 57.445312 C 77.457031 57.253906 76.96875 57.058594 76.484375 56.855469 C 76.199219 56.738281 75.90625 56.644531 75.714844 56.359375 C 75.648438 56.261719 75.496094 56.210938 75.371094 56.160156 C 73.5625 55.410156 71.667969 55.128906 69.722656 55.183594 C 68.269531 55.226562 66.816406 55.300781 65.371094 55.472656 C 65.132812 55.503906 64.886719 55.511719 64.644531 55.507812 C 64.292969 55.503906 63.945312 55.523438 63.613281 55.660156 C 63.503906 55.703125 63.378906 55.71875 63.257812 55.734375 C 62.738281 55.800781 62.21875 55.851562 61.699219 55.925781 C 61.515625 55.953125 61.355469 55.964844 61.21875 55.808594 C 61.066406 55.636719 60.847656 55.644531 60.652344 55.675781 C 60.136719 55.761719 59.613281 55.835938 59.109375 55.980469 C 58.179688 56.25 57.269531 56.597656 56.335938 56.851562 C 55.851562 56.984375 55.515625 57.351562 55.050781 57.503906 C 54.828125 57.578125 54.792969 57.917969 54.929688 58.144531 C 55.058594 58.355469 55.253906 58.375 55.519531 58.1875 C 56.226562 57.695312 56.988281 57.347656 57.839844 57.199219 C 58 57.171875 58.152344 57.136719 58.300781 57.257812 C 58.449219 57.382812 58.605469 57.273438 58.757812 57.234375 C 58.886719 57.199219 59.015625 57.15625 59.144531 57.152344 C 59.199219 57.152344 59.273438 57.242188 59.296875 57.308594 C 59.308594 57.34375 59.246094 57.425781 59.195312 57.460938 C 59.144531 57.5 59.074219 57.515625 59.011719 57.535156 C 58.292969 57.765625 57.578125 58.003906 56.859375 58.21875 C 56.511719 58.324219 56.148438 58.378906 55.800781 58.476562 C 55.089844 58.679688 54.382812 58.90625 53.671875 59.105469 C 53.5 59.152344 53.25 59.230469 53.144531 59.148438 C 52.953125 59 53.164062 58.808594 53.242188 58.652344 C 53.449219 58.214844 53.667969 57.78125 53.902344 57.355469 C 53.988281 57.207031 54.125 57.085938 54.25 56.964844 C 54.304688 56.910156 54.394531 56.855469 54.457031 56.863281 C 54.707031 56.902344 54.898438 56.835938 55.066406 56.644531 C 55.128906 56.570312 55.257812 56.554688 55.359375 56.519531 C 55.980469 56.332031 56.597656 56.140625 57.214844 55.953125 C 57.304688 55.925781 57.414062 55.894531 57.488281 55.925781 C 57.757812 56.042969 57.964844 55.921875 58.164062 55.78125 C 58.535156 55.511719 58.960938 55.417969 59.394531 55.304688 C 60.867188 54.925781 62.375 54.828125 63.878906 54.734375 C 64.695312 54.679688 65.515625 54.6875 66.335938 54.679688 C 67.15625 54.671875 67.980469 54.675781 68.800781 54.679688 C 69.226562 54.683594 69.640625 54.691406 70.0625 54.855469 C 70.4375 55.003906 70.882812 54.976562 71.300781 55 C 72.378906 55.054688 73.4375 55.234375 74.488281 55.472656 C 74.722656 55.527344 74.941406 55.648438 75.171875 55.71875 C 75.480469 55.816406 75.792969 55.894531 76.101562 55.984375 C 76.203125 56.011719 76.308594 56.039062 76.402344 56.085938 C 76.785156 56.277344 77.15625 56.484375 77.597656 56.492188 C 77.636719 56.492188 77.679688 56.507812 77.714844 56.523438 C 78.402344 56.828125 79.125 57.082031 79.765625 57.46875 C 80.109375 57.675781 80.449219 57.851562 80.816406 57.996094 C 80.925781 58.039062 81.015625 58.121094 81.167969 58.214844 C 80.945312 58.503906 80.757812 58.730469 80.589844 58.96875 Z M 70.015625 56.289062 C 70.464844 56.128906 71.234375 56.21875 71.632812 56.476562 C 71.179688 56.554688 70.324219 56.457031 70.015625 56.289062 Z M 69.859375 55.566406 C 70.972656 55.488281 72.066406 55.613281 73.144531 55.855469 C 73.203125 55.871094 73.242188 55.957031 73.300781 56.023438 C 73.113281 56.148438 72.957031 56.074219 72.8125 56.03125 C 72.421875 55.910156 72.027344 55.898438 71.621094 55.886719 C 71.097656 55.875 70.578125 55.773438 70.0625 55.703125 C 69.988281 55.695312 69.921875 55.640625 69.859375 55.566406 Z M 69.386719 56.292969 C 69.363281 56.277344 69.347656 56.246094 69.332031 56.21875 C 69.351562 56.214844 69.375 56.207031 69.410156 56.199219 C 69.421875 56.222656 69.4375 56.25 69.453125 56.277344 C 69.429688 56.28125 69.398438 56.300781 69.386719 56.292969 Z M 68.894531 56.289062 C 68.347656 56.316406 67.796875 56.328125 67.25 56.378906 C 66.753906 56.425781 66.265625 56.519531 65.773438 56.585938 C 64.824219 56.707031 63.878906 56.824219 62.933594 56.949219 C 62.066406 57.0625 61.199219 57.175781 60.335938 57.289062 C 60.203125 57.308594 60.070312 57.335938 59.933594 57.335938 C 59.882812 57.335938 59.800781 57.289062 59.777344 57.238281 C 59.761719 57.195312 59.796875 57.113281 59.824219 57.0625 C 59.851562 57.015625 59.898438 56.972656 59.945312 56.957031 C 60.46875 56.789062 60.929688 56.441406 61.503906 56.433594 C 61.960938 56.425781 62.417969 56.421875 62.871094 56.386719 C 63.527344 56.332031 64.183594 56.25 64.839844 56.183594 C 64.984375 56.167969 65.132812 56.148438 65.28125 56.144531 C 66.382812 56.125 67.484375 56.085938 68.585938 56.160156 C 68.695312 56.167969 68.804688 56.191406 68.914062 56.207031 C 68.910156 56.234375 68.902344 56.261719 68.894531 56.289062 Z M 52.195312 58.660156 C 52.261719 58.710938 52.390625 58.703125 52.480469 58.679688 C 52.546875 58.664062 52.601562 58.582031 52.664062 58.523438 C 52.710938 58.851562 52.496094 59.308594 52.179688 59.523438 C 52.125 59.441406 52.042969 59.363281 52.011719 59.269531 C 51.683594 58.324219 51.339844 57.382812 51.054688 56.425781 C 50.839844 55.714844 50.710938 54.976562 50.542969 54.25 C 50.296875 53.164062 49.957031 52.105469 49.527344 51.082031 C 48.859375 49.492188 48.355469 47.851562 47.867188 46.203125 C 47.820312 46.046875 47.773438 45.882812 47.683594 45.753906 C 47.425781 45.390625 47.292969 44.984375 47.1875 44.5625 C 47.015625 43.878906 46.851562 43.191406 46.664062 42.515625 C 46.589844 42.242188 46.507812 41.945312 46.335938 41.738281 C 45.976562 41.316406 45.824219 40.816406 45.671875 40.316406 C 45.15625 38.644531 44.527344 37.015625 43.886719 35.390625 C 43.621094 34.722656 43.40625 34.035156 43.191406 33.351562 C 43.050781 32.910156 42.882812 32.488281 42.597656 32.117188 C 42.507812 32 42.429688 31.867188 42.378906 31.730469 C 41.957031 30.613281 41.535156 29.5 41.140625 28.375 C 40.953125 27.839844 40.792969 27.289062 40.695312 26.730469 C 40.613281 26.265625 40.558594 25.796875 40.382812 25.355469 C 40.359375 25.292969 40.351562 25.210938 40.371094 25.15625 C 40.402344 25.074219 40.449219 24.980469 40.519531 24.945312 C 40.566406 24.921875 40.695312 24.96875 40.722656 25.023438 C 40.898438 25.308594 41.144531 25.59375 41.195312 25.90625 C 41.339844 26.757812 41.648438 27.554688 41.882812 28.371094 C 42.101562 29.140625 42.339844 29.902344 42.574219 30.664062 C 42.621094 30.816406 42.664062 30.984375 42.960938 31.035156 C 42.945312 30.875 42.945312 30.746094 42.914062 30.625 C 42.839844 30.3125 42.753906 30 42.667969 29.6875 C 42.617188 29.503906 42.5625 29.324219 42.507812 29.140625 C 42.175781 28.039062 41.84375 26.941406 41.507812 25.839844 C 41.488281 25.765625 41.46875 25.652344 41.414062 25.628906 C 41.0625 25.46875 41.09375 25.09375 40.964844 24.8125 C 40.933594 24.742188 40.988281 24.605469 41.042969 24.519531 C 41.277344 24.144531 41.527344 23.777344 41.765625 23.402344 C 41.917969 23.167969 42.058594 22.917969 42.390625 22.78125 C 42.441406 22.914062 42.507812 23.015625 42.515625 23.125 C 42.574219 23.875 42.828125 24.578125 43.023438 25.296875 C 43.132812 25.6875 43.226562 26.082031 43.347656 26.472656 C 43.636719 27.402344 43.941406 28.328125 44.234375 29.257812 C 44.398438 29.773438 44.542969 30.292969 44.722656 30.804688 C 44.882812 31.25 45.074219 31.683594 45.253906 32.121094 C 45.484375 32.671875 45.71875 33.214844 45.949219 33.765625 C 46.035156 33.964844 46.121094 34.164062 46.1875 34.371094 C 46.8125 36.335938 47.667969 38.210938 48.511719 40.085938 C 48.742188 40.59375 48.917969 41.113281 49.039062 41.660156 C 49.191406 42.332031 49.421875 42.984375 49.613281 43.648438 C 50.03125 45.089844 50.441406 46.535156 50.863281 47.980469 C 50.972656 48.355469 51.097656 48.730469 51.230469 49.097656 C 51.277344 49.234375 51.347656 49.378906 51.445312 49.484375 C 51.664062 49.707031 51.753906 49.976562 51.851562 50.261719 C 51.992188 50.671875 52.210938 51.050781 52.347656 51.460938 C 52.578125 52.152344 52.757812 52.863281 52.984375 53.558594 C 53.226562 54.289062 53.492188 55.015625 53.757812 55.738281 C 53.917969 56.167969 53.851562 56.507812 53.527344 56.835938 C 53.320312 57.046875 53.136719 57.28125 52.9375 57.5 C 52.734375 57.734375 52.53125 57.964844 52.324219 58.195312 C 52.277344 58.246094 52.21875 58.285156 52.175781 58.335938 C 52.085938 58.449219 52.089844 58.582031 52.195312 58.660156 Z M 53.257812 52.011719 C 53.1875 52.011719 53.148438 52.019531 53.148438 52.011719 C 52.945312 51.460938 52.742188 50.90625 52.542969 50.351562 C 52.578125 50.335938 52.613281 50.320312 52.648438 50.304688 C 52.847656 50.867188 53.050781 51.429688 53.257812 52.011719 Z M 79.617188 51.875 C 79.652344 51.863281 79.6875 51.855469 79.722656 51.84375 C 79.980469 52.445312 80.238281 53.042969 80.496094 53.644531 C 80.136719 53.464844 80.113281 53.09375 79.945312 52.808594 C 79.777344 52.519531 79.65625 52.207031 79.617188 51.875 Z M 43.46875 23.3125 C 43.554688 23.507812 43.660156 23.691406 43.757812 23.882812 C 43.847656 24.0625 43.933594 24.242188 44.023438 24.425781 C 44.105469 24.589844 44.164062 24.78125 44.410156 24.808594 C 44.609375 24.492188 44.25 24.253906 44.320312 23.875 C 44.503906 24.355469 44.652344 24.757812 44.808594 25.15625 C 44.980469 25.597656 45.148438 26.039062 45.335938 26.476562 C 45.410156 26.648438 45.507812 26.820312 45.632812 26.957031 C 45.855469 27.199219 45.953125 27.480469 46.023438 27.789062 C 46.238281 28.742188 46.449219 29.695312 46.6875 30.640625 C 46.808594 31.125 46.984375 31.597656 47.148438 32.070312 C 47.195312 32.207031 47.273438 32.347656 47.375 32.445312 C 47.59375 32.667969 47.699219 32.933594 47.792969 33.222656 C 48.011719 33.917969 48.28125 34.601562 48.480469 35.304688 C 48.992188 37.121094 49.808594 38.824219 50.375 40.621094 C 50.453125 40.863281 50.570312 41.097656 50.683594 41.328125 C 50.964844 41.882812 51.25 42.433594 51.546875 42.980469 C 51.804688 43.457031 52.074219 43.921875 52.339844 44.390625 C 52.433594 44.554688 52.523438 44.714844 52.574219 44.917969 C 52.359375 44.75 52.148438 44.582031 51.9375 44.410156 C 51.914062 44.433594 51.890625 44.453125 51.867188 44.472656 C 51.949219 44.582031 52.015625 44.707031 52.113281 44.800781 C 52.488281 45.152344 52.859375 45.507812 53.25 45.835938 C 53.789062 46.292969 54.292969 46.777344 54.746094 47.316406 C 54.988281 47.605469 55.273438 47.859375 55.546875 48.121094 C 55.644531 48.210938 55.761719 48.316406 55.882812 48.332031 C 56.214844 48.382812 56.433594 48.609375 56.683594 48.785156 C 57.125 49.097656 57.570312 49.402344 58.007812 49.71875 C 58.191406 49.851562 58.359375 50.003906 58.558594 50.171875 C 58.46875 50.25 58.40625 50.304688 58.335938 50.367188 C 58.371094 50.40625 58.390625 50.449219 58.421875 50.460938 C 58.953125 50.660156 59.484375 50.851562 60.015625 51.046875 C 60.140625 51.09375 60.265625 51.148438 60.382812 51.207031 C 60.871094 51.449219 61.386719 51.582031 61.917969 51.695312 C 62.355469 51.792969 62.789062 51.839844 63.234375 51.839844 C 63.453125 51.835938 63.585938 51.9375 63.644531 52.148438 C 63.707031 52.375 63.863281 52.519531 64.058594 52.628906 C 64.183594 52.699219 64.308594 52.722656 64.417969 52.589844 C 64.449219 52.371094 64.125 52.230469 64.304688 51.972656 C 64.566406 51.898438 64.84375 51.988281 65.121094 51.992188 C 65.507812 51.996094 65.414062 52.441406 65.707031 52.554688 C 65.757812 52.417969 65.785156 52.285156 65.851562 52.179688 C 65.890625 52.117188 65.992188 52.097656 66.066406 52.058594 C 66.085938 52.140625 66.136719 52.230469 66.121094 52.308594 C 66.105469 52.390625 66.03125 52.464844 65.972656 52.554688 C 66.164062 52.734375 66.34375 52.664062 66.492188 52.550781 C 66.683594 52.398438 66.894531 52.367188 67.125 52.335938 C 67.347656 52.308594 67.570312 52.234375 67.777344 52.148438 C 68.136719 51.992188 68.511719 51.996094 68.886719 52.019531 C 68.929688 52.023438 68.96875 52.070312 69.011719 52.101562 C 68.546875 52.316406 68.101562 52.523438 67.660156 52.738281 C 67.625 52.757812 67.609375 52.824219 67.578125 52.878906 C 67.746094 53 67.839844 52.84375 67.953125 52.8125 C 68.082031 52.78125 68.210938 52.738281 68.363281 52.6875 C 68.414062 52.792969 68.460938 52.894531 68.523438 53.011719 C 69.128906 52.648438 69.796875 52.546875 70.441406 52.363281 C 70.773438 52.273438 71.070312 52.390625 71.4375 52.492188 C 71.332031 52.589844 71.28125 52.671875 71.207031 52.699219 C 70.933594 52.808594 70.652344 52.898438 70.371094 53 C 70.238281 53.046875 70.105469 53.097656 69.933594 53.160156 C 70.066406 53.324219 70.1875 53.261719 70.289062 53.230469 C 70.496094 53.171875 70.683594 53.136719 70.847656 53.324219 C 70.953125 53.449219 71.082031 53.390625 71.21875 53.363281 C 71.785156 53.253906 72.351562 53.160156 73 53.046875 C 72.789062 53.382812 72.378906 53.179688 72.257812 53.503906 C 72.488281 53.71875 72.71875 53.519531 72.9375 53.5 C 73.175781 53.480469 73.40625 53.417969 73.726562 53.359375 C 73.605469 53.496094 73.546875 53.558594 73.488281 53.625 C 73.558594 53.816406 73.714844 53.832031 73.859375 53.820312 C 74.027344 53.808594 74.144531 53.847656 74.230469 54 C 74.328125 54.179688 74.503906 54.207031 74.683594 54.203125 C 75.074219 54.1875 75.464844 54.179688 75.851562 54.136719 C 76.355469 54.082031 76.792969 54.160156 77.21875 54.480469 C 77.742188 54.875 78.339844 55.171875 78.882812 55.546875 C 79.316406 55.84375 79.71875 56.183594 80.128906 56.515625 C 80.222656 56.59375 80.285156 56.707031 80.363281 56.804688 C 80.339844 56.835938 80.316406 56.863281 80.296875 56.890625 C 79.882812 56.714844 79.46875 56.535156 79.054688 56.359375 C 78.59375 56.167969 78.140625 55.957031 77.675781 55.789062 C 76.976562 55.542969 76.269531 55.328125 75.566406 55.09375 C 75.464844 55.058594 75.371094 55.003906 75.28125 54.941406 C 75.097656 54.816406 74.925781 54.707031 74.691406 54.859375 C 74.621094 54.90625 74.480469 54.875 74.378906 54.847656 C 73.898438 54.722656 73.425781 54.566406 72.941406 54.457031 C 72.101562 54.265625 71.257812 54.09375 70.414062 53.917969 C 70.296875 53.894531 70.171875 53.886719 70.050781 53.886719 C 69.191406 53.882812 68.332031 53.871094 67.472656 53.882812 C 66.636719 53.890625 65.804688 53.925781 64.96875 53.941406 C 64.1875 53.957031 63.402344 54.011719 62.625 53.953125 C 61.984375 53.90625 61.367188 53.972656 60.742188 54.070312 C 60.675781 54.078125 60.605469 54.089844 60.542969 54.078125 C 59.582031 53.894531 58.707031 54.171875 57.855469 54.578125 C 57.757812 54.625 57.648438 54.660156 57.542969 54.664062 C 56.976562 54.695312 56.492188 54.945312 55.992188 55.191406 C 55.5625 55.402344 55.183594 55.65625 54.867188 56.027344 C 54.65625 55.902344 54.632812 55.707031 54.601562 55.53125 C 54.566406 55.296875 54.511719 55.085938 54.339844 54.910156 C 54.265625 54.835938 54.222656 54.722656 54.1875 54.625 C 53.859375 53.78125 53.464844 52.953125 53.394531 52.035156 C 53.351562 51.464844 53.132812 50.960938 52.9375 50.441406 C 52.636719 49.644531 52.324219 48.851562 52.015625 48.054688 C 51.789062 47.476562 51.5625 46.894531 51.34375 46.3125 C 51.304688 46.203125 51.253906 46.070312 51.273438 45.964844 C 51.347656 45.625 51.234375 45.324219 51.113281 45.023438 C 50.742188 44.105469 50.347656 43.199219 50.003906 42.273438 C 49.777344 41.664062 49.636719 41.027344 49.421875 40.410156 C 49.296875 40.042969 49.101562 39.699219 48.941406 39.34375 C 48.816406 39.074219 48.695312 38.804688 48.570312 38.535156 C 48.34375 38.042969 48.097656 37.5625 47.894531 37.0625 C 47.5625 36.246094 47.246094 35.425781 46.949219 34.597656 C 46.523438 33.429688 46.003906 32.296875 45.691406 31.085938 C 45.550781 30.539062 45.28125 30.023438 45.085938 29.492188 C 44.839844 28.832031 44.617188 28.171875 44.488281 27.472656 C 44.382812 26.917969 44.152344 26.386719 43.957031 25.851562 C 43.675781 25.074219 43.371094 24.308594 43.222656 23.488281 C 43.195312 23.335938 43.179688 23.179688 43.152344 22.996094 C 43.398438 23.023438 43.410156 23.179688 43.46875 23.3125 Z M 52.394531 43.644531 C 52.378906 43.652344 52.363281 43.664062 52.347656 43.675781 C 52.304688 43.613281 52.261719 43.554688 52.21875 43.492188 C 52.242188 43.480469 52.265625 43.46875 52.289062 43.453125 C 52.324219 43.515625 52.359375 43.582031 52.394531 43.644531 Z M 66.492188 50.765625 C 66.335938 50.796875 66.203125 50.847656 66.070312 50.839844 C 65.625 50.824219 65.183594 50.785156 64.742188 50.75 C 64.484375 50.734375 64.230469 50.691406 63.976562 50.703125 C 63.445312 50.726562 62.925781 50.636719 62.417969 50.511719 C 62.128906 50.441406 61.863281 50.265625 61.554688 50.125 C 61.351562 50.375 61.105469 50.246094 60.847656 50.105469 C 60.636719 49.992188 60.40625 49.914062 60.1875 49.816406 C 60.042969 49.75 59.894531 49.679688 59.75 49.609375 C 59.523438 49.496094 59.285156 49.398438 59.070312 49.265625 C 58.796875 49.097656 58.539062 48.902344 58.277344 48.710938 C 58.019531 48.523438 57.769531 48.3125 57.507812 48.128906 C 56.808594 47.640625 56.175781 47.070312 55.617188 46.429688 C 55.148438 45.890625 54.738281 45.300781 54.308594 44.730469 C 54.265625 44.671875 54.253906 44.585938 54.195312 44.433594 C 54.414062 44.476562 54.542969 44.5 54.671875 44.523438 C 55.082031 44.597656 55.492188 44.671875 55.902344 44.746094 C 56.035156 44.769531 56.183594 44.761719 56.292969 44.828125 C 56.867188 45.160156 57.472656 45.011719 58.058594 44.9375 C 58.644531 44.867188 59.222656 44.738281 59.800781 44.613281 C 60.46875 44.46875 61.136719 44.304688 61.804688 44.148438 C 61.898438 44.128906 61.988281 44.105469 62.082031 44.085938 C 62.246094 44.046875 62.347656 44.113281 62.363281 44.277344 C 62.4375 44.996094 62.777344 45.617188 63.035156 46.269531 C 63.171875 46.621094 63.273438 46.988281 63.40625 47.34375 C 63.703125 48.15625 64.230469 48.789062 64.925781 49.292969 C 65.316406 49.578125 65.703125 49.871094 66.089844 50.164062 C 66.269531 50.304688 66.425781 50.46875 66.492188 50.765625 Z M 69.625 52.175781 C 69.601562 52.195312 69.578125 52.21875 69.558594 52.238281 C 69.535156 52.214844 69.511719 52.1875 69.488281 52.164062 C 69.511719 52.140625 69.535156 52.109375 69.542969 52.113281 C 69.570312 52.128906 69.597656 52.15625 69.625 52.175781 Z M 72.601562 52.742188 C 72.347656 52.964844 72.082031 52.980469 71.808594 52.949219 C 71.765625 52.941406 71.703125 52.859375 71.703125 52.808594 C 71.703125 52.757812 71.753906 52.683594 71.800781 52.65625 C 72.070312 52.519531 72.324219 52.550781 72.601562 52.742188 Z M 73.8125 53.035156 C 73.703125 53.1875 73.578125 53.128906 73.394531 53.109375 C 73.546875 52.839844 73.667969 52.914062 73.8125 53.035156 Z M 74.886719 53.351562 C 74.886719 53.375 74.886719 53.402344 74.886719 53.429688 L 74.574219 53.429688 C 74.574219 53.402344 74.578125 53.375 74.578125 53.351562 Z M 44.550781 20.167969 C 44.765625 19.921875 45.117188 19.808594 45.445312 19.730469 C 46.886719 19.371094 48.378906 19.230469 49.859375 19.304688 C 50.53125 19.335938 53.308594 19.367188 53.453125 20.347656 C 53.835938 22.96875 54.519531 25.292969 55.515625 27.75 C 55.789062 28.414062 56.058594 29.082031 56.382812 29.722656 C 56.726562 30.410156 57.128906 31.0625 57.542969 31.714844 C 60.113281 35.761719 63.027344 40.242188 66.996094 43.035156 C 67.144531 43.140625 67.304688 43.25 67.371094 43.421875 C 67.433594 43.578125 67.410156 43.753906 67.394531 43.921875 C 67.339844 44.535156 67.457031 45.164062 67.726562 45.71875 C 67.753906 45.488281 67.890625 43.554688 67.6875 43.472656 C 67.757812 43.503906 67.851562 43.519531 67.921875 43.570312 C 68.488281 43.960938 69.058594 44.34375 69.613281 44.746094 C 69.933594 44.980469 70.222656 45.300781 70.265625 45.695312 C 70.308594 46.125 70.046875 46.53125 70.050781 46.964844 C 70.054688 47.671875 70.753906 48.199219 70.847656 48.902344 C 71.109375 48.207031 71.152344 47.429688 70.96875 46.707031 C 70.78125 47.046875 70.6875 47.441406 70.699219 47.828125 C 70.320312 47.335938 70.277344 46.605469 70.59375 46.070312 C 70.691406 45.90625 73.703125 47.933594 73.96875 48.132812 C 74.957031 48.875 76.113281 49.71875 76.734375 50.800781 C 76.949219 51.171875 77.800781 53.296875 77.058594 53.292969 C 76.316406 53.289062 75.4375 52.546875 74.769531 52.253906 C 73.613281 51.753906 72.402344 51.367188 71.164062 51.144531 C 70.234375 50.976562 69.265625 50.902344 68.421875 50.472656 C 67.371094 49.9375 66.429688 48.921875 65.589844 48.101562 C 64.660156 47.191406 64.015625 46 63.738281 44.730469 C 63.613281 44.171875 63.871094 41.574219 62.597656 41.960938 C 62.394531 42.023438 62.242188 42.183594 62.085938 42.324219 C 60.121094 44.121094 56.578125 44.222656 54.140625 43.597656 C 53.03125 43.3125 52.378906 42.410156 51.890625 41.417969 C 50.488281 38.59375 49.59375 35.484375 48.535156 32.515625 C 47.78125 30.386719 47.027344 28.257812 46.265625 26.132812 C 45.882812 25.070312 45.496094 24.011719 45.109375 22.949219 C 44.867188 22.292969 44.058594 20.984375 44.457031 20.296875 C 44.484375 20.25 44.515625 20.207031 44.550781 20.167969 Z M 54.105469 18.578125 C 54.117188 17.453125 55.488281 19.515625 55.707031 19.816406 C 56.328125 20.6875 56.890625 21.597656 57.457031 22.507812 C 59.507812 25.808594 61.617188 29.167969 64.605469 31.640625 C 65.425781 32.320312 66.304688 32.925781 67.242188 33.429688 C 67.839844 33.75 69.496094 34.066406 69.746094 34.738281 C 69.953125 35.292969 69.746094 36.039062 69.710938 36.609375 C 69.558594 39.074219 69.796875 41.5625 70.429688 43.945312 C 70.785156 45.289062 69.183594 43.824219 68.84375 43.546875 C 67.902344 42.777344 66.988281 41.96875 66.113281 41.125 C 63.839844 38.941406 61.9375 36.492188 59.992188 34.019531 C 58.765625 32.457031 57.527344 30.875 56.617188 29.097656 C 55.664062 27.226562 55.183594 25.113281 54.757812 23.070312 C 54.460938 21.640625 54.09375 20.035156 54.105469 18.578125 Z M 78.285156 54.339844 C 78.273438 54.355469 78.261719 54.367188 78.253906 54.382812 C 78.203125 54.351562 78.152344 54.316406 78.101562 54.285156 C 78.113281 54.265625 78.125 54.25 78.136719 54.234375 C 78.183594 54.269531 78.234375 54.304688 78.285156 54.339844 Z M 77.949219 53.691406 C 77.832031 53.597656 77.71875 53.460938 77.667969 53.320312 C 77.5 52.859375 77.464844 52.378906 77.5 51.882812 C 77.832031 52.050781 78.128906 52.460938 78.265625 52.929688 C 78.203125 52.984375 78.140625 53.050781 78.070312 53.109375 C 77.953125 53.199219 77.855469 53.324219 77.9375 53.449219 C 78.011719 53.558594 78.152344 53.648438 78.277344 53.6875 C 78.382812 53.71875 78.511719 53.664062 78.707031 53.636719 C 78.773438 54.046875 79.207031 54.171875 79.367188 54.550781 C 79.140625 54.601562 79.042969 54.480469 78.929688 54.398438 C 78.601562 54.164062 78.265625 53.941406 77.949219 53.691406 Z M 57.191406 20.878906 C 57.429688 20.796875 58.464844 21.179688 58.621094 21.257812 C 59.269531 21.589844 59.90625 21.964844 60.617188 22.152344 C 62.4375 22.636719 64.394531 22.347656 66.21875 22.820312 C 66.914062 23 67.601562 23.300781 68.082031 23.832031 C 68.628906 24.433594 68.855469 25.25 69.085938 26.027344 C 70.121094 29.480469 71.523438 32.875 73 36.15625 C 73.175781 36.554688 73.355469 36.949219 73.554688 37.332031 C 74.101562 38.390625 74.589844 39.476562 74.972656 40.605469 C 75.050781 40.835938 75.191406 41.039062 75.28125 41.265625 C 76.199219 43.558594 77.132812 45.847656 77.902344 48.195312 C 78.046875 48.625 78.453125 50.679688 78.488281 50.917969 C 78.175781 50.8125 76.109375 48.878906 75.761719 48.398438 C 75.386719 47.882812 74.972656 47.4375 74.539062 46.972656 C 74.011719 46.410156 73.378906 45.914062 72.925781 45.292969 C 71.785156 43.730469 71.113281 41.871094 70.765625 39.976562 C 70.441406 38.230469 70.128906 35.996094 70.59375 34.253906 C 70.601562 34.230469 70.609375 34.207031 70.617188 34.183594 C 70.609375 34.042969 70.613281 33.898438 70.636719 33.75 C 70.644531 33.699219 68.648438 33.082031 68.449219 33.003906 C 67.703125 32.707031 66.988281 32.339844 66.300781 31.921875 C 62.183594 29.398438 59.722656 24.976562 57.171875 21.015625 C 57.121094 20.941406 57.136719 20.898438 57.191406 20.878906 Z M 104.316406 42.128906 C 104.296875 42.222656 104.304688 42.355469 104.246094 42.40625 C 104.019531 42.597656 103.785156 42.777344 103.535156 42.933594 C 103.3125 43.070312 103.070312 43.171875 102.839844 43.289062 C 102.863281 43.207031 102.871094 43.105469 102.921875 43.058594 C 103.285156 42.742188 103.652344 42.429688 104.03125 42.128906 C 104.089844 42.085938 104.21875 42.128906 104.316406 42.128906 Z M 77.625 18.578125 C 78.019531 18.203125 78.558594 17.984375 79.035156 17.746094 C 79.601562 17.460938 80.179688 17.191406 80.765625 16.9375 C 81.933594 16.433594 83.128906 15.996094 84.351562 15.628906 C 85.371094 15.320312 86.421875 15.0625 87.488281 15.035156 C 88.007812 15.019531 88.527344 15.0625 89.042969 15.101562 C 89.410156 15.132812 89.792969 15.1875 89.960938 15.554688 C 90.167969 16.003906 90.160156 16.648438 90.257812 17.140625 C 90.679688 19.265625 91.285156 21.382812 92.363281 23.277344 C 93.558594 25.375 95.335938 26.722656 97.15625 28.242188 C 98.730469 29.558594 100.242188 30.960938 101.53125 32.5625 C 102.589844 33.875 103.488281 35.304688 104.410156 36.710938 C 104.894531 37.445312 105.382812 38.175781 105.90625 38.882812 C 106.183594 39.253906 107.15625 40.191406 106.265625 40.480469 C 104.632812 41.011719 102.894531 41.386719 101.320312 42.050781 C 99.71875 42.726562 98.117188 43.410156 96.539062 44.136719 C 94.527344 45.058594 92.550781 46.046875 90.640625 47.164062 C 89.6875 47.71875 88.660156 48.277344 87.792969 48.96875 C 86.898438 49.679688 86.070312 50.535156 85.210938 51.304688 C 85.140625 51.367188 85.0625 51.414062 84.972656 51.480469 C 84.613281 50.890625 84.261719 50.320312 83.914062 49.746094 C 83.933594 49.730469 83.957031 49.714844 83.976562 49.699219 C 84.132812 49.910156 84.28125 50.128906 84.445312 50.332031 C 84.605469 50.535156 84.652344 50.828125 84.914062 50.980469 C 85.035156 50.8125 84.957031 50.675781 84.886719 50.558594 C 84.691406 50.234375 84.488281 49.914062 84.269531 49.605469 C 84.039062 49.28125 83.832031 48.957031 83.890625 48.535156 C 83.84375 48.53125 83.804688 48.523438 83.800781 48.527344 C 83.6875 48.839844 83.539062 49.148438 83.476562 49.46875 C 83.445312 49.636719 83.527344 49.851562 83.617188 50.003906 C 83.910156 50.492188 84.226562 50.964844 84.539062 51.4375 C 84.589844 51.515625 84.664062 51.574219 84.742188 51.65625 C 84.699219 51.730469 84.675781 51.824219 84.617188 51.855469 C 83.996094 52.203125 83.753906 52.832031 83.441406 53.414062 C 83.214844 53.832031 83.011719 54.257812 82.835938 54.699219 C 82.660156 55.140625 82.582031 55.765625 82.316406 56.132812 C 82.101562 55.660156 82.144531 54.882812 82.089844 54.339844 L 81.828125 54.359375 C 81.773438 53.835938 81.8125 53.328125 81.902344 52.808594 C 81.960938 52.457031 82.28125 51.726562 82.171875 51.398438 C 82.269531 51.6875 82.335938 51.957031 82.449219 52.207031 C 82.5625 52.453125 82.695312 52.683594 82.636719 52.976562 C 82.609375 53.109375 82.671875 53.242188 82.824219 53.214844 C 82.894531 53.203125 83.003906 53.070312 83 52.996094 C 82.992188 52.808594 82.949219 52.621094 82.890625 52.441406 C 82.785156 52.121094 82.652344 51.8125 82.53125 51.496094 C 82.5 51.40625 82.476562 51.3125 82.433594 51.230469 C 82.269531 50.945312 82.265625 50.945312 82.429688 50.589844 C 82.574219 50.667969 82.605469 50.816406 82.667969 50.9375 C 82.867188 51.335938 83.066406 51.738281 83.265625 52.136719 C 83.300781 52.210938 83.332031 52.292969 83.386719 52.347656 C 83.4375 52.394531 83.519531 52.40625 83.585938 52.433594 C 83.613281 52.351562 83.679688 52.25 83.65625 52.191406 C 83.554688 51.972656 83.433594 51.761719 83.296875 51.558594 C 83.15625 51.347656 83.132812 51.152344 83.257812 50.917969 C 83.34375 50.753906 83.367188 50.558594 83.40625 50.371094 C 83.433594 50.242188 83.40625 50.097656 83.257812 50.09375 C 83.160156 50.09375 83.039062 50.175781 82.972656 50.257812 C 82.914062 50.335938 82.917969 50.460938 82.882812 50.609375 C 82.730469 50.34375 82.609375 50.09375 82.742188 49.839844 C 83.277344 48.820312 83.824219 47.8125 84.386719 46.808594 C 84.464844 46.664062 84.617188 46.550781 84.757812 46.460938 C 84.96875 46.320312 85.050781 46.113281 85.101562 45.886719 C 85.28125 45.089844 85.714844 44.417969 86.113281 43.726562 C 86.128906 43.695312 86.175781 43.683594 86.261719 43.636719 C 86.648438 44.324219 87.035156 45.007812 87.460938 45.753906 C 87.601562 45.414062 87.460938 45.179688 87.363281 44.96875 C 87.121094 44.445312 86.855469 43.925781 86.570312 43.421875 C 86.449219 43.210938 86.476562 43.050781 86.585938 42.859375 C 86.910156 42.28125 87.234375 41.703125 87.546875 41.121094 C 87.621094 40.980469 87.65625 40.820312 87.695312 40.664062 C 87.730469 40.523438 87.75 40.375 87.777344 40.226562 C 88.574219 40.625 89.042969 41.371094 89.648438 41.964844 C 89.671875 41.949219 89.695312 41.933594 89.71875 41.917969 C 89.691406 41.84375 89.679688 41.753906 89.628906 41.695312 C 89.214844 41.199219 88.816406 40.683594 88.367188 40.222656 C 88.015625 39.867188 87.792969 39.523438 87.90625 38.988281 C 88.003906 38.542969 88.015625 38.074219 88.074219 37.621094 C 88.085938 37.53125 88.113281 37.421875 88.171875 37.367188 C 88.363281 37.191406 88.328125 37.015625 88.226562 36.816406 C 87.234375 34.910156 85.910156 33.199219 84.65625 31.464844 C 83.375 29.6875 82.296875 27.761719 81.15625 25.894531 C 80.890625 25.457031 80.625 25.023438 80.367188 24.585938 C 79.828125 23.664062 79.324219 22.722656 78.832031 21.777344 C 78.363281 20.886719 77.835938 20.003906 77.457031 19.066406 C 77.386719 18.894531 77.46875 18.730469 77.625 18.578125 Z M 110.398438 53.007812 C 109.582031 51.035156 108.792969 49.050781 108.023438 47.058594 C 107.859375 46.636719 105.820312 41.539062 105.820312 41.535156 C 106.328125 41.195312 106.855469 41.015625 107.441406 40.875 C 107.78125 40.792969 108.132812 40.664062 108.335938 40.378906 C 108.371094 40.335938 108.402344 40.285156 108.457031 40.265625 C 108.492188 40.253906 105.34375 36.820312 104.207031 35.394531 C 102.929688 33.796875 101.902344 32.007812 100.605469 30.421875 C 99.359375 28.894531 97.78125 27.683594 96.203125 26.527344 C 95.300781 25.863281 94.378906 25.203125 93.671875 24.332031 C 92.605469 23.011719 92.140625 21.34375 91.6875 19.734375 C 91.210938 18.039062 90.539062 16.507812 90.859375 14.703125 C 90.886719 14.546875 90.917969 14.382812 90.863281 14.230469 C 90.714844 13.820312 89.78125 14.101562 89.46875 14.140625 C 88.835938 14.21875 88.203125 14.300781 87.570312 14.363281 C 86.550781 14.457031 85.519531 14.503906 84.519531 14.730469 C 83.277344 15.007812 82.117188 15.546875 80.941406 16.015625 C 79.75 16.484375 78.417969 16.652344 77.304688 17.289062 C 77.074219 17.425781 76.882812 17.628906 76.65625 17.382812 C 76.515625 17.226562 76.441406 17.011719 76.339844 16.832031 C 76.152344 16.5 75.988281 16.152344 75.835938 15.804688 C 75.527344 15.097656 75.261719 14.371094 74.914062 13.683594 C 74.691406 13.246094 74.375 13.289062 74.238281 13.742188 C 74.167969 13.976562 74.003906 14.164062 73.84375 14.347656 C 73.042969 15.253906 72.285156 16.199219 71.570312 17.179688 C 70.886719 18.109375 70.144531 19.074219 69.632812 20.113281 C 69.398438 20.589844 69.222656 21.089844 69.074219 21.601562 C 69.015625 21.804688 68.890625 22.871094 68.625 22.894531 C 68.558594 22.898438 68.496094 22.863281 68.441406 22.828125 C 67.550781 22.289062 66.492188 22.144531 65.464844 21.996094 C 63.75 21.75 62.015625 21.511719 60.324219 21.148438 C 58.972656 20.859375 57.496094 20.339844 56.605469 19.207031 C 56.140625 18.667969 55.785156 18.035156 55.558594 17.359375 C 55.449219 17.03125 55.375 16.703125 55.339844 16.359375 C 55.308594 16.070312 55.257812 15.699219 54.976562 15.535156 C 54.511719 15.265625 53.828125 16.035156 53.636719 16.375 C 53.382812 16.824219 53.390625 17.28125 53.394531 17.78125 C 53.394531 18.238281 53.347656 18.691406 53.316406 19.144531 C 53.328125 19.007812 51.4375 18.667969 51.246094 18.636719 C 50.527344 18.515625 49.796875 18.453125 49.066406 18.441406 C 48.335938 18.433594 47.605469 18.480469 46.882812 18.585938 C 46.164062 18.6875 45.546875 18.917969 44.875 19.183594 C 44.457031 19.351562 43.636719 19.875 43.234375 19.457031 C 43.113281 19.332031 42.996094 19.113281 42.839844 19.1875 C 42.5625 19.320312 42.953125 20.574219 42.996094 20.8125 C 43.042969 21.058594 43.300781 21.726562 43.082031 21.925781 C 42.988281 22.007812 42.832031 22.046875 42.714844 22.078125 C 42.515625 22.128906 42.296875 22.128906 42.109375 22.199219 C 41.902344 22.269531 41.734375 22.4375 41.589844 22.59375 C 41.464844 22.726562 40.113281 24.242188 40.125 24.257812 C 39.980469 24.074219 39.878906 23.839844 39.695312 23.691406 C 39.601562 23.613281 39.492188 23.570312 39.371094 23.625 C 39.300781 23.660156 39.242188 23.707031 39.171875 23.738281 C 39.050781 23.785156 38.910156 23.773438 38.800781 23.839844 C 38.707031 23.898438 38.648438 24.007812 38.628906 24.121094 C 38.585938 24.378906 38.671875 24.652344 38.675781 24.910156 C 38.679688 25.328125 38.71875 25.75 38.84375 26.148438 C 39.039062 26.777344 39.335938 27.363281 39.542969 27.988281 C 40.011719 29.394531 40.585938 30.769531 41.09375 32.160156 C 42.117188 34.945312 43.117188 37.742188 44.089844 40.546875 C 45.265625 43.933594 46.453125 47.433594 47.5625 50.890625 C 48.148438 52.703125 48.71875 54.523438 49.269531 56.351562 C 49.546875 57.265625 49.816406 58.179688 50.085938 59.09375 C 50.246094 59.648438 50.335938 60.910156 50.898438 61.222656 C 51.414062 61.515625 51.96875 61.25 52.484375 61.109375 C 53.175781 60.921875 53.867188 60.746094 54.558594 60.570312 C 55.917969 60.230469 57.28125 59.90625 58.632812 59.546875 C 60.117188 59.152344 61.589844 58.71875 63.09375 58.433594 C 66.972656 57.699219 71.023438 57.988281 74.816406 59.027344 C 76.625 59.53125 78.148438 60.246094 79.660156 61.367188 C 80.472656 61.96875 81.082031 61.941406 82.042969 61.800781 C 85.171875 61.355469 87.851562 59.363281 90.761719 58.25 C 95.859375 56.296875 101.4375 56.429688 106.625 57.933594 C 107.683594 58.242188 108.707031 58.683594 109.710938 59.136719 C 109.933594 59.234375 110.402344 59.132812 110.558594 58.957031 C 110.867188 58.617188 110.984375 58.222656 110.894531 57.769531 C 110.730469 56.933594 110.675781 56.074219 110.289062 55.296875 C 110.253906 55.222656 110.265625 55.125 110.257812 55.039062 C 110.507812 54.976562 110.734375 54.933594 110.953125 54.867188 C 111.335938 54.746094 110.757812 53.882812 110.398438 53.007812 " fill-opacity="1" fill-rule="nonzero"/></g><path fill="#000000" d="M 87.074219 51.875 C 86.644531 51.472656 86.441406 50.945312 85.960938 50.609375 C 85.867188 50.945312 86.003906 51.152344 86.144531 51.363281 C 86.328125 51.640625 86.527344 51.914062 86.703125 52.199219 C 86.757812 52.292969 86.761719 52.417969 86.804688 52.601562 C 86.410156 52.417969 86.328125 52.074219 86.117188 51.847656 C 85.90625 51.621094 85.734375 51.367188 85.519531 51.097656 C 85.433594 51.179688 85.363281 51.246094 85.292969 51.3125 C 85.496094 51.703125 85.90625 51.898438 86.125 52.324219 C 85.554688 52.316406 85.417969 51.914062 85.21875 51.535156 C 85.050781 51.757812 85.136719 51.898438 85.265625 52.050781 C 85.585938 52.433594 85.910156 52.8125 86.207031 53.210938 C 86.460938 53.554688 86.453125 53.585938 86.492188 53.949219 C 86.144531 53.625 85.925781 53.28125 85.65625 52.984375 C 85.386719 52.683594 85.105469 52.390625 84.832031 52.097656 C 84.457031 52.238281 84.292969 52.660156 83.828125 52.71875 C 83.875 52.597656 83.882812 52.503906 83.933594 52.449219 C 84.023438 52.347656 84.136719 52.269531 84.242188 52.1875 C 84.488281 52.003906 84.691406 51.796875 84.636719 51.425781 C 84.921875 51.445312 85.066406 51.277344 85.191406 51.078125 C 85.257812 50.976562 85.332031 50.875 85.417969 50.796875 C 85.707031 50.527344 85.839844 50.257812 85.527344 49.910156 C 85.464844 49.839844 85.457031 49.703125 85.464844 49.601562 C 85.46875 49.539062 85.542969 49.445312 85.601562 49.433594 C 85.652344 49.421875 85.746094 49.484375 85.785156 49.542969 C 86.171875 50.109375 86.550781 50.679688 86.929688 51.25 C 87.039062 51.417969 87.160156 51.585938 87.074219 51.875 " fill-opacity="1" fill-rule="nonzero"/><path fill="#000000" d="M 87.710938 45.828125 C 87.816406 45.878906 87.925781 45.902344 87.988281 45.964844 C 88.46875 46.476562 88.992188 46.957031 89.300781 47.648438 C 89.066406 47.726562 88.988281 47.582031 88.894531 47.484375 C 87.707031 46.222656 87.699219 46.214844 87.710938 45.828125 " fill-opacity="1" fill-rule="nonzero"/><path fill="#000000" d="M 87.355469 46.535156 C 87.738281 47.28125 88.335938 47.804688 88.753906 48.550781 C 88.617188 48.542969 88.535156 48.558594 88.503906 48.527344 C 88.070312 48.085938 87.621094 47.65625 87.3125 47.105469 C 87.230469 46.957031 87.148438 46.792969 87.355469 46.535156 " fill-opacity="1" fill-rule="nonzero"/><path fill="#000000" d="M 87.460938 47.660156 C 87.808594 48.070312 88.125 48.417969 88.410156 48.789062 C 88.496094 48.898438 88.492188 49.078125 88.542969 49.296875 C 88.40625 49.238281 88.332031 49.230469 88.296875 49.191406 C 88.046875 48.910156 87.792969 48.628906 87.558594 48.332031 C 87.46875 48.222656 87.410156 48.078125 87.367188 47.941406 C 87.347656 47.886719 87.40625 47.808594 87.460938 47.660156 " fill-opacity="1" fill-rule="nonzero"/><path fill="#000000" d="M 85.648438 54.246094 C 85.425781 54.09375 84.773438 53.183594 84.675781 52.902344 C 84.644531 52.8125 84.648438 52.710938 84.632812 52.578125 C 84.9375 52.757812 85.597656 53.855469 85.648438 54.246094 " fill-opacity="1" fill-rule="nonzero"/><path fill="#000000" d="M 84.285156 53.96875 C 84.667969 54.179688 84.886719 54.519531 84.882812 54.847656 C 84.558594 54.796875 84.316406 54.457031 84.285156 53.96875 " fill-opacity="1" fill-rule="nonzero"/><path fill="#000000" d="M 73.582031 53.152344 C 73.847656 53.253906 73.820312 53.449219 73.8125 53.628906 C 73.808594 53.886719 73.769531 54.144531 73.796875 54.394531 C 73.832031 54.753906 73.910156 55.105469 73.96875 55.460938 C 73.984375 55.554688 73.988281 55.652344 74 55.78125 C 73.425781 55.480469 73.339844 54.339844 73.582031 53.152344 " fill-opacity="1" fill-rule="nonzero"/><path fill="#000000" d="M 71.671875 52.210938 C 71.707031 52.3125 71.765625 52.398438 71.757812 52.476562 C 71.699219 53.015625 71.988281 53.390625 72.324219 53.75 C 72.417969 53.851562 72.5 53.960938 72.625 54.113281 C 72.492188 54.140625 72.402344 54.183594 72.378906 54.160156 C 72.136719 53.9375 71.863281 53.730469 71.679688 53.460938 C 71.300781 52.910156 71.316406 52.605469 71.671875 52.210938 " fill-opacity="1" fill-rule="nonzero"/><path fill="#000000" d="M 72.667969 52.890625 C 72.933594 53.050781 72.992188 53.234375 73.027344 53.4375 C 73.09375 53.824219 73.179688 54.207031 73.25 54.589844 C 73.273438 54.710938 73.277344 54.835938 73.296875 55.011719 C 73.175781 54.96875 73.105469 54.964844 73.085938 54.933594 C 72.714844 54.324219 72.625 53.660156 72.667969 52.890625 " fill-opacity="1" fill-rule="nonzero"/><path fill="#000000" d="M 69.082031 51.957031 C 68.851562 51.261719 68.941406 50.542969 68.964844 49.769531 C 69.066406 49.832031 69.15625 49.855469 69.167969 49.902344 C 69.203125 50.027344 69.222656 50.164062 69.226562 50.296875 C 69.238281 50.710938 69.246094 51.128906 69.246094 51.542969 C 69.25 51.683594 69.230469 51.820312 69.21875 51.960938 C 69.171875 51.957031 69.128906 51.957031 69.082031 51.957031 " fill-opacity="1" fill-rule="nonzero"/><path fill="#000000" d="M 74.867188 55.976562 C 74.46875 55.5625 74.546875 54.640625 75.007812 54.199219 C 75.050781 54.832031 74.847656 55.394531 74.867188 55.976562 " fill-opacity="1" fill-rule="nonzero"/><path fill="#000000" d="M 68.578125 51.121094 C 68.171875 50.617188 67.996094 49.714844 68.191406 49.289062 C 68.472656 49.523438 68.335938 49.871094 68.433594 50.144531 C 68.535156 50.421875 68.648438 50.714844 68.578125 51.121094 " fill-opacity="1" fill-rule="nonzero"/><path fill="#000000" d="M 76.386719 55.273438 C 76.164062 55.59375 76.105469 55.957031 76.125 56.332031 C 75.882812 56.394531 75.808594 56.269531 75.792969 56.113281 C 75.761719 55.820312 75.816406 55.554688 76.019531 55.320312 C 76.144531 55.171875 76.257812 55.179688 76.398438 55.285156 C 76.398438 55.285156 76.386719 55.273438 76.386719 55.273438 " fill-opacity="1" fill-rule="nonzero"/><path fill="#000000" d="M 66.453125 48.136719 C 66.828125 48.21875 67.023438 48.625 66.933594 49.066406 C 66.683594 48.863281 66.480469 48.484375 66.453125 48.136719 " fill-opacity="1" fill-rule="nonzero"/><path fill="#000000" d="M 98.71875 50.253906 C 98.886719 50.054688 99.050781 49.84375 99.230469 49.652344 C 99.609375 49.25 100.007812 48.867188 100.378906 48.457031 C 100.660156 48.144531 100.992188 47.910156 101.351562 47.675781 C 101.46875 47.867188 101.339844 47.933594 101.261719 48.011719 C 100.679688 48.574219 100.097656 49.136719 99.519531 49.703125 C 99.394531 49.824219 99.277344 49.957031 99.148438 50.074219 C 99.042969 50.171875 98.925781 50.257812 98.816406 50.351562 C 98.78125 50.316406 98.75 50.285156 98.71875 50.253906 " fill-opacity="1" fill-rule="nonzero"/><path fill="#000000" d="M 95.371094 50.273438 C 95.445312 50.480469 95.382812 50.597656 95.242188 50.6875 C 95.082031 50.789062 95.132812 50.90625 95.21875 51.023438 C 94.632812 51.695312 94.09375 52.390625 93.453125 52.996094 C 93.519531 52.714844 95.085938 50.515625 95.371094 50.273438 " fill-opacity="1" fill-rule="nonzero"/><path fill="#000000" d="M 92.601562 52.953125 C 92.136719 53.695312 91.511719 54.273438 90.808594 54.785156 C 90.890625 54.480469 91.164062 54.347656 91.347656 54.136719 C 91.539062 53.914062 91.75 53.703125 91.972656 53.503906 C 92.175781 53.316406 92.304688 53.035156 92.601562 52.953125 " fill-opacity="1" fill-rule="nonzero"/><path fill="#000000" d="M 101.453125 50.492188 C 101.488281 50.226562 102.359375 49.214844 102.667969 49.042969 C 102.589844 49.429688 102.28125 49.582031 102.09375 49.8125 C 101.898438 50.054688 101.667969 50.265625 101.453125 50.492188 " fill-opacity="1" fill-rule="nonzero"/><path fill="#000000" d="M 86.09375 57.183594 C 86.035156 57.214844 85.976562 57.246094 85.917969 57.277344 C 85.90625 57.28125 85.890625 57.277344 85.84375 57.277344 C 85.84375 56.980469 85.917969 56.730469 86.230469 56.570312 C 86.179688 56.777344 86.128906 56.988281 86.082031 57.195312 C 86.082031 57.195312 86.09375 57.183594 86.09375 57.183594 " fill-opacity="1" fill-rule="nonzero"/><path fill="#000000" d="M 93.171875 53.328125 C 93.0625 53.445312 92.953125 53.558594 92.804688 53.714844 C 92.851562 53.398438 92.851562 53.398438 93.171875 53.328125 " fill-opacity="1" fill-rule="nonzero"/><path fill="#000000" d="M 98.449219 51.222656 C 98.320312 51.34375 98.195312 51.464844 98.070312 51.585938 C 98.054688 51.570312 98.039062 51.554688 98.023438 51.539062 C 98.152344 51.417969 98.28125 51.296875 98.414062 51.175781 C 98.425781 51.191406 98.4375 51.207031 98.449219 51.222656 " fill-opacity="1" fill-rule="nonzero"/><path fill="#000000" d="M 88.167969 55.464844 C 88.140625 55.503906 88.113281 55.550781 88.082031 55.589844 C 88.074219 55.597656 88.039062 55.578125 88.019531 55.574219 C 88.042969 55.519531 88.066406 55.46875 88.09375 55.414062 C 88.117188 55.429688 88.140625 55.445312 88.167969 55.464844 " fill-opacity="1" fill-rule="nonzero"/><path fill="#000000" d="M 101.730469 47.46875 C 101.707031 47.484375 101.679688 47.503906 101.652344 47.519531 C 101.644531 47.5 101.621094 47.46875 101.628906 47.460938 C 101.644531 47.433594 101.675781 47.414062 101.699219 47.390625 C 101.707031 47.414062 101.71875 47.433594 101.730469 47.46875 " fill-opacity="1" fill-rule="nonzero"/><g clip-path="url(#7bcae2e96c)"><path fill="#000000" d="M 49.386719 54.488281 C 49.445312 54.394531 49.488281 54.253906 49.554688 54.242188 C 49.628906 54.230469 49.742188 54.316406 49.800781 54.390625 C 49.863281 54.472656 49.878906 54.589844 49.917969 54.691406 C 50.09375 55.171875 50.269531 55.65625 50.445312 56.136719 C 50.484375 56.253906 50.53125 56.367188 50.550781 56.488281 C 50.683594 57.460938 51.023438 58.371094 51.359375 59.285156 C 51.558594 59.832031 51.753906 60.378906 51.941406 60.929688 C 51.988281 61.058594 52.097656 61.25 51.902344 61.316406 C 51.683594 61.394531 51.667969 61.164062 51.617188 61.019531 C 51.363281 60.320312 51.101562 59.625 50.863281 58.921875 C 50.566406 58.054688 50.292969 57.175781 50.003906 56.304688 C 49.921875 56.0625 49.792969 55.835938 49.714844 55.59375 C 49.59375 55.238281 49.5 54.871094 49.386719 54.488281 " fill-opacity="1" fill-rule="nonzero"/></g><path fill="#000000" d="M 52.609375 60.535156 C 52.53125 60.394531 52.441406 60.265625 52.382812 60.125 C 52.265625 59.824219 52.152344 59.519531 52.050781 59.210938 C 51.699219 58.101562 51.351562 56.996094 51.007812 55.886719 C 50.945312 55.675781 50.84375 55.460938 50.960938 55.1875 C 51.269531 55.410156 51.300781 55.75 51.421875 56.03125 C 51.542969 56.3125 51.609375 56.621094 51.703125 56.921875 C 51.816406 56.929688 51.953125 56.902344 52.007812 56.957031 C 52.082031 57.03125 52.113281 57.167969 52.128906 57.28125 C 52.179688 57.644531 52.171875 58.015625 52.265625 58.363281 C 52.382812 58.789062 52.5625 59.199219 52.753906 59.597656 C 52.898438 59.894531 52.964844 60.257812 52.609375 60.535156 " fill-opacity="1" fill-rule="nonzero"/><path fill="#000000" d="M 42.914062 33.511719 C 42.609375 33.472656 42.59375 33.289062 42.550781 33.140625 C 42.375 32.519531 42.207031 31.894531 42.03125 31.269531 C 41.894531 30.789062 41.742188 30.3125 41.601562 29.835938 C 41.566406 29.722656 41.550781 29.605469 41.523438 29.472656 C 41.695312 29.414062 41.839844 29.367188 42.027344 29.300781 C 42.0625 29.410156 42.105469 29.519531 42.125 29.632812 C 42.300781 30.480469 42.453125 31.332031 42.871094 32.105469 C 42.917969 32.191406 42.960938 32.355469 42.917969 32.40625 C 42.730469 32.621094 42.835938 32.835938 42.875 33.058594 C 42.898438 33.195312 42.898438 33.335938 42.914062 33.511719 " fill-opacity="1" fill-rule="nonzero"/></svg>