<svg xmlns="http://www.w3.org/2000/svg" xmlns:xlink="http://www.w3.org/1999/xlink" width="500" zoomAndPan="magnify" viewBox="0 0 375 374.999991" height="500" preserveAspectRatio="xMidYMid meet" version="1.0"><defs><g/><clipPath id="c9f7210cc0"><path d="M 73.070312 77.269531 L 317.570312 77.269531 L 317.570312 315.769531 L 73.070312 315.769531 Z M 73.070312 77.269531 " clip-rule="nonzero"/></clipPath><clipPath id="23e7b7f35d"><path d="M 57.746094 59.074219 L 302.246094 59.074219 L 302.246094 299.824219 L 57.746094 299.824219 Z M 57.746094 59.074219 " clip-rule="nonzero"/></clipPath></defs><rect x="-37.5" width="450" fill="#ffffff" y="-37.499999" height="449.999989" fill-opacity="1"/><rect x="-37.5" width="450" fill="#ffffff" y="-37.499999" height="449.999989" fill-opacity="1"/><rect x="-37.5" width="450" fill="#ffffff" y="-37.499999" height="449.999989" fill-opacity="1"/><g clip-path="url(#c9f7210cc0)"><path fill="#545454" d="M 73.070312 77.269531 L 317.566406 77.269531 L 317.566406 315.769531 L 73.070312 315.769531 L 73.070312 77.269531 " fill-opacity="1" fill-rule="nonzero"/></g><g clip-path="url(#23e7b7f35d)"><path fill="#000000" d="M 57.746094 59.074219 L 302.246094 59.074219 L 302.246094 299.824219 L 57.746094 299.824219 L 57.746094 59.074219 " fill-opacity="1" fill-rule="nonzero"/></g><g fill="#ffffff" fill-opacity="0.4"><g transform="translate(128.987057, 175.644191)"><g><path d="M 3.59375 0 L 3.59375 -35.3125 L 12.28125 -32.4375 L 12.28125 -8.6875 L 17.296875 -8.6875 L 33.875 -17.59375 L 33.875 -35.96875 L 27.421875 -35.96875 L 27.421875 -24.484375 L 18.734375 -27.34375 L 18.734375 -44.640625 L 42.5625 -44.640625 L 42.5625 0 L 33.875 0 L 33.875 -7.75 L 19.453125 0 Z M 3.59375 0 "/></g></g></g><g fill="#ffffff" fill-opacity="0.4"><g transform="translate(175.786988, 175.644191)"><g><path d="M 30.21875 -10.046875 L 30.21875 -35.96875 L 12.28125 -35.96875 L 12.28125 -19.953125 Z M 48.953125 -9.328125 L 43.9375 -12.125 L 43.9375 -22.109375 L 48.953125 -19.3125 L 48.953125 -29.078125 L 38.90625 -34.671875 L 38.90625 0 L 30.21875 0 L 3.59375 -14.78125 L 3.59375 -44.640625 L 38.90625 -44.640625 L 57.640625 -34.234375 L 57.640625 -9.328125 Z M 48.953125 -9.328125 "/></g></g></g><g fill="#ffffff" fill-opacity="1"><g transform="translate(125.814711, 172.471845)"><g><path d="M 3.59375 0 L 3.59375 -35.3125 L 12.28125 -32.4375 L 12.28125 -8.6875 L 17.296875 -8.6875 L 33.875 -17.59375 L 33.875 -35.96875 L 27.421875 -35.96875 L 27.421875 -24.484375 L 18.734375 -27.34375 L 18.734375 -44.640625 L 42.5625 -44.640625 L 42.5625 0 L 33.875 0 L 33.875 -7.75 L 19.453125 0 Z M 3.59375 0 "/></g></g></g><g fill="#ffffff" fill-opacity="1"><g transform="translate(172.614641, 172.471845)"><g><path d="M 30.21875 -10.046875 L 30.21875 -35.96875 L 12.28125 -35.96875 L 12.28125 -19.953125 Z M 48.953125 -9.328125 L 43.9375 -12.125 L 43.9375 -22.109375 L 48.953125 -19.3125 L 48.953125 -29.078125 L 38.90625 -34.671875 L 38.90625 0 L 30.21875 0 L 3.59375 -14.78125 L 3.59375 -44.640625 L 38.90625 -44.640625 L 57.640625 -34.234375 L 57.640625 -9.328125 Z M 48.953125 -9.328125 "/></g></g></g><g fill="#ffffff" fill-opacity="0.4"><g transform="translate(122.492762, 234.919795)"><g><path d="M 33.875 -8.96875 L 33.875 -35.890625 L 27.421875 -35.890625 L 27.421875 -24.40625 L 18.734375 -27.28125 L 18.734375 -44.578125 L 42.5625 -44.578125 L 42.5625 0 L 33.875 0 L 3.59375 -8.390625 L 3.59375 -44.578125 L 12.28125 -44.578125 L 12.28125 -15 Z M 33.875 -8.96875 "/></g></g></g><g fill="#ffffff" fill-opacity="0.4"><g transform="translate(168.646656, 234.919795)"><g><path d="M 12.28125 0 L 3.59375 0 L 3.59375 -44.640625 L 12.28125 -44.640625 Z M 12.28125 0 "/></g></g></g><g fill="#ffffff" fill-opacity="0.4"><g transform="translate(185.155852, 234.919795)"><g><path d="M 30.21875 -10.046875 L 30.21875 -35.96875 L 12.28125 -35.96875 L 12.28125 -19.953125 Z M 30.21875 0 L 3.59375 -14.78125 L 3.59375 -44.640625 L 38.90625 -44.640625 L 38.90625 0 Z M 23.765625 11.40625 L 9.984375 3.734375 L 9.984375 -6.25 L 23.765625 1.4375 Z M 23.765625 11.40625 "/></g></g></g><g fill="#ffffff" fill-opacity="0.4"><g transform="translate(227.649011, 234.919795)"><g><path d="M 12.28125 0 L 3.59375 0 L 3.59375 -44.640625 L 12.28125 -44.640625 Z M 12.28125 0 "/></g></g></g><g fill="#ffffff" fill-opacity="1"><g transform="translate(119.320416, 231.747448)"><g><path d="M 33.875 -8.96875 L 33.875 -35.890625 L 27.421875 -35.890625 L 27.421875 -24.40625 L 18.734375 -27.28125 L 18.734375 -44.578125 L 42.5625 -44.578125 L 42.5625 0 L 33.875 0 L 3.59375 -8.390625 L 3.59375 -44.578125 L 12.28125 -44.578125 L 12.28125 -15 Z M 33.875 -8.96875 "/></g></g></g><g fill="#ffffff" fill-opacity="1"><g transform="translate(165.47431, 231.747448)"><g><path d="M 12.28125 0 L 3.59375 0 L 3.59375 -44.640625 L 12.28125 -44.640625 Z M 12.28125 0 "/></g></g></g><g fill="#ffffff" fill-opacity="1"><g transform="translate(181.983505, 231.747448)"><g><path d="M 30.21875 -10.046875 L 30.21875 -35.96875 L 12.28125 -35.96875 L 12.28125 -19.953125 Z M 30.21875 0 L 3.59375 -14.78125 L 3.59375 -44.640625 L 38.90625 -44.640625 L 38.90625 0 Z M 23.765625 11.40625 L 9.984375 3.734375 L 9.984375 -6.25 L 23.765625 1.4375 Z M 23.765625 11.40625 "/></g></g></g><g fill="#ffffff" fill-opacity="1"><g transform="translate(224.476665, 231.747448)"><g><path d="M 12.28125 0 L 3.59375 0 L 3.59375 -44.640625 L 12.28125 -44.640625 Z M 12.28125 0 "/></g></g></g></svg>