<svg xmlns="http://www.w3.org/2000/svg" xmlns:xlink="http://www.w3.org/1999/xlink" width="500" zoomAndPan="magnify" viewBox="0 0 375 374.999991" height="500" preserveAspectRatio="xMidYMid meet" version="1.0"><defs><g/><clipPath id="f47e321db2"><path d="M 27.15625 33.039062 L 369.753906 33.039062 L 369.753906 367.230469 L 27.15625 367.230469 Z M 27.15625 33.039062 " clip-rule="nonzero"/></clipPath><clipPath id="e7d890ec10"><path d="M 5.6875 7.550781 L 348.285156 7.550781 L 348.285156 344.894531 L 5.6875 344.894531 Z M 5.6875 7.550781 " clip-rule="nonzero"/></clipPath></defs><rect x="-37.5" width="450" fill="#ffffff" y="-37.499999" height="449.999989" fill-opacity="1"/><rect x="-37.5" width="450" fill="#ffffff" y="-37.499999" height="449.999989" fill-opacity="1"/><rect x="-37.5" width="450" fill="#ffffff" y="-37.499999" height="449.999989" fill-opacity="1"/><g clip-path="url(#f47e321db2)"><path fill="#545454" d="M 27.160156 33.039062 L 369.753906 33.039062 L 369.753906 367.230469 L 27.160156 367.230469 L 27.160156 33.039062 " fill-opacity="1" fill-rule="nonzero"/></g><g clip-path="url(#e7d890ec10)"><path fill="#000000" d="M 5.6875 7.550781 L 348.28125 7.550781 L 348.28125 344.894531 L 5.6875 344.894531 L 5.6875 7.550781 " fill-opacity="1" fill-rule="nonzero"/></g><g fill="#ffffff" fill-opacity="0.4"><g transform="translate(105.510724, 170.887458)"><g><path d="M 5.03125 0 L 5.03125 -49.484375 L 17.203125 -45.46875 L 17.203125 -12.171875 L 24.234375 -12.171875 L 47.46875 -24.640625 L 47.46875 -50.390625 L 38.421875 -50.390625 L 38.421875 -34.296875 L 26.25 -38.3125 L 26.25 -62.5625 L 59.640625 -62.5625 L 59.640625 0 L 47.46875 0 L 47.46875 -10.859375 L 27.25 0 Z M 5.03125 0 "/></g></g></g><g fill="#ffffff" fill-opacity="0.4"><g transform="translate(171.087534, 170.887458)"><g><path d="M 42.34375 -14.078125 L 42.34375 -50.390625 L 17.203125 -50.390625 L 17.203125 -27.953125 Z M 68.59375 -13.078125 L 61.546875 -17 L 61.546875 -30.984375 L 68.59375 -27.0625 L 68.59375 -40.734375 L 54.515625 -48.578125 L 54.515625 0 L 42.34375 0 L 5.03125 -20.71875 L 5.03125 -62.5625 L 54.515625 -62.5625 L 80.765625 -47.96875 L 80.765625 -13.078125 Z M 68.59375 -13.078125 "/></g></g></g><g fill="#ffffff" fill-opacity="1"><g transform="translate(101.065574, 166.44231)"><g><path d="M 5.03125 0 L 5.03125 -49.484375 L 17.203125 -45.46875 L 17.203125 -12.171875 L 24.234375 -12.171875 L 47.46875 -24.640625 L 47.46875 -50.390625 L 38.421875 -50.390625 L 38.421875 -34.296875 L 26.25 -38.3125 L 26.25 -62.5625 L 59.640625 -62.5625 L 59.640625 0 L 47.46875 0 L 47.46875 -10.859375 L 27.25 0 Z M 5.03125 0 "/></g></g></g><g fill="#ffffff" fill-opacity="1"><g transform="translate(166.642384, 166.44231)"><g><path d="M 42.34375 -14.078125 L 42.34375 -50.390625 L 17.203125 -50.390625 L 17.203125 -27.953125 Z M 68.59375 -13.078125 L 61.546875 -17 L 61.546875 -30.984375 L 68.59375 -27.0625 L 68.59375 -40.734375 L 54.515625 -48.578125 L 54.515625 0 L 42.34375 0 L 5.03125 -20.71875 L 5.03125 -62.5625 L 54.515625 -62.5625 L 80.765625 -47.96875 L 80.765625 -13.078125 Z M 68.59375 -13.078125 "/></g></g></g><g fill="#ffffff" fill-opacity="0.4"><g transform="translate(96.410814, 253.94538)"><g><path d="M 47.46875 -12.578125 L 47.46875 -50.28125 L 38.421875 -50.28125 L 38.421875 -34.203125 L 26.25 -38.21875 L 26.25 -62.453125 L 59.640625 -62.453125 L 59.640625 0 L 47.46875 0 L 5.03125 -11.765625 L 5.03125 -62.453125 L 17.203125 -62.453125 L 17.203125 -21.015625 Z M 47.46875 -12.578125 "/></g></g></g><g fill="#ffffff" fill-opacity="0.4"><g transform="translate(161.082388, 253.94538)"><g><path d="M 17.203125 0 L 5.03125 0 L 5.03125 -62.5625 L 17.203125 -62.5625 Z M 17.203125 0 "/></g></g></g><g fill="#ffffff" fill-opacity="0.4"><g transform="translate(184.215336, 253.94538)"><g><path d="M 42.34375 -14.078125 L 42.34375 -50.390625 L 17.203125 -50.390625 L 17.203125 -27.953125 Z M 42.34375 0 L 5.03125 -20.71875 L 5.03125 -62.5625 L 54.515625 -62.5625 L 54.515625 0 Z M 33.296875 15.984375 L 13.984375 5.234375 L 13.984375 -8.75 L 33.296875 2.015625 Z M 33.296875 15.984375 "/></g></g></g><g fill="#ffffff" fill-opacity="0.4"><g transform="translate(243.75743, 253.94538)"><g><path d="M 17.203125 0 L 5.03125 0 L 5.03125 -62.5625 L 17.203125 -62.5625 Z M 17.203125 0 "/></g></g></g><g fill="#ffffff" fill-opacity="1"><g transform="translate(91.965664, 249.500232)"><g><path d="M 47.46875 -12.578125 L 47.46875 -50.28125 L 38.421875 -50.28125 L 38.421875 -34.203125 L 26.25 -38.21875 L 26.25 -62.453125 L 59.640625 -62.453125 L 59.640625 0 L 47.46875 0 L 5.03125 -11.765625 L 5.03125 -62.453125 L 17.203125 -62.453125 L 17.203125 -21.015625 Z M 47.46875 -12.578125 "/></g></g></g><g fill="#ffffff" fill-opacity="1"><g transform="translate(156.637238, 249.500232)"><g><path d="M 17.203125 0 L 5.03125 0 L 5.03125 -62.5625 L 17.203125 -62.5625 Z M 17.203125 0 "/></g></g></g><g fill="#ffffff" fill-opacity="1"><g transform="translate(179.770186, 249.500232)"><g><path d="M 42.34375 -14.078125 L 42.34375 -50.390625 L 17.203125 -50.390625 L 17.203125 -27.953125 Z M 42.34375 0 L 5.03125 -20.71875 L 5.03125 -62.5625 L 54.515625 -62.5625 L 54.515625 0 Z M 33.296875 15.984375 L 13.984375 5.234375 L 13.984375 -8.75 L 33.296875 2.015625 Z M 33.296875 15.984375 "/></g></g></g><g fill="#ffffff" fill-opacity="1"><g transform="translate(239.31228, 249.500232)"><g><path d="M 17.203125 0 L 5.03125 0 L 5.03125 -62.5625 L 17.203125 -62.5625 Z M 17.203125 0 "/></g></g></g></svg>