<svg xmlns="http://www.w3.org/2000/svg" xmlns:xlink="http://www.w3.org/1999/xlink" width="200" zoomAndPan="magnify" viewBox="0 0 150 74.999997" height="100" preserveAspectRatio="xMidYMid meet" version="1.0"><defs><clipPath id="d9fce57aba"><path d="M 77.140625 30.949219 L 110.695312 30.949219 L 110.695312 46.394531 L 77.140625 46.394531 Z M 77.140625 30.949219 " clip-rule="nonzero"/></clipPath><clipPath id="6e73d9a3fd"><path d="M 39.828125 10.265625 L 110.695312 10.265625 L 110.695312 62.085938 L 39.828125 62.085938 Z M 39.828125 10.265625 " clip-rule="nonzero"/></clipPath><clipPath id="9e15641385"><path d="M 39.46875 36.796875 L 95.34375 36.796875 L 95.34375 65.015625 L 39.46875 65.015625 Z M 39.46875 36.796875 " clip-rule="nonzero"/></clipPath></defs><path fill="#000000" d="M 79.730469 35.746094 C 79.78125 35.777344 79.832031 35.800781 79.886719 35.816406 C 79.933594 35.832031 79.984375 35.835938 80.03125 35.835938 C 80.210938 35.835938 80.382812 35.746094 80.484375 35.589844 C 81.015625 34.785156 81.730469 33.59375 82.125 32.488281 C 82.203125 32.445312 82.394531 32.34375 82.835938 32.191406 C 83.246094 32.050781 83.703125 31.917969 84.007812 31.832031 L 84.019531 31.828125 C 84.132812 31.796875 84.226562 31.769531 84.292969 31.75 C 84.292969 31.75 84.296875 31.75 84.296875 31.75 C 84.304688 31.746094 84.308594 31.746094 84.316406 31.742188 C 84.316406 31.742188 84.320312 31.738281 84.324219 31.738281 C 84.328125 31.738281 84.335938 31.734375 84.339844 31.734375 L 84.359375 31.722656 C 84.367188 31.722656 84.371094 31.71875 84.378906 31.714844 L 84.382812 31.714844 C 84.386719 31.710938 84.394531 31.707031 84.398438 31.707031 L 84.40625 31.699219 C 84.414062 31.695312 84.417969 31.695312 84.425781 31.6875 L 84.488281 31.648438 L 84.503906 31.636719 L 84.507812 31.625 C 84.511719 31.621094 84.511719 31.621094 84.515625 31.621094 C 84.519531 31.617188 84.523438 31.613281 84.523438 31.609375 C 84.527344 31.605469 84.53125 31.601562 84.535156 31.597656 L 84.542969 31.589844 C 84.546875 31.585938 84.550781 31.578125 84.554688 31.574219 L 84.558594 31.570312 C 84.5625 31.566406 84.566406 31.558594 84.574219 31.550781 L 84.621094 31.488281 L 84.617188 31.480469 L 84.617188 31.476562 C 84.621094 31.472656 84.625 31.46875 84.625 31.464844 L 84.628906 31.457031 C 84.628906 31.453125 84.632812 31.449219 84.636719 31.441406 C 84.636719 31.4375 84.636719 31.4375 84.640625 31.433594 C 84.640625 31.429688 84.644531 31.421875 84.644531 31.417969 C 84.648438 31.414062 84.648438 31.410156 84.648438 31.40625 L 84.652344 31.398438 C 84.652344 31.390625 84.65625 31.386719 84.65625 31.378906 L 84.894531 30.53125 C 84.933594 30.390625 84.914062 30.242188 84.84375 30.113281 C 84.773438 29.988281 84.65625 29.894531 84.515625 29.855469 C 84.375 29.816406 84.226562 29.835938 84.101562 29.90625 C 83.972656 29.980469 83.882812 30.097656 83.84375 30.238281 L 83.691406 30.789062 C 82.625 31.09375 82.042969 31.296875 81.675781 31.488281 L 81.292969 31.136719 C 81.1875 31.039062 81.046875 30.988281 80.902344 30.992188 C 80.757812 31 80.621094 31.0625 80.523438 31.167969 C 80.320312 31.390625 80.335938 31.738281 80.558594 31.941406 L 81.007812 32.359375 C 80.609375 33.359375 79.945312 34.429688 79.578125 34.988281 C 79.496094 35.113281 79.46875 35.257812 79.496094 35.402344 C 79.527344 35.542969 79.609375 35.667969 79.730469 35.746094 " fill-opacity="1" fill-rule="nonzero"/><path fill="#000000" d="M 76.871094 34.476562 C 77.46875 33.335938 77.882812 32.300781 78.21875 31.46875 C 78.546875 30.65625 78.828125 29.953125 79.0625 29.726562 C 79.558594 29.253906 81.117188 28.492188 82.613281 27.992188 C 84.289062 27.433594 84.933594 27.386719 85.445312 27.394531 C 85.75 27.460938 87.421875 27.972656 88.691406 28.570312 C 88.824219 28.632812 88.972656 28.640625 89.109375 28.589844 C 89.246094 28.539062 89.355469 28.441406 89.417969 28.308594 C 89.480469 28.175781 89.484375 28.027344 89.4375 27.890625 C 89.386719 27.753906 89.289062 27.644531 89.15625 27.582031 C 88.363281 27.207031 87.484375 26.890625 86.886719 26.691406 C 86.585938 26.589844 86.28125 26.492188 86.03125 26.421875 C 85.625 26.300781 85.5625 26.300781 85.503906 26.300781 C 84.886719 26.292969 84.128906 26.335938 82.265625 26.957031 C 80.828125 27.4375 79.007812 28.269531 78.3125 28.9375 C 77.90625 29.324219 77.613281 30.054688 77.207031 31.0625 C 76.878906 31.875 76.472656 32.890625 75.894531 33.992188 C 75.894531 33.996094 75.894531 34 75.894531 34 L 75.871094 34.046875 C 75.828125 34.148438 75.792969 34.253906 75.765625 34.359375 C 75.480469 35.457031 76.011719 36.609375 77.03125 37.097656 C 77.058594 37.113281 77.089844 37.125 77.121094 37.132812 C 77.167969 37.144531 77.21875 37.152344 77.265625 37.152344 C 77.472656 37.152344 77.664062 37.035156 77.757812 36.839844 C 77.886719 36.570312 77.773438 36.242188 77.5 36.113281 C 76.953125 35.847656 76.664062 35.226562 76.820312 34.636719 C 76.835938 34.582031 76.851562 34.53125 76.871094 34.476562 " fill-opacity="1" fill-rule="nonzero"/><g clip-path="url(#d9fce57aba)"><path fill="#000000" d="M 110.128906 35.441406 C 110.429688 35.453125 110.683594 35.214844 110.695312 34.914062 C 110.707031 34.613281 110.46875 34.359375 110.171875 34.347656 L 99.585938 33.761719 C 99.441406 33.753906 99.300781 33.808594 99.195312 33.90625 C 99.089844 34.003906 99.03125 34.132812 99.023438 34.273438 C 97.816406 33.863281 97.4375 33.488281 96.769531 32.828125 C 96.308594 32.375 95.734375 31.808594 94.722656 31.074219 C 94.605469 30.988281 94.460938 30.953125 94.316406 30.976562 C 94.171875 31 94.046875 31.078125 93.960938 31.195312 C 93.785156 31.441406 93.839844 31.78125 94.085938 31.957031 C 95.03125 32.644531 95.570312 33.179688 96.003906 33.609375 C 96.777344 34.371094 97.292969 34.878906 98.980469 35.410156 L 98.691406 43.550781 C 96.507812 43.5625 94.285156 44.269531 92.652344 44.785156 C 92.078125 44.96875 91.582031 45.128906 91.191406 45.222656 C 88.625 45.503906 87.222656 44.675781 85.734375 43.800781 C 85.25 43.515625 84.746094 43.21875 84.195312 42.957031 C 83.777344 42.757812 79.933594 40.800781 79.167969 40.410156 L 79.148438 40.402344 C 79.148438 40.398438 79.144531 40.398438 79.144531 40.398438 C 79.140625 40.398438 79.136719 40.394531 79.136719 40.394531 C 78.917969 40.289062 78.726562 40.136719 78.574219 39.941406 C 78.039062 39.25 78.160156 38.253906 78.847656 37.714844 C 79.300781 37.363281 79.914062 37.28125 80.441406 37.507812 C 80.519531 37.542969 82.355469 38.34375 84.289062 39.078125 C 85.453125 39.519531 86.429688 39.855469 87.195312 40.070312 L 87.265625 40.089844 C 87.703125 40.210938 88.074219 40.296875 88.371094 40.339844 C 88.800781 40.40625 89.109375 40.394531 89.335938 40.300781 C 89.613281 40.191406 89.816406 39.957031 89.941406 39.609375 C 90.121094 39.121094 90.148438 38.378906 90.011719 37.523438 C 89.871094 36.65625 89.585938 35.777344 89.199219 35.046875 C 89.058594 34.78125 88.730469 34.679688 88.464844 34.820312 C 88.199219 34.960938 88.097656 35.292969 88.234375 35.558594 C 88.625 36.296875 88.898438 37.207031 88.980469 38.058594 C 89.019531 38.433594 89.015625 38.765625 88.972656 39.019531 C 88.949219 39.167969 88.917969 39.25 88.898438 39.289062 C 88.785156 39.296875 88.421875 39.285156 87.464844 39.011719 C 86.730469 38.800781 85.785156 38.476562 84.652344 38.046875 C 82.75 37.324219 80.949219 36.539062 80.875 36.503906 L 80.867188 36.503906 C 79.976562 36.121094 78.945312 36.257812 78.179688 36.855469 C 77.019531 37.761719 76.808594 39.449219 77.714844 40.613281 C 77.96875 40.9375 78.285156 41.195312 78.652344 41.375 L 78.664062 41.378906 C 79.132812 41.617188 83.277344 43.730469 83.730469 43.945312 C 84.234375 44.183594 84.71875 44.46875 85.1875 44.742188 C 86.046875 45.25 86.933594 45.773438 88.050781 46.085938 C 88.730469 46.277344 89.445312 46.371094 90.203125 46.371094 C 90.570312 46.371094 90.953125 46.347656 91.34375 46.304688 C 91.367188 46.300781 91.390625 46.296875 91.410156 46.292969 C 91.84375 46.191406 92.371094 46.023438 92.984375 45.828125 C 94.535156 45.335938 96.644531 44.664062 98.652344 44.644531 L 98.632812 45.214844 C 98.621094 45.46875 98.785156 45.691406 99.027344 45.761719 C 99.070312 45.773438 99.113281 45.777344 99.15625 45.78125 L 109.742188 46.367188 C 109.886719 46.375 110.023438 46.320312 110.132812 46.222656 C 110.238281 46.121094 110.300781 45.988281 110.304688 45.839844 C 110.308594 45.695312 110.257812 45.558594 110.160156 45.449219 C 110.058594 45.34375 109.925781 45.28125 109.78125 45.277344 L 99.738281 44.710938 L 100.089844 34.875 L 110.128906 35.441406 " fill-opacity="1" fill-rule="nonzero"/></g><path fill="#000000" d="M 71.746094 43.640625 C 71.792969 43.65625 71.84375 43.660156 71.890625 43.660156 C 71.921875 43.660156 71.953125 43.660156 71.984375 43.652344 L 75.226562 43.101562 C 75.226562 43.101562 75.230469 43.101562 75.230469 43.101562 L 75.242188 43.101562 C 75.246094 43.101562 75.246094 43.097656 75.246094 43.097656 L 75.261719 43.105469 L 75.304688 43.085938 C 75.316406 43.082031 75.332031 43.074219 75.34375 43.070312 C 75.351562 43.066406 75.359375 43.0625 75.367188 43.0625 L 75.371094 43.058594 C 75.378906 43.054688 75.386719 43.050781 75.394531 43.046875 L 75.402344 43.042969 C 75.410156 43.039062 75.417969 43.035156 75.421875 43.03125 L 75.429688 43.027344 C 75.433594 43.027344 75.4375 43.023438 75.441406 43.019531 L 75.457031 43.011719 L 77.394531 41.691406 C 77.515625 41.609375 77.597656 41.488281 77.625 41.34375 C 77.652344 41.199219 77.625 41.054688 77.542969 40.933594 C 77.460938 40.8125 77.335938 40.730469 77.195312 40.703125 C 77.050781 40.675781 76.90625 40.707031 76.785156 40.789062 L 74.9375 42.042969 L 72.996094 42.375 L 73.652344 41.3125 L 73.8125 41.550781 C 73.980469 41.800781 74.316406 41.867188 74.566406 41.699219 C 74.816406 41.53125 74.882812 41.191406 74.714844 40.941406 L 74.390625 40.453125 L 76.589844 38.960938 C 76.710938 38.878906 76.792969 38.753906 76.820312 38.609375 C 76.847656 38.46875 76.820312 38.320312 76.738281 38.199219 C 76.566406 37.953125 76.230469 37.886719 75.980469 38.054688 L 73.332031 39.855469 C 73.328125 39.859375 73.324219 39.859375 73.320312 39.863281 L 73.316406 39.863281 C 73.3125 39.867188 73.3125 39.871094 73.308594 39.871094 C 73.292969 39.882812 73.277344 39.898438 73.261719 39.914062 L 73.257812 39.914062 C 73.25 39.921875 73.246094 39.929688 73.238281 39.933594 L 73.234375 39.9375 C 73.21875 39.957031 73.203125 39.976562 73.1875 39.996094 L 73.1875 40 L 71.429688 42.828125 C 71.316406 43.007812 71.320312 43.242188 71.441406 43.417969 C 71.511719 43.527344 71.621094 43.605469 71.746094 43.640625 " fill-opacity="1" fill-rule="nonzero"/><path fill="#000000" d="M 97.761719 26.542969 L 97.035156 27.03125 C 97.035156 27.03125 97.035156 27.03125 97.03125 27.035156 L 83.433594 36.273438 C 83.3125 36.355469 83.230469 36.476562 83.203125 36.621094 C 83.175781 36.765625 83.207031 36.910156 83.285156 37.03125 C 83.359375 37.136719 83.46875 37.214844 83.59375 37.25 C 83.640625 37.265625 83.6875 37.269531 83.738281 37.269531 C 83.847656 37.269531 83.953125 37.238281 84.042969 37.175781 L 97.636719 27.941406 L 98.367188 27.453125 C 99.035156 27 99.214844 26.089844 98.765625 25.417969 L 98.28125 24.6875 C 97.832031 24.019531 96.921875 23.839844 96.253906 24.289062 L 95.527344 24.777344 L 81.984375 33.976562 C 81.867188 34.058594 81.785156 34.179688 81.757812 34.324219 C 81.730469 34.46875 81.757812 34.613281 81.839844 34.734375 C 81.914062 34.839844 82.019531 34.917969 82.144531 34.953125 C 82.300781 34.996094 82.464844 34.96875 82.597656 34.878906 L 95.679688 25.992188 L 96.035156 26.523438 C 96.117188 26.644531 96.238281 26.726562 96.382812 26.757812 C 96.523438 26.785156 96.667969 26.753906 96.789062 26.671875 C 96.910156 26.59375 96.992188 26.46875 97.019531 26.324219 C 97.050781 26.183594 97.019531 26.035156 96.9375 25.914062 L 96.582031 25.382812 L 96.859375 25.195312 C 97.03125 25.082031 97.261719 25.128906 97.375 25.296875 L 97.863281 26.027344 C 97.976562 26.195312 97.929688 26.429688 97.761719 26.542969 " fill-opacity="1" fill-rule="nonzero"/><g clip-path="url(#6e73d9a3fd)"><path fill="#000000" d="M 63.761719 61.539062 C 64.089844 61.890625 64.535156 62.078125 64.984375 62.078125 C 65.265625 62.078125 65.546875 62.007812 65.800781 61.859375 C 67.300781 61.003906 69.597656 59.226562 72.257812 57.167969 C 76.757812 53.691406 82.355469 49.367188 86.054688 48.050781 C 86.34375 47.949219 86.492188 47.636719 86.390625 47.347656 C 86.289062 47.058594 85.976562 46.910156 85.691406 47.011719 C 81.820312 48.382812 76.148438 52.769531 71.589844 56.296875 C 68.960938 58.328125 66.691406 60.082031 65.257812 60.902344 C 65.03125 61.03125 64.75 60.980469 64.570312 60.789062 C 61.421875 57.382812 45.488281 40.164062 41.117188 35.519531 C 40.988281 35.382812 40.929688 35.191406 40.960938 35 C 40.988281 34.816406 41.09375 34.660156 41.253906 34.570312 C 42.964844 33.621094 45.152344 32.007812 47.46875 30.300781 C 50.042969 28.410156 52.703125 26.449219 55.230469 24.972656 C 58.039062 23.332031 60.132812 22.617188 61.621094 22.792969 C 61.894531 22.824219 62.152344 22.945312 62.367188 23.140625 C 63.699219 24.378906 68.007812 28.355469 72.824219 32.773438 C 73.046875 32.980469 73.394531 32.964844 73.601562 32.738281 C 73.804688 32.515625 73.789062 32.167969 73.566406 31.960938 C 68.753906 27.542969 64.445312 23.566406 63.113281 22.332031 C 63.085938 22.308594 63.058594 22.285156 63.035156 22.261719 C 63.757812 21.382812 64.824219 20.605469 66.351562 19.839844 C 67.953125 19.039062 69.851562 18.363281 71.859375 17.644531 C 73.898438 16.914062 76.007812 16.15625 78.023438 15.199219 C 80.335938 14.101562 82.15625 12.898438 83.589844 11.523438 C 83.796875 11.324219 84.113281 11.3125 84.335938 11.496094 L 109.796875 32.566406 C 109.898438 32.652344 110.023438 32.691406 110.144531 32.691406 C 110.304688 32.691406 110.460938 32.625 110.570312 32.492188 C 110.765625 32.257812 110.730469 31.910156 110.496094 31.714844 L 85.035156 10.648438 C 84.386719 10.109375 83.4375 10.144531 82.828125 10.726562 C 79.804688 13.625 75.578125 15.140625 71.488281 16.605469 C 69.449219 17.335938 67.519531 18.023438 65.859375 18.855469 C 64.089844 19.738281 62.863281 20.664062 62.035156 21.75 C 61.941406 21.726562 61.847656 21.707031 61.75 21.695312 C 60.800781 21.585938 59.707031 21.753906 58.414062 22.210938 C 57.3125 22.601562 56.089844 23.191406 54.675781 24.019531 C 52.097656 25.527344 49.292969 27.589844 46.820312 29.414062 C 44.53125 31.097656 42.367188 32.6875 40.71875 33.605469 C 40.261719 33.863281 39.953125 34.308594 39.871094 34.832031 C 39.789062 35.363281 39.953125 35.890625 40.320312 36.277344 C 44.6875 40.917969 60.613281 58.132812 63.761719 61.539062 " fill-opacity="1" fill-rule="nonzero"/></g><path fill="#000000" d="M 50.457031 32.273438 C 50.566406 32.273438 50.683594 32.242188 50.78125 32.167969 C 52.988281 30.546875 55.542969 28.703125 57.882812 27.363281 C 58.148438 27.210938 58.238281 26.875 58.089844 26.609375 C 57.9375 26.347656 57.601562 26.253906 57.335938 26.40625 C 54.949219 27.773438 52.363281 29.640625 50.128906 31.277344 C 49.886719 31.457031 49.832031 31.804688 50.011719 32.050781 C 50.117188 32.195312 50.285156 32.273438 50.457031 32.273438 " fill-opacity="1" fill-rule="nonzero"/><path fill="#000000" d="M 47.285156 38.363281 C 47.394531 38.523438 47.566406 38.609375 47.746094 38.609375 C 47.847656 38.609375 47.957031 38.578125 48.050781 38.515625 C 49.351562 37.640625 50.800781 36.574219 52.339844 35.445312 C 56.753906 32.195312 61.761719 28.507812 65.246094 27.972656 C 65.546875 27.925781 65.753906 27.644531 65.707031 27.34375 C 65.660156 27.042969 65.382812 26.835938 65.082031 26.882812 C 61.328125 27.460938 56.207031 31.230469 51.6875 34.554688 C 50.160156 35.675781 48.71875 36.738281 47.4375 37.597656 C 47.1875 37.765625 47.117188 38.109375 47.285156 38.363281 " fill-opacity="1" fill-rule="nonzero"/><path fill="#000000" d="M 50.226562 41.203125 C 50.332031 41.203125 50.4375 41.175781 50.53125 41.113281 C 51.832031 40.238281 53.285156 39.171875 54.820312 38.039062 C 59.238281 34.789062 64.242188 31.105469 67.730469 30.570312 C 68.03125 30.523438 68.234375 30.242188 68.191406 29.941406 C 68.144531 29.640625 67.863281 29.433594 67.5625 29.480469 C 63.808594 30.054688 58.6875 33.824219 54.167969 37.152344 C 52.644531 38.273438 51.203125 39.335938 49.921875 40.195312 C 49.667969 40.363281 49.601562 40.707031 49.769531 40.960938 C 49.875 41.117188 50.046875 41.203125 50.226562 41.203125 " fill-opacity="1" fill-rule="nonzero"/><path fill="#000000" d="M 52.707031 43.800781 C 52.8125 43.800781 52.917969 43.769531 53.011719 43.707031 C 54.316406 42.835938 55.765625 41.765625 57.300781 40.636719 C 61.71875 37.386719 66.722656 33.703125 70.210938 33.164062 C 70.511719 33.121094 70.71875 32.835938 70.671875 32.535156 C 70.625 32.234375 70.34375 32.027344 70.042969 32.074219 C 66.289062 32.652344 61.167969 36.421875 56.652344 39.746094 C 55.125 40.871094 53.683594 41.929688 52.402344 42.789062 C 52.148438 42.960938 52.082031 43.300781 52.25 43.554688 C 52.355469 43.714844 52.53125 43.800781 52.707031 43.800781 " fill-opacity="1" fill-rule="nonzero"/><path fill="#000000" d="M 73.152344 35.132812 C 73.109375 34.832031 72.828125 34.625 72.527344 34.671875 C 68.773438 35.25 63.652344 39.019531 59.132812 42.34375 C 57.605469 43.46875 56.164062 44.527344 54.882812 45.386719 C 54.632812 45.554688 54.5625 45.898438 54.730469 46.152344 C 54.839844 46.3125 55.011719 46.398438 55.191406 46.398438 C 55.292969 46.398438 55.402344 46.367188 55.496094 46.304688 C 56.796875 45.429688 58.246094 44.363281 59.785156 43.234375 C 64.199219 39.984375 69.207031 36.296875 72.695312 35.761719 C 72.992188 35.714844 73.199219 35.433594 73.152344 35.132812 " fill-opacity="1" fill-rule="nonzero"/><path fill="#000000" d="M 71.265625 39.195312 C 71.128906 38.925781 70.796875 38.816406 70.527344 38.957031 C 67.589844 40.46875 64.5625 42.722656 61.632812 44.90625 C 60.113281 46.035156 58.683594 47.101562 57.367188 47.984375 C 57.113281 48.152344 57.046875 48.496094 57.214844 48.75 C 57.320312 48.90625 57.492188 48.992188 57.671875 48.992188 C 57.777344 48.992188 57.882812 48.964844 57.976562 48.902344 C 59.316406 48.003906 60.757812 46.929688 62.289062 45.792969 C 65.183594 43.636719 68.175781 41.40625 71.027344 39.9375 C 71.296875 39.796875 71.40625 39.464844 71.265625 39.195312 " fill-opacity="1" fill-rule="nonzero"/><path fill="#000000" d="M 69.554688 43.652344 C 67.621094 44.917969 65.769531 46.289062 63.972656 47.617188 C 62.511719 48.699219 61.132812 49.71875 59.847656 50.582031 C 59.59375 50.75 59.527344 51.09375 59.695312 51.34375 C 59.800781 51.503906 59.976562 51.589844 60.152344 51.589844 C 60.257812 51.589844 60.363281 51.558594 60.457031 51.496094 C 61.765625 50.621094 63.15625 49.59375 64.628906 48.503906 C 66.410156 47.1875 68.25 45.824219 70.15625 44.574219 C 70.410156 44.40625 70.480469 44.066406 70.316406 43.808594 C 70.148438 43.554688 69.808594 43.484375 69.554688 43.652344 " fill-opacity="1" fill-rule="nonzero"/><g clip-path="url(#9e15641385)"><path fill="#000000" d="M 94.503906 46.625 L 90.792969 48.914062 C 90.609375 49.027344 90.382812 49.023438 90.199219 48.902344 C 89.664062 48.554688 88.96875 48.546875 88.425781 48.886719 L 64.503906 63.828125 C 64.273438 63.972656 63.96875 63.925781 63.785156 63.714844 L 40.433594 37.003906 C 40.230469 36.777344 39.882812 36.753906 39.65625 36.953125 C 39.429688 37.152344 39.40625 37.503906 39.605469 37.730469 L 62.957031 64.441406 C 63.289062 64.820312 63.746094 65.015625 64.214844 65.015625 C 64.511719 65.015625 64.816406 64.933594 65.085938 64.765625 L 89.007812 49.824219 C 89.191406 49.707031 89.417969 49.710938 89.601562 49.832031 C 90.144531 50.183594 90.824219 50.191406 91.371094 49.851562 L 95.082031 47.566406 C 95.339844 47.40625 95.421875 47.066406 95.261719 46.808594 C 95.101562 46.546875 94.761719 46.464844 94.503906 46.625 " fill-opacity="1" fill-rule="nonzero"/></g></svg>