<svg xmlns="http://www.w3.org/2000/svg" xmlns:xlink="http://www.w3.org/1999/xlink" width="200" zoomAndPan="magnify" viewBox="0 0 150 30.000001" height="40" preserveAspectRatio="xMidYMid meet" version="1.0"><defs><clipPath id="9fbec24259"><path d="M 2.417969 6.167969 L 147.578125 6.167969 L 147.578125 22.863281 L 2.417969 22.863281 Z M 2.417969 6.167969 " clip-rule="nonzero"/></clipPath></defs><g clip-path="url(#9fbec24259)"><path fill="#000000" d="M 147.089844 11.378906 C 146.105469 9.386719 143.128906 8.460938 141.164062 9.5 C 140.933594 9.644531 140.730469 9.820312 140.558594 10.019531 C 140.210938 10.398438 140.210938 10.976562 140.585938 11.351562 C 140.613281 11.378906 140.671875 11.410156 140.703125 11.4375 C 141.625 12.160156 142.667969 12.160156 143.734375 11.898438 C 143.9375 11.84375 144.023438 11.640625 143.96875 11.4375 C 143.96875 11.4375 143.96875 11.410156 143.96875 11.410156 C 143.910156 11.207031 143.824219 11.03125 143.5625 11.03125 C 143.445312 11.0625 143.300781 11.089844 143.1875 11.121094 C 142.03125 11.351562 141.367188 11.207031 141.511719 10.800781 C 141.769531 10.136719 142.464844 10.136719 143.011719 10.078125 C 144.140625 9.964844 145.152344 10.253906 145.875 11.175781 C 146.539062 12.042969 146.394531 12.824219 145.441406 13.316406 C 144.949219 13.546875 144.429688 13.691406 143.910156 13.75 C 141.164062 14.210938 138.417969 14.125 135.699219 13.894531 C 133.648438 13.691406 131.566406 13.664062 129.484375 13.835938 C 126.683594 14.125 123.847656 13.921875 121.046875 14.011719 C 120.726562 14.011719 120.324219 14.125 120.121094 13.808594 C 119.890625 13.402344 120.382812 13.257812 120.582031 13.027344 C 120.960938 12.566406 121.363281 12.132812 121.796875 11.699219 C 122.664062 10.917969 122.722656 9.992188 122.519531 8.953125 C 122.289062 7.824219 121.882812 7.390625 120.785156 7.507812 C 119.339844 7.621094 118.070312 8.402344 117.289062 9.617188 C 116.59375 10.597656 116.132812 11.726562 115.902344 12.910156 C 115.726562 14.011719 115.667969 13.980469 114.484375 14.097656 C 108.210938 14.617188 101.910156 14.675781 95.609375 14.933594 C 95.261719 14.933594 94.945312 14.933594 94.597656 14.90625 C 94.480469 14.878906 94.367188 14.789062 94.335938 14.675781 C 94.308594 14.558594 94.367188 14.445312 94.453125 14.355469 C 94.714844 14.125 95.003906 13.980469 95.234375 13.722656 C 95.8125 13.171875 96.332031 12.566406 96.824219 11.929688 C 97.257812 11.292969 97.316406 10.484375 96.9375 9.820312 C 96.5625 9.066406 95.8125 9.183594 95.148438 9.269531 C 93.789062 9.414062 92.546875 10.019531 91.621094 11.003906 C 90.550781 12.101562 89.480469 13.230469 88.757812 14.617188 C 88.585938 15.050781 88.152344 15.339844 87.6875 15.3125 C 85 15.425781 82.34375 15.570312 79.652344 15.6875 C 79.308594 15.714844 78.988281 15.65625 78.671875 15.601562 C 78.527344 15.570312 78.441406 15.457031 78.441406 15.3125 C 78.441406 15.253906 78.46875 15.195312 78.527344 15.167969 C 78.785156 14.878906 79.105469 14.617188 79.363281 14.300781 C 80.144531 13.375 80.808594 12.363281 81.042969 11.148438 C 81.1875 10.367188 80.867188 9.964844 80.085938 10.019531 C 78.875 10.109375 77.6875 10.425781 76.617188 10.976562 C 76.328125 11.121094 76.070312 11.378906 75.78125 11.523438 C 75.433594 11.726562 75.144531 11.667969 75.085938 11.175781 C 74.972656 10.308594 74.882812 9.441406 74.710938 8.605469 C 74.625 8.085938 74.421875 7.566406 74.160156 7.101562 C 73.699219 6.292969 72.949219 6.207031 72.371094 6.929688 C 70.925781 8.691406 70 10.65625 70.433594 13 C 70.492188 13.316406 70.664062 13.75 70.402344 13.953125 C 70.113281 14.15625 69.796875 13.835938 69.566406 13.605469 C 68.785156 12.910156 67.859375 12.535156 66.933594 12.1875 C 66.097656 11.871094 65.171875 11.929688 64.421875 12.363281 C 63.785156 12.710938 63.613281 13.199219 63.929688 13.867188 C 64.160156 14.328125 64.449219 14.789062 64.738281 15.253906 C 64.882812 15.484375 65.171875 15.714844 64.941406 15.945312 C 64.796875 16.089844 64.449219 16.121094 64.191406 16.089844 C 63.179688 16.089844 62.167969 16.0625 61.183594 15.976562 C 57.714844 15.511719 54.273438 15.570312 50.804688 15.601562 C 49.882812 15.601562 48.925781 15.601562 48.003906 15.601562 C 47.191406 15.601562 46.730469 15.339844 46.328125 14.53125 C 45.402344 12.566406 43.871094 10.976562 41.992188 9.933594 C 41.035156 9.386719 39.878906 9.328125 38.925781 9.820312 C 38.203125 10.164062 38 10.6875 38.234375 11.464844 C 38.578125 12.652344 39.503906 13.578125 40.71875 13.867188 C 41.5 14.066406 42.28125 14.242188 42.972656 14.675781 C 43.089844 14.761719 43.148438 14.878906 43.148438 14.992188 C 43.148438 15.050781 42.972656 15.195312 42.886719 15.167969 C 41.035156 14.734375 39.1875 15.367188 37.335938 15.078125 C 36.265625 14.933594 35.199219 14.933594 34.128906 15.078125 C 31.671875 15.3125 29.183594 15.050781 26.730469 14.847656 C 24.996094 14.703125 23.289062 14.472656 21.554688 14.472656 C 20.890625 14.472656 20.226562 14.472656 19.558594 14.5 C 19.011719 14.644531 18.347656 14.300781 18 13.722656 C 16.902344 12.042969 15.253906 11.03125 13.519531 10.078125 C 12.507812 9.472656 11.265625 9.5 10.28125 10.136719 C 9.675781 10.484375 9.125 10.832031 9.183594 11.667969 C 9.242188 12.476562 9.761719 12.855469 10.398438 13.113281 C 11.03125 13.34375 11.8125 13.519531 12.507812 13.722656 C 12.738281 13.777344 13.113281 13.722656 13.027344 14.125 C 12.941406 14.414062 12.59375 14.386719 12.332031 14.386719 C 11.121094 14.445312 9.933594 14.472656 8.71875 14.53125 C 7.101562 14.589844 5.453125 15.050781 3.980469 15.832031 C 2.59375 16.554688 2.417969 17.882812 3.664062 18.894531 C 4.90625 19.90625 6.378906 19.9375 7.851562 19.503906 C 8.429688 19.328125 8.664062 18.578125 8.257812 18.203125 C 7.679688 17.652344 7.074219 17.101562 6.207031 17.101562 C 5.945312 17.101562 5.6875 17.21875 5.484375 17.390625 C 5.195312 17.679688 5.570312 17.855469 5.714844 18.027344 C 5.859375 18.203125 5.859375 18.402344 5.6875 18.519531 C 5.222656 18.78125 4.441406 18.519531 4.125 18 C 3.835938 17.566406 3.953125 16.988281 4.355469 16.699219 C 4.386719 16.667969 4.441406 16.640625 4.472656 16.640625 C 5.28125 16.179688 6.175781 15.832031 7.101562 15.65625 C 11.234375 14.90625 15.367188 15.050781 19.503906 15.570312 C 20.628906 15.746094 21.757812 15.800781 22.882812 15.800781 C 23.492188 15.773438 24.097656 15.773438 24.675781 15.800781 C 25.023438 15.832031 25.574219 15.542969 25.71875 16.0625 C 25.832031 16.410156 25.339844 16.582031 25.109375 16.757812 C 24.273438 17.335938 23.664062 18.171875 23.40625 19.15625 C 23.230469 19.761719 23.117188 20.398438 23.636719 20.832031 C 25.457031 22.335938 26.640625 20.628906 27.191406 20.226562 C 28.347656 19.386719 29.445312 18.546875 30.3125 17.421875 C 31.035156 16.496094 31.875 15.917969 33.203125 15.976562 C 36.265625 16.089844 39.359375 16.003906 42.425781 16.0625 C 43.957031 16.089844 45.515625 16.035156 47.019531 16.265625 C 48.609375 16.496094 50.226562 16.523438 51.816406 16.410156 C 52.683594 16.351562 53.550781 16.292969 54.417969 16.265625 C 54.621094 16.265625 54.796875 16.351562 54.910156 16.496094 C 55.054688 16.699219 54.851562 16.871094 54.707031 16.988281 C 54.042969 17.449219 53.351562 17.824219 52.917969 18.546875 C 52.484375 19.269531 52.28125 20.050781 52.683594 20.832031 C 53.03125 21.496094 54.332031 21.960938 55.171875 21.726562 C 55.488281 21.640625 55.808594 21.527344 56.097656 21.351562 C 56.820312 21.003906 57.453125 20.484375 57.976562 19.878906 C 58.640625 19.125 59.363281 18.402344 60.054688 17.679688 C 60.375 17.335938 60.75 16.929688 61.210938 16.957031 C 63.207031 17.074219 65.230469 17.246094 67.222656 17.449219 C 67.6875 17.507812 67.800781 17.914062 67.367188 18.289062 C 66.386719 19.15625 66.039062 20.28125 65.867188 21.496094 C 65.722656 22.480469 66.097656 22.828125 67.109375 22.796875 C 68.902344 22.710938 70.230469 21.726562 71.445312 20.515625 C 71.820312 20.136719 72.082031 19.675781 72.457031 19.269531 C 72.542969 19.125 72.714844 19.097656 72.859375 19.183594 C 72.917969 19.214844 72.949219 19.242188 72.976562 19.300781 C 73.238281 19.703125 73.4375 20.109375 73.671875 20.515625 C 74.421875 21.785156 75.550781 22.363281 76.996094 22.394531 C 78.757812 22.421875 79.164062 21.902344 78.785156 20.226562 C 78.613281 19.503906 78.324219 18.835938 77.917969 18.203125 C 77.746094 17.914062 77.484375 17.679688 77.3125 17.390625 C 77.023438 16.957031 77.167969 16.640625 77.71875 16.554688 C 78.238281 16.46875 78.785156 16.4375 79.308594 16.410156 C 80.839844 16.324219 82.371094 16.265625 83.902344 16.207031 C 86.097656 16.121094 88.324219 16.179688 90.523438 15.917969 C 93.324219 15.570312 96.128906 15.773438 98.933594 15.511719 C 99.683594 15.457031 100.175781 15.746094 100.609375 16.351562 C 101.273438 17.277344 101.96875 18.171875 102.71875 19.039062 C 103.671875 20.195312 105.117188 20.832031 106.621094 20.773438 C 107.460938 20.773438 108.296875 20.570312 108.644531 19.734375 C 108.992188 18.894531 108.730469 18 108.152344 17.304688 C 107.835938 16.957031 107.488281 16.667969 107.085938 16.410156 C 106.738281 16.179688 106.363281 16.0625 106.015625 15.859375 C 105.929688 15.773438 105.871094 15.65625 105.839844 15.542969 C 105.839844 15.398438 105.957031 15.339844 106.101562 15.3125 C 108.585938 15.167969 111.042969 14.964844 113.5 14.878906 C 115.4375 14.789062 117.375 14.789062 119.3125 14.761719 C 122.402344 14.703125 125.46875 14.644531 128.53125 14.617188 C 129.746094 14.589844 129.773438 14.644531 130.265625 15.832031 C 130.324219 15.945312 130.351562 16.089844 130.410156 16.207031 C 131.363281 18.664062 133.9375 20.109375 136.566406 19.617188 C 137.347656 19.503906 137.722656 19.070312 137.753906 18.289062 C 137.78125 17.246094 137.234375 16.496094 136.394531 15.976562 C 135.816406 15.628906 135.210938 15.339844 134.632812 15.023438 C 134.542969 14.964844 134.488281 14.789062 134.429688 14.703125 C 134.515625 14.644531 134.601562 14.558594 134.6875 14.558594 C 135.296875 14.558594 135.902344 14.558594 136.480469 14.589844 C 139.023438 14.789062 141.566406 14.847656 144.082031 14.355469 C 144.890625 14.242188 145.644531 14.011719 146.367188 13.632812 C 147.378906 13.230469 147.582031 12.390625 147.089844 11.378906 Z M 6.4375 18.691406 C 6.496094 18.578125 6.699219 18.519531 6.8125 18.433594 C 7.042969 18.492188 7.277344 18.519531 7.277344 18.722656 C 7.277344 19.039062 6.988281 19.097656 6.726562 19.039062 C 6.523438 19.039062 6.320312 18.894531 6.4375 18.691406 Z M 16.699219 14.183594 C 15.023438 13.488281 13.257812 13.113281 11.523438 12.710938 C 11.265625 12.652344 11.003906 12.535156 10.773438 12.390625 C 10.078125 11.988281 10.050781 11.207031 10.714844 10.773438 C 11.234375 10.425781 11.871094 10.222656 12.421875 10.484375 C 14.097656 11.292969 15.773438 12.160156 16.902344 13.722656 C 16.957031 13.835938 17.015625 13.980469 17.046875 14.125 C 16.929688 14.125 16.785156 14.210938 16.699219 14.183594 Z M 29.964844 16.640625 C 29.503906 17.390625 28.953125 18.058594 28.289062 18.605469 C 27.335938 19.414062 26.671875 20.515625 25.429688 20.746094 C 23.894531 21.035156 23.925781 19.820312 24.648438 18.605469 C 25.71875 16.8125 27.507812 16.324219 29.386719 16.003906 C 29.445312 16.003906 29.53125 15.976562 29.589844 15.976562 C 29.996094 15.976562 30.195312 16.265625 29.964844 16.640625 Z M 45.402344 14.734375 C 45.027344 15.28125 44.359375 14.558594 43.8125 14.414062 C 43.058594 14.183594 42.308594 13.894531 41.558594 13.546875 C 40.777344 13.199219 39.96875 12.855469 39.476562 12.074219 C 39.214844 11.667969 38.925781 11.265625 39.214844 10.800781 C 39.503906 10.308594 39.996094 10.367188 40.457031 10.308594 C 41.179688 10.398438 41.875 10.65625 42.453125 11.121094 C 43.261719 11.726562 43.957031 12.421875 44.5625 13.230469 C 44.96875 13.691406 45.660156 14.328125 45.402344 14.734375 Z M 59.015625 17.390625 C 57.886719 18.691406 56.847656 20.082031 55.257812 20.859375 C 54.507812 21.238281 53.785156 21.121094 53.464844 20.628906 C 53.117188 20.023438 53.207031 19.300781 53.667969 18.78125 C 54.679688 17.625 56.152344 16.902344 57.714844 16.84375 C 58.351562 16.902344 58.609375 16.902344 58.871094 16.929688 C 59.015625 16.929688 59.132812 17.074219 59.101562 17.21875 C 59.074219 17.277344 59.074219 17.335938 59.015625 17.390625 Z M 65.058594 13.808594 C 64.96875 13.578125 65.085938 13.34375 65.316406 13.257812 C 65.34375 13.257812 65.402344 13.230469 65.433594 13.230469 C 65.808594 13.171875 66.210938 13.199219 66.589844 13.289062 C 67.800781 13.664062 68.871094 14.386719 69.652344 15.367188 C 69.882812 15.65625 70.257812 15.976562 70 16.378906 C 69.769531 16.726562 69.304688 16.726562 68.957031 16.757812 C 67.425781 16.726562 65.375 15.167969 65.058594 13.808594 Z M 70.027344 20.484375 C 69.480469 20.976562 68.902344 21.410156 68.265625 21.785156 C 68.089844 21.871094 67.917969 21.960938 67.714844 21.988281 C 67.253906 22.015625 67.109375 21.816406 67.078125 21.640625 C 67.023438 21.382812 67.023438 21.121094 67.078125 20.859375 C 67.253906 20.082031 67.6875 19.359375 68.292969 18.808594 C 69.421875 17.738281 71.761719 16.929688 71.792969 17.480469 C 71.820312 18.808594 70.867188 19.675781 70.027344 20.484375 Z M 72.136719 15.167969 C 70.925781 13.230469 71.214844 10.019531 72.714844 8.199219 C 73.0625 7.796875 73.382812 7.824219 73.582031 8.375 C 73.988281 9.441406 74.160156 10.570312 74.074219 11.699219 C 74.015625 12.910156 73.671875 14.097656 73.0625 15.136719 C 72.746094 15.601562 72.398438 15.628906 72.136719 15.167969 Z M 77.832031 20.660156 C 77.917969 21.148438 77.660156 21.496094 77.195312 21.496094 C 76.300781 21.496094 75.460938 21.324219 74.882812 20.542969 C 74.363281 19.847656 73.929688 19.070312 73.640625 18.257812 C 73.351562 17.507812 73.582031 17.246094 74.335938 17.304688 C 76.097656 17.535156 77.515625 18.894531 77.832031 20.660156 Z M 75.664062 15.890625 C 75.289062 16.035156 74.882812 16.089844 74.507812 16.035156 C 74.335938 16.003906 74.105469 15.945312 74.25 15.484375 C 74.394531 15.167969 74.539062 14.878906 74.710938 14.589844 C 75.75 12.910156 76.964844 11.464844 79.105469 11.121094 C 79.363281 11.089844 79.652344 10.976562 79.828125 11.234375 C 80 11.523438 79.855469 11.726562 79.769531 11.988281 C 78.988281 13.921875 77.515625 15.078125 75.664062 15.890625 Z M 90.175781 14.992188 C 90.089844 14.820312 90.058594 14.644531 90.144531 14.472656 C 91.300781 12.910156 92.285156 11.234375 94.222656 10.453125 C 94.625 10.253906 95.089844 10.109375 95.550781 10.078125 C 96.128906 10.050781 96.417969 10.367188 96.390625 10.917969 C 96.390625 11.265625 96.273438 11.582031 96.070312 11.84375 C 94.65625 13.546875 92.921875 14.734375 90.722656 15.136719 C 90.523438 15.136719 90.320312 15.109375 90.175781 14.992188 Z M 106.652344 17.304688 C 107.230469 17.679688 107.691406 18.113281 107.75 18.867188 C 107.835938 19.792969 107.460938 20.226562 106.390625 20.226562 C 105.785156 20.28125 105.175781 19.992188 104.628906 19.617188 C 103.441406 18.835938 102.605469 17.710938 101.824219 16.554688 C 101.738281 16.378906 101.707031 16.179688 101.796875 16.003906 C 101.941406 15.859375 102.140625 15.832031 102.34375 15.859375 C 103.816406 16.179688 105.320312 16.46875 106.652344 17.304688 Z M 117.605469 13.808594 C 117.316406 13.894531 117.058594 13.835938 117 13.519531 C 116.710938 11.753906 118.675781 8.863281 120.46875 8.460938 C 121.363281 8.257812 121.828125 8.632812 121.855469 9.820312 C 121.828125 10.019531 121.828125 10.453125 121.625 10.773438 C 120.613281 12.1875 119.371094 13.34375 117.605469 13.808594 Z M 135.757812 16.699219 C 136.164062 16.929688 136.480469 17.304688 136.625 17.769531 C 136.886719 18.664062 136.421875 19.214844 135.527344 19.15625 C 133.445312 19.070312 131.683594 17.652344 131.164062 15.65625 C 131.019531 15.167969 131.277344 14.878906 131.769531 14.992188 C 133.1875 15.28125 134.542969 15.890625 135.757812 16.699219 Z M 135.757812 16.699219 " fill-opacity="1" fill-rule="nonzero"/></g></svg>