<svg xmlns="http://www.w3.org/2000/svg" xmlns:xlink="http://www.w3.org/1999/xlink" width="200" zoomAndPan="magnify" viewBox="0 0 150 74.999997" height="100" preserveAspectRatio="xMidYMid meet" version="1.0"><defs><g/></defs><g fill="#000000" fill-opacity="1"><g transform="translate(2.887121, 48.483158)"><g><path d="M 17.609375 -17.5 L 14.546875 -17.5 L 14.546875 -3.921875 L 12.859375 -3.921875 L 12.859375 -14.34375 L 6.296875 -10.125 L 5 -10.8125 L 6.5 -14.4375 C 6.300781 -14.65625 5.625 -14.816406 4.46875 -14.921875 C 3.5625 -15.003906 2.800781 -15.039062 2.1875 -15.03125 L 1.359375 -15.859375 C 1.859375 -16.898438 2.765625 -17.679688 4.078125 -18.203125 C 5.148438 -18.648438 6.351562 -18.875 7.6875 -18.875 C 9.894531 -18.875 11.617188 -18.375 12.859375 -17.375 L 12.859375 -19.796875 L 14.546875 -19.796875 L 14.546875 -18.765625 L 17.609375 -18.765625 Z M 12.53125 -15.796875 C 11.238281 -16.953125 9.773438 -17.53125 8.140625 -17.53125 C 6.203125 -17.53125 4.722656 -17.128906 3.703125 -16.328125 C 6.691406 -16.179688 8.1875 -15.578125 8.1875 -14.515625 C 8.1875 -14.398438 7.929688 -13.726562 7.421875 -12.5 Z M 12.53125 -15.796875 "/></g></g></g><g fill="#000000" fill-opacity="1"><g transform="translate(19.934509, 48.483158)"><g><path d="M 15.15625 -17.5 L 12.59375 -17.5 L 12.59375 -3.875 L 11 -3.875 C 10.84375 -5.675781 9.597656 -7.023438 7.265625 -7.921875 C 5.648438 -8.535156 3.703125 -8.894531 1.421875 -9 L 1.421875 -10.15625 C 3.003906 -10.625 4.375 -11.253906 5.53125 -12.046875 C 7.007812 -13.054688 7.75 -14.101562 7.75 -15.1875 C 7.144531 -14.25 6.226562 -13.78125 5 -13.78125 C 4.195312 -13.78125 3.46875 -13.976562 2.8125 -14.375 C 2.03125 -14.820312 1.640625 -15.425781 1.640625 -16.1875 C 1.640625 -16.945312 2.019531 -17.585938 2.78125 -18.109375 C 3.457031 -18.554688 4.195312 -18.78125 5 -18.78125 C 6.175781 -18.78125 7.175781 -18.46875 8 -17.84375 C 8.894531 -17.132812 9.34375 -16.210938 9.34375 -15.078125 C 9.34375 -12.992188 7.816406 -11.273438 4.765625 -9.921875 C 7.554688 -9.390625 9.625 -8.472656 10.96875 -7.171875 L 10.96875 -19.546875 L 12.59375 -19.546875 L 12.59375 -18.765625 L 15.15625 -18.765625 Z M 6.390625 -16.28125 C 6.390625 -17.050781 5.882812 -17.4375 4.875 -17.4375 C 3.90625 -17.4375 3.421875 -17.050781 3.421875 -16.28125 C 3.421875 -15.476562 3.925781 -15.078125 4.9375 -15.078125 C 5.3125 -15.078125 5.644531 -15.1875 5.9375 -15.40625 C 6.238281 -15.625 6.390625 -15.914062 6.390625 -16.28125 Z M 6.390625 -16.28125 "/></g></g></g><g fill="#000000" fill-opacity="1"><g transform="translate(34.554152, 48.483158)"><g/></g></g><g fill="#000000" fill-opacity="1"><g transform="translate(43.361368, 48.483158)"><g><path d="M 10.375 -2.1875 C 10.375 -1.351562 9.992188 -0.679688 9.234375 -0.171875 C 8.585938 0.296875 7.832031 0.53125 6.96875 0.53125 C 4.976562 0.53125 3.507812 -0.648438 2.5625 -3.015625 C 1.914062 -4.628906 1.59375 -6.484375 1.59375 -8.578125 C 1.59375 -13.148438 3.023438 -16.546875 5.890625 -18.765625 L 9.78125 -18.765625 L 9.78125 -17.53125 L 6.890625 -17.53125 C 5.816406 -16.988281 4.914062 -15.613281 4.1875 -13.40625 C 3.601562 -11.625 3.3125 -10 3.3125 -8.53125 C 3.3125 -6.59375 3.738281 -4.816406 4.59375 -3.203125 C 5.15625 -4.046875 6.039062 -4.46875 7.25 -4.46875 C 8.007812 -4.46875 8.695312 -4.285156 9.3125 -3.921875 C 10.019531 -3.484375 10.375 -2.90625 10.375 -2.1875 Z M 8.578125 -2.03125 C 8.578125 -2.425781 8.414062 -2.726562 8.09375 -2.9375 C 7.769531 -3.15625 7.40625 -3.265625 7 -3.265625 C 6.644531 -3.265625 6.3125 -3.144531 6 -2.90625 C 5.695312 -2.675781 5.546875 -2.382812 5.546875 -2.03125 C 5.546875 -1.5625 5.820312 -1.1875 6.375 -0.90625 L 7.09375 -0.890625 C 8.082031 -0.835938 8.578125 -1.21875 8.578125 -2.03125 Z M 8.578125 -2.03125 "/></g></g></g><g fill="#000000" fill-opacity="1"><g transform="translate(52.505282, 48.483158)"><g><path d="M 15.71875 -17.53125 L 12.96875 -17.53125 L 12.96875 -3.875 L 11.296875 -3.875 L 11.296875 -14.671875 C 10.742188 -15.734375 10.125 -16.457031 9.4375 -16.84375 C 8.75 -17.238281 7.796875 -17.4375 6.578125 -17.4375 C 4.472656 -17.4375 3.242188 -16.40625 2.890625 -14.34375 C 4.140625 -14.726562 5.191406 -14.921875 6.046875 -14.921875 C 7.679688 -14.921875 8.5 -14.253906 8.5 -12.921875 C 8.5 -11.191406 7.515625 -9.453125 5.546875 -7.703125 L 4.34375 -8.578125 C 5.988281 -10.179688 6.8125 -11.609375 6.8125 -12.859375 C 6.8125 -13.472656 6.566406 -13.78125 6.078125 -13.78125 C 5.429688 -13.78125 4.132812 -13.398438 2.1875 -12.640625 L 1.203125 -13.15625 L 1.203125 -13.34375 C 1.203125 -14.9375 1.585938 -16.179688 2.359375 -17.078125 C 3.328125 -18.179688 4.734375 -18.734375 6.578125 -18.734375 C 8.578125 -18.734375 10.148438 -18.222656 11.296875 -17.203125 L 11.296875 -20.453125 L 12.96875 -20.453125 L 12.96875 -18.765625 L 15.71875 -18.765625 Z M 15.71875 -17.53125 "/></g></g></g><g fill="#000000" fill-opacity="1"><g transform="translate(67.585659, 48.483158)"><g><path d="M 10.125 -1.328125 C 10.125 -0.492188 9.769531 0.140625 9.0625 0.578125 C 8.445312 0.960938 7.703125 1.15625 6.828125 1.15625 C 4.703125 1.15625 3.164062 0.0351562 2.21875 -2.203125 C 1.5625 -3.742188 1.234375 -5.597656 1.234375 -7.765625 C 1.234375 -11.179688 2.21875 -14.425781 4.1875 -17.5 L -0.8125 -17.5 L -0.8125 -18.765625 L 9.59375 -18.765625 L 9.59375 -17.5 L 6.65625 -17.5 C 5.445312 -16.863281 4.472656 -15.328125 3.734375 -12.890625 C 3.171875 -10.972656 2.890625 -9.164062 2.890625 -7.46875 C 2.890625 -5.207031 3.316406 -3.425781 4.171875 -2.125 C 4.578125 -3.1875 5.46875 -3.71875 6.84375 -3.71875 C 7.632812 -3.71875 8.351562 -3.519531 9 -3.125 C 9.75 -2.675781 10.125 -2.078125 10.125 -1.328125 Z M 8.34375 -1.4375 C 8.34375 -1.800781 8.179688 -2.085938 7.859375 -2.296875 C 7.546875 -2.515625 7.203125 -2.625 6.828125 -2.625 C 6.460938 -2.625 6.128906 -2.515625 5.828125 -2.296875 C 5.523438 -2.078125 5.375 -1.789062 5.375 -1.4375 C 5.375 -0.96875 5.640625 -0.585938 6.171875 -0.296875 L 6.84375 -0.28125 C 7.84375 -0.21875 8.34375 -0.601562 8.34375 -1.4375 Z M 8.34375 -1.4375 "/></g></g></g><g fill="#000000" fill-opacity="1"><g transform="translate(76.37517, 48.483158)"><g><path d="M 14.671875 -0.828125 L 13.4375 -0.015625 C 10.90625 -2.722656 7.671875 -4.210938 3.734375 -4.484375 L 3.671875 -5.703125 C 4.984375 -6.023438 6.21875 -6.5 7.375 -7.125 C 8.914062 -7.925781 9.6875 -8.742188 9.6875 -9.578125 C 9.6875 -10.046875 9.398438 -10.5 8.828125 -10.9375 C 7.429688 -8.832031 5.269531 -7.488281 2.34375 -6.90625 L 1.453125 -7.4375 L 1.453125 -17.390625 L -0.65625 -17.390625 L -0.65625 -18.765625 L 13.375 -18.765625 L 13.375 -17.390625 L 3.046875 -17.390625 L 3.046875 -16.078125 C 3.046875 -15.359375 3.425781 -14.8125 4.1875 -14.4375 C 4.789062 -14.144531 5.472656 -14 6.234375 -14 C 7.023438 -14 7.957031 -14.128906 9.03125 -14.390625 L 9.875 -13.859375 C 9.820312 -13.273438 9.710938 -12.726562 9.546875 -12.21875 C 10.660156 -11.5 11.21875 -10.597656 11.21875 -9.515625 C 11.21875 -7.640625 9.828125 -6.226562 7.046875 -5.28125 C 10.597656 -4.226562 13.140625 -2.742188 14.671875 -0.828125 Z M 8.0625 -12.9375 C 7.125 -12.820312 6.425781 -12.765625 5.96875 -12.765625 C 4.769531 -12.765625 3.796875 -13.054688 3.046875 -13.640625 L 3.046875 -8.578125 C 5.828125 -9.453125 7.5 -10.90625 8.0625 -12.9375 Z M 8.0625 -12.9375 "/></g></g></g><g fill="#000000" fill-opacity="1"><g transform="translate(89.240444, 48.483158)"><g/></g></g><g fill="#000000" fill-opacity="1"><g transform="translate(98.04766, 48.483158)"><g><path d="M 10.375 -2.1875 C 10.375 -1.351562 9.992188 -0.679688 9.234375 -0.171875 C 8.585938 0.296875 7.832031 0.53125 6.96875 0.53125 C 4.976562 0.53125 3.507812 -0.648438 2.5625 -3.015625 C 1.914062 -4.628906 1.59375 -6.484375 1.59375 -8.578125 C 1.59375 -13.148438 3.023438 -16.546875 5.890625 -18.765625 L 9.78125 -18.765625 L 9.78125 -17.53125 L 6.890625 -17.53125 C 5.816406 -16.988281 4.914062 -15.613281 4.1875 -13.40625 C 3.601562 -11.625 3.3125 -10 3.3125 -8.53125 C 3.3125 -6.59375 3.738281 -4.816406 4.59375 -3.203125 C 5.15625 -4.046875 6.039062 -4.46875 7.25 -4.46875 C 8.007812 -4.46875 8.695312 -4.285156 9.3125 -3.921875 C 10.019531 -3.484375 10.375 -2.90625 10.375 -2.1875 Z M 8.578125 -2.03125 C 8.578125 -2.425781 8.414062 -2.726562 8.09375 -2.9375 C 7.769531 -3.15625 7.40625 -3.265625 7 -3.265625 C 6.644531 -3.265625 6.3125 -3.144531 6 -2.90625 C 5.695312 -2.675781 5.546875 -2.382812 5.546875 -2.03125 C 5.546875 -1.5625 5.820312 -1.1875 6.375 -0.90625 L 7.09375 -0.890625 C 8.082031 -0.835938 8.578125 -1.21875 8.578125 -2.03125 Z M 8.578125 -2.03125 "/></g></g></g><g fill="#000000" fill-opacity="1"><g transform="translate(107.191574, 48.483158)"><g><path d="M 12.671875 -17.5 L 10.015625 -17.5 L 10.015625 -3.859375 L 8.28125 -3.859375 C 7.332031 -7.722656 5.050781 -10.222656 1.4375 -11.359375 L 1.4375 -12.890625 L 8.40625 -16.765625 L 8.40625 -17.5 L -0.734375 -17.5 L -0.734375 -18.765625 L 12.671875 -18.765625 Z M 8.40625 -7.765625 L 8.40625 -15 L 3.28125 -12.171875 C 5.40625 -11.210938 7.113281 -9.742188 8.40625 -7.765625 Z M 10.28125 -23.625 C 10.28125 -23.070312 10.0625 -22.617188 9.625 -22.265625 C 9.195312 -21.921875 8.6875 -21.75 8.09375 -21.75 C 7.53125 -21.75 7.03125 -21.925781 6.59375 -22.28125 C 6.15625 -22.632812 5.9375 -23.082031 5.9375 -23.625 C 5.9375 -24.175781 6.15625 -24.625 6.59375 -24.96875 C 7.03125 -25.320312 7.53125 -25.5 8.09375 -25.5 C 8.675781 -25.5 9.1875 -25.328125 9.625 -24.984375 C 10.0625 -24.640625 10.28125 -24.1875 10.28125 -23.625 Z M 12.890625 -23.71875 C 12.890625 -22.5 12.378906 -21.488281 11.359375 -20.6875 C 10.421875 -19.96875 9.332031 -19.609375 8.09375 -19.609375 C 5.875 -19.609375 4.320312 -20.648438 3.4375 -22.734375 L 4.625 -23.125 C 5.3125 -21.488281 6.46875 -20.671875 8.09375 -20.671875 C 9.019531 -20.671875 9.828125 -20.941406 10.515625 -21.484375 C 11.265625 -22.054688 11.640625 -22.800781 11.640625 -23.71875 C 11.640625 -24 11.472656 -24.523438 11.140625 -25.296875 L 12.296875 -25.65625 C 12.691406 -24.800781 12.890625 -24.15625 12.890625 -23.71875 Z M 9.015625 -23.625 C 9.015625 -24.113281 8.726562 -24.359375 8.15625 -24.359375 C 7.613281 -24.359375 7.34375 -24.113281 7.34375 -23.625 C 7.34375 -23.15625 7.617188 -22.921875 8.171875 -22.921875 C 8.734375 -22.921875 9.015625 -23.15625 9.015625 -23.625 Z M 9.015625 -23.625 "/></g></g></g><g fill="#000000" fill-opacity="1"><g transform="translate(119.09993, 48.483158)"><g><path d="M 10.125 -1.328125 C 10.125 -0.492188 9.769531 0.140625 9.0625 0.578125 C 8.445312 0.960938 7.703125 1.15625 6.828125 1.15625 C 4.703125 1.15625 3.164062 0.0351562 2.21875 -2.203125 C 1.5625 -3.742188 1.234375 -5.597656 1.234375 -7.765625 C 1.234375 -11.179688 2.21875 -14.425781 4.1875 -17.5 L -0.8125 -17.5 L -0.8125 -18.765625 L 9.59375 -18.765625 L 9.59375 -17.5 L 6.65625 -17.5 C 5.445312 -16.863281 4.472656 -15.328125 3.734375 -12.890625 C 3.171875 -10.972656 2.890625 -9.164062 2.890625 -7.46875 C 2.890625 -5.207031 3.316406 -3.425781 4.171875 -2.125 C 4.578125 -3.1875 5.46875 -3.71875 6.84375 -3.71875 C 7.632812 -3.71875 8.351562 -3.519531 9 -3.125 C 9.75 -2.675781 10.125 -2.078125 10.125 -1.328125 Z M 8.34375 -1.4375 C 8.34375 -1.800781 8.179688 -2.085938 7.859375 -2.296875 C 7.546875 -2.515625 7.203125 -2.625 6.828125 -2.625 C 6.460938 -2.625 6.128906 -2.515625 5.828125 -2.296875 C 5.523438 -2.078125 5.375 -1.789062 5.375 -1.4375 C 5.375 -0.96875 5.640625 -0.585938 6.171875 -0.296875 L 6.84375 -0.28125 C 7.84375 -0.21875 8.34375 -0.601562 8.34375 -1.4375 Z M 8.34375 -1.4375 "/></g></g></g><g fill="#000000" fill-opacity="1"><g transform="translate(127.889441, 48.483158)"><g><path d="M 19.828125 -17.46875 L 10.609375 -17.46875 L 10.609375 -16.8125 C 15.421875 -16.238281 17.828125 -14.328125 17.828125 -11.078125 C 17.828125 -10.316406 17.5 -9.703125 16.84375 -9.234375 C 16.1875 -8.765625 15.460938 -8.53125 14.671875 -8.53125 C 13.859375 -8.53125 13.15625 -8.75 12.5625 -9.1875 C 11.914062 -9.675781 11.59375 -10.304688 11.59375 -11.078125 C 11.59375 -11.953125 11.992188 -12.617188 12.796875 -13.078125 C 13.503906 -13.453125 14.300781 -13.597656 15.1875 -13.515625 C 14.476562 -14.609375 12.953125 -15.300781 10.609375 -15.59375 L 10.609375 -3.828125 L 8.875 -3.828125 C 8.875 -5.398438 8.03125 -6.984375 6.34375 -8.578125 C 4.8125 -10.054688 3.222656 -10.976562 1.578125 -11.34375 L 1.578125 -12.59375 L 8.984375 -16.734375 L 8.984375 -17.46875 L -0.4375 -17.46875 L -0.4375 -18.765625 L 19.828125 -18.765625 Z M 16.21875 -11.078125 C 16.21875 -11.429688 16.050781 -11.71875 15.71875 -11.9375 C 15.382812 -12.164062 15.035156 -12.28125 14.671875 -12.28125 C 14.304688 -12.28125 13.984375 -12.175781 13.703125 -11.96875 C 13.367188 -11.726562 13.203125 -11.429688 13.203125 -11.078125 C 13.203125 -10.722656 13.351562 -10.429688 13.65625 -10.203125 C 13.96875 -9.984375 14.304688 -9.875 14.671875 -9.875 C 15.035156 -9.875 15.382812 -9.984375 15.71875 -10.203125 C 16.050781 -10.429688 16.21875 -10.722656 16.21875 -11.078125 Z M 8.984375 -7.65625 L 8.984375 -14.890625 L 3.875 -12.046875 C 5.988281 -11.078125 7.691406 -9.613281 8.984375 -7.65625 Z M 8.984375 -7.65625 "/></g></g></g></svg>