<svg xmlns="http://www.w3.org/2000/svg" xmlns:xlink="http://www.w3.org/1999/xlink" width="1920" zoomAndPan="magnify" viewBox="0 0 1440 809.999993" height="1080" preserveAspectRatio="xMidYMid meet" version="1.0"><path fill="#000000" d="M 249.519531 462.667969 C 235.242188 454.539062 232.164062 425.972656 221.179688 414.765625 C 206.679688 425.753906 204.703125 450.144531 188.664062 460.46875 C 157.03125 480.464844 210.632812 399.386719 222.058594 389.058594 C 242.269531 380.929688 235.679688 451.242188 253.914062 436.960938 C 301.808594 319.1875 300.929688 473.875 334.542969 426.851562 C 344.648438 416.523438 354.535156 371.261719 372.988281 390.160156 C 423.078125 495.1875 408.140625 355.882812 450.320312 398.949219 C 496.015625 482.222656 493.160156 349.070312 529.410156 394.113281 C 588.066406 477.390625 589.605469 378.292969 613.773438 378.511719 C 630.027344 378.734375 639.035156 431.90625 657.710938 418.503906 C 679.460938 404.878906 686.929688 353.246094 711.097656 392.355469 C 755.035156 464.207031 751.519531 366.867188 784.914062 381.148438 C 830.828125 435.859375 825.554688 438.9375 863.5625 377.195312 C 867.515625 371.480469 871.472656 371.042969 875.867188 376.316406 C 908.160156 414.988281 910.578125 444.429688 943.75 384.664062 C 947.707031 378.734375 951 377.855469 956.054688 382.6875 C 990.324219 414.546875 988.570312 437.839844 1025.695312 390.160156 C 1046.347656 368.84375 1056.015625 452.558594 1072.273438 411.691406 C 1113.574219 309.738281 1103.90625 432.34375 1144.113281 422.019531 C 1160.808594 414.988281 1175.527344 363.792969 1191.785156 380.269531 C 1208.480469 407.296875 1216.390625 457.613281 1237.921875 392.355469 C 1248.464844 360.933594 1282.738281 425.3125 1276.804688 441.132812 C 1271.972656 454.316406 1260.988281 414.769531 1252.640625 404.222656 C 1251.320312 401.804688 1249.125 399.167969 1246.707031 404 C 1217.707031 461.570312 1214.632812 444.871094 1189.148438 401.804688 C 1182.117188 389.71875 1177.503906 404 1163.882812 420.261719 C 1124.777344 467.0625 1116.429688 422.898438 1100.171875 392.355469 C 1092.703125 378.074219 1082.597656 427.730469 1074.25 443.332031 C 1052.28125 457.613281 1046.566406 377.414062 1019.765625 417.183594 C 1006.582031 425.753906 1000.210938 450.582031 984.832031 429.050781 C 928.371094 344.238281 949.902344 500.238281 893.441406 416.085938 C 864.003906 353.902344 857.410156 448.824219 830.390625 440.253906 C 812.375 432.34375 793.042969 384.664062 774.367188 402.902344 C 759.867188 410.152344 754.59375 447.507812 738.117188 438.9375 C 722.960938 433.003906 701.648438 384.226562 688.46875 402.902344 C 658.808594 445.089844 642.550781 450.582031 620.144531 404.660156 C 613.550781 391.039062 599.710938 423.554688 583.015625 438.71875 C 559.945312 459.589844 541.710938 413.667969 525.894531 404.441406 C 507.878906 396.3125 500.847656 434.101562 488.984375 444.210938 C 474.046875 459.8125 456.910156 432.785156 445.265625 416.085938 C 428.132812 391.257812 415.609375 478.488281 391.882812 446.847656 C 355.191406 397.410156 364.640625 399.386719 335.199219 452.339844 C 319.164062 462.886719 302.6875 422.019531 288.625 413.011719 C 270.609375 410.59375 267.097656 455.855469 249.519531 462.667969 Z M 249.519531 462.667969 " fill-opacity="1" fill-rule="nonzero"/></svg>