<svg xmlns="http://www.w3.org/2000/svg" xmlns:xlink="http://www.w3.org/1999/xlink" width="200" zoomAndPan="magnify" viewBox="0 0 150 74.999997" height="100" preserveAspectRatio="xMidYMid meet" version="1.0"><defs><g/><clipPath id="84188342c5"><path d="M 43.476562 12.203125 L 106.476562 12.203125 L 106.476562 62.453125 L 43.476562 62.453125 Z M 43.476562 12.203125 " clip-rule="nonzero"/></clipPath></defs><g clip-path="url(#84188342c5)"><path fill="#000000" d="M 68.035156 33.542969 C 67.699219 33.542969 67.566406 33.109375 67.824219 32.914062 C 67.964844 32.804688 68.191406 32.839844 68.351562 32.816406 C 68.597656 32.785156 68.839844 32.714844 69.078125 32.644531 C 69.4375 32.542969 69.832031 32.472656 70.175781 32.320312 C 70.347656 31.882812 70.972656 32.167969 70.824219 32.609375 C 70.722656 32.902344 70.394531 32.988281 70.125 33.070312 C 69.453125 33.269531 68.738281 33.542969 68.035156 33.542969 Z M 43.519531 35.285156 C 43.5625 34.632812 45.605469 35.125 46.042969 35.191406 C 46.957031 35.332031 47.867188 35.527344 48.757812 35.796875 L 48.757812 33.464844 C 48.28125 33.785156 47.730469 33.953125 47.164062 34.019531 C 46.835938 34.058594 45.558594 34.265625 45.703125 33.621094 C 45.808594 33.152344 46.898438 33.363281 47.277344 33.296875 C 47.855469 33.199219 48.28125 32.9375 48.757812 32.613281 L 48.757812 31.308594 C 48.214844 31.824219 47.632812 32.3125 46.917969 32.5625 C 46.640625 32.660156 45.4375 32.960938 45.667969 32.257812 C 45.75 32.019531 45.972656 32.039062 46.175781 32.015625 C 46.582031 31.960938 46.945312 31.824219 47.292969 31.605469 C 47.816406 31.277344 48.386719 30.796875 48.757812 30.300781 L 48.757812 28.757812 C 48.308594 29.277344 47.753906 29.710938 47.140625 30.015625 C 46.910156 30.128906 46.558594 30.347656 46.292969 30.332031 C 46.039062 30.3125 45.859375 30.0625 45.984375 29.824219 C 46.105469 29.59375 46.527344 29.53125 46.742188 29.429688 C 47.011719 29.304688 47.265625 29.148438 47.503906 28.972656 C 48.019531 28.585938 48.453125 28.089844 48.757812 27.527344 C 48.796875 27.109375 49.4375 27.121094 49.457031 27.539062 C 49.722656 28.105469 50.042969 28.683594 50.5 29.117188 C 50.753906 29.359375 51.050781 29.5625 51.378906 29.691406 C 51.601562 29.777344 51.945312 29.765625 52.070312 30 C 52.453125 30.730469 51.207031 30.382812 50.980469 30.285156 C 50.351562 30 49.847656 29.527344 49.460938 28.964844 L 49.460938 30.253906 C 49.894531 30.675781 50.40625 31.019531 50.949219 31.292969 C 51.265625 31.453125 52.300781 31.632812 52.3125 32.058594 C 52.339844 33.054688 49.777344 31.425781 49.460938 31.179688 L 49.460938 32.59375 C 49.886719 32.898438 50.324219 33.199219 50.816406 33.390625 C 51.121094 33.511719 51.855469 33.46875 51.898438 33.886719 C 51.996094 34.882812 49.75 33.640625 49.460938 33.445312 L 49.460938 36.027344 C 50.792969 36.496094 51.996094 37.15625 53.148438 37.964844 C 53.5625 37.875 53.757812 37.375 53.953125 37.054688 C 54.195312 36.660156 54.492188 36.347656 54.875 36.082031 C 55.230469 35.835938 55.621094 35.644531 56 35.433594 C 56.179688 35.335938 56.359375 35.234375 56.523438 35.117188 C 56.707031 34.988281 56.898438 34.722656 57.105469 34.648438 C 57.660156 33.222656 57.9375 31.871094 59.019531 30.710938 C 59.511719 30.183594 60.082031 29.6875 60.429688 29.042969 C 60.757812 28.429688 60.765625 27.71875 61.019531 27.082031 C 61.308594 26.351562 61.941406 25.773438 62.460938 25.195312 C 62.726562 24.898438 62.992188 24.601562 63.257812 24.304688 C 63.410156 24.136719 63.59375 23.835938 63.859375 23.882812 C 64.230469 23.796875 64.820312 24.335938 65.101562 24.542969 C 65.574219 23.753906 66.046875 22.964844 66.519531 22.175781 C 66.921875 21.507812 67.394531 20.945312 67.886719 20.34375 C 68.523438 19.566406 68.871094 18.5625 69.332031 17.679688 C 69.800781 16.769531 70.265625 15.867188 70.613281 14.910156 C 70.792969 14.417969 70.933594 13.953125 71.367188 13.625 C 71.8125 13.292969 72.367188 13.074219 72.871094 12.84375 C 73.183594 12.699219 73.90625 12.203125 74.238281 12.433594 C 74.511719 12.621094 74.433594 13.445312 74.519531 13.753906 C 74.773438 14.675781 75.320312 15.734375 76.175781 16.222656 C 76.585938 16.460938 77.011719 16.652344 77.34375 17 C 77.753906 17.433594 78.015625 18.019531 78.300781 18.535156 C 78.914062 19.644531 79.761719 20.574219 80.421875 21.648438 C 80.730469 20.695312 81.023438 19.730469 81.414062 18.808594 C 81.542969 18.507812 81.714844 17.796875 82.09375 17.742188 C 82.601562 17.671875 82.53125 18.484375 82.574219 18.78125 C 82.714844 19.828125 83.152344 20.714844 83.613281 21.652344 C 83.847656 22.125 84.070312 22.609375 84.210938 23.117188 C 84.253906 23.269531 84.339844 24.054688 84.550781 24.035156 C 85.226562 23.320312 85.863281 24.421875 86.164062 24.929688 C 86.644531 25.730469 87.125 26.535156 87.605469 27.339844 C 87.738281 27.558594 87.871094 27.78125 88.003906 28 C 88.390625 28.640625 88.773438 29.027344 89.398438 29.429688 C 90.765625 30.3125 91.054688 31.902344 91.660156 33.300781 C 92.445312 35.113281 93.382812 36.875 94.453125 38.539062 C 96.121094 36.820312 98.324219 35.757812 100.5 34.765625 C 100.449219 33.964844 100.398438 33.15625 100.34375 32.339844 C 99.890625 32.695312 99.40625 33.007812 98.898438 33.28125 C 98.636719 33.417969 97.585938 34.054688 97.625 33.3125 C 97.648438 32.925781 98.558594 32.671875 98.847656 32.503906 C 99.359375 32.207031 99.851562 31.863281 100.289062 31.46875 C 100.261719 31.023438 100.234375 30.574219 100.207031 30.121094 C 99.828125 30.53125 99.355469 30.847656 98.859375 31.097656 C 98.632812 31.210938 98.234375 31.46875 97.976562 31.453125 C 97.726562 31.433594 97.550781 31.199219 97.660156 30.960938 C 97.765625 30.71875 98.183594 30.644531 98.402344 30.542969 C 98.675781 30.414062 98.9375 30.265625 99.183594 30.089844 C 99.589844 29.796875 99.953125 29.417969 100.132812 28.945312 C 100.117188 28.703125 100.101562 28.460938 100.085938 28.21875 C 99.722656 28.539062 99.277344 28.742188 98.824219 28.910156 C 98.550781 29.011719 97.816406 29.089844 98.085938 28.539062 C 98.230469 28.246094 98.847656 28.164062 99.128906 28.019531 C 99.5 27.824219 99.824219 27.5625 100.023438 27.1875 C 99.988281 26.664062 99.957031 26.140625 99.921875 25.621094 C 99.515625 26.234375 99.035156 26.808594 98.496094 27.3125 C 98.308594 27.484375 98.039062 27.824219 97.746094 27.691406 C 97.375 27.523438 97.59375 27.183594 97.792969 27 C 98.320312 26.515625 98.800781 26.007812 99.214844 25.421875 C 99.402344 25.152344 99.578125 24.871094 99.734375 24.582031 C 99.796875 24.46875 99.839844 24.304688 99.9375 24.214844 C 100.113281 24.042969 100.304688 24.085938 100.476562 24.230469 C 100.683594 24.40625 100.839844 24.710938 101.023438 24.917969 C 101.257812 25.191406 101.511719 25.449219 101.777344 25.691406 C 102.261719 26.128906 102.789062 26.417969 103.339844 26.75 C 103.582031 26.894531 103.78125 27.265625 103.394531 27.421875 C 103.125 27.53125 102.71875 27.230469 102.496094 27.097656 C 101.792969 26.679688 101.167969 26.125 100.621094 25.523438 C 100.652344 25.996094 100.683594 26.472656 100.710938 26.949219 C 101.136719 27.398438 101.652344 27.773438 102.21875 28.027344 C 102.453125 28.136719 102.699219 28.222656 102.953125 28.277344 C 103.175781 28.324219 103.460938 28.292969 103.566406 28.546875 C 103.851562 29.246094 102.683594 28.941406 102.421875 28.859375 C 101.820312 28.667969 101.265625 28.34375 100.773438 27.953125 C 100.792969 28.257812 100.8125 28.558594 100.832031 28.863281 C 101.308594 29.253906 101.804688 29.617188 102.332031 29.933594 C 102.605469 30.097656 102.886719 30.25 103.175781 30.378906 C 103.398438 30.480469 103.832031 30.539062 103.953125 30.765625 C 104.082031 31.003906 103.90625 31.261719 103.648438 31.277344 C 103.386719 31.296875 102.996094 31.070312 102.769531 30.964844 C 102.101562 30.652344 101.476562 30.242188 100.890625 29.800781 C 100.925781 30.335938 100.957031 30.867188 100.992188 31.398438 C 101.488281 31.664062 102.023438 31.882812 102.578125 31.988281 C 102.898438 32.046875 103.632812 31.886719 103.746094 32.277344 C 104.039062 33.273438 101.375 32.363281 101.042969 32.210938 C 101.089844 32.964844 101.136719 33.710938 101.183594 34.453125 C 102.207031 33.984375 103.226562 33.507812 104.199219 32.945312 C 104.671875 32.671875 105.132812 32.378906 105.578125 32.058594 C 105.75 31.933594 105.929688 31.730469 106.167969 31.792969 C 106.378906 31.855469 106.460938 32.085938 106.382812 32.277344 C 106.238281 32.632812 105.460938 32.996094 105.140625 33.195312 C 104.613281 33.527344 104.066406 33.832031 103.511719 34.117188 C 102.515625 34.628906 101.488281 35.078125 100.46875 35.546875 C 98.511719 36.449219 96.523438 37.433594 94.996094 38.984375 C 94.191406 39.800781 93.566406 40.660156 92.582031 41.289062 C 91.617188 41.902344 90.589844 42.421875 89.519531 42.835938 C 88.269531 43.320312 86.984375 43.628906 85.816406 44.308594 C 84.667969 44.972656 83.585938 45.753906 82.480469 46.484375 C 84.042969 46.675781 86.207031 46.757812 86.609375 48.65625 C 86.871094 49.367188 86.730469 50.078125 86.308594 50.695312 C 85.914062 51.28125 85.304688 51.664062 84.878906 52.210938 C 84.375 52.859375 85.359375 53.445312 85.867188 53.6875 C 86.652344 54.058594 87.445312 54.410156 88.230469 54.78125 C 89.617188 55.433594 90.96875 55.867188 92.464844 56.175781 C 93.269531 56.339844 94.082031 56.480469 94.902344 56.527344 C 95.277344 56.546875 95.65625 56.550781 96.03125 56.511719 C 96.308594 56.480469 96.78125 56.4375 96.714844 56.871094 C 96.625 57.472656 94.953125 57.238281 94.542969 57.203125 C 93.675781 57.128906 92.816406 56.96875 91.964844 56.785156 C 90.449219 56.460938 89.085938 55.960938 87.6875 55.296875 C 86.925781 54.933594 86.128906 54.621094 85.382812 54.226562 C 84.820312 53.929688 84.164062 53.449219 84.035156 52.785156 C 83.890625 52.027344 84.550781 51.546875 85.035156 51.078125 C 85.542969 50.589844 86.117188 50 86.03125 49.234375 C 85.839844 47.609375 84.308594 47.386719 82.941406 47.238281 C 80.75 47 78.59375 46.878906 76.386719 46.914062 C 77.089844 47.253906 77.8125 47.59375 78.410156 48.109375 C 78.9375 48.566406 79.617188 49.496094 79.390625 50.253906 C 79.269531 50.65625 78.777344 51.078125 78.496094 51.375 C 78.109375 51.777344 77.691406 52.148438 77.257812 52.5 C 76.367188 53.222656 75.414062 53.871094 74.515625 54.585938 C 73.753906 55.191406 72.96875 55.914062 73.382812 56.980469 C 73.726562 57.863281 74.785156 58.429688 75.667969 58.601562 C 77.644531 58.988281 79.605469 59.4375 81.570312 59.878906 C 83.613281 60.339844 85.652344 60.8125 87.703125 61.222656 C 88.050781 61.292969 88.402344 61.363281 88.753906 61.421875 C 88.992188 61.460938 89.386719 61.441406 89.523438 61.671875 C 89.984375 62.449219 88.324219 62.058594 88.085938 62.011719 C 83.949219 61.230469 79.886719 60.082031 75.75 59.324219 C 73.832031 58.976562 71.511719 57.035156 73.035156 54.988281 C 73.402344 54.5 73.953125 54.128906 74.433594 53.761719 C 74.953125 53.363281 75.480469 52.980469 76.003906 52.585938 C 76.992188 51.84375 77.972656 51.050781 78.699219 50.042969 C 78.601562 48.21875 76.117188 47.707031 74.871094 46.902344 C 72.664062 46.007812 70.351562 45.375 68.074219 44.667969 C 67.855469 44.601562 67.453125 44.554688 67.285156 44.378906 C 66.996094 44.085938 67.308594 43.765625 67.632812 43.800781 C 67.71875 43.808594 67.8125 43.855469 67.890625 43.878906 C 68.976562 44.214844 70.058594 44.550781 71.140625 44.886719 C 72.476562 45.296875 73.796875 45.710938 75.097656 46.238281 C 77.199219 46.195312 79.308594 46.152344 81.40625 46.359375 C 82.449219 45.660156 83.492188 44.964844 84.539062 44.277344 L 84.457031 41.722656 C 84.207031 41.921875 82.410156 43.144531 82.421875 42.234375 C 82.425781 41.863281 83.003906 41.789062 83.265625 41.660156 C 83.699219 41.441406 84.09375 41.148438 84.429688 40.800781 L 84.402344 39.960938 C 84.019531 40.25 83.558594 40.53125 83.113281 40.710938 C 82.753906 40.855469 82.308594 40.550781 82.636719 40.183594 C 82.882812 39.90625 83.460938 39.75 83.78125 39.539062 C 83.945312 39.429688 84.144531 39.308594 84.238281 39.128906 C 84.308594 38.996094 84.277344 38.832031 84.363281 38.707031 L 84.324219 37.5625 C 83.933594 37.902344 83.46875 38.175781 83.042969 38.46875 C 82.910156 38.554688 82.738281 38.71875 82.574219 38.738281 C 82.164062 38.785156 82.09375 38.339844 82.328125 38.101562 C 82.605469 37.824219 83.035156 37.625 83.363281 37.40625 C 83.628906 37.222656 83.925781 37.042969 84.105469 36.769531 C 84.273438 36.515625 84.132812 35.703125 84.679688 35.867188 C 84.949219 35.796875 85.199219 36.070312 85.09375 36.332031 C 85.210938 36.640625 85.714844 36.960938 85.941406 37.171875 C 86.222656 37.433594 86.660156 37.710938 86.863281 38.039062 C 87.089844 38.40625 86.695312 38.726562 86.34375 38.503906 C 86.21875 38.421875 86.101562 38.277344 85.992188 38.175781 C 85.667969 37.875 85.34375 37.574219 85.019531 37.273438 L 85.070312 38.847656 C 85.4375 39.054688 85.808594 39.261719 86.175781 39.46875 C 86.453125 39.621094 87.117188 39.835938 87.261719 40.148438 C 87.417969 40.496094 87.046875 40.695312 86.761719 40.597656 C 86.601562 40.542969 86.441406 40.417969 86.296875 40.335938 C 85.894531 40.113281 85.496094 39.890625 85.097656 39.667969 L 85.132812 40.804688 C 85.152344 40.859375 85.15625 40.921875 85.144531 40.984375 C 85.316406 40.984375 85.472656 41.125 85.625 41.191406 C 85.832031 41.28125 86.054688 41.34375 86.28125 41.378906 C 86.589844 41.425781 87.222656 41.246094 87.335938 41.648438 C 87.585938 42.542969 85.476562 41.90625 85.164062 41.746094 L 85.230469 43.839844 C 86.882812 42.839844 88.785156 42.476562 90.511719 41.640625 C 90.363281 41.230469 90.136719 40.949219 89.886719 40.597656 C 89.609375 40.210938 89.4375 39.78125 89.28125 39.339844 C 89.140625 38.949219 88.992188 38.558594 88.820312 38.175781 C 88.695312 37.910156 88.300781 37.386719 88.714844 37.175781 C 89.316406 36.867188 89.78125 38.65625 89.917969 39.03125 C 90.070312 39.460938 90.230469 39.871094 90.5 40.242188 C 90.746094 40.585938 91.039062 40.894531 91.15625 41.3125 C 92.269531 40.710938 93.148438 40.039062 93.964844 39.078125 C 93.042969 37.664062 92.226562 36.175781 91.503906 34.652344 C 91.167969 33.945312 90.851562 33.226562 90.574219 32.496094 C 90.324219 31.835938 90.128906 31.101562 89.664062 30.550781 C 89.410156 30.25 89.078125 30.0625 88.753906 29.855469 C 88.417969 29.632812 88.117188 29.367188 87.785156 29.140625 C 87.492188 28.945312 87.226562 28.671875 86.882812 28.574219 C 86.550781 28.476562 86.203125 28.445312 85.871094 28.339844 C 85.582031 28.25 85.039062 28.128906 84.835938 27.898438 C 84.613281 27.644531 84.796875 27.28125 85.132812 27.304688 C 85.460938 27.324219 85.847656 27.605469 86.167969 27.699219 C 86.484375 27.792969 86.8125 27.828125 87.132812 27.914062 C 86.792969 27.347656 86.457031 26.78125 86.117188 26.21875 C 85.898438 25.855469 85.683594 25.492188 85.464844 25.128906 C 85.359375 24.949219 85.230469 24.648438 85.054688 24.535156 C 84.25 25.105469 83.765625 24.304688 83.605469 23.605469 C 83.375 22.574219 82.800781 21.683594 82.382812 20.726562 C 82.402344 22.148438 82.421875 23.570312 82.4375 24.996094 C 82.445312 25.484375 82.300781 26.386719 82.761719 26.664062 C 83.300781 26.992188 83.867188 27.179688 84.328125 27.636719 C 84.855469 28.160156 85.167969 28.910156 85.003906 29.652344 C 85.730469 30.023438 85.464844 30.792969 85.664062 31.414062 C 85.761719 31.703125 85.957031 31.96875 86.117188 32.230469 C 86.5625 32.964844 87.007812 33.695312 87.453125 34.425781 C 87.585938 34.648438 88.605469 35.972656 87.773438 35.980469 C 87.507812 35.980469 87.382812 35.667969 87.269531 35.476562 C 87.066406 35.144531 86.863281 34.808594 86.660156 34.472656 C 86.242188 33.792969 85.828125 33.113281 85.414062 32.429688 C 85.15625 32 84.9375 31.597656 84.898438 31.085938 C 84.878906 30.804688 84.945312 30.402344 84.636719 30.261719 C 84.453125 30.179688 84.273438 30.316406 84.1875 30.027344 C 84.132812 29.839844 84.285156 29.660156 84.324219 29.480469 C 84.472656 28.804688 83.984375 28.195312 83.464844 27.832031 C 82.957031 27.480469 82.136719 27.332031 81.859375 26.726562 C 81.644531 26.253906 81.742188 25.496094 81.734375 24.984375 C 81.714844 23.359375 81.691406 21.730469 81.671875 20.105469 C 81.207031 21.421875 80.851562 22.78125 80.277344 24.058594 C 80.007812 24.652344 79.667969 25.207031 79.367188 25.785156 C 79.039062 26.410156 78.929688 27.050781 78.71875 27.714844 C 78.550781 28.238281 78.242188 28.742188 77.722656 28.984375 C 77.054688 29.296875 76.640625 28.878906 76.027344 28.710938 C 75.460938 28.558594 74.867188 29.609375 74.558594 29.984375 C 74.078125 30.5625 73.617188 31.15625 73.167969 31.757812 C 74.195312 32.777344 74.503906 34.324219 75.304688 35.511719 C 75.726562 36.144531 76.203125 36.757812 76.699219 37.335938 C 76.882812 37.550781 77.085938 37.773438 77.371094 37.84375 C 77.734375 37.9375 78.023438 37.898438 78.3125 38.183594 C 78.761719 38.617188 79.101562 39.207031 79.472656 39.699219 C 79.644531 39.933594 79.847656 40.367188 79.386719 40.441406 C 79.101562 40.488281 78.941406 40.164062 78.796875 39.96875 C 78.574219 39.671875 78.351562 39.375 78.128906 39.078125 C 78.070312 39 78.015625 38.917969 77.953125 38.84375 C 77.757812 38.605469 77.65625 38.59375 77.367188 38.550781 C 76.777344 38.464844 76.402344 38.082031 76.042969 37.644531 C 75.582031 37.078125 75.125 36.507812 74.71875 35.902344 C 74.316406 35.300781 73.992188 34.667969 73.707031 34.007812 C 73.453125 33.425781 73.199219 32.828125 72.769531 32.351562 C 71.804688 31.292969 70.25 31.914062 69.238281 30.90625 C 68.792969 30.464844 68.496094 29.894531 68.171875 29.367188 C 67.816406 28.78125 67.453125 28.203125 67.054688 27.648438 C 66.214844 26.460938 65.210938 25.335938 63.921875 24.613281 C 63.429688 25.164062 62.9375 25.714844 62.445312 26.261719 C 61.972656 26.785156 61.660156 27.253906 61.5 27.945312 C 61.296875 28.828125 61.039062 29.535156 60.4375 30.230469 C 59.882812 30.871094 59.214844 31.417969 58.785156 32.160156 C 58.351562 32.914062 58.15625 33.765625 57.875 34.582031 C 57.285156 36.296875 56.179688 37.796875 55.21875 39.316406 C 55.886719 39.71875 56.570312 40.09375 57.277344 40.425781 C 57.609375 40.582031 58.910156 40.875 58.703125 41.40625 C 58.492188 41.953125 57.367188 41.242188 57.042969 41.089844 C 56.351562 40.769531 55.679688 40.40625 55.023438 40.019531 C 53.792969 39.289062 52.675781 38.378906 51.429688 37.679688 C 50.3125 37.050781 49.105469 36.589844 47.863281 36.273438 C 47.113281 36.078125 46.347656 35.9375 45.582031 35.832031 C 45.183594 35.777344 44.78125 35.734375 44.382812 35.699219 C 44.097656 35.675781 43.488281 35.734375 43.519531 35.285156 Z M 74.253906 14.980469 C 74.257812 16.328125 73.832031 17.683594 73.035156 18.777344 C 72.789062 19.121094 72 19.703125 72.050781 20.148438 C 72.082031 20.429688 72.363281 20.703125 72.535156 20.929688 C 72.980469 21.519531 73.429688 22.109375 73.875 22.699219 C 74.351562 23.324219 74.886719 23.9375 75.097656 24.710938 C 75.1875 25.035156 75.25 25.300781 75.484375 25.558594 C 75.742188 25.839844 76.054688 26.058594 76.3125 26.335938 C 76.578125 26.625 76.804688 26.949219 76.984375 27.296875 C 77.128906 27.578125 77.398438 28.054688 77.347656 28.378906 C 78.109375 28.121094 78.136719 27.027344 78.335938 26.40625 C 78.246094 26.339844 78.1875 26.214844 78.191406 26.101562 C 78.035156 25.792969 77.492188 24.859375 77.914062 24.589844 C 78.441406 24.261719 78.582031 25.253906 78.703125 25.535156 C 79.214844 24.542969 79.742188 23.605469 80.117188 22.546875 C 79.742188 21.777344 79.191406 21.117188 78.679688 20.433594 C 78.167969 19.746094 77.765625 19.003906 77.34375 18.257812 C 77.257812 19.007812 76.976562 19.714844 76.90625 20.46875 C 76.882812 20.703125 76.875 20.941406 76.890625 21.179688 C 76.902344 21.371094 77.003906 21.636719 76.96875 21.820312 C 76.90625 22.121094 76.574219 22.230469 76.359375 22.011719 C 76.117188 21.765625 76.171875 21.097656 76.183594 20.78125 C 76.191406 20.347656 76.257812 19.921875 76.347656 19.496094 C 76.414062 19.179688 76.511719 18.863281 76.578125 18.546875 C 76.625 18.332031 76.671875 18.113281 76.65625 17.894531 C 76.644531 17.703125 76.527344 17.488281 76.636719 17.304688 C 76.222656 16.984375 75.710938 16.820312 75.308594 16.480469 C 74.851562 16.085938 74.523438 15.511719 74.253906 14.980469 Z M 65.652344 24.988281 C 66.949219 26.121094 67.902344 27.574219 68.792969 29.03125 C 69.164062 29.640625 69.53125 30.457031 70.230469 30.761719 C 71 31.097656 71.863281 30.867188 72.617188 31.320312 C 73.128906 30.636719 73.660156 29.960938 74.210938 29.304688 C 73.859375 28.78125 73.621094 28.15625 73.3125 27.605469 C 73.132812 27.289062 72.371094 26.417969 72.675781 26.066406 C 73.121094 25.546875 73.578125 26.652344 73.726562 26.914062 C 74.070312 27.507812 74.394531 28.117188 74.703125 28.730469 C 75.261719 28.089844 75.765625 27.789062 76.597656 28.199219 C 76.371094 27.484375 75.933594 26.914062 75.378906 26.417969 C 75.113281 26.179688 74.835938 25.941406 74.660156 25.625 C 74.488281 25.3125 74.464844 24.957031 74.335938 24.628906 C 74.046875 23.914062 73.402344 23.234375 72.933594 22.621094 C 72.546875 22.109375 72.148438 21.605469 71.769531 21.085938 C 71.347656 20.511719 71.167969 19.894531 71.652344 19.292969 C 72.027344 18.824219 72.457031 18.441406 72.765625 17.914062 C 73.550781 16.578125 73.777344 14.902344 73.316406 13.414062 C 72.636719 13.722656 71.722656 13.980469 71.429688 14.71875 C 71.148438 15.425781 70.894531 16.136719 70.558594 16.820312 C 70.230469 17.492188 69.871094 18.148438 69.539062 18.820312 C 69.183594 19.550781 68.863281 20.285156 68.328125 20.910156 C 67.261719 22.148438 66.492188 23.589844 65.652344 24.988281 Z M 53.800781 38.414062 C 54.082031 38.605469 54.355469 38.777344 54.621094 38.949219 C 55.242188 37.964844 55.898438 37 56.464844 35.980469 C 55.933594 36.28125 55.335938 36.523438 54.902344 36.960938 C 54.464844 37.394531 54.308594 38.035156 53.800781 38.414062 Z M 49.390625 48.515625 C 49.125 48.210938 48.679688 48.527344 48.800781 48.878906 C 48.921875 49.238281 49.507812 49.664062 49.789062 49.914062 C 50.519531 50.5625 51.367188 51.160156 52.273438 51.546875 C 52.449219 51.625 52.644531 51.707031 52.808594 51.554688 C 52.945312 51.425781 52.949219 51.222656 52.839844 51.082031 C 52.613281 50.785156 51.976562 50.617188 51.648438 50.417969 C 50.804688 49.90625 50.039062 49.261719 49.390625 48.515625 Z M 61.003906 52.3125 C 60.601562 52.359375 60.195312 52.40625 59.792969 52.449219 C 59.648438 52.464844 59.449219 52.460938 59.324219 52.546875 C 59.003906 52.769531 59.226562 53.15625 59.558594 53.179688 C 59.929688 53.207031 60.359375 53.089844 60.730469 53.046875 C 60.859375 53.035156 61.070312 53.042969 61.191406 52.976562 C 61.519531 52.800781 61.402344 52.269531 61.003906 52.3125 Z M 99.1875 42.582031 C 98.742188 42.269531 98.148438 43.386719 97.902344 43.65625 C 97.480469 44.128906 97.015625 44.5625 96.519531 44.957031 C 96.003906 45.367188 95.449219 45.734375 94.871094 46.046875 C 94.59375 46.195312 93.316406 46.578125 93.832031 47.074219 C 94.179688 47.40625 95.15625 46.695312 95.480469 46.507812 C 96.066406 46.171875 96.625 45.785156 97.148438 45.351562 C 97.527344 45.039062 99.847656 43.046875 99.1875 42.582031 Z M 102.640625 40.234375 C 102.089844 40.390625 101.535156 40.550781 100.984375 40.710938 C 100.753906 40.773438 100.484375 40.816406 100.265625 40.914062 C 99.835938 41.109375 99.976562 41.625 100.441406 41.59375 C 100.976562 41.554688 101.585938 41.265625 102.101562 41.117188 C 102.328125 41.050781 102.589844 41.011719 102.804688 40.914062 C 103.203125 40.738281 103.125 40.09375 102.640625 40.234375 Z M 83.601562 31.765625 C 83.699219 31.089844 83.253906 30.371094 82.957031 29.789062 C 82.644531 29.179688 82.277344 28.585938 81.777344 28.109375 C 81.582031 27.917969 81.1875 27.507812 80.882812 27.550781 C 80.597656 27.589844 80.484375 27.910156 80.660156 28.128906 C 80.859375 28.382812 81.242188 28.542969 81.472656 28.796875 C 81.710938 29.0625 81.910156 29.359375 82.089844 29.667969 C 82.402344 30.210938 83.015625 31.097656 82.882812 31.742188 C 82.800781 32.152344 82.574219 32.457031 82.664062 32.898438 C 82.738281 33.257812 82.976562 33.539062 83.183594 33.828125 C 83.347656 34.054688 83.476562 34.574219 83.8125 34.574219 C 84.21875 34.574219 84.179688 34.15625 84.0625 33.902344 C 83.890625 33.542969 83.550781 33.269531 83.40625 32.902344 C 83.242188 32.496094 83.542969 32.164062 83.601562 31.765625 Z M 71.738281 24.132812 C 72.152344 24.132812 72.070312 23.746094 72 23.496094 C 71.925781 23.226562 72.011719 22.773438 71.648438 22.703125 C 70.960938 22.574219 71.179688 24.132812 71.738281 24.132812 Z M 76.148438 44.070312 C 76.398438 44.425781 76.648438 44.789062 76.980469 45.074219 C 77.222656 45.285156 77.730469 45.652344 78.082031 45.527344 C 78.253906 45.460938 78.347656 45.273438 78.296875 45.101562 C 78.230469 44.867188 78.023438 44.875 77.832031 44.792969 C 77.386719 44.601562 77.09375 44.1875 76.824219 43.808594 C 76.570312 43.449219 76.328125 43.078125 76.011719 42.769531 C 75.78125 42.542969 75.261719 42.074219 74.90625 42.242188 C 74.730469 42.324219 74.660156 42.527344 74.742188 42.703125 C 74.824219 42.875 75.023438 42.90625 75.175781 42.996094 C 75.59375 43.242188 75.878906 43.683594 76.148438 44.070312 Z M 64.644531 29.6875 C 63.910156 30.082031 63.117188 30.234375 62.496094 30.828125 C 62.277344 31.039062 61.183594 32.378906 62.074219 32.382812 C 62.421875 32.382812 62.582031 31.792969 62.769531 31.5625 C 62.980469 31.304688 63.246094 31.089844 63.539062 30.925781 C 64.246094 30.535156 65.078125 30.421875 65.640625 29.789062 C 65.789062 30.394531 65.777344 30.9375 65.582031 31.527344 C 65.375 32.152344 65.246094 32.777344 65.765625 33.289062 C 66.105469 33.621094 66.550781 33.828125 66.894531 34.160156 C 67.324219 34.570312 67.671875 35.066406 67.910156 35.605469 C 68.140625 36.132812 68.242188 36.707031 68.496094 37.226562 C 68.777344 37.792969 69.226562 38.195312 69.765625 38.515625 C 70.25 38.804688 70.785156 39.015625 71.253906 39.335938 C 71.53125 39.523438 72.09375 40.414062 72.449219 39.96875 C 73.023438 39.261719 70.695312 38.234375 70.292969 38.007812 C 69.78125 37.722656 69.347656 37.390625 69.101562 36.855469 C 68.84375 36.304688 68.738281 35.703125 68.472656 35.152344 C 68.230469 34.648438 67.902344 34.183594 67.511719 33.78125 C 67.148438 33.414062 66.691406 33.183594 66.320312 32.839844 C 65.859375 32.414062 66.253906 31.84375 66.378906 31.34375 C 66.550781 30.660156 66.433594 29.96875 66.238281 29.304688 C 66.0625 28.714844 65.855469 28.128906 65.628906 27.558594 C 65.503906 27.242188 65.371094 26.929688 65.210938 26.628906 C 65.09375 26.410156 64.910156 25.960938 64.683594 25.820312 C 64.464844 25.683594 64.175781 25.78125 64.132812 26.046875 C 64.085938 26.320312 64.410156 26.632812 64.535156 26.859375 C 64.878906 27.484375 65.113281 28.164062 65.34375 28.839844 C 65.308594 29.203125 64.964844 29.515625 64.644531 29.6875 Z M 62.976562 47.988281 C 63.097656 48.078125 63.257812 48.082031 63.382812 48 C 64.234375 48.035156 65.085938 48.191406 65.894531 48.460938 C 66.273438 48.585938 66.644531 48.734375 67.003906 48.910156 C 67.253906 49.03125 67.738281 49.292969 67.820312 48.816406 C 67.921875 48.253906 66.445312 47.902344 66.042969 47.769531 C 65.214844 47.503906 64.355469 47.347656 63.488281 47.304688 C 63.316406 46 63.214844 44.683594 63.183594 43.371094 C 63.773438 43.839844 64.457031 44.203125 65.183594 44.417969 C 65.492188 44.507812 66.664062 44.894531 66.597656 44.222656 C 66.5625 43.894531 66.238281 43.914062 65.988281 43.882812 C 65.644531 43.835938 65.308594 43.738281 64.988281 43.613281 C 64.308594 43.347656 63.679688 42.9375 63.167969 42.417969 C 63.171875 41.804688 63.1875 41.195312 63.21875 40.582031 C 63.667969 41.203125 64.21875 41.75 64.835938 42.199219 C 65.105469 42.398438 65.484375 42.710938 65.816406 42.800781 C 66.109375 42.878906 66.457031 42.667969 66.289062 42.328125 C 66.164062 42.082031 65.679688 41.925781 65.460938 41.78125 C 65.152344 41.570312 64.863281 41.339844 64.59375 41.082031 C 64.070312 40.585938 63.617188 40.007812 63.296875 39.363281 C 63.328125 39 63.363281 38.636719 63.390625 38.269531 C 63.78125 38.675781 64.203125 39.089844 64.742188 39.292969 C 65.035156 39.402344 66.066406 39.628906 65.902344 38.988281 C 65.835938 38.722656 65.617188 38.746094 65.398438 38.726562 C 65.109375 38.699219 64.855469 38.601562 64.617188 38.4375 C 64.171875 38.132812 63.753906 37.6875 63.445312 37.246094 C 63.453125 36.910156 63.445312 36.570312 63.414062 36.234375 C 63.734375 36.488281 64.078125 36.707031 64.4375 36.90625 C 64.699219 37.050781 65.183594 37.421875 65.488281 37.304688 C 65.816406 37.179688 65.726562 36.828125 65.511719 36.664062 C 65.238281 36.453125 64.84375 36.339844 64.542969 36.160156 C 64.230469 35.976562 63.933594 35.769531 63.664062 35.527344 C 63.464844 35.347656 63.3125 35.070312 63.105469 34.914062 C 63.015625 34.847656 62.9375 34.800781 62.820312 34.8125 C 62.578125 34.839844 62.535156 35.023438 62.511719 35.222656 C 62.445312 35.792969 61.9375 36.273438 61.519531 36.671875 C 61.277344 36.90625 61.007812 37.113281 60.722656 37.292969 C 60.433594 37.472656 59.949219 37.574219 59.707031 37.796875 C 59.464844 38.015625 59.597656 38.398438 59.925781 38.417969 C 60.242188 38.4375 60.683594 38.128906 60.945312 37.976562 C 61.660156 37.5625 62.183594 36.996094 62.71875 36.382812 C 62.742188 36.664062 62.746094 36.949219 62.742188 37.238281 C 62.492188 37.769531 62.128906 38.25 61.664062 38.613281 C 61.414062 38.808594 61.140625 38.96875 60.855469 39.089844 C 60.617188 39.195312 60.226562 39.21875 60.042969 39.390625 C 59.847656 39.574219 59.898438 39.878906 60.15625 39.980469 C 60.402344 40.078125 60.800781 39.867188 61.019531 39.78125 C 61.644531 39.53125 62.207031 39.144531 62.65625 38.644531 C 62.605469 39.199219 62.597656 39.757812 62.242188 40.222656 C 61.804688 40.785156 61.09375 41.078125 60.449219 41.332031 C 60.214844 41.421875 59.90625 41.53125 60.015625 41.851562 C 60.117188 42.15625 60.425781 42.074219 60.65625 42 C 61.316406 41.78125 61.984375 41.445312 62.496094 40.972656 C 62.480469 41.453125 62.464844 41.9375 62.464844 42.421875 C 62.058594 42.859375 61.609375 43.261719 61.121094 43.605469 C 60.878906 43.78125 60.621094 43.941406 60.359375 44.085938 C 60.171875 44.195312 59.839844 44.285156 59.800781 44.539062 C 59.679688 45.339844 60.816406 44.640625 61.046875 44.496094 C 61.558594 44.183594 62.039062 43.816406 62.476562 43.40625 C 62.511719 44.703125 62.613281 46.003906 62.777344 47.292969 C 62.421875 47.300781 60.8125 47.210938 60.9375 47.851562 C 61.015625 48.238281 61.4375 48.113281 61.707031 48.074219 C 62.128906 48.019531 62.550781 47.988281 62.976562 47.988281 Z M 62.976562 47.988281 " fill-opacity="1" fill-rule="nonzero"/></g><g fill="#000000" fill-opacity="1"><g transform="translate(131.836692, 17.796109)"><g><path d="M 3.203125 -3.59375 L 0.6875 -3.59375 L 0.6875 -0.375 L 3.203125 -0.375 Z M 3.53125 -5.03125 L 3.53125 -3.90625 L 5.625 -3.90625 L 5.625 -2.109375 L 4.359375 -2.109375 L 4.359375 -2.4375 L 5.296875 -2.4375 L 5.296875 -3.59375 L 3.53125 -3.59375 L 3.53125 -0.046875 L 0.359375 -0.046875 L 0.359375 -3.90625 L 3.203125 -3.90625 L 3.203125 -5.03125 L -0.21875 -5.03125 L -0.21875 -5.359375 L 6.265625 -5.359375 L 6.265625 -5.03125 Z M 3.53125 -5.03125 "/></g></g></g><g fill="#000000" fill-opacity="1"><g transform="translate(137.891322, 17.796109)"><g><path d="M 0.984375 -5.03125 L 0.984375 -0.03125 L 0.671875 -0.03125 L 0.671875 -5.03125 L -0.296875 -5.03125 L -0.296875 -5.359375 L 1.859375 -5.359375 L 1.859375 -5.03125 Z M 0.984375 -5.03125 "/></g></g></g><g fill="#000000" fill-opacity="1"><g transform="translate(133.653649, 28.778603)"><g><path d="M 1.96875 0.625 L 1.453125 0.625 L 1.453125 0.953125 L 1.96875 0.953125 Z M 3.171875 -3.5 L 0.6875 -3.5 L 0.6875 -0.359375 L 3.171875 -0.359375 Z M 1.171875 1.234375 L 1.171875 0.34375 L 2.25 0.34375 L 2.25 1.234375 Z M 3.5 -5.03125 L 3.5 -0.03125 L 0.359375 -0.03125 L 0.359375 -3.8125 L 3.171875 -3.8125 L 3.171875 -5.03125 L -0.234375 -5.03125 L -0.234375 -5.359375 L 4.34375 -5.359375 L 4.34375 -5.03125 Z M 3.5 -5.03125 "/></g></g></g><g fill="#000000" fill-opacity="1"><g transform="translate(132.765359, 39.761097)"><g><path d="M 0.640625 -4.625 L 0.640625 -0.359375 L 3.515625 -0.359375 L 3.515625 -2.953125 L 2.359375 -2.953125 L 2.359375 -5.03125 L -0.21875 -5.03125 L -0.21875 -5.359375 L 4.328125 -5.359375 L 4.328125 -5.03125 L 2.734375 -5.03125 L 2.734375 -3.28125 L 3.84375 -3.28125 L 3.84375 -0.03125 L 0.3125 -0.03125 L 0.3125 -4.625 Z M 0.640625 -4.625 "/></g></g></g><g fill="#000000" fill-opacity="1"><g transform="translate(136.951654, 39.761097)"><g><path d="M 0.984375 -5.03125 L 0.984375 -0.03125 L 0.671875 -0.03125 L 0.671875 -5.03125 L -0.296875 -5.03125 L -0.296875 -5.359375 L 1.859375 -5.359375 L 1.859375 -5.03125 Z M 0.984375 -5.03125 "/></g></g></g><g fill="#000000" fill-opacity="1"><g transform="translate(132.523098, 50.743591)"><g><path d="M 1.609375 -5.03125 L 0.640625 -3.65625 L 0.640625 0.03125 L 1.75 0.03125 L 1.75 0.359375 L 0.3125 0.359375 L 0.3125 -3.765625 L 1.484375 -5.359375 L 2.390625 -5.359375 L 2.390625 -5.03125 Z M 1.609375 -5.03125 "/></g></g></g><g fill="#000000" fill-opacity="1"><g transform="translate(134.802308, 50.743591)"><g><path d="M 2.15625 0.96875 L 1.640625 0.96875 L 1.640625 1.296875 L 2.15625 1.296875 Z M 1.359375 1.578125 L 1.359375 0.6875 L 2.4375 0.6875 L 2.4375 1.578125 Z M 3.21875 -5.03125 L 0.703125 -5.03125 L 0.703125 -3.984375 L 2.203125 -3.984375 L 2.203125 -2.0625 L 0.625 -2.0625 L 0.625 -0.3125 L 3.21875 -0.3125 Z M 3.546875 -5.03125 L 3.546875 -0.03125 L 0.296875 -0.03125 L 0.296875 -2.390625 L 1.890625 -2.390625 L 1.890625 -3.65625 L 0.375 -3.65625 L 0.375 -5.03125 L -0.203125 -5.03125 L -0.203125 -5.359375 L 4.234375 -5.359375 L 4.234375 -5.03125 Z M 3.546875 -5.03125 "/></g></g></g><g fill="#000000" fill-opacity="1"><g transform="translate(132.856207, 61.726085)"><g><path d="M 0.90625 -6.078125 L 0.90625 -5.359375 L 1.734375 -5.359375 L 1.734375 -5.03125 L 0.90625 -5.03125 L 0.90625 -0.03125 L 0.578125 -0.03125 L 0.578125 -5.03125 L -0.140625 -5.03125 L -0.140625 -5.359375 L 0.578125 -5.359375 L 0.578125 -6.40625 L 4.546875 -6.40625 L 4.546875 -6.078125 Z M 0.90625 -6.078125 "/></g></g></g><g fill="#000000" fill-opacity="1"><g transform="translate(134.460958, 61.726085)"><g><path d="M 1.96875 0.625 L 1.453125 0.625 L 1.453125 0.953125 L 1.96875 0.953125 Z M 3.171875 -3.5 L 0.6875 -3.5 L 0.6875 -0.359375 L 3.171875 -0.359375 Z M 1.171875 1.234375 L 1.171875 0.34375 L 2.25 0.34375 L 2.25 1.234375 Z M 3.5 -5.03125 L 3.5 -0.03125 L 0.359375 -0.03125 L 0.359375 -3.8125 L 3.171875 -3.8125 L 3.171875 -5.03125 L -0.234375 -5.03125 L -0.234375 -5.359375 L 4.34375 -5.359375 L 4.34375 -5.03125 Z M 3.5 -5.03125 "/></g></g></g><g fill="#000000" fill-opacity="1"><g transform="translate(9.194087, 66.091052)"><g><path d="M 0.25 0 L 0.25 -1.46875 L 1.578125 -1.46875 L 1.578125 -1.984375 L 0.046875 -2.515625 L 0.140625 -2.796875 L 1.875 -2.203125 L 1.875 -1.171875 L 0.546875 -1.171875 L 0.546875 -0.296875 L 1.96875 -0.296875 L 1.96875 0 Z M 0.25 0 "/></g></g></g><g fill="#000000" fill-opacity="1"><g transform="translate(14.548082, 66.091052)"><g><path d="M 0.234375 0 L 0.234375 -2.703125 L 1.921875 -2.703125 L 1.921875 0 Z M 1.609375 -2.40625 L 0.53125 -2.40625 L 0.53125 -0.28125 L 1.609375 -0.28125 Z M 1.609375 -2.40625 "/></g></g></g><g fill="#000000" fill-opacity="1"><g transform="translate(20.026867, 66.091052)"><g><path d="M 0.25 0 L 0.25 -1.46875 L 1.578125 -1.46875 L 1.578125 -1.984375 L 0.046875 -2.515625 L 0.140625 -2.796875 L 1.875 -2.203125 L 1.875 -1.171875 L 0.546875 -1.171875 L 0.546875 -0.296875 L 1.96875 -0.296875 L 1.96875 0 Z M 0.25 0 "/></g></g></g><g fill="#000000" fill-opacity="1"><g transform="translate(25.380862, 66.091052)"><g><path d="M 0.109375 0 L 0.109375 -1.296875 L 1.203125 -1.296875 L 1.203125 -0.984375 L 0.421875 -0.984375 L 0.421875 -0.296875 L 1.453125 -0.296875 L 1.453125 -1.796875 L -0.140625 -2.5 L -0.046875 -2.796875 L 1.75 -1.984375 L 1.75 0 Z M 0.109375 0 "/></g></g></g></svg>