<svg xmlns="http://www.w3.org/2000/svg" xmlns:xlink="http://www.w3.org/1999/xlink" width="200" zoomAndPan="magnify" viewBox="0 0 150 74.999997" height="100" preserveAspectRatio="xMidYMid meet" version="1.0"><defs><g/><clipPath id="4c178609ca"><path d="M 38.597656 17.34375 L 111.347656 17.34375 L 111.347656 57.84375 L 38.597656 57.84375 Z M 38.597656 17.34375 " clip-rule="nonzero"/></clipPath></defs><rect x="-15" width="180" fill="#ffffff" y="-7.5" height="89.999996" fill-opacity="1"/><rect x="-15" width="180" fill="#ffffff" y="-7.5" height="89.999996" fill-opacity="1"/><rect x="-15" width="180" fill="#c9e265" y="-7.5" height="89.999996" fill-opacity="1"/><g fill="#000000" fill-opacity="1"><g transform="translate(127.366546, 17.796109)"><g><path d="M 3.203125 -3.59375 L 0.6875 -3.59375 L 0.6875 -0.375 L 3.203125 -0.375 Z M 3.53125 -5.03125 L 3.53125 -3.90625 L 5.625 -3.90625 L 5.625 -2.109375 L 4.359375 -2.109375 L 4.359375 -2.4375 L 5.296875 -2.4375 L 5.296875 -3.59375 L 3.53125 -3.59375 L 3.53125 -0.046875 L 0.359375 -0.046875 L 0.359375 -3.90625 L 3.203125 -3.90625 L 3.203125 -5.03125 L -0.21875 -5.03125 L -0.21875 -5.359375 L 6.265625 -5.359375 L 6.265625 -5.03125 Z M 3.53125 -5.03125 "/></g></g></g><g fill="#000000" fill-opacity="1"><g transform="translate(133.421176, 17.796109)"><g><path d="M 0.984375 -5.03125 L 0.984375 -0.03125 L 0.671875 -0.03125 L 0.671875 -5.03125 L -0.296875 -5.03125 L -0.296875 -5.359375 L 1.859375 -5.359375 L 1.859375 -5.03125 Z M 0.984375 -5.03125 "/></g></g></g><g fill="#000000" fill-opacity="1"><g transform="translate(129.183503, 28.778603)"><g><path d="M 1.96875 0.625 L 1.453125 0.625 L 1.453125 0.953125 L 1.96875 0.953125 Z M 3.171875 -3.5 L 0.6875 -3.5 L 0.6875 -0.359375 L 3.171875 -0.359375 Z M 1.171875 1.234375 L 1.171875 0.34375 L 2.25 0.34375 L 2.25 1.234375 Z M 3.5 -5.03125 L 3.5 -0.03125 L 0.359375 -0.03125 L 0.359375 -3.8125 L 3.171875 -3.8125 L 3.171875 -5.03125 L -0.234375 -5.03125 L -0.234375 -5.359375 L 4.34375 -5.359375 L 4.34375 -5.03125 Z M 3.5 -5.03125 "/></g></g></g><g fill="#000000" fill-opacity="1"><g transform="translate(128.295213, 39.761097)"><g><path d="M 0.640625 -4.625 L 0.640625 -0.359375 L 3.515625 -0.359375 L 3.515625 -2.953125 L 2.359375 -2.953125 L 2.359375 -5.03125 L -0.21875 -5.03125 L -0.21875 -5.359375 L 4.328125 -5.359375 L 4.328125 -5.03125 L 2.734375 -5.03125 L 2.734375 -3.28125 L 3.84375 -3.28125 L 3.84375 -0.03125 L 0.3125 -0.03125 L 0.3125 -4.625 Z M 0.640625 -4.625 "/></g></g></g><g fill="#000000" fill-opacity="1"><g transform="translate(132.481508, 39.761097)"><g><path d="M 0.984375 -5.03125 L 0.984375 -0.03125 L 0.671875 -0.03125 L 0.671875 -5.03125 L -0.296875 -5.03125 L -0.296875 -5.359375 L 1.859375 -5.359375 L 1.859375 -5.03125 Z M 0.984375 -5.03125 "/></g></g></g><g fill="#000000" fill-opacity="1"><g transform="translate(128.052952, 50.743591)"><g><path d="M 1.609375 -5.03125 L 0.640625 -3.65625 L 0.640625 0.03125 L 1.75 0.03125 L 1.75 0.359375 L 0.3125 0.359375 L 0.3125 -3.765625 L 1.484375 -5.359375 L 2.390625 -5.359375 L 2.390625 -5.03125 Z M 1.609375 -5.03125 "/></g></g></g><g fill="#000000" fill-opacity="1"><g transform="translate(130.332162, 50.743591)"><g><path d="M 2.15625 0.96875 L 1.640625 0.96875 L 1.640625 1.296875 L 2.15625 1.296875 Z M 1.359375 1.578125 L 1.359375 0.6875 L 2.4375 0.6875 L 2.4375 1.578125 Z M 3.21875 -5.03125 L 0.703125 -5.03125 L 0.703125 -3.984375 L 2.203125 -3.984375 L 2.203125 -2.0625 L 0.625 -2.0625 L 0.625 -0.3125 L 3.21875 -0.3125 Z M 3.546875 -5.03125 L 3.546875 -0.03125 L 0.296875 -0.03125 L 0.296875 -2.390625 L 1.890625 -2.390625 L 1.890625 -3.65625 L 0.375 -3.65625 L 0.375 -5.03125 L -0.203125 -5.03125 L -0.203125 -5.359375 L 4.234375 -5.359375 L 4.234375 -5.03125 Z M 3.546875 -5.03125 "/></g></g></g><g fill="#000000" fill-opacity="1"><g transform="translate(128.386061, 61.726085)"><g><path d="M 0.90625 -6.078125 L 0.90625 -5.359375 L 1.734375 -5.359375 L 1.734375 -5.03125 L 0.90625 -5.03125 L 0.90625 -0.03125 L 0.578125 -0.03125 L 0.578125 -5.03125 L -0.140625 -5.03125 L -0.140625 -5.359375 L 0.578125 -5.359375 L 0.578125 -6.40625 L 4.546875 -6.40625 L 4.546875 -6.078125 Z M 0.90625 -6.078125 "/></g></g></g><g fill="#000000" fill-opacity="1"><g transform="translate(129.990812, 61.726085)"><g><path d="M 1.96875 0.625 L 1.453125 0.625 L 1.453125 0.953125 L 1.96875 0.953125 Z M 3.171875 -3.5 L 0.6875 -3.5 L 0.6875 -0.359375 L 3.171875 -0.359375 Z M 1.171875 1.234375 L 1.171875 0.34375 L 2.25 0.34375 L 2.25 1.234375 Z M 3.5 -5.03125 L 3.5 -0.03125 L 0.359375 -0.03125 L 0.359375 -3.8125 L 3.171875 -3.8125 L 3.171875 -5.03125 L -0.234375 -5.03125 L -0.234375 -5.359375 L 4.34375 -5.359375 L 4.34375 -5.03125 Z M 3.5 -5.03125 "/></g></g></g><g fill="#000000" fill-opacity="1"><g transform="translate(8.883946, 66.348988)"><g><path d="M 0.203125 0 L 0.203125 -1.1875 L 1.28125 -1.1875 L 1.28125 -1.625 L 0.03125 -2.046875 L 0.109375 -2.28125 L 1.53125 -1.796875 L 1.53125 -0.953125 L 0.453125 -0.953125 L 0.453125 -0.25 L 1.59375 -0.25 L 1.59375 0 Z M 0.203125 0 "/></g></g></g><g fill="#000000" fill-opacity="1"><g transform="translate(13.257765, 66.348988)"><g><path d="M 0.1875 0 L 0.1875 -2.203125 L 1.5625 -2.203125 L 1.5625 0 Z M 1.3125 -1.953125 L 0.4375 -1.953125 L 0.4375 -0.21875 L 1.3125 -0.21875 Z M 1.3125 -1.953125 "/></g></g></g><g fill="#000000" fill-opacity="1"><g transform="translate(17.733529, 66.348988)"><g><path d="M 0.203125 0 L 0.203125 -1.1875 L 1.28125 -1.1875 L 1.28125 -1.625 L 0.03125 -2.046875 L 0.109375 -2.28125 L 1.53125 -1.796875 L 1.53125 -0.953125 L 0.453125 -0.953125 L 0.453125 -0.25 L 1.59375 -0.25 L 1.59375 0 Z M 0.203125 0 "/></g></g></g><g fill="#000000" fill-opacity="1"><g transform="translate(22.107349, 66.348988)"><g><path d="M 0.09375 0 L 0.09375 -1.046875 L 0.96875 -1.046875 L 0.96875 -0.796875 L 0.34375 -0.796875 L 0.34375 -0.25 L 1.171875 -0.25 L 1.171875 -1.453125 L -0.109375 -2.03125 L -0.03125 -2.28125 L 1.421875 -1.625 L 1.421875 0 Z M 0.09375 0 "/></g></g></g><g clip-path="url(#4c178609ca)"><path fill="#000000" d="M 70.980469 17.503906 C 69.863281 17.621094 68.84375 18.140625 68.105469 18.972656 C 67.597656 19.542969 67.523438 19.578125 66.542969 19.75 C 65.164062 19.988281 64.578125 20.667969 63.992188 22.714844 C 63.171875 25.574219 63.515625 27.675781 64.984375 28.785156 C 65.078125 28.855469 65.164062 28.917969 65.171875 28.925781 C 65.195312 28.945312 65 29.671875 64.855469 30.101562 C 64.8125 30.222656 64.726562 30.460938 64.664062 30.625 L 64.546875 30.925781 L 64.40625 30.941406 C 62.273438 31.171875 59.90625 34.375 58.109375 39.457031 C 57.179688 42.101562 56.980469 43.71875 57.398438 45.273438 C 57.445312 45.445312 57.558594 45.765625 57.578125 45.777344 C 57.652344 45.820312 57.707031 45.835938 57.75 45.824219 C 57.863281 45.792969 57.859375 45.804688 57.875 45.261719 C 57.925781 43.367188 58.546875 41.453125 59.722656 39.554688 C 60.316406 38.597656 60.578125 38.257812 61.363281 37.410156 C 62.257812 36.445312 62.636719 35.863281 63.519531 34.085938 C 63.910156 33.304688 63.9375 33.246094 64.417969 32.082031 C 64.609375 31.621094 64.769531 31.238281 64.769531 31.238281 C 64.785156 31.230469 65.167969 31.277344 65.292969 31.304688 C 65.445312 31.339844 65.671875 31.429688 65.777344 31.496094 L 65.824219 31.527344 L 65.761719 31.628906 C 65.289062 32.402344 65.449219 33.296875 66.277344 34.53125 C 67.238281 35.957031 67.238281 35.960938 67.265625 37.496094 C 67.292969 39.125 67.398438 39.425781 68.253906 40.269531 C 68.769531 40.777344 69.285156 41.15625 70.050781 41.59375 C 70.238281 41.699219 70.417969 41.808594 70.445312 41.835938 C 70.542969 41.925781 70.75 42.039062 70.925781 42.09375 C 71.128906 42.160156 71.125 42.148438 71.058594 42.402344 C 70.910156 42.992188 70.382812 43.933594 69.558594 45.074219 C 68.625 46.371094 68.515625 46.429688 67.898438 45.964844 C 67.648438 45.78125 65.320312 43.453125 65.003906 43.074219 C 64.378906 42.324219 64.078125 41.609375 63.949219 40.535156 C 63.910156 40.203125 63.894531 40.167969 63.800781 40.148438 C 63.617188 40.117188 63.605469 40.15625 63.585938 40.773438 C 63.539062 42.488281 63.367188 42.777344 61.929688 43.53125 C 60.695312 44.179688 59.253906 45.003906 59.226562 45.082031 C 59.128906 45.335938 59.269531 45.359375 60.203125 45.257812 C 61.308594 45.136719 61.667969 45.03125 62.480469 44.578125 C 63.09375 44.234375 63.34375 44.128906 63.667969 44.082031 C 63.933594 44.042969 64.765625 44.078125 64.816406 44.132812 C 64.84375 44.15625 64.550781 45.039062 64.34375 45.566406 C 64.113281 46.152344 63.570312 47.046875 63 47.777344 C 62.855469 47.960938 62.589844 48.296875 62.410156 48.527344 C 62.066406 48.964844 62.035156 49.019531 62.058594 49.144531 C 62.074219 49.226562 62.144531 49.257812 62.261719 49.230469 C 62.394531 49.203125 63.183594 48.496094 63.988281 47.675781 C 64.941406 46.714844 65.320312 46.429688 65.75 46.34375 C 66.617188 46.167969 66.671875 47.878906 65.917969 51.578125 C 65.585938 53.195312 65.519531 53.539062 65.429688 54.039062 C 65.222656 55.210938 65.164062 55.472656 65.027344 55.875 C 64.84375 56.40625 64.46875 56.859375 64 57.117188 C 63.410156 57.4375 62.464844 57.320312 61.359375 56.789062 L 61.085938 56.65625 L 61.308594 56.566406 C 61.964844 56.300781 62.183594 56.101562 62.324219 55.648438 C 62.566406 54.867188 62.039062 52.828125 61.277344 51.589844 C 60.101562 49.683594 57.878906 49.132812 57.304688 50.605469 C 56.667969 52.238281 58.113281 55.207031 60.1875 56.523438 C 60.324219 56.609375 60.324219 56.605469 60.054688 56.671875 C 59.617188 56.777344 59.417969 56.792969 58.644531 56.800781 C 58.25 56.804688 57.808594 56.820312 57.671875 56.832031 C 57.328125 56.859375 57.199219 56.859375 57.289062 56.828125 C 57.507812 56.75 57.539062 56.558594 57.40625 56.15625 C 57.359375 56.015625 57.304688 55.816406 57.277344 55.710938 C 57.160156 55.195312 57.195312 55.203125 55.136719 55.167969 C 53.203125 55.132812 53.011719 55.121094 54.109375 55.101562 C 57.304688 55.046875 57.363281 55.027344 57.085938 54.09375 C 57.039062 53.929688 56.984375 53.722656 56.96875 53.628906 C 56.929688 53.40625 56.9375 53.410156 56.648438 53.402344 C 56.433594 53.398438 56.40625 53.390625 56.421875 53.359375 C 56.585938 52.949219 56.617188 52.617188 56.625 51.203125 C 56.628906 50.0625 56.628906 50.0625 56.496094 50.003906 C 56.457031 49.988281 56.035156 49.980469 54.96875 49.984375 L 53.492188 49.988281 L 53.894531 49.902344 C 55.082031 49.65625 55.347656 49.597656 55.523438 49.539062 C 56.144531 49.332031 56.410156 49.058594 56.410156 48.613281 C 56.410156 48.054688 56.011719 47.738281 55.148438 47.617188 L 54.957031 47.589844 L 55.179688 47.5625 C 55.726562 47.496094 55.769531 47.421875 55.667969 46.707031 C 55.632812 46.464844 55.617188 46.21875 55.605469 45.789062 C 55.589844 45.113281 55.585938 45.089844 55.410156 45.007812 C 55.082031 44.847656 53.582031 44.871094 52.050781 45.054688 C 50.257812 45.269531 49.46875 45.332031 48.203125 45.355469 C 46.804688 45.378906 45.523438 45.292969 44.140625 45.082031 C 43.570312 44.996094 43.5 45.007812 43.480469 45.175781 C 43.472656 45.25 43.484375 45.289062 43.535156 45.382812 C 43.917969 46.058594 43.964844 46.464844 43.734375 47.085938 C 43.632812 47.363281 43.710938 47.441406 44.09375 47.4375 C 45.980469 47.417969 46.226562 47.425781 46.941406 47.53125 C 47.289062 47.582031 48.246094 47.765625 48.265625 47.785156 C 48.269531 47.789062 48.078125 47.792969 47.839844 47.792969 C 47.601562 47.792969 47.136719 47.804688 46.804688 47.816406 C 46.472656 47.828125 45.839844 47.84375 45.398438 47.855469 C 44.25 47.886719 44.25 47.886719 44.535156 48.449219 C 44.761719 48.894531 44.78125 49.234375 44.605469 49.617188 C 44.441406 49.972656 44.542969 50.039062 45.253906 50.058594 C 45.828125 50.074219 47.984375 50.214844 47.964844 50.238281 C 47.960938 50.238281 47.757812 50.261719 47.511719 50.285156 C 47.269531 50.3125 46.878906 50.355469 46.644531 50.382812 C 46.121094 50.449219 45.792969 50.476562 45.332031 50.496094 C 44.90625 50.519531 44.933594 50.496094 44.914062 50.828125 C 44.863281 51.710938 44.640625 52.128906 43.839844 52.855469 C 43.441406 53.21875 43.414062 53.257812 43.441406 53.40625 C 43.460938 53.515625 43.5 53.519531 44.171875 53.542969 C 45.632812 53.585938 46.21875 53.5625 47.480469 53.410156 C 48.679688 53.265625 48.976562 53.25 50.703125 53.25 C 53.199219 53.25 54.003906 53.308594 55.410156 53.578125 C 55.566406 53.609375 55.699219 53.640625 55.707031 53.648438 C 55.714844 53.65625 55.507812 53.652344 55.253906 53.640625 C 54.660156 53.617188 54.007812 53.621094 53.484375 53.652344 C 52.878906 53.6875 51.554688 53.734375 50.472656 53.761719 C 49.136719 53.792969 48.394531 53.820312 47.652344 53.867188 C 45.109375 54.027344 44.644531 53.992188 43.515625 53.554688 C 43.023438 53.359375 42.617188 53.289062 42.269531 53.332031 C 41.820312 53.386719 41.738281 53.5625 41.832031 54.253906 C 41.851562 54.386719 41.871094 54.675781 41.878906 54.894531 C 41.894531 55.339844 41.894531 55.339844 42.039062 55.355469 C 42.125 55.363281 42.15625 55.355469 42.296875 55.277344 C 42.382812 55.230469 42.460938 55.191406 42.472656 55.191406 C 42.484375 55.191406 42.5 55.308594 42.507812 55.453125 C 42.523438 55.765625 42.558594 55.972656 42.636719 56.222656 C 42.707031 56.453125 42.726562 56.4375 42.339844 56.429688 C 41.550781 56.414062 41.207031 56.613281 41.363281 56.992188 L 41.394531 57.066406 L 41.328125 57.054688 C 41.171875 57.03125 40.335938 56.9375 39.917969 56.894531 C 39.671875 56.871094 39.285156 56.832031 39.0625 56.808594 C 38.835938 56.785156 38.640625 56.769531 38.625 56.769531 C 38.605469 56.769531 38.597656 56.8125 38.597656 56.925781 C 38.597656 57.019531 38.605469 57.085938 38.617188 57.085938 C 38.699219 57.085938 40.46875 57.269531 40.898438 57.324219 C 41.402344 57.386719 41.769531 57.398438 41.8125 57.355469 C 41.867188 57.304688 41.828125 57.097656 41.746094 56.984375 L 41.664062 56.867188 L 41.710938 56.832031 C 41.789062 56.769531 41.949219 56.746094 42.347656 56.746094 C 43.011719 56.746094 43.105469 56.648438 42.945312 56.128906 C 42.863281 55.863281 42.839844 55.730469 42.808594 55.296875 C 42.773438 54.828125 42.699219 54.765625 42.339844 54.890625 C 42.273438 54.914062 42.214844 54.933594 42.210938 54.929688 C 42.210938 54.925781 42.195312 54.785156 42.183594 54.613281 C 42.167969 54.445312 42.144531 54.1875 42.125 54.042969 C 42.085938 53.738281 42.097656 53.695312 42.238281 53.65625 C 42.503906 53.582031 42.941406 53.667969 43.546875 53.910156 C 44.523438 54.304688 45.15625 54.34375 47.726562 54.179688 C 48.4375 54.132812 49.070312 54.105469 50.132812 54.082031 C 51.488281 54.050781 52.847656 54 53.558594 53.960938 C 54.039062 53.933594 54.292969 53.929688 54.746094 53.945312 C 55.835938 53.980469 55.976562 53.964844 56.164062 53.789062 L 56.25 53.707031 L 56.453125 53.714844 L 56.660156 53.722656 L 56.6875 53.832031 C 56.699219 53.894531 56.75 54.074219 56.792969 54.238281 C 56.894531 54.597656 56.894531 54.585938 56.785156 54.636719 C 56.4375 54.789062 53.589844 54.828125 51.308594 54.710938 C 49.710938 54.625 48.347656 54.65625 47.003906 54.808594 C 46.46875 54.867188 46.429688 54.886719 46.472656 55.082031 C 46.492188 55.167969 46.488281 55.167969 47.363281 55.15625 C 48.382812 55.136719 49.460938 55.183594 51.371094 55.316406 C 52.847656 55.421875 53.835938 55.464844 55.148438 55.480469 C 56.949219 55.5 56.90625 55.492188 56.992188 55.871094 C 57.011719 55.960938 57.058594 56.132812 57.097656 56.253906 C 57.140625 56.375 57.171875 56.484375 57.171875 56.496094 C 57.171875 56.585938 56.632812 56.632812 55.0625 56.683594 C 53.945312 56.71875 52.679688 56.675781 49.792969 56.5 C 47.195312 56.34375 45.816406 56.390625 44.320312 56.683594 C 43.875 56.773438 42.308594 57.164062 42.246094 57.203125 C 42.171875 57.25 42.203125 57.457031 42.289062 57.492188 C 42.359375 57.523438 44.570312 57.507812 45.859375 57.46875 C 46.589844 57.449219 48.085938 57.421875 50.578125 57.386719 C 53.214844 57.347656 55.925781 57.253906 57.183594 57.160156 C 57.457031 57.136719 57.945312 57.121094 58.457031 57.121094 C 59.527344 57.113281 59.921875 57.070312 60.433594 56.898438 L 60.675781 56.816406 L 60.910156 56.941406 C 62.34375 57.683594 63.625 57.808594 64.394531 57.277344 C 65.117188 56.78125 65.382812 56.183594 65.707031 54.304688 C 65.792969 53.804688 65.945312 53.023438 66.210938 51.738281 C 66.296875 51.320312 66.441406 50.519531 66.542969 49.886719 C 66.933594 47.484375 66.800781 46.25 66.125 46.054688 C 65.554688 45.886719 64.871094 46.257812 63.894531 47.273438 L 63.53125 47.65625 L 63.773438 47.292969 C 64.371094 46.386719 64.558594 46.003906 64.933594 44.878906 C 65.273438 43.867188 65.25 43.816406 64.425781 43.761719 C 63.527344 43.703125 63.214844 43.785156 62.230469 44.328125 C 61.699219 44.621094 61.273438 44.789062 60.910156 44.851562 C 60.734375 44.878906 60.089844 44.957031 60.082031 44.949219 C 60.0625 44.929688 61.53125 44.117188 62.292969 43.722656 C 63.367188 43.164062 63.652344 42.828125 63.808594 41.917969 C 63.835938 41.757812 63.851562 41.699219 63.863281 41.730469 C 64.226562 42.726562 64.472656 43.070312 65.632812 44.234375 C 66.046875 44.648438 66.597656 45.207031 66.851562 45.46875 C 68.140625 46.792969 68.597656 46.878906 69.351562 45.933594 C 70.347656 44.683594 71.175781 43.265625 71.367188 42.476562 C 71.402344 42.347656 71.429688 42.238281 71.429688 42.234375 C 71.433594 42.234375 71.535156 42.253906 71.65625 42.28125 C 72.945312 42.574219 74.53125 42.457031 75.949219 41.960938 C 76.101562 41.90625 76.429688 41.792969 76.683594 41.707031 C 76.933594 41.621094 77.363281 41.46875 77.636719 41.367188 C 78.277344 41.136719 78.839844 40.949219 78.90625 40.949219 C 79.144531 40.949219 79.808594 41.425781 80.175781 41.855469 C 80.277344 41.972656 80.488281 42.207031 80.644531 42.375 C 81.644531 43.449219 81.746094 43.574219 82.304688 44.472656 C 82.9375 45.492188 82.953125 45.539062 82.757812 45.917969 C 82.136719 47.128906 80.769531 48.730469 79.835938 49.335938 L 79.652344 49.453125 L 79.464844 49.171875 C 78.996094 48.476562 78.878906 48.226562 78.621094 47.324219 C 78.1875 45.820312 77.933594 45.472656 77.21875 45.394531 C 76.726562 45.34375 75.84375 45.726562 74.378906 46.632812 C 72.898438 47.546875 72.171875 48.164062 71.058594 49.445312 C 70.773438 49.773438 70.371094 50.222656 70.160156 50.441406 C 68.789062 51.886719 68.738281 51.957031 67.957031 53.621094 C 67.042969 55.5625 66.472656 56.332031 65.519531 56.910156 C 65.203125 57.101562 65.136719 57.265625 65.335938 57.371094 C 65.566406 57.492188 66.910156 57.253906 67.675781 56.953125 C 68.90625 56.46875 69.730469 55.6875 70.992188 53.824219 C 71.460938 53.132812 72.0625 52.449219 72.542969 52.078125 C 72.753906 51.910156 72.765625 51.90625 72.75 51.984375 C 72.652344 52.429688 72.683594 52.863281 72.832031 53.152344 L 72.90625 53.300781 L 72.835938 53.355469 C 71.847656 54.101562 71.386719 55.730469 72 56.3125 C 72.363281 56.660156 72.953125 56.785156 74.476562 56.839844 C 74.65625 56.847656 75.136719 56.867188 75.546875 56.882812 C 77.492188 56.964844 78.308594 56.929688 79.484375 56.714844 C 81.621094 56.324219 82.671875 55.257812 81.792969 54.378906 C 81.460938 54.046875 81.109375 53.921875 80.140625 53.785156 C 79.816406 53.738281 79.324219 53.664062 79.042969 53.625 C 77.65625 53.417969 76.949219 53.363281 76.734375 53.441406 C 76.421875 53.5625 76.222656 53.949219 75.898438 55.050781 C 75.863281 55.167969 75.832031 55.25 75.824219 55.234375 C 75.820312 55.214844 75.785156 55.015625 75.746094 54.789062 C 75.523438 53.402344 75.167969 53.035156 74.152344 53.121094 C 74 53.136719 73.871094 53.140625 73.867188 53.136719 C 73.855469 53.125 74.390625 52.882812 74.785156 52.726562 C 75.664062 52.371094 75.945312 52.359375 77.304688 52.621094 C 78.984375 52.945312 79.304688 53.015625 79.828125 53.164062 C 80.648438 53.398438 80.753906 53.28125 80.476562 52.460938 C 80.238281 51.746094 79.816406 51.207031 79.054688 50.652344 C 78.667969 50.371094 78.6875 50.398438 78.828125 50.324219 C 78.886719 50.292969 79.082031 50.183594 79.253906 50.085938 L 79.570312 49.90625 L 79.625 49.972656 C 79.902344 50.308594 80.382812 50.777344 80.976562 51.292969 C 81.664062 51.886719 81.867188 52.019531 82.945312 52.585938 C 83.726562 52.992188 84.085938 53.21875 84.421875 53.519531 C 84.964844 54.003906 84.988281 54.277344 84.558594 55.148438 C 84.390625 55.480469 84.335938 55.640625 84.320312 55.839844 C 84.285156 56.257812 84.535156 56.75 84.875 56.925781 L 85.003906 56.992188 L 85.628906 56.996094 C 87.101562 57.015625 111.105469 56.867188 111.226562 56.839844 C 111.351562 56.8125 111.324219 56.589844 111.195312 56.5625 C 111.152344 56.558594 105.28125 56.585938 98.140625 56.625 C 86.347656 56.695312 85.152344 56.699219 85.074219 56.667969 C 84.847656 56.578125 84.640625 56.230469 84.640625 55.9375 L 84.640625 55.734375 L 84.835938 55.328125 C 85.226562 54.519531 85.269531 54.03125 84.992188 53.621094 C 84.738281 53.246094 84.183594 52.851562 83.183594 52.332031 C 82.550781 52 82.242188 51.828125 82.007812 51.671875 C 81.542969 51.355469 80.5 50.433594 80.074219 49.957031 L 79.863281 49.726562 L 80.113281 49.5625 C 81.316406 48.769531 83.191406 46.339844 83.191406 45.578125 C 83.191406 45.300781 83.097656 45.101562 82.558594 44.238281 C 82.007812 43.351562 81.910156 43.222656 81.292969 42.5625 C 80.769531 42 80.648438 41.871094 80.4375 41.621094 C 80.152344 41.285156 79.921875 41.089844 79.578125 40.890625 C 79.488281 40.839844 79.417969 40.792969 79.421875 40.789062 C 79.476562 40.742188 81.414062 40.324219 82.265625 40.171875 C 82.542969 40.125 83.75 39.949219 84.769531 39.808594 C 85.882812 39.652344 86.5 39.777344 87.019531 40.253906 C 87.140625 40.363281 87.347656 40.636719 87.347656 40.683594 C 87.347656 40.714844 86.976562 41.246094 86.613281 41.738281 C 86.460938 41.945312 86.253906 42.226562 86.15625 42.367188 C 85.945312 42.667969 85.960938 42.664062 85.566406 42.632812 C 84.328125 42.539062 83.691406 42.605469 83.167969 42.882812 C 82.515625 43.226562 82.546875 44.066406 83.226562 44.335938 C 84.066406 44.675781 85.25 44.167969 86.03125 43.136719 L 86.179688 42.941406 L 86.324219 42.914062 C 87.21875 42.75 87.773438 42.027344 87.742188 41.058594 L 87.734375 40.746094 L 87.988281 40.375 C 88.296875 39.921875 88.386719 39.8125 88.867188 39.28125 C 89.390625 38.703125 89.703125 38.335938 90.21875 37.6875 C 91.171875 36.488281 91.4375 36.183594 92.492188 35.054688 C 93.453125 34.027344 93.515625 33.945312 93.515625 33.691406 C 93.515625 33.480469 93.410156 33.363281 93.117188 33.246094 C 92.699219 33.074219 92.570312 33.140625 91.988281 33.839844 C 91.792969 34.074219 91.394531 34.53125 91.097656 34.855469 C 90.351562 35.675781 90.054688 36.03125 89.691406 36.570312 C 89.535156 36.796875 89.472656 36.875 89.546875 36.75 C 90.691406 34.789062 91.136719 34.257812 92.789062 32.882812 C 93.089844 32.636719 93.132812 32.574219 93.101562 32.441406 C 93.078125 32.335938 92.992188 32.3125 92.714844 32.339844 C 92.394531 32.375 92.117188 32.351562 91.269531 32.21875 C 90.152344 32.046875 89.320312 32.265625 88.476562 32.953125 L 88.34375 33.0625 L 88.34375 32.769531 C 88.339844 31.886719 87.988281 31.53125 86.960938 31.378906 C 86.179688 31.261719 85.152344 31.320312 84.703125 31.503906 C 84.394531 31.628906 84.292969 31.726562 83.839844 32.347656 C 83.074219 33.402344 82.683594 34.058594 82.269531 35.015625 C 81.449219 36.886719 81.261719 37.234375 80.507812 38.296875 C 80.042969 38.949219 80.027344 39.0625 80.371094 39.128906 C 80.664062 39.1875 79.828125 39.246094 79.46875 39.191406 C 79.109375 39.136719 78.953125 39.03125 78.785156 38.726562 C 78.738281 38.644531 78.644531 38.472656 78.578125 38.351562 C 78.371094 37.972656 77.992188 37.632812 77.496094 37.386719 C 76.332031 36.800781 75.308594 37.101562 73.253906 38.636719 C 71.859375 39.679688 71.542969 40.265625 71.929688 41.089844 C 72.25 41.78125 72.933594 41.921875 74.113281 41.539062 C 74.800781 41.3125 76.242188 40.964844 76.84375 40.875 C 77.429688 40.792969 78.183594 40.746094 78.214844 40.796875 C 78.222656 40.808594 78.167969 40.835938 78.09375 40.859375 C 78.023438 40.882812 77.726562 40.992188 77.433594 41.097656 C 76.488281 41.441406 75.46875 41.78125 75.175781 41.855469 C 73.886719 42.179688 72.789062 42.210938 71.695312 41.960938 L 71.449219 41.902344 L 71.4375 41.699219 C 71.410156 41.1875 71.191406 40.796875 70.523438 40.035156 C 69.925781 39.355469 69.753906 39.0625 69.628906 38.503906 C 69.570312 38.242188 69.53125 37.769531 69.550781 37.59375 L 69.566406 37.46875 L 69.734375 37.832031 C 70.097656 38.628906 70.445312 38.921875 70.800781 38.734375 C 71.214844 38.523438 71.066406 37.226562 70.496094 36.105469 C 70.230469 35.585938 69.449219 34.460938 68.957031 33.894531 L 68.890625 33.824219 L 68.960938 33.800781 C 69.042969 33.769531 69.039062 33.78125 69.195312 33.378906 C 69.578125 32.414062 69.8125 32.117188 70.109375 32.230469 C 70.644531 32.433594 71.355469 33.097656 72.054688 34.054688 C 72.34375 34.449219 72.484375 34.535156 72.863281 34.535156 C 73.476562 34.535156 73.78125 34.292969 74.292969 33.394531 C 74.953125 32.242188 75.527344 31.789062 76.34375 31.777344 C 76.726562 31.773438 76.765625 31.683594 76.5625 31.285156 C 76.144531 30.464844 76.164062 30.226562 76.707031 29.386719 C 77.214844 28.605469 77.417969 27.984375 77.460938 27.089844 L 77.476562 26.796875 L 77.59375 26.894531 C 77.921875 27.171875 78.316406 27.234375 78.457031 27.03125 C 78.515625 26.945312 78.519531 26.789062 78.472656 26.464844 C 78.359375 25.695312 78.425781 25.542969 79.164062 24.84375 C 79.460938 24.566406 79.578125 24.277344 79.558594 23.878906 C 79.53125 23.269531 79.082031 22.914062 78.105469 22.726562 C 77.21875 22.554688 77.070312 22.425781 76.921875 21.710938 C 76.753906 20.890625 76.625 20.730469 75.777344 20.28125 C 75.210938 19.984375 75.078125 19.921875 74.730469 19.78125 C 74.027344 19.503906 73.851562 19.359375 73.273438 18.582031 C 72.558594 17.625 72.058594 17.386719 70.980469 17.503906 M 71.707031 17.824219 C 72.230469 17.894531 72.457031 18.070312 73.039062 18.847656 C 73.613281 19.617188 73.769531 19.742188 74.5625 20.066406 C 74.910156 20.210938 75.019531 20.261719 75.609375 20.570312 C 76.328125 20.949219 76.46875 21.113281 76.597656 21.722656 C 76.738281 22.386719 76.871094 22.640625 77.164062 22.785156 C 77.382812 22.894531 77.480469 22.921875 78.207031 23.078125 C 79.007812 23.246094 79.425781 23.738281 79.191406 24.238281 C 79.105469 24.414062 79.027344 24.511719 78.75 24.753906 C 78.171875 25.269531 78.027344 25.734375 78.167969 26.613281 C 78.1875 26.71875 78.191406 26.816406 78.183594 26.828125 C 78.140625 26.875 77.941406 26.742188 77.695312 26.5 L 77.449219 26.253906 L 77.433594 26.125 C 77.21875 24.210938 75.761719 22.074219 73.929688 20.976562 C 71.949219 19.789062 70.0625 19.667969 68.769531 20.644531 C 67.195312 21.832031 66.371094 23.613281 65.441406 27.820312 C 65.359375 28.1875 65.285156 28.507812 65.277344 28.53125 C 65.261719 28.5625 65.230469 28.542969 65.054688 28.394531 C 64.425781 27.867188 64.042969 27.152344 63.921875 26.273438 C 63.683594 24.550781 64.429688 21.597656 65.339844 20.660156 C 65.699219 20.292969 66.027344 20.152344 66.839844 20.019531 C 67.667969 19.878906 67.851562 19.78125 68.367188 19.199219 C 69.214844 18.238281 70.597656 17.667969 71.707031 17.824219 M 71.441406 20.355469 C 73.542969 20.726562 75.546875 22.300781 76.542969 24.355469 C 76.8125 24.917969 77.144531 25.882812 77.046875 25.832031 C 76.699219 25.652344 76.542969 25.617188 76.183594 25.628906 C 75.355469 25.660156 74.894531 26.085938 74.558594 27.121094 C 74.257812 28.058594 73.730469 28.550781 72.976562 28.601562 C 72.507812 28.632812 72.234375 28.414062 71.886719 27.722656 C 71.605469 27.160156 71.414062 26.953125 71.007812 26.753906 C 69.871094 26.195312 68.621094 27.007812 68.613281 28.308594 C 68.613281 28.816406 68.757812 29.15625 69.226562 29.726562 C 69.300781 29.820312 69.363281 29.90625 69.363281 29.914062 C 69.363281 30.003906 68.917969 30.117188 68.195312 30.207031 L 67.820312 30.253906 L 67.667969 30.117188 C 67.371094 29.851562 67.039062 29.621094 66.59375 29.378906 C 65.921875 29.007812 65.546875 28.777344 65.558594 28.738281 C 65.5625 28.71875 65.601562 28.550781 65.644531 28.363281 C 66.390625 25.011719 66.859375 23.589844 67.582031 22.484375 C 68.710938 20.753906 69.925781 20.085938 71.441406 20.355469 M 76.425781 25.945312 C 76.632812 25.976562 76.804688 26.070312 76.988281 26.25 L 77.140625 26.40625 L 77.160156 26.574219 C 77.238281 27.402344 76.980469 28.339844 76.449219 29.164062 C 75.875 30.050781 75.820312 30.449219 76.171875 31.234375 L 76.273438 31.464844 L 76.179688 31.464844 C 75.75 31.464844 75.140625 31.753906 74.753906 32.144531 C 74.488281 32.414062 74.386719 32.566406 73.902344 33.394531 C 73.355469 34.324219 72.800781 34.492188 72.339844 33.863281 C 71.742188 33.042969 71.390625 32.667969 70.855469 32.285156 C 69.9375 31.625 69.511719 31.757812 69.0625 32.847656 L 68.972656 33.066406 L 68.925781 32.78125 C 68.773438 31.902344 68.542969 31.253906 68.191406 30.722656 C 68.058594 30.519531 68.027344 30.546875 68.441406 30.496094 C 69.753906 30.335938 69.972656 30.09375 69.417969 29.40625 C 68.964844 28.851562 68.835938 28.453125 68.960938 28.003906 C 69.199219 27.125 70.074219 26.648438 70.789062 27.011719 C 71.183594 27.210938 71.347656 27.394531 71.640625 27.980469 C 72.027344 28.742188 72.421875 28.992188 73.105469 28.910156 C 73.972656 28.808594 74.535156 28.28125 74.84375 27.277344 C 75.117188 26.398438 75.570312 25.957031 76.234375 25.925781 C 76.265625 25.921875 76.351562 25.933594 76.425781 25.945312 M 65.738281 29.285156 C 65.839844 29.34375 66.070312 29.476562 66.257812 29.578125 C 66.808594 29.878906 66.917969 29.953125 67.242188 30.214844 C 67.414062 30.355469 67.417969 30.347656 67.203125 30.429688 C 66.828125 30.570312 66.523438 30.765625 66.226562 31.050781 L 66.023438 31.246094 L 65.886719 31.175781 C 65.664062 31.066406 65.441406 31 65.160156 30.960938 L 64.894531 30.921875 L 64.9375 30.816406 C 65.097656 30.414062 65.386719 29.503906 65.453125 29.1875 C 65.464844 29.121094 65.46875 29.121094 65.511719 29.148438 C 65.539062 29.164062 65.640625 29.226562 65.738281 29.285156 M 67.699219 30.640625 C 68.246094 31.308594 68.542969 32.117188 68.6875 33.347656 C 68.71875 33.609375 68.71875 33.609375 68.546875 33.410156 C 67.84375 32.59375 67.078125 31.894531 66.539062 31.558594 L 66.332031 31.433594 L 66.484375 31.28125 C 66.753906 31.019531 67.132812 30.789062 67.472656 30.675781 C 67.695312 30.601562 67.667969 30.605469 67.699219 30.640625 M 64.371094 31.351562 C 64.351562 31.398438 64.214844 31.71875 64.070312 32.070312 C 63.085938 34.445312 62.199219 35.996094 61.238281 37.027344 C 60.375 37.957031 60.132812 38.265625 59.613281 39.085938 C 58.496094 40.851562 57.839844 42.585938 57.621094 44.351562 L 57.582031 44.648438 L 57.542969 44.359375 C 57.394531 43.3125 57.617188 41.921875 58.234375 40.085938 C 59.863281 35.253906 62.164062 31.839844 64.148438 31.316406 C 64.394531 31.253906 64.410156 31.253906 64.371094 31.351562 M 86.726562 31.667969 C 87.753906 31.789062 88.097656 32.125 88.035156 32.953125 C 88.007812 33.34375 88.003906 33.351562 87.796875 33.566406 C 87.152344 34.234375 86.859375 34.671875 86.28125 35.824219 C 86.070312 36.246094 85.773438 36.828125 85.617188 37.113281 C 85.171875 37.945312 85.09375 38.109375 85.050781 38.34375 C 84.976562 38.753906 85.289062 38.816406 85.734375 38.488281 C 86.546875 37.886719 87.414062 36.414062 87.980469 34.671875 C 88.089844 34.339844 88.257812 33.710938 88.257812 33.636719 C 88.257812 33.5625 88.84375 33.085938 89.199219 32.871094 C 89.875 32.464844 90.304688 32.398438 91.332031 32.550781 C 91.664062 32.601562 92.0625 32.644531 92.21875 32.65625 L 92.5 32.667969 L 92.101562 33.011719 C 90.90625 34.035156 90.40625 34.640625 89.542969 36.089844 C 89.292969 36.507812 88.921875 37.125 88.714844 37.464844 C 88.113281 38.449219 87.53125 39.527344 87.503906 39.71875 C 87.476562 39.871094 87.570312 39.953125 87.726562 39.917969 C 87.800781 39.902344 88.058594 39.554688 88.640625 38.703125 C 90.246094 36.34375 90.402344 36.132812 91.269531 35.183594 C 91.769531 34.640625 91.984375 34.390625 92.355469 33.949219 C 92.773438 33.445312 92.816406 33.425781 93.078125 33.597656 C 93.265625 33.722656 93.257812 33.738281 92.1875 34.871094 C 91.316406 35.792969 90.832031 36.355469 89.910156 37.519531 C 89.421875 38.132812 89.179688 38.417969 88.652344 39 C 88.140625 39.5625 88.042969 39.683594 87.800781 40.042969 C 87.6875 40.207031 87.585938 40.351562 87.578125 40.363281 C 87.570312 40.371094 87.546875 40.347656 87.527344 40.3125 C 87.417969 40.097656 87.039062 39.789062 86.710938 39.648438 C 86.144531 39.402344 85.707031 39.367188 84.75 39.492188 C 83.816406 39.613281 82.136719 39.859375 81.984375 39.898438 C 81.910156 39.917969 81.9375 39.882812 82.167969 39.679688 C 82.488281 39.394531 82.714844 39.269531 83.265625 39.0625 C 84.007812 38.785156 84.132812 38.683594 84.09375 38.40625 C 84.078125 38.296875 84.023438 38.269531 83.617188 38.164062 C 83.121094 38.039062 82.878906 38.09375 81.992188 38.542969 C 81.652344 38.710938 81.277344 38.894531 81.152344 38.941406 L 80.929688 39.03125 L 80.746094 38.941406 C 80.523438 38.832031 80.519531 38.875 80.769531 38.523438 C 81.472656 37.539062 81.765625 36.992188 82.449219 35.417969 C 82.917969 34.328125 83.25 33.757812 84.058594 32.636719 C 84.5625 31.933594 84.726562 31.792969 85.132812 31.710938 C 85.53125 31.628906 86.238281 31.609375 86.726562 31.667969 M 66.292969 31.804688 C 67.558594 32.605469 69.742188 35.179688 70.371094 36.617188 C 70.6875 37.339844 70.820312 38.222656 70.644531 38.417969 C 70.539062 38.535156 70.261719 38.195312 69.996094 37.613281 C 69.75 37.078125 69.714844 37.019531 69.628906 36.976562 C 69.335938 36.839844 69.21875 37.125 69.246094 37.914062 C 69.277344 38.84375 69.507812 39.402344 70.191406 40.183594 C 70.671875 40.734375 70.832031 40.945312 70.980469 41.21875 C 71.109375 41.460938 71.183594 41.839844 71.097656 41.8125 C 70.988281 41.78125 70.914062 41.738281 70.914062 41.71875 C 70.914062 41.703125 70.871094 41.675781 70.816406 41.652344 C 70.222656 41.386719 69.039062 40.554688 68.488281 40.011719 C 67.671875 39.210938 67.589844 38.972656 67.5625 37.292969 C 67.542969 36.25 67.539062 36.179688 67.425781 35.84375 C 67.328125 35.554688 67.117188 35.160156 66.808594 34.703125 C 66.371094 34.058594 66.289062 33.925781 66.160156 33.667969 C 65.742188 32.851562 65.707031 32.46875 65.996094 31.910156 C 66.058594 31.792969 66.109375 31.699219 66.113281 31.699219 C 66.117188 31.699219 66.199219 31.746094 66.292969 31.804688 M 87.714844 34.453125 C 87.3125 35.703125 86.710938 36.902344 86.152344 37.574219 C 85.914062 37.859375 85.394531 38.355469 85.394531 38.296875 C 85.394531 38.261719 85.582031 37.886719 85.84375 37.402344 C 86.003906 37.109375 86.300781 36.53125 86.503906 36.121094 C 87.007812 35.113281 87.210938 34.777344 87.628906 34.273438 C 87.863281 33.992188 87.863281 33.992188 87.714844 34.453125 M 76.832031 37.476562 C 77.507812 37.648438 78.066406 38.101562 78.429688 38.777344 C 78.671875 39.230469 78.765625 39.324219 79.058594 39.425781 C 79.425781 39.546875 80.132812 39.558594 80.589844 39.449219 L 80.820312 39.394531 L 81.0625 39.628906 C 81.195312 39.761719 81.347656 39.894531 81.402344 39.929688 C 81.464844 39.964844 81.488281 39.992188 81.46875 40 C 81.453125 40.003906 81.210938 40.054688 80.933594 40.109375 C 80.332031 40.226562 79.941406 40.316406 79.355469 40.476562 L 78.921875 40.59375 L 78.71875 40.542969 C 78.300781 40.445312 77.351562 40.464844 76.59375 40.589844 C 75.9375 40.699219 74.699219 41.007812 73.914062 41.261719 C 72.976562 41.5625 72.496094 41.464844 72.214844 40.917969 C 71.902344 40.316406 72.21875 39.832031 73.597656 38.8125 C 75.195312 37.628906 76.042969 37.28125 76.832031 37.476562 M 83.402344 38.445312 C 83.765625 38.515625 83.746094 38.539062 83.09375 38.78125 C 82.464844 39.015625 82.207031 39.164062 81.859375 39.492188 C 81.628906 39.707031 81.652344 39.710938 81.398438 39.472656 C 81.183594 39.269531 81.183594 39.277344 81.410156 39.191406 C 81.496094 39.15625 81.828125 39 82.140625 38.839844 C 82.996094 38.40625 83.066406 38.382812 83.402344 38.445312 M 87.421875 41.390625 C 87.351562 41.859375 86.980469 42.320312 86.511719 42.523438 L 86.453125 42.550781 L 86.523438 42.449219 C 86.558594 42.390625 86.75 42.132812 86.945312 41.867188 C 87.136719 41.601562 87.328125 41.339844 87.367188 41.285156 C 87.453125 41.152344 87.457031 41.160156 87.421875 41.390625 M 85.160156 42.921875 C 85.4375 42.941406 85.679688 42.957031 85.699219 42.960938 C 85.730469 42.964844 85.695312 43.015625 85.535156 43.179688 C 84.65625 44.113281 83.609375 44.40625 83.128906 43.859375 C 82.734375 43.410156 83.449219 42.914062 84.515625 42.894531 C 84.597656 42.890625 84.886719 42.90625 85.160156 42.921875 M 54.964844 45.234375 C 55.074219 45.246094 55.1875 45.269531 55.21875 45.285156 L 55.273438 45.308594 L 55.289062 45.8125 C 55.300781 46.339844 55.308594 46.421875 55.371094 46.875 C 55.421875 47.214844 55.425781 47.207031 55.195312 47.238281 C 54.566406 47.320312 53.785156 47.410156 53.640625 47.414062 C 53.460938 47.414062 53.398438 47.433594 53.398438 47.484375 C 53.398438 47.511719 53.351562 47.515625 53.128906 47.515625 C 52.6875 47.515625 51.945312 47.554688 51.308594 47.613281 C 49.65625 47.757812 49.128906 47.785156 49.054688 47.730469 C 48.871094 47.59375 47.695312 47.304688 46.878906 47.199219 C 46.234375 47.113281 44.332031 47.078125 44.113281 47.144531 C 44.054688 47.164062 44.050781 47.1875 44.132812 46.855469 C 44.234375 46.421875 44.191406 45.960938 44.007812 45.566406 C 43.945312 45.4375 43.929688 45.382812 43.953125 45.382812 C 43.96875 45.382812 44.183594 45.414062 44.433594 45.445312 C 44.925781 45.515625 45.550781 45.582031 46.113281 45.625 C 46.609375 45.660156 49.050781 45.660156 49.570312 45.621094 C 50.238281 45.574219 51.1875 45.480469 52.050781 45.375 C 53.210938 45.234375 54.402344 45.175781 54.964844 45.234375 M 77.429688 45.773438 C 77.804688 45.949219 77.996094 46.300781 78.324219 47.457031 C 78.574219 48.335938 78.726562 48.671875 79.152344 49.324219 C 79.265625 49.492188 79.351562 49.632812 79.347656 49.636719 C 79.28125 49.6875 78.660156 50.039062 78.464844 50.136719 C 78.15625 50.292969 78.089844 50.15625 77.921875 49.0625 C 77.773438 48.082031 77.582031 47.484375 77.265625 46.996094 C 76.789062 46.257812 76.394531 46.332031 75.585938 47.316406 C 74.242188 48.949219 73.257812 50.410156 72.96875 51.203125 L 72.894531 51.398438 L 72.667969 51.558594 C 71.882812 52.101562 71.410156 52.605469 70.667969 53.6875 C 69.121094 55.941406 68.136719 56.683594 66.273438 57 C 65.9375 57.058594 65.9375 57.058594 66.136719 56.914062 C 66.835938 56.410156 67.402344 55.566406 68.242188 53.792969 C 68.949219 52.292969 69.09375 52.074219 69.96875 51.152344 C 70.664062 50.421875 70.796875 50.277344 71.34375 49.648438 C 72.535156 48.28125 73.328125 47.636719 75.152344 46.566406 C 76.457031 45.796875 77.039062 45.59375 77.429688 45.773438 M 76.792969 46.9375 C 77.15625 47.273438 77.445312 48.054688 77.613281 49.152344 C 77.652344 49.390625 77.703125 49.679688 77.730469 49.800781 C 77.789062 50.0625 77.800781 50.042969 77.609375 50.007812 C 77.398438 49.96875 76.453125 49.96875 76.234375 50.007812 C 75.566406 50.125 74.648438 50.457031 73.800781 50.886719 L 73.351562 51.113281 L 73.449219 50.929688 C 74.144531 49.640625 76.101562 47.070312 76.558594 46.847656 C 76.636719 46.8125 76.671875 46.824219 76.792969 46.9375 M 83.390625 47.152344 C 83.253906 47.210938 83.269531 47.546875 83.433594 48.160156 C 83.78125 49.476562 84.203125 50.15625 85.585938 51.597656 C 86.480469 52.535156 86.925781 53.054688 87.054688 53.308594 C 87.207031 53.617188 87.09375 53.816406 86.5 54.304688 C 85.730469 54.933594 85.550781 55.527344 85.960938 56.066406 C 86.394531 56.636719 87 56.496094 88.066406 55.585938 C 88.851562 54.914062 89.210938 54.914062 91.671875 55.605469 C 92.347656 55.796875 93.234375 56.054688 93.421875 56.117188 C 94.171875 56.367188 95.296875 56.585938 95.472656 56.515625 C 95.679688 56.433594 95.519531 56.121094 95 55.59375 C 94.390625 54.972656 94.027344 54.789062 92.78125 54.464844 C 91.65625 54.171875 91.359375 53.957031 90.691406 52.949219 C 90.214844 52.230469 89.625 51.527344 89.425781 51.445312 C 89.214844 51.355469 89.105469 51.472656 89.175781 51.703125 C 89.308594 52.128906 89.058594 52.300781 88.640625 52.074219 C 87.914062 51.683594 87.105469 50.90625 86.085938 49.617188 C 85.378906 48.722656 85.230469 48.546875 84.9375 48.242188 C 84.582031 47.871094 84.242188 47.578125 83.984375 47.410156 C 83.878906 47.339844 83.765625 47.253906 83.726562 47.214844 C 83.65625 47.140625 83.484375 47.109375 83.390625 47.152344 M 84.015625 47.84375 C 84.464844 48.207031 84.921875 48.707031 85.65625 49.628906 C 86.890625 51.1875 87.699219 51.976562 88.460938 52.359375 C 88.964844 52.617188 89.386719 52.523438 89.5 52.132812 L 89.535156 52.003906 L 89.621094 52.101562 C 89.882812 52.398438 90.1875 52.804688 90.453125 53.207031 C 91.136719 54.242188 91.445312 54.453125 92.804688 54.808594 C 93.726562 55.046875 94.023438 55.183594 94.515625 55.605469 C 94.679688 55.746094 95.074219 56.167969 95.0625 56.183594 C 95.054688 56.191406 94.410156 56.054688 94.109375 55.984375 C 94.011719 55.957031 93.746094 55.878906 93.515625 55.808594 C 93.167969 55.699219 92.820312 55.59375 92.328125 55.457031 C 90.003906 54.804688 89.960938 54.796875 89.277344 54.796875 C 88.546875 54.796875 88.363281 54.867188 87.722656 55.417969 C 86.898438 56.121094 86.582031 56.222656 86.257812 55.875 C 85.910156 55.5 86.039062 55.136719 86.71875 54.574219 C 87.261719 54.125 87.414062 53.910156 87.425781 53.578125 C 87.449219 53.121094 87.273438 52.875 85.894531 51.417969 C 84.800781 50.261719 84.464844 49.828125 84.132812 49.148438 C 83.929688 48.730469 83.6875 47.996094 83.644531 47.65625 L 83.628906 47.550781 L 83.742188 47.632812 C 83.804688 47.675781 83.929688 47.773438 84.015625 47.84375 M 54.765625 47.886719 C 55.4375 47.964844 55.699219 48.046875 55.914062 48.246094 C 56.234375 48.542969 56.140625 48.875 55.660156 49.125 C 55.421875 49.253906 55.199219 49.308594 53.949219 49.5625 C 53.300781 49.695312 52.730469 49.820312 52.402344 49.902344 C 52.171875 49.960938 52.117188 49.96875 51.53125 49.988281 C 50.941406 50.007812 50.089844 50.058594 49.6875 50.09375 C 49.585938 50.101562 49.476562 50.101562 49.441406 50.089844 C 49.386719 50.074219 48.050781 49.921875 47.703125 49.894531 C 47.085938 49.839844 45.933594 49.773438 45.472656 49.761719 C 44.917969 49.75 44.914062 49.746094 44.925781 49.703125 C 45.078125 49.246094 45.054688 48.773438 44.871094 48.371094 C 44.824219 48.273438 44.789062 48.191406 44.792969 48.1875 C 44.800781 48.179688 46.429688 48.136719 47.523438 48.113281 C 49.527344 48.070312 50.0625 48.042969 51.40625 47.921875 C 52.222656 47.847656 52.40625 47.839844 53.449219 47.847656 C 54.222656 47.851562 54.539062 47.859375 54.765625 47.886719 M 58.8125 50.105469 C 60.234375 50.355469 61.457031 51.96875 61.949219 54.242188 C 62.238281 55.574219 62.066406 55.933594 60.921875 56.371094 L 60.71875 56.449219 L 60.546875 56.34375 C 59.046875 55.398438 57.890625 53.792969 57.542969 52.175781 C 57.253906 50.828125 57.804688 49.929688 58.8125 50.105469 M 77.335938 50.296875 C 77.695312 50.339844 77.875 50.386719 77.964844 50.460938 C 78.046875 50.523438 78.15625 50.5625 78.257812 50.5625 C 78.390625 50.566406 79.078125 51.070312 79.417969 51.417969 C 79.867188 51.878906 80.03125 52.136719 80.191406 52.625 C 80.3125 52.984375 80.316406 52.972656 80.078125 52.902344 C 79.570312 52.75 78.917969 52.601562 77.996094 52.429688 C 77.882812 52.410156 77.554688 52.347656 77.261719 52.289062 C 75.890625 52.019531 75.5 52.058594 74.257812 52.589844 C 73.8125 52.78125 73.53125 52.917969 73.335938 53.035156 L 73.226562 53.097656 L 73.152344 53.015625 C 72.980469 52.824219 72.96875 52.308594 73.128906 51.746094 C 73.210938 51.46875 74.992188 50.625 76.011719 50.382812 C 76.488281 50.269531 76.902344 50.242188 77.335938 50.296875 M 56.308594 51.289062 C 56.300781 52.589844 56.273438 52.851562 56.132812 53.195312 L 56.0625 53.363281 L 55.953125 53.347656 C 55.890625 53.339844 55.640625 53.296875 55.398438 53.25 C 54.136719 53.011719 53.65625 52.972656 51.511719 52.953125 C 49.128906 52.929688 48.683594 52.945312 47.386719 53.101562 C 46.105469 53.253906 45.636719 53.277344 44.546875 53.242188 L 43.953125 53.222656 L 44.121094 53.074219 C 44.847656 52.425781 45.167969 51.824219 45.207031 51.039062 L 45.21875 50.800781 L 45.445312 50.796875 C 45.71875 50.796875 46.246094 50.753906 46.824219 50.683594 C 47.742188 50.570312 49.9375 50.378906 50.851562 50.328125 C 51.503906 50.296875 51.417969 50.296875 53.953125 50.296875 L 56.320312 50.296875 L 56.308594 51.289062 M 74.757812 53.492188 C 75.15625 53.675781 75.285156 53.949219 75.460938 54.984375 C 75.589844 55.738281 75.65625 55.863281 75.898438 55.789062 C 76.003906 55.757812 76.066406 55.625 76.203125 55.160156 C 76.4375 54.339844 76.59375 53.992188 76.804688 53.800781 C 76.917969 53.695312 76.988281 53.6875 77.332031 53.726562 C 77.492188 53.746094 77.828125 53.785156 78.078125 53.816406 C 78.332031 53.847656 78.699219 53.894531 78.894531 53.925781 C 79.09375 53.953125 79.578125 54.023438 79.96875 54.082031 C 80.980469 54.230469 81.242188 54.320312 81.546875 54.625 C 81.789062 54.863281 81.832031 55.015625 81.71875 55.222656 C 81.207031 56.171875 79.03125 56.714844 76.191406 56.597656 C 75.859375 56.585938 75.246094 56.5625 74.824219 56.542969 C 72.863281 56.464844 72.371094 56.351562 72.113281 55.90625 C 71.808594 55.386719 72.316406 54.1875 73.089844 53.605469 L 73.269531 53.46875 L 73.472656 53.476562 C 73.585938 53.480469 73.804688 53.472656 73.957031 53.453125 C 74.347656 53.410156 74.609375 53.421875 74.757812 53.492188 M 53.054688 55.097656 C 53.011719 55.105469 52.933594 55.105469 52.882812 55.097656 C 52.835938 55.09375 52.871094 55.089844 52.964844 55.089844 C 53.054688 55.089844 53.097656 55.09375 53.054688 55.097656 M 48.519531 56.746094 C 48.78125 56.757812 49.230469 56.78125 49.515625 56.800781 C 50.933594 56.886719 51.988281 56.941406 52.613281 56.960938 C 53.96875 57.003906 53.632812 57.027344 51.042969 57.066406 C 48.664062 57.101562 46.035156 57.152344 45.382812 57.171875 C 45.039062 57.183594 44.488281 57.191406 44.164062 57.191406 L 43.570312 57.191406 L 43.800781 57.128906 C 45.035156 56.800781 46.71875 56.664062 48.519531 56.746094 " fill-opacity="1" fill-rule="evenodd"/></g></svg>