<svg xmlns="http://www.w3.org/2000/svg" xmlns:xlink="http://www.w3.org/1999/xlink" width="1920" zoomAndPan="magnify" viewBox="0 0 1440 809.999993" height="1080" preserveAspectRatio="xMidYMid meet" version="1.0"><path fill="#000000" d="M 750.816406 463.136719 C 751.957031 476.53125 745.109375 489.074219 736.835938 498.476562 C 719.429688 518.714844 698.601562 532.964844 669.496094 528.972656 C 655.800781 526.980469 642.675781 522.988281 635.253906 512.160156 C 624.699219 496.199219 626.125 471.117188 638.679688 457.71875 C 655.515625 439.765625 676.914062 444.324219 690.324219 458.289062 C 698.601562 466.839844 699.171875 482.230469 691.179688 489.355469 C 678.910156 500.1875 666.929688 495.34375 656.941406 485.9375 C 653.515625 482.800781 653.230469 477.671875 656.085938 474.25 C 658.652344 470.546875 663.21875 468.835938 667.5 469.691406 C 670.351562 470.546875 672.632812 472.542969 669.210938 475.675781 C 666.929688 477.671875 664.644531 480.523438 667.214844 482.800781 C 669.496094 484.226562 672.632812 484.796875 675.203125 483.941406 C 681.195312 482.515625 686.046875 479.382812 685.761719 472.257812 C 685.472656 463.992188 679.769531 457.152344 672.0625 454.871094 C 654.660156 450.59375 640.105469 461.996094 637.824219 479.953125 C 634.113281 510.164062 655.230469 520.140625 681.195312 519 C 702.59375 517.859375 718.003906 504.179688 730.273438 487.363281 C 741.398438 471.6875 739.972656 455.726562 735.40625 438.054688 C 724.28125 399.292969 673.207031 368.511719 632.117188 359.960938 C 582.753906 351.695312 524.832031 356.539062 478.320312 374.78125 C 453.210938 384.1875 428.671875 395.300781 404.992188 408.128906 C 400.710938 410.40625 313.398438 467.410156 269.742188 489.355469 C 240.921875 503.609375 210.964844 515.007812 180.148438 523.84375 C 144.195312 533.820312 107.671875 530.113281 71.433594 521.277344 C 55.171875 517.289062 39.761719 512.160156 26.636719 501.042969 C 17.792969 493.347656 10.660156 484.796875 8.089844 472.828125 C 2.953125 448.886719 19.21875 434.632812 38.621094 427.792969 C 59.449219 420.382812 79.710938 424.089844 97.972656 437.199219 C 107.101562 443.753906 111.667969 452.304688 109.382812 463.136719 C 107.101562 473.394531 98.828125 478.527344 89.410156 480.523438 C 77.996094 482.800781 66.300781 483.085938 58.308594 471.6875 C 56.027344 468.550781 54.886719 465.132812 57.738281 461.996094 C 61.164062 458.289062 64.300781 460.285156 66.300781 463.707031 C 71.148438 471.972656 78.28125 473.394531 86.84375 471.117188 C 92.265625 469.691406 98.257812 468.265625 99.683594 461.140625 C 101.109375 454.585938 98.828125 447.746094 93.691406 443.753906 C 87.414062 438.910156 79.710938 435.773438 72.003906 434.917969 C 56.597656 432.070312 41.761719 434.632812 29.207031 444.894531 C 16.652344 454.871094 14.9375 469.40625 24.355469 483.371094 C 31.488281 493.917969 41.191406 502.46875 52.601562 505.601562 C 77.996094 512.730469 102.535156 520.996094 129.929688 520.996094 C 164.167969 520.996094 193.558594 511.019531 223.804688 499.046875 C 241.207031 492.207031 257.472656 483.085938 274.878906 475.960938 C 300.273438 465.699219 380.738281 409.269531 389.296875 404.136719 C 446.363281 370.503906 506.855469 346.847656 573.910156 344.570312 C 611.574219 343.144531 648.953125 350.554688 682.90625 366.515625 C 702.023438 375.351562 718.003906 389.316406 731.414062 404.992188 C 745.394531 421.238281 748.820312 442.328125 750.816406 463.136719 Z M 1421.636719 431.785156 C 1408.511719 420.953125 1382.546875 419.8125 1371.417969 429.789062 C 1364.855469 436.628906 1362.574219 446.605469 1366.28125 455.441406 C 1369.136719 461.710938 1377.980469 465.414062 1386.828125 463.992188 C 1388.253906 463.421875 1389.109375 462.566406 1389.394531 461.140625 C 1389.679688 459.714844 1389.394531 458.289062 1388.539062 457.433594 C 1386.828125 456.296875 1384.828125 455.15625 1383.117188 454.300781 C 1373.988281 448.316406 1373.414062 440.335938 1381.40625 434.0625 C 1390.25 427.507812 1404.230469 428.363281 1413.363281 436.058594 C 1422.777344 443.46875 1425.0625 454.015625 1419.925781 464.847656 C 1415.074219 474.535156 1406.800781 482.230469 1396.527344 485.9375 C 1356.867188 502.46875 1316.0625 507.597656 1274.121094 497.335938 C 1236.457031 488.21875 1199.933594 474.820312 1165.40625 457.152344 C 1136.875 442.328125 1039.859375 398.4375 1021.027344 389.886719 C 982.507812 373.070312 943.988281 361.957031 905.46875 360.816406 C 851.824219 359.390625 820.152344 372.5 791.90625 396.441406 C 759.945312 424.089844 748.25 458.003906 765.9375 498.476562 C 773.070312 515.578125 791.90625 533.25 811.59375 534.675781 C 834.132812 536.101562 850.683594 535.246094 866.945312 517.003906 C 877.503906 505.316406 878.359375 481.945312 869.800781 469.976562 C 857.246094 452.019531 830.710938 446.320312 809.878906 452.304688 C 800.464844 455.15625 791.90625 460.285156 791.046875 470.832031 C 790.191406 482.515625 794.1875 493.632812 804.746094 500.472656 C 815.300781 507.3125 825.574219 504.464844 835.273438 499.617188 C 842.695312 495.914062 843.835938 489.074219 839.839844 481.375 C 835.847656 473.679688 830.140625 471.117188 822.148438 473.964844 C 820.152344 474.820312 818.726562 477.386719 820.722656 478.8125 C 823.578125 480.808594 827.285156 481.375 830.425781 483.085938 C 830.710938 483.371094 831.28125 483.65625 831.566406 483.941406 C 833.5625 485.652344 833.5625 488.503906 831.851562 490.496094 C 826.714844 497.054688 816.15625 497.335938 808.738281 490.78125 C 801.320312 484.226562 799.039062 471.117188 804.746094 465.699219 C 806.457031 464.277344 808.453125 463.136719 810.449219 462.851562 C 821.863281 461.140625 833.277344 459.714844 844.691406 462.851562 C 865.519531 468.835938 872.9375 492.777344 859.242188 508.738281 C 836.988281 534.105469 791.617188 527.550781 777.351562 496.769531 C 755.382812 457.71875 785.339844 383.332031 877.789062 374.78125 C 957.96875 367.371094 1066.964844 422.949219 1117.183594 448.03125 C 1165.976562 472.542969 1215.054688 494.773438 1268.699219 507.597656 C 1297.230469 514.722656 1326.90625 515.292969 1355.726562 509.308594 C 1369.707031 506.171875 1383.402344 501.898438 1397.382812 497.90625 C 1410.222656 494.488281 1421.066406 486.507812 1428.199219 475.675781 C 1437.046875 460.570312 1436.472656 443.753906 1421.636719 431.785156 Z M 690.609375 313.21875 C 690.894531 310.652344 693.464844 308.941406 696.03125 309.226562 C 696.316406 309.226562 696.886719 309.511719 697.171875 309.511719 C 700.597656 310.367188 703.734375 312.078125 706.589844 314.074219 C 722.28125 328.039062 734.265625 344.570312 739.6875 365.375 C 740.257812 367.65625 740.542969 369.933594 740.828125 372.214844 C 740.828125 379.910156 737.121094 383.617188 731.414062 382.191406 C 703.449219 375.351562 684.902344 339.4375 690.609375 313.21875 Z M 700.027344 330.886719 C 702.308594 346.847656 710.011719 359.105469 724.566406 366.515625 C 725.707031 367.085938 727.132812 367.085938 728.273438 366.515625 C 729.988281 365.089844 730.273438 362.523438 729.128906 360.53125 C 723.710938 348.84375 716.289062 338.015625 707.160156 328.894531 C 706.019531 328.039062 704.878906 327.46875 703.449219 326.898438 C 702.023438 326.613281 700.3125 327.46875 700.027344 328.894531 C 699.742188 329.75 699.742188 330.316406 700.027344 330.886719 Z M 752.8125 357.394531 C 745.964844 356.539062 741.972656 350.269531 740.257812 344 C 739.117188 337.730469 738.261719 331.457031 737.691406 324.902344 C 737.691406 312.363281 741.683594 300.960938 745.679688 289.5625 C 747.960938 284.429688 751.671875 279.871094 756.238281 276.449219 C 759.375 273.601562 762.800781 273.886719 765.367188 277.304688 C 780.492188 298.679688 778.492188 321.769531 770.789062 344.855469 C 770.503906 345.425781 770.21875 345.996094 769.648438 346.5625 C 765.652344 353.121094 760.515625 358.535156 752.8125 357.394531 Z M 758.519531 344.855469 C 770.21875 332.882812 771.929688 307.800781 762.515625 293.265625 C 761.089844 290.984375 758.234375 290.414062 756.238281 291.554688 C 755.382812 292.125 754.523438 292.980469 754.238281 294.121094 C 749.675781 303.527344 747.105469 313.789062 747.105469 324.046875 C 747.960938 329.464844 747.105469 336.875 750.53125 343.429688 C 752.8125 348.558594 755.953125 347.703125 758.519531 344.855469 Z M 772.5 364.519531 C 775.640625 343.429688 791.617188 318.0625 822.433594 317.207031 C 828.710938 316.351562 831.851562 318.917969 831.566406 325.472656 C 831.28125 335.734375 829.570312 345.140625 822.433594 353.121094 C 812.734375 363.664062 803.886719 374.78125 789.050781 378.484375 C 777.066406 381.335938 770.503906 376.207031 772.5 364.519531 Z M 788.195312 368.226562 C 803.316406 361.671875 815.300781 349.414062 821.863281 334.308594 C 822.148438 333.738281 822.148438 332.882812 822.148438 332.3125 C 822.148438 329.179688 818.441406 327.183594 813.875 328.039062 C 800.179688 330.886719 784.484375 347.988281 781.917969 362.238281 C 781.347656 366.230469 784.769531 369.933594 788.195312 368.226562 Z M 788.195312 368.226562 " fill-opacity="1" fill-rule="nonzero"/></svg>