<svg xmlns="http://www.w3.org/2000/svg" xmlns:xlink="http://www.w3.org/1999/xlink" width="200" zoomAndPan="magnify" viewBox="0 0 150 74.999997" height="100" preserveAspectRatio="xMidYMid meet" version="1.0"><defs><clipPath id="69e4a1bf53"><path d="M 0 33 L 150 33 L 150 75 L 0 75 Z M 0 33 " clip-rule="nonzero"/></clipPath><clipPath id="be2e6d81d7"><path d="M 171.296875 155.699219 L 0.421875 173.011719 L -13.265625 37.953125 L 157.609375 20.640625 Z M 171.296875 155.699219 " clip-rule="nonzero"/></clipPath><clipPath id="0f2483b6df"><path d="M 171.296875 155.699219 L 0.421875 173.011719 L -13.265625 37.953125 L 157.609375 20.640625 Z M 171.296875 155.699219 " clip-rule="nonzero"/></clipPath></defs><g clip-path="url(#69e4a1bf53)"><g clip-path="url(#be2e6d81d7)"><g clip-path="url(#0f2483b6df)"><path fill="#dbdbdb" d="M 146.210938 120.152344 C 159.824219 98.929688 162.050781 64.605469 138.574219 44.777344 C 115.097656 24.949219 80.707031 37.15625 55.414062 35.757812 C 30.121094 34.355469 -0.578125 37.46875 -3.359375 72.644531 C -6.167969 107.820312 9.675781 114.941406 54.671875 134.984375 C 99.667969 155.03125 120.09375 160.886719 146.210938 120.152344 Z M 146.210938 120.152344 " fill-opacity="1" fill-rule="nonzero"/></g></g></g></svg>